<!--Generator: Adobe Illustrator 28.0.0, SVG Export Plug-In . SVG Version: 6.00 Build 0)--><svg version="1.1" id="圖層_1" x="0px" y="0px" viewBox="0 0 1200 1200" enable-background="new 0 0 1200 1200" xml:space="preserve"><path d="M900,600c0,80.132812-31.205566,155.469727-87.868164,212.131836C755.469727,868.794922,680.132812,900,600,900
	s-155.469727-31.205078-212.131836-87.868164C331.205566,755.469727,300,680.132812,300,600
	s31.205566-155.469727,87.868164-212.131836C444.530273,331.205078,519.867188,300,600,300
	c71.626465,0,154.812012,33.041992,211.923828,84.178711c20.573242,18.419922,22.318359,50.030273,3.897949,70.602539
	c-9.874512,11.02832-23.544434,16.646484-37.267578,16.647461c-11.875977,0.001953-23.791504-4.204102-33.335449-12.75
	C706.631836,424.129883,646.915527,400,600,400c-110.280273,0-200,89.719727-200,200s89.719727,200,200,200
	c93.021973,0,171.415039-63.834961,193.672852-150H650c-27.614258,0-50-22.385742-50-50s22.385742-50,50-50h200
	C877.614258,550,900,572.385742,900,600z M1150,215.384766v769.230469C1150,1075.808594,1075.808594,1150,984.615234,1150
	H215.384766C124.191406,1150,50,1075.808594,50,984.615234V215.384766C50,124.191406,124.191406,50,215.384766,50h769.230469
	C1075.808594,50,1150,124.191406,1150,215.384766z M1050,215.384766C1050,179.331055,1020.668457,150,984.615234,150H215.384766
	C179.331543,150,150,179.331055,150,215.384766v769.230469C150,1020.668945,179.331543,1050,215.384766,1050h769.230469
	C1020.668457,1050,1050,1020.668945,1050,984.615234V215.384766z"/></svg>