<!--Generator: Adobe Illustrator 28.0.0, SVG Export Plug-In . SVG Version: 6.00 Build 0)--><svg version="1.1" id="圖層_1" x="0px" y="0px" viewBox="0 0 1200 1200" enable-background="new 0 0 1200 1200" xml:space="preserve"><path d="M1066.666504,300H950V133.333008C950,87.382812,912.616699,50,866.666504,50H333.333496
	C287.383301,50,250,87.382812,250,133.333008V300H133.333496C87.383301,300,50,336.848633,50,382.142578v385.714844
	C50,813.151367,87.383301,850,133.333496,850H250v247.171875C250,1126.301758,273.69873,1150,302.828613,1150h594.342773
	C926.30127,1150,950,1126.301758,950,1097.171875V850h116.666504C1112.616699,850,1150,813.151367,1150,767.857422V382.142578
	C1150,336.848633,1112.616699,300,1066.666504,300z M350,150h500v150H350V150z M850,799.749023
	c-0.000488,0.083984-0.006348,0.166992-0.006348,0.250977s0.005859,0.166992,0.006348,0.250977V1050H350V700h500V799.749023z
	 M1050,750H950V650c0-27.614258-22.385742-50-50-50H300c-27.614258,0-50,22.385742-50,50v100H150V400h900V750z M400,800
	c0-27.614258,22.385742-50,50-50h300c27.614258,0,50,22.385742,50,50s-22.385742,50-50,50H450
	C422.385742,850,400,827.614258,400,800z M750,500c0-27.614258,22.385742-50,50-50h100c27.614258,0,50,22.385742,50,50
	s-22.385742,50-50,50H800C772.385742,550,750,527.614258,750,500z M400,950c0-27.614258,22.385742-50,50-50h100
	c27.614258,0,50,22.385742,50,50s-22.385742,50-50,50H450C422.385742,1000,400,977.614258,400,950z"/></svg>