<!--Generator: Adobe Illustrator 28.0.0, SVG Export Plug-In . SVG Version: 6.00 Build 0)--><svg version="1.1" id="圖層_1" x="0px" y="0px" viewBox="0 0 1200 1200" enable-background="new 0 0 1200 1200" xml:space="preserve"><path d="M600,1200c-3.28418,0-6.569336-0.32373-9.805664-0.971069c-66.914062-13.382935-132.011719-40.702393-193.482422-81.199951
	c-57.56543-37.923706-109.561523-85.73584-154.543945-142.10791c-44.178711-55.363647-79.053711-115.752441-103.657227-179.488403
	C112.957031,730.03418,100,664.011841,100,600V150c0-27.614197,22.385742-50,50-50
	c67.334961,0,174.357422-8.173157,301.832031-47.110291C528.816406,29.375,577.211914,5.490784,577.692383,5.25238
	c14.113281-7.056274,30.570312-7.064636,44.667969,0.026306c0.427734,0.212097,48.823242,24.096313,125.807617,47.611023
	C818.52832,74.381287,928.007812,100,1050,100c27.614258,0,50,22.385803,50,50v450
	c0,64.011841-12.957031,130.03418-38.510742,196.232666c-24.603516,63.735962-59.478516,124.124756-103.657227,179.488403
	c-44.982422,56.37207-96.978516,104.184204-154.543945,142.10791c-61.470703,40.497559-126.568359,67.817017-193.482422,81.199951
	C606.569336,1199.67627,603.28418,1200,600,1200z M200,198.734253V600c0,103.302368,43.859375,217.513672,120.332031,313.348633
	c38.415039,48.141357,82.62207,88.842651,131.393555,120.973511c47.608398,31.364502,97.443359,53.056885,148.274414,64.55896
	c50.831055-11.502075,100.666016-33.194458,148.274414-64.55896c48.771484-32.130859,92.978516-72.832153,131.393555-120.973511
	C956.140625,817.513672,1000,703.302368,1000,600V198.734253c-114.84668-5.757935-215.71582-30.102722-283.454102-50.945312
	C663.640625,131.510498,623.260742,115.178284,600,105.010071c-23.260742,10.168213-63.640625,26.500427-116.545898,42.77887
	C415.71582,168.631531,314.84668,192.976318,200,198.734253z M650,650V300c0-27.614136-22.385742-50-50-50s-50,22.385864-50,50v350
	c0,27.614136,22.385742,50,50,50S650,677.614136,650,650z M650,900v-50c0-27.614258-22.385742-50-50-50s-50,22.385742-50,50v50
	c0,27.614258,22.385742,50,50,50S650,927.614258,650,900z"/></svg>