<!--Generator: Adobe Illustrator 28.0.0, SVG Export Plug-In . SVG Version: 6.00 Build 0)--><svg version="1.1" id="圖層_1" x="0px" y="0px" viewBox="0 0 1200 1200" enable-background="new 0 0 1200 1200" xml:space="preserve"><path d="M1128.65918,591.341553l-519.375-519.375c-14.165527-14.165466-32.999512-21.96698-53.032715-21.96698H125
	c-41.35498,0-75,33.64502-75,75v431.25177c0,20.033203,7.80127,38.867432,21.966797,53.032959l519.374512,519.374756
	c14.621582,14.621338,33.827148,21.932129,53.033203,21.932129s38.411621-7.310791,53.033203-21.932129l431.251465-431.251465
	c14.165527-14.165527,21.966797-32.999756,21.966797-53.032959C1150.625977,624.341064,1142.824707,605.50708,1128.65918,591.341553
	z M644.374512,1040.270996L150,545.896118V149.999573h395.895996l494.374512,494.374939L644.374512,1040.270996z M250,425
	c0,96.495239,78.504395,174.999878,175,174.999878S600,521.495239,600,425c0-96.495361-78.504395-175-175-175
	S250,328.504639,250,425z M500,425c0,41.355103-33.64502,74.999878-75,74.999878S350,466.355103,350,425s33.64502-75,75-75
	S500,383.644897,500,425z"/></svg>