<?xml version="1.0" encoding="utf-8"?>
<!-- Generator: Adobe Illustrator 21.0.0, SVG Export Plug-In . SVG Version: 6.00 Build 0)  -->
<svg version="1.1" id="Layer_1" xmlns="http://www.w3.org/2000/svg" xmlns:xlink="http://www.w3.org/1999/xlink" x="0px" y="0px"
	 viewBox="0 0 800 800" enable-background="new 0 0 800 800" xml:space="preserve">
<g>
	<path fill="#010101" d="M650,699.998779h-75c-60.366211,0-110.874023-43.017578-122.490234-100H75c-41.357422,0-75-33.642578-75-75
		v-350c0-41.357422,33.642578-75,75-75h650c41.357422,0,75,33.642578,75,75v350c0,41.357422-33.642578,75-75,75h-75V699.998779z
		 M75,149.998779c-13.78418,0-25,11.210938-25,25v350c0,13.789062,11.21582,25,25,25h425v25c0,41.357422,33.642578,75,75,75h25v-100
		h125c13.78418,0,25-11.210938,25-25v-350c0-13.789062-11.21582-25-25-25H75z"/>
</g>
</svg>
