<?xml version="1.0" encoding="utf-8"?>
<!-- Generator: Adobe Illustrator 21.0.0, SVG Export Plug-In . SVG Version: 6.00 Build 0)  -->
<svg version="1.1" id="Layer_1" xmlns="http://www.w3.org/2000/svg" xmlns:xlink="http://www.w3.org/1999/xlink" x="0px" y="0px"
	 viewBox="0 0 800 800" enable-background="new 0 0 800 800" xml:space="preserve">
<path fill="#000101" d="M697.352905,214.041138c-0.237427-0.485229-0.487671-0.946655-0.757446-1.417847
	c-1.091309-1.904297-2.341309-3.721924-3.919678-5.300293l-200-200c-1.571045-1.571045-3.378906-2.816772-5.272827-3.905029
	c-0.485229-0.278931-0.962524-0.537109-1.463623-0.78186c-1.928711-0.943604-3.930054-1.729736-6.044312-2.15271
	c-0.007935-0.001831-0.016479-0.001221-0.024414-0.002441C478.277588,0.164185,476.647949-0.001221,475-0.001221H125
	c-13.808594,0-25,11.191406-25,25v750c0,13.808594,11.191406,25,25,25h550c13.808594,0,25-11.191406,25-25v-550
	C700,221.147461,699.017334,217.434692,697.352905,214.041138z M614.648438,199.998779H500V85.350342L614.648438,199.998779z
	 M150,749.998779v-700h300v100H275c-13.808594,0-25,11.191406-25,25s11.191406,25,25,25h175v25c0,13.808594,11.191406,25,25,25h175
	v500H150z M550,324.998779c0,13.808594-11.191406,25-25,25H275c-13.808594,0-25-11.191406-25-25s11.191406-25,25-25h250
	C538.808594,299.998779,550,311.190186,550,324.998779z M550,474.998779c0,13.808594-11.191406,25-25,25H275
	c-13.808594,0-25-11.191406-25-25s11.191406-25,25-25h250C538.808594,449.998779,550,461.190186,550,474.998779z M550,624.998779
	c0,13.808594-11.191406,25-25,25H275c-13.808594,0-25-11.191406-25-25s11.191406-25,25-25h250
	C538.808594,599.998779,550,611.190186,550,624.998779z"/>
</svg>
