<?xml version="1.0" encoding="utf-8"?>
<!-- Generator: Adobe Illustrator 21.0.0, SVG Export Plug-In . SVG Version: 6.00 Build 0)  -->
<svg version="1.1" id="Layer_1" xmlns="http://www.w3.org/2000/svg" xmlns:xlink="http://www.w3.org/1999/xlink" x="0px" y="0px"
	 viewBox="0 0 800 800" enable-background="new 0 0 800 800" xml:space="preserve">
<path fill="#010101" d="M747.490234,321.619873c-5.46875-16.821289-18.984375-29.418945-36.142578-33.696289l-173.642578-43.544922
	L443.212891,93.118896c-9.375-15-25.527344-23.959961-43.212891-23.959961s-33.837891,8.959961-43.212891,23.959961
	l-95.078125,151.68457L88.652344,287.923584c-17.158203,4.277344-30.673828,16.875-36.142578,33.696289
	c-5.458984,16.826172-1.933594,34.956055,9.433594,48.510742l114.882812,137.285156l-12.470703,177.919922
	c-1.230621,17.646484,6.572266,34.389648,20.888672,44.785156c8.886719,6.455078,19.316406,9.765625,29.873047,9.765625
	c6.455078,0,12.949219-1.235352,19.169922-3.75l166.074219-66.835938l165.351562,66.835938
	c16.386719,6.625977,34.716797,4.379883,49.042969-6.015625c14.316406-10.395508,22.118958-27.138672,20.888672-44.790039
	l-12.246094-178.59375l114.658203-136.611328C749.423828,356.575928,752.949219,338.446045,747.490234,321.619873z
	 M699.755859,337.982178L585.097656,474.593506c-8.535156,10.175781-12.724609,23.071289-11.806641,36.318359l12.470703,177.915039
	l-1.318359,0.952148l-165.361328-66.84082c-6.152344-2.480469-12.617188-3.725586-19.082031-3.725586
	s-12.939453,1.245117-19.091797,3.730469l-165.351562,66.835938l-1.318359-0.952148l12.470703-177.919922
	c0.917969-13.242188-3.271484-26.137695-11.806641-36.318359L100.244141,337.982178l0.498047-1.542969l173.046875-43.120117
	c12.900391-3.208008,23.876953-11.181641,30.908203-22.446289L400,119.158936c0.527344,0,0.654297,0.209961,0.810547,0.454102
	l94.492188,151.254883c7.03125,11.269531,18.007812,19.243164,30.898438,22.451172l173.056641,43.120117L699.755859,337.982178z"/>
</svg>
