<?xml version="1.0" encoding="utf-8"?>
<!-- Generator: Adobe Illustrator 21.0.0, SVG Export Plug-In . SVG Version: 6.00 Build 0)  -->
<svg version="1.1" id="Layer_1" xmlns="http://www.w3.org/2000/svg" xmlns:xlink="http://www.w3.org/1999/xlink" x="0px" y="0px"
	 viewBox="0 0 800 800" enable-background="new 0 0 800 800" xml:space="preserve">
<path fill="#010101" d="M800,499.998779c0,82.714844-67.285156,150-150,150H450v-50h200c55.136719,0,100-44.863281,100-100
	s-44.863281-100-100-100h-25v-25c0-124.0625-100.9375-225-225-225c-90.693359,0-172.089844,53.984375-207.373047,137.539062
	l-5.292969,12.539062l-13.408203,2.353516C102.119141,315.037842,50,377.098389,50,449.998779c0,82.714844,67.285156,150,150,150
	h100v50H200c-110.283203,0-200-89.716797-200-200c0-92.685547,63.164062-172.236328,152.03125-194.023438
	C197.685547,160.780029,293.613281,99.998779,400,99.998779c143.857422,0,262.275391,111.054688,274.042969,251.923828
	C745.361328,363.465576,800,425.467529,800,499.998779z M532.324219,492.674561l35.351562-35.351562L375,264.647217
	L182.324219,457.322998l35.351562,35.351562L350,360.350342v339.648438h50V360.350342L532.324219,492.674561z"/>
</svg>
