<?xml version="1.0" encoding="utf-8"?>
<!-- Generator: Adobe Illustrator 21.0.0, SVG Export Plug-In . SVG Version: 6.00 Build 0)  -->
<svg version="1.1" id="Layer_1" xmlns="http://www.w3.org/2000/svg" xmlns:xlink="http://www.w3.org/1999/xlink" x="0px" y="0px"
	 viewBox="0 0 800 800" enable-background="new 0 0 800 800" xml:space="preserve">
<path fill="#000101" d="M566.785889,375.848999C602.941284,335.911865,625,282.984619,625,224.998779
	c0-124.0625-100.9375-225-225-225s-225,100.9375-225,225c0,57.98584,22.058716,110.913086,58.214111,150.85022
	C150.339966,431.202393,100,523.776855,100,624.998779v150c0,13.808594,11.191406,25,25,25h550c13.808594,0,25-11.191406,25-25v-150
	C700,523.776855,649.660034,431.202393,566.785889,375.848999z M400,49.998779c96.494141,0,175,78.505859,175,175
	c0,66.2146-36.975708,123.944702-91.35437,153.665161c-0.498657,0.274048-1.017456,0.501099-1.517944,0.769653
	c-4.327393,2.310791-8.751221,4.46167-13.284302,6.409302c-0.820923,0.354004-1.658325,0.662842-2.484741,1.002808
	c-4.221802,1.737671-8.520508,3.322144-12.89978,4.730835c-1.09314,0.350952-2.192383,0.679932-3.292236,1.008911
	c-4.133301,1.239624-8.336792,2.30957-12.590942,3.245239c-1.328125,0.289917-2.650146,0.597534-3.986816,0.856323
	c-4.156494,0.811768-8.381348,1.422729-12.636108,1.934204c-1.383667,0.163574-2.752075,0.394897-4.143677,0.526123
	c-5.537109,0.530396-11.135254,0.85144-16.809082,0.85144s-11.271973-0.321045-16.809082-0.85144
	c-1.391602-0.131226-2.76001-0.362549-4.143677-0.526123c-4.254761-0.511475-8.479614-1.122437-12.636108-1.934204
	c-1.33667-0.258789-2.658691-0.566406-3.986816-0.856323c-4.25415-0.935669-8.457642-2.005615-12.590942-3.245239
	c-1.099854-0.328979-2.199097-0.657959-3.292236-1.008911c-4.379272-1.408691-8.677979-2.993164-12.89978-4.730835
	c-0.826416-0.339966-1.663818-0.648804-2.484741-1.002808c-4.533081-1.947632-8.956909-4.098511-13.284302-6.409302
	c-0.500488-0.268555-1.019287-0.495605-1.517944-0.769653C261.975708,348.943481,225,291.213379,225,224.998779
	C225,128.504639,303.505859,49.998779,400,49.998779z M650,749.998779H150v-125
	c0-88.880005,46.538696-169.832764,122.363281-214.849854c0.445557,0.307617,0.875854,0.636597,1.323242,0.941162
	c0.128784,0.08728,0.251465,0.183716,0.380249,0.270996c5.089722,3.450317,10.354614,6.654663,15.72937,9.68811
	c0.248413,0.139771,0.491943,0.288086,0.740967,0.426636c21.721191,12.150269,45.646362,20.780029,71.018677,25.169067
	c0.183105,0.031738,0.36438,0.066528,0.546875,0.098267c5.882568,1.002808,11.837158,1.781006,17.86499,2.315674
	c0.748901,0.067749,1.497803,0.111694,2.247925,0.171509c5.874634,0.462036,11.792603,0.768433,17.784424,0.768433
	s11.90979-0.306396,17.784424-0.768433c0.750122-0.059814,1.499023-0.10376,2.247925-0.171509
	c6.027832-0.534668,11.982422-1.312866,17.86499-2.315674c0.182495-0.031738,0.36377-0.066528,0.546875-0.098267
	c25.372314-4.389038,49.297485-13.018799,71.018677-25.169067c0.249023-0.13855,0.492554-0.286865,0.740967-0.426636
	c5.374756-3.033447,10.639648-6.237793,15.72937-9.68811c0.128784-0.08728,0.251465-0.183716,0.380249-0.270996
	c0.447388-0.304565,0.877686-0.633545,1.323242-0.941162C603.461304,455.166016,650,536.118774,650,624.998779V749.998779z"/>
</svg>
