<?xml version="1.0" encoding="utf-8"?>
<!-- Generator: Adobe Illustrator 21.0.0, SVG Export Plug-In . SVG Version: 6.00 Build 0)  -->
<svg version="1.1" id="Layer_1" xmlns="http://www.w3.org/2000/svg" xmlns:xlink="http://www.w3.org/1999/xlink" x="0px" y="0px"
	 viewBox="0 0 800 800" enable-background="new 0 0 800 800" xml:space="preserve">
<path fill="#010101" d="M750,399.998779c0,192.988281-157.011719,350-350,350
	c-79.025879,0-154.470215-26.474609-215.454102-74.194336l-41.870117,41.870117
	c-4.780273,4.785156-11.176758,7.324219-17.680664,7.324219c-3.222656,0-6.469727-0.625-9.560547-1.904297
	C106.088867,719.227295,100,710.106201,100,699.998779v-125c0-13.808594,11.191406-25,25-25h125
	c10.112305,0,19.228516,6.09375,23.095703,15.429688c3.87207,9.345703,1.733398,20.097656-5.419922,27.246094l-47.439575,47.439575
	C271.630249,678.654175,334.364014,699.998779,400,699.998779c165.419922,0,300-134.580078,300-300c0-13.808594,11.191406-25,25-25
	S750,386.190186,750,399.998779z M400,99.998779c59.515381,0,116.630859,17.573242,165.085449,49.562988l-57.76123,57.76123
	c-7.15332,7.148438-9.291992,17.900391-5.419922,27.246094c3.867188,9.335938,12.983398,15.429688,23.095703,15.429688h150
	c13.808594,0,25-11.191406,25-25v-150c0-10.107422-6.088867-19.228516-15.43457-23.095703
	c-9.326172-3.867188-20.097656-1.738281-27.241211,5.419922l-56.235352,56.235352
	C542.807617,72.575073,472.939453,49.998779,400,49.998779c-192.988281,0-350,157.011719-350,350c0,13.808594,11.191406,25,25,25
	s25-11.191406,25-25C100,234.578857,234.580078,99.998779,400,99.998779z"/>
</svg>
