<?xml version="1.0" encoding="utf-8"?>
<!-- Generator: Adobe Illustrator 21.0.0, SVG Export Plug-In . SVG Version: 6.00 Build 0)  -->
<svg version="1.1" id="Layer_1" xmlns="http://www.w3.org/2000/svg" xmlns:xlink="http://www.w3.org/1999/xlink" x="0px" y="0px"
	 viewBox="0 0 800 800" enable-background="new 0 0 800 800" xml:space="preserve">
<path fill="#010101" d="M675,49.998779H550v-25c0-13.808594-11.191406-25-25-25H275c-13.808594,0-25,11.191406-25,25v25H125
	c-13.808594,0-25,11.191406-25,25v700c0,13.808594,11.191406,25,25,25h550c13.808594,0,25-11.191406,25-25v-700
	C700,61.190186,688.808594,49.998779,675,49.998779z M300,49.998779h200v100H300V49.998779z M650,749.998779H150v-650h100v75
	c0,13.808594,11.191406,25,25,25h250c13.808594,0,25-11.191406,25-25v-75h100V749.998779z"/>
</svg>
