<?xml version="1.0" encoding="utf-8"?>
<!-- Generator: Adobe Illustrator 21.0.0, SVG Export Plug-In . SVG Version: 6.00 Build 0)  -->
<svg version="1.1" id="Layer_1" xmlns="http://www.w3.org/2000/svg" xmlns:xlink="http://www.w3.org/1999/xlink" x="0px" y="0px"
	 viewBox="0 0 800 800" enable-background="new 0 0 800 800" xml:space="preserve">
<path fill="#010101" d="M650,49.998779H150c-55.136719,0-100,44.863281-100,100v500c0,55.136719,44.863281,100,100,100h500
	c55.136719,0,100-44.863281,100-100v-500C750,94.862061,705.136719,49.998779,650,49.998779z M700,649.998779
	c0,27.568359-22.431641,50-50,50H500v-250h100v-50H500v-99.072266c0-50.927734,9.775391-50.927734,50.927734-50.927734H625v-50
	h-74.072266c-40.195312,0-100.927734,0-100.927734,100.927734v99.072266H350v50h100v250H150c-27.568359,0-50-22.431641-50-50v-500
	c0-27.568359,22.431641-50,50-50h500c27.568359,0,50,22.431641,50,50V649.998779z"/>
</svg>
