<?xml version="1.0" encoding="utf-8"?>
<!-- Generator: Adobe Illustrator 21.0.0, SVG Export Plug-In . SVG Version: 6.00 Build 0)  -->
<svg version="1.1" id="Layer_1" xmlns="http://www.w3.org/2000/svg" xmlns:xlink="http://www.w3.org/1999/xlink" x="0px" y="0px"
	 viewBox="0 0 800 800" enable-background="new 0 0 800 800" xml:space="preserve">
<path fill="#010101" d="M697.352905,214.041138c-0.237427-0.485229-0.487671-0.946655-0.757446-1.417847
	c-1.091309-1.904297-2.341309-3.721924-3.919678-5.300293l-200-200c-1.578979-1.580811-3.397217-2.830811-5.302124-3.922119
	c-0.467529-0.268555-0.925903-0.515747-1.407471-0.751953c-1.934814-0.949707-3.943481-1.741333-6.066284-2.165527
	c-0.0177-0.003662-0.036621-0.002441-0.054932-0.005493C478.260498,0.164795,476.639404-0.001221,475-0.001221H125
	c-13.808594,0-25,11.191406-25,25v750c0,13.808594,11.191406,25,25,25h550c13.808594,0,25-11.191406,25-25v-550
	C700,221.147461,699.017334,217.434692,697.352905,214.041138z M400,474.998779c-55.136719,0-100-44.858398-100-100
	s44.863281-100,100-100s100,44.858398,100,100S455.136719,474.998779,400,474.998779z M500,85.355225l57.324219,57.321777
	l57.320557,57.321777H500V85.355225z M150,749.998779v-700h300v175c0,3.344116,0.682983,6.522217,1.873779,9.437866
	c-16.193848-5.997314-33.619385-9.437866-51.873779-9.437866c-82.714844,0-150,67.290039-150,150
	c0,53.675537,28.429565,100.720215,70.930786,127.230835l-43.294067,86.587524
	c-6.171875,12.348633-1.162109,27.368164,11.181641,33.540039c3.59375,1.796875,7.402344,2.646484,11.162109,2.646484
	c9.169922,0,17.998047-5.063477,22.382812-13.823242l44.940186-89.879761c10.540161,2.355347,21.456299,3.69812,32.696533,3.69812
	s22.156372-1.342773,32.696533-3.69812l44.940186,89.879761c4.384766,8.759766,13.212891,13.823242,22.382812,13.823242
	c3.759766,0,7.568359-0.849609,11.162109-2.646484c12.34375-6.171875,17.353516-21.191406,11.181641-33.540039l-43.294067-86.587524
	C521.570435,475.718994,550,428.674316,550,374.998779c0-52.142334-26.772461-98.110352-67.262573-125H650v500H150z"/>
</svg>
