<?xml version="1.0" encoding="utf-8"?>
<!-- Generator: Adobe Illustrator 21.0.0, SVG Export Plug-In . SVG Version: 6.00 Build 0)  -->
<svg version="1.1" id="Layer_1" xmlns="http://www.w3.org/2000/svg" xmlns:xlink="http://www.w3.org/1999/xlink" x="0px" y="0px"
	 viewBox="0 0 800 800" enable-background="new 0 0 800 800" xml:space="preserve">
<path fill="#010101" d="M725,99.998779h-50h-75v-50c0-27.568359-22.431641-50-50-50H250c-27.568359,0-50,22.431641-50,50v50h-75H75
	c-13.808594,0-25,11.191406-25,25s11.191406,25,25,25h25v550c0,55.141602,44.858398,100,100,100h400
	c55.141602,0,100-44.858398,100-100v-550h25c13.808594,0,25-11.191406,25-25S738.808594,99.998779,725,99.998779z M250,49.998779
	h300v50H250V49.998779z M650,699.998779c0,27.568359-22.431641,50-50,50H200c-27.568359,0-50-22.431641-50-50v-550h75h350h75
	V699.998779z M350,224.998779v450c0,13.808594-11.191406,25-25,25s-25-11.191406-25-25v-450c0-13.808594,11.191406-25,25-25
	S350,211.190186,350,224.998779z M500,224.998779v450c0,13.808594-11.191406,25-25,25s-25-11.191406-25-25v-450
	c0-13.808594,11.191406-25,25-25S500,211.190186,500,224.998779z"/>
</svg>
