<?xml version="1.0" encoding="utf-8"?>
<!-- Generator: Adobe Illustrator 21.0.0, SVG Export Plug-In . SVG Version: 6.00 Build 0)  -->
<svg version="1.1" id="Layer_1" xmlns="http://www.w3.org/2000/svg" xmlns:xlink="http://www.w3.org/1999/xlink" x="0px" y="0px"
	 viewBox="0 0 800 800" enable-background="new 0 0 800 800" xml:space="preserve">
<path fill="#010101" d="M725,149.998779H400v-25c0-13.808594-11.191406-25-25-25s-25,11.191406-25,25v25H25
	c-13.808594,0-25,11.191406-25,25s11.191406,25,25,25h115.309448L51.279297,467.088623
	c-0.123901,0.372925-0.127563,0.762329-0.233765,1.138916c-0.320435,1.132202-0.55481,2.285767-0.713501,3.477173
	c-0.095215,0.715942-0.182495,1.419067-0.215454,2.136841C50.098267,474.233398,50,474.602661,50,474.998779
	c0,68.925781,56.074219,125,125,125s125-56.074219,125-125c0-0.396118-0.098267-0.765381-0.116577-1.157227
	c-0.032959-0.717773-0.120239-1.420898-0.215454-2.136841c-0.158691-1.192017-0.393677-2.346802-0.714111-3.479614
	c-0.105591-0.375366-0.109253-0.76416-0.233154-1.136475l-89.030151-267.089844H350v450H225c-13.808594,0-25,11.191406-25,25
	s11.191406,25,25,25h300c13.808594,0,25-11.191406,25-25s-11.191406-25-25-25H400v-450h140.309448l-89.030151,267.089844
	c-0.123901,0.372925-0.127563,0.762329-0.233765,1.138916c-0.320435,1.132202-0.55481,2.285767-0.713501,3.477173
	c-0.095215,0.715942-0.182495,1.419067-0.215454,2.136841C450.098267,474.233398,450,474.602661,450,474.998779
	c0,68.925781,56.074219,125,125,125s125-56.074219,125-125c0-0.396118-0.098267-0.765381-0.116577-1.157227
	c-0.032959-0.717773-0.120239-1.420898-0.215454-2.136841c-0.158691-1.192017-0.393677-2.346802-0.714111-3.479614
	c-0.105591-0.375366-0.109253-0.76416-0.233154-1.136475l-89.030151-267.089844H725c13.808594,0,25-11.191406,25-25
	S738.808594,149.998779,725,149.998779z M175,549.998779c-32.581787,0-60.297241-20.917358-70.625183-50h141.25
	C235.297241,529.081421,207.581787,549.998779,175,549.998779z M109.6875,449.998779L175,254.051514l65.3125,195.947266H109.6875z
	 M575,549.998779c-32.581787,0-60.297241-20.917358-70.625183-50h141.25
	C635.297241,529.081421,607.581787,549.998779,575,549.998779z M509.6875,449.998779L575,254.051514l65.3125,195.947266H509.6875z"
	/>
</svg>
