<?xml version="1.0" encoding="utf-8"?>
<!-- Generator: Adobe Illustrator 21.0.0, SVG Export Plug-In . SVG Version: 6.00 Build 0)  -->
<svg version="1.1" id="Layer_1" xmlns="http://www.w3.org/2000/svg" xmlns:xlink="http://www.w3.org/1999/xlink" x="0px" y="0px"
	 viewBox="0 0 800 800" enable-background="new 0 0 800 800" xml:space="preserve">
<path fill="#000101" d="M122.026367,799.998779c-5.517578,0-11.074219-1.816406-15.698242-5.556641
	c-10.742188-8.681641-12.407227-24.418945-3.730469-35.15625L392.797852,400.24292L99.575195,40.799561
	c-8.730469-10.698242-7.133789-26.445313,3.569336-35.170898c10.683594-8.740234,26.445313-7.138672,35.170898,3.569336
	l306.054688,375.170898c7.480469,9.165039,7.509766,22.314453,0.073242,31.513672L141.484375,790.71167
	C136.542969,796.824951,129.316406,799.998779,122.026367,799.998779z M394.506836,790.71167l302.963867-374.829102
	c7.436523-9.199219,7.407227-22.348633-0.073242-31.513672L391.342773,9.197998
	c-8.730469-10.708008-24.477539-12.30957-35.170898-3.569336c-10.703125,8.725586-12.299805,24.472656-3.569336,35.170898
	L645.825195,400.24292L355.620117,759.285889c-8.676758,10.737305-7.011719,26.474609,3.730469,35.15625
	c4.624023,3.740234,10.180664,5.556641,15.698242,5.556641C382.338867,799.998779,389.56543,796.824951,394.506836,790.71167z"/>
</svg>
