<?xml version="1.0" encoding="utf-8"?>
<!-- Generator: Adobe Illustrator 21.0.0, SVG Export Plug-In . SVG Version: 6.00 Build 0)  -->
<svg version="1.1" id="Layer_1" xmlns="http://www.w3.org/2000/svg" xmlns:xlink="http://www.w3.org/1999/xlink" x="0px" y="0px"
	 viewBox="0 0 800 800" enable-background="new 0 0 800 800" xml:space="preserve">
<path fill="#010101" d="M600,574.998779v-500c0-13.808594-11.191406-25-25-25H75c-13.808594,0-25,11.191406-25,25v500
	c0,13.808594,11.191406,25,25,25h500C588.808594,599.998779,600,588.807373,600,574.998779z M550,549.998779H100v-450h450
	V549.998779z M750,224.998779v500c0,13.808594-11.191406,25-25,25H225c-13.808594,0-25-11.191406-25-25v-50
	c0-13.808594,11.191406-25,25-25s25,11.191406,25,25v25h450v-450h-25c-13.808594,0-25-11.191406-25-25s11.191406-25,25-25h50
	C738.808594,199.998779,750,211.190186,750,224.998779z"/>
</svg>
