<?xml version="1.0" encoding="utf-8"?>
<!-- Generator: Adobe Illustrator 21.0.0, SVG Export Plug-In . SVG Version: 6.00 Build 0)  -->
<svg version="1.1" id="Layer_1" xmlns="http://www.w3.org/2000/svg" xmlns:xlink="http://www.w3.org/1999/xlink" x="0px" y="0px"
	 viewBox="0 0 800 800" enable-background="new 0 0 800 800" xml:space="preserve">
<path fill="#010101" d="M655.487549,790.71167L352.528534,415.882568c-7.436523-9.199219-7.407227-22.348633,0.073242-31.513672
	L658.656494,9.197998c8.725586-10.708008,24.487305-12.30957,35.170898-3.569336
	c10.703125,8.725586,12.299805,24.472656,3.569336,35.170898L404.174042,400.24292l290.200226,359.042969
	c8.676758,10.737305,7.011719,26.474609-3.730469,35.15625c-4.624023,3.740234-10.180664,5.556641-15.698242,5.556641
	C667.655518,799.998779,660.428955,796.824951,655.487549,790.71167z M421.923065,799.998779
	c5.517578,0,11.074219-1.816406,15.698242-5.556641c10.742188-8.681641,12.407227-24.418945,3.730469-35.15625L151.146698,400.24292
	L444.369354,40.799561c8.730469-10.698242,7.133789-26.445312-3.569336-35.170898
	c-10.693359-8.740234-26.44043-7.138672-35.170898,3.569336L99.574432,384.368896
	c-7.480469,9.165039-7.509766,22.314453-0.073242,31.513672L402.465057,790.71167
	C407.406464,796.824951,414.633026,799.998779,421.923065,799.998779z"/>
</svg>
