<?xml version="1.0" encoding="utf-8"?>
<!-- Generator: Adobe Illustrator 21.0.0, SVG Export Plug-In . SVG Version: 6.00 Build 0)  -->
<svg version="1.1" id="Layer_1" xmlns="http://www.w3.org/2000/svg" xmlns:xlink="http://www.w3.org/1999/xlink" x="0px" y="0px"
	 viewBox="0 0 800 800" enable-background="new 0 0 800 800" xml:space="preserve">
<path fill="#000101" d="M699.968262,223.747314c-0.001953-0.03833-0.006348-0.076172-0.008301-0.114502
	c-0.027832-0.504883-0.074707-1.006592-0.132324-1.506348c-0.016113-0.139648-0.033691-0.278809-0.052246-0.418091
	c-0.068359-0.517456-0.148438-1.032715-0.249023-1.543091c-0.003418-0.01709-0.005371-0.034424-0.008789-0.051514
	c-0.10498-0.525879-0.232422-1.045776-0.370117-1.5625c-0.036621-0.13623-0.074707-0.271484-0.113281-0.406982
	c-0.133789-0.469482-0.27832-0.935425-0.439453-1.39563c-0.018555-0.052368-0.033691-0.105347-0.052246-0.157593
	c-0.17627-0.493774-0.373047-0.979736-0.580566-1.461426c-0.061035-0.142822-0.124512-0.284668-0.188477-0.42627
	c-0.19043-0.420898-0.390625-0.837036-0.604004-1.24707c-0.037598-0.071777-0.070801-0.145142-0.108887-0.216675
	c-0.244629-0.45813-0.507813-0.906372-0.780762-1.349243c-0.085449-0.138428-0.172852-0.275635-0.260742-0.412598
	c-0.255371-0.396973-0.520508-0.788086-0.79834-1.170898c-0.04248-0.058228-0.081543-0.118408-0.124512-0.176514
	c-0.31543-0.426636-0.650879-0.840454-0.994629-1.247925c-0.100098-0.11853-0.20166-0.236084-0.304199-0.353149
	c-0.34375-0.39209-0.696289-0.777222-1.065918-1.14917c-0.018555-0.018799-0.035156-0.039063-0.053711-0.057861
	l-66.665527-66.665771L492.680664,7.322266c-0.408691-0.408691-0.834473-0.795898-1.267578-1.172974
	c-0.078613-0.068542-0.157227-0.136536-0.236816-0.203979c-0.861816-0.731689-1.768555-1.400391-2.713379-2.004395
	c-0.099121-0.063293-0.198242-0.126404-0.297852-0.188232c-0.471191-0.291809-0.94873-0.572021-1.437012-0.831421
	c-0.01709-0.008972-0.03418-0.016785-0.05127-0.025696c-0.470215-0.248413-0.950195-0.477234-1.43457-0.694946
	c-0.107422-0.048157-0.214844-0.096252-0.322266-0.142822c-0.507324-0.219177-1.019531-0.426086-1.540039-0.611267
	c-0.00293-0.001038-0.005859-0.001892-0.008789-0.00293c-0.513184-0.182434-1.034668-0.342712-1.55957-0.491394
	c-0.107422-0.030334-0.214355-0.060425-0.321777-0.089294c-1.056641-0.283997-2.133301-0.498718-3.225098-0.642395
	c-0.121094-0.015991-0.242188-0.030945-0.36377-0.045166c-0.52832-0.061646-1.059082-0.111877-1.592773-0.139771
	c-0.01416-0.000732-0.02832-0.002441-0.04248-0.003174C475.846191,0.01123,475.425293,0,475.00293,0H125
	c-13.806641,0-25,11.192871-25,25v750c0,13.807129,11.193359,25,25,25h550c13.806641,0,25-11.192871,25-25V225.000977
	C700,224.581909,699.989258,224.16394,699.968262,223.747314z M614.644531,200H500V85.355469L614.644531,200z M150,750V50h300v175
	c0,13.807129,11.193359,25,25,25h175v500H150z M512.5,412.5c0-62.032715-50.466797-112.5-112.5-112.5s-112.5,50.467285-112.5,112.5
	c0,33.203369,14.462891,63.088745,37.415039,83.699463l-23.631836,70.894775
	c-4.366211,13.098633,2.712891,27.256836,15.811523,31.623047c2.623047,0.874023,5.288086,1.289551,7.90918,1.289551
	c10.466797,0,20.22168-6.625488,23.712891-17.101074l20.709961-62.129272C379.151367,523.526123,389.406738,525,400,525
	s20.848633-1.473877,30.573242-4.223511l20.709961,62.129272c3.492188,10.476074,13.245117,17.101074,23.712891,17.101074
	c2.620117,0,5.287109-0.415527,7.90918-1.289551c13.098633-4.366211,20.177734-18.524414,15.811523-31.623047l-23.631836-70.894775
	C498.037109,475.588745,512.5,445.703369,512.5,412.5z M337.5,412.5c0-34.462402,28.037109-62.5,62.5-62.5s62.5,28.037598,62.5,62.5
	S434.462891,475,400,475S337.5,446.962402,337.5,412.5z"/>
</svg>
