<?xml version="1.0" encoding="utf-8"?>
<!-- Generator: Adobe Illustrator 21.0.0, SVG Export Plug-In . SVG Version: 6.00 Build 0)  -->
<svg version="1.1" id="Layer_1" xmlns="http://www.w3.org/2000/svg" xmlns:xlink="http://www.w3.org/1999/xlink" x="0px" y="0px"
	 viewBox="0 0 800 800" enable-background="new 0 0 800 800" xml:space="preserve">
<path fill="#010101" d="M675-0.001221H125c-13.808594,0-25,11.191406-25,25v750c0,13.808594,11.191406,25,25,25h100h350h100
	c13.808594,0,25-11.191406,25-25v-750C700,11.190186,688.808594-0.001221,675-0.001221z M250,749.998779v-100h300v100H250z
	 M650,749.998779h-50v-125c0-13.808594-11.191406-25-25-25H225c-13.808594,0-25,11.191406-25,25v125h-50v-700h500V749.998779z
	 M450,474.998779c0-13.808594,11.191406-25,25-25h100c13.808594,0,25,11.191406,25,25s-11.191406,25-25,25H475
	C461.191406,499.998779,450,488.807373,450,474.998779z M200,474.998779c0-13.808594,11.191406-25,25-25h100
	c13.808594,0,25,11.191406,25,25s-11.191406,25-25,25H225C211.191406,499.998779,200,488.807373,200,474.998779z M450,324.998779
	c0-13.808594,11.191406-25,25-25h100c13.808594,0,25,11.191406,25,25s-11.191406,25-25,25H475
	C461.191406,349.998779,450,338.807373,450,324.998779z M200,324.998779c0-13.808594,11.191406-25,25-25h100
	c13.808594,0,25,11.191406,25,25s-11.191406,25-25,25H225C211.191406,349.998779,200,338.807373,200,324.998779z M450,174.998779
	c0-13.808594,11.191406-25,25-25h100c13.808594,0,25,11.191406,25,25s-11.191406,25-25,25H475
	C461.191406,199.998779,450,188.807373,450,174.998779z M200,174.998779c0-13.808594,11.191406-25,25-25h100
	c13.808594,0,25,11.191406,25,25s-11.191406,25-25,25H225C211.191406,199.998779,200,188.807373,200,174.998779z"/>
</svg>
