<?xml version="1.0" encoding="utf-8"?>
<!-- Generator: Adobe Illustrator 21.0.0, SVG Export Plug-In . SVG Version: 6.00 Build 0)  -->
<svg version="1.1" id="Layer_1" xmlns="http://www.w3.org/2000/svg" xmlns:xlink="http://www.w3.org/1999/xlink" x="0px" y="0px"
	 viewBox="0 0 800 800" enable-background="new 0 0 800 800" xml:space="preserve">
<path fill="#000101" d="M400,750c-47.238281,0-93.077148-9.257324-136.243164-27.514893
	c-41.680664-17.629639-79.108398-42.862305-111.244141-74.997803c-32.135742-32.135254-57.368164-69.563232-74.998047-111.243896
	C59.257813,493.077637,50,447.23877,50,400s9.257813-93.077637,27.514648-136.243408
	c17.629883-41.680664,42.862305-79.108643,74.998047-111.243896c32.135742-32.135498,69.563477-57.368164,111.244141-74.997803
	C306.922852,59.257324,352.761719,50,400,50s93.077148,9.257324,136.243164,27.514893
	c41.680664,17.629639,79.108398,42.862305,111.244141,74.997803c32.135742,32.135254,57.368164,69.563232,74.998047,111.243896
	C740.742188,306.922363,750,352.76123,750,400s-9.257813,93.077637-27.514648,136.243408
	c-17.629883,41.680664-42.862305,79.108643-74.998047,111.243896c-32.135742,32.135498-69.563477,57.368164-111.244141,74.997803
	C493.077148,740.742676,447.238281,750,400,750z M400,100c-165.420898,0-300,134.579346-300,300s134.579102,300,300,300
	s300-134.579346,300-300S565.420898,100,400,100z M324.999023,550c-4.167969,0-8.341797-1.041016-12.118164-3.133789
	C304.931641,542.460449,300,534.088135,300,525V275c0-9.088135,4.931641-17.460449,12.880859-21.866211
	c7.947266-4.405273,17.663086-4.150635,25.369141,0.66626l200,125C545.55957,383.368652,550,391.380371,550,400
	s-4.44043,16.631348-11.75,21.199951l-200,125C334.204102,548.728516,329.605469,550,324.999023,550z M350,320.106201v159.787598
	L477.830078,400L350,320.106201z"/>
</svg>
