<?xml version="1.0" encoding="utf-8"?>
<!-- Generator: Adobe Illustrator 21.0.0, SVG Export Plug-In . SVG Version: 6.00 Build 0)  -->
<svg version="1.1" id="Layer_1" xmlns="http://www.w3.org/2000/svg" xmlns:xlink="http://www.w3.org/1999/xlink" x="0px" y="0px"
	 viewBox="0 0 800 800" enable-background="new 0 0 800 800" xml:space="preserve">
<path fill="#010101" d="M725,49.998779H450c-29.875488,0-56.659546,13.238525-75,34.078369
	c-18.340454-20.839844-45.124512-34.078369-75-34.078369H75c-13.808594,0-25,11.191406-25,25v600c0,13.808594,11.191406,25,25,25
	h225c45.624817,0,49.804688,38.344727,50,50.15625v0.004883c0,0.014648,0,0.019531,0,0.039062s0,0.03418,0,0.039062
	c0,0.014648,0,0.024414,0,0.03418v0.009766c0.010986,0.977783,0.198364,1.905518,0.318604,2.853394
	c0.087891,0.690308,0.089111,1.40625,0.231323,2.077637c0.194702,0.916138,0.542603,1.767578,0.834961,2.644043
	c0.222778,0.668945,0.369263,1.37146,0.645752,2.01416c0.332642,0.771484,0.795288,1.463013,1.201172,2.192383
	c0.374146,0.673218,0.682983,1.386719,1.115723,2.020264c0.41626,0.609131,0.941162,1.12793,1.408691,1.696777
	c0.543823,0.662842,1.038208,1.367798,1.646118,1.971436c0.455933,0.45166,0.999146,0.805664,1.488037,1.221313
	c0.723877,0.615234,1.412964,1.271362,2.20459,1.802368c0.526123,0.352783,1.124268,0.593872,1.677856,0.906372
	c0.839844,0.474854,1.651001,0.995483,2.548218,1.372681c0.766602,0.321655,1.600342,0.496826,2.403564,0.742798
	c0.756836,0.231323,1.478882,0.53833,2.264404,0.698242c1.618652,0.32959,3.294678,0.50293,5.010986,0.50293
	c1.723022,0,3.405762-0.175171,5.030518-0.507202c0.473022-0.096436,0.900269-0.298462,1.362915-0.421143
	c1.12854-0.299072,2.265015-0.584106,3.324585-1.032104c0.497437-0.209961,0.933838-0.523682,1.414185-0.76416
	c0.961304-0.481567,1.938477-0.936279,2.824097-1.533203c0.558472-0.376587,1.030273-0.857544,1.555786-1.276855
	c0.722656-0.577393,1.482544-1.110229,2.136841-1.762695c0.536499-0.535278,0.964355-1.166382,1.450806-1.748047
	c0.53772-0.643311,1.12793-1.242065,1.599731-1.938477c0.437012-0.643921,0.748901-1.368408,1.125488-2.053833
	c0.39856-0.725098,0.855713-1.412354,1.182251-2.178345c0.3125-0.734863,0.484619-1.533203,0.726929-2.301636
	c0.249634-0.791626,0.566406-1.552124,0.737305-2.375488c0.157471-0.758667,0.163574-1.564331,0.250244-2.346191
	c0.097046-0.86792,0.272827-1.712036,0.27832-2.60437c0.195312-11.811523,4.374817-50.15625,50-50.15625h275
	c13.808594,0,25-11.191406,25-25v-600C750,61.190186,738.808594,49.998779,725,49.998779z M300,649.998779H100v-550h200
	c27.568359,0,50,22.431641,50,50v511.728516C336.533203,654.442139,320.009766,649.998779,300,649.998779z M700,649.998779H450
	c-20.009766,0-36.533203,4.443359-50,11.728516V149.998779c0-27.568359,22.431641-50,50-50h250V649.998779z"/>
</svg>
