<?xml version="1.0" encoding="utf-8"?>
<!-- Generator: Adobe Illustrator 21.0.0, SVG Export Plug-In . SVG Version: 6.00 Build 0)  -->
<svg version="1.1" id="Layer_1" xmlns="http://www.w3.org/2000/svg" xmlns:xlink="http://www.w3.org/1999/xlink" x="0px" y="0px"
	 viewBox="0 0 800 800" enable-background="new 0 0 800 800" xml:space="preserve">
<path fill="#000101" d="M788.106445,361.044922v-0.000977c-16.09082-23.914551-70.473633-100.15625-149.680664-164.11377
	l54.251953-54.252441c9.762695-9.763184,9.762695-25.592285,0-35.355469c-9.763672-9.762695-25.591797-9.762695-35.355469,0
	l-59.576172,59.57605C540.389648,128.484497,473.1875,100,400,100C197.773438,100,41.222656,317.453125,11.893555,361.044922
	c-15.920898,23.664551-15.920898,54.245605,0,77.911133c16.090332,23.914551,70.474121,100.15625,149.681152,164.11377
	l-54.252441,54.252441c-9.762695,9.763184-9.762695,25.592285,0,35.355469C112.204102,697.559082,118.601563,700,125,700
	s12.795898-2.440918,17.677734-7.322266l59.576172-59.57605C259.610352,671.515503,326.8125,700,400,700
	c202.226563,0,358.777344-217.453125,388.106445-261.044922C804.027344,415.290527,804.027344,384.709473,788.106445,361.044922z
	 M53.37793,411.044922c-4.513672-6.709473-4.513672-15.380371,0-22.088867C69.833984,364.497559,219.368164,150,400,150
	c58.167969,0,113.108398,22.24585,161.420898,53.223389L197.404297,567.240234
	C117.688477,503.990845,62.961914,425.289063,53.37793,411.044922z M746.62207,411.043945
	C730.166016,435.502441,580.631836,650,400,650c-58.167969,0-113.108398-22.24585-161.420898-53.223389l364.016602-364.016846
	c79.71582,63.249512,134.442383,141.95166,144.026367,156.196289C751.135742,395.665039,751.135742,404.335938,746.62207,411.043945
	z"/>
</svg>
