<?xml version="1.0" encoding="utf-8"?>
<!-- Generator: Adobe Illustrator 21.0.0, SVG Export Plug-In . SVG Version: 6.00 Build 0)  -->
<svg version="1.1" id="Layer_1" xmlns="http://www.w3.org/2000/svg" xmlns:xlink="http://www.w3.org/1999/xlink" x="0px" y="0px"
	 viewBox="0 0 800 800" enable-background="new 0 0 800 800" xml:space="preserve">
<path fill="#000101" d="M700,124.998779c0-68.925781-56.074219-125-125-125s-125,56.074219-125,125
	c0,60.365601,43.013306,110.866089,100,122.480469v2.519531c0,82.709961-67.290039,150-150,150H250V247.479248
	c56.986694-11.61438,100-62.114868,100-122.480469c0-68.925781-56.074219-125-125-125s-125,56.074219-125,125
	c0,60.365601,43.013306,110.866089,100,122.480469v305.039063c-56.986694,11.61438-100,62.114868-100,122.480469
	c0,68.925781,56.074219,125,125,125s125-56.074219,125-125c0-60.365601-43.013306-110.866089-100-122.480469V449.998779h150
	c110.27832,0,200-89.72168,200-200v-2.519531C656.986694,235.864868,700,185.36438,700,124.998779z M150,124.998779
	c0-41.357422,33.642578-75,75-75s75,33.642578,75,75s-33.642578,75-75,75S150,166.356201,150,124.998779z M300,674.998779
	c0,41.357422-33.642578,75-75,75s-75-33.642578-75-75s33.642578-75,75-75S300,633.641357,300,674.998779z M575,199.998779
	c-41.357422,0-75-33.642578-75-75s33.642578-75,75-75s75,33.642578,75,75S616.357422,199.998779,575,199.998779z"/>
</svg>
