<?xml version="1.0" encoding="utf-8"?>
<!-- Generator: Adobe Illustrator 21.0.0, SVG Export Plug-In . SVG Version: 6.00 Build 0)  -->
<svg version="1.1" id="Layer_1" xmlns="http://www.w3.org/2000/svg" xmlns:xlink="http://www.w3.org/1999/xlink" x="0px" y="0px"
	 viewBox="0 0 800 800" enable-background="new 0 0 800 800" xml:space="preserve">
<path fill="#000101" d="M742.675781,707.322998l-200-200c-2.250366-2.252808-4.846802-3.925781-7.595215-5.13916
	C575.540771,454.28772,600,392.459717,600,324.998779c0-151.635742-123.364258-275-275-275s-275,123.364258-275,275
	s123.364258,275,275,275c67.460938,0,129.28894-24.459229,177.185669-64.920044
	c1.213379,2.747803,2.886353,5.344238,5.13855,7.595825l200,200c4.87793,4.882813,11.279297,7.324219,17.675781,7.324219
	s12.797852-2.441406,17.675781-7.324219C752.441406,732.913818,752.441406,717.08374,742.675781,707.322998z M325,549.998779
	c-124.067383,0-225-100.932617-225-225s100.932617-225,225-225s225,100.932617,225,225S449.067383,549.998779,325,549.998779z"/>
</svg>
