<?xml version="1.0" encoding="utf-8"?>
<!-- Generator: Adobe Illustrator 21.0.0, SVG Export Plug-In . SVG Version: 6.00 Build 0)  -->
<svg version="1.1" id="Layer_1" xmlns="http://www.w3.org/2000/svg" xmlns:xlink="http://www.w3.org/1999/xlink" x="0px" y="0px"
	 viewBox="0 0 800 800" enable-background="new 0 0 800 800" xml:space="preserve">
<path fill="#010101" d="M400-0.001221c-165.419922,0-300,134.580078-300,300
	c0,207.96875,270.791016,481.152344,282.324219,492.675781L400,810.350342l17.675781-17.675781
	C429.208984,781.151123,700,507.967529,700,299.998779C700,134.578857,565.419922-0.001221,400-0.001221z M399.990234,738.83667
	C340.273438,674.940186,150,458.856201,150,299.998779c0-137.851562,112.148438-250,250-250s250,112.148438,250,250
	C650,458.709717,459.697266,674.920654,399.990234,738.83667z M400,149.998779c-82.714844,0-150,67.285156-150,150
	s67.285156,150,150,150s150-67.285156,150-150S482.714844,149.998779,400,149.998779z M400,399.998779
	c-55.136719,0-100-44.863281-100-100s44.863281-100,100-100s100,44.863281,100,100S455.136719,399.998779,400,399.998779z"/>
</svg>
