<?xml version="1.0" encoding="utf-8"?>
<!-- Generator: Adobe Illustrator 21.0.0, SVG Export Plug-In . SVG Version: 6.00 Build 0)  -->
<svg version="1.1" id="Layer_1" xmlns="http://www.w3.org/2000/svg" xmlns:xlink="http://www.w3.org/1999/xlink" x="0px" y="0px"
	 viewBox="0 0 800 800" enable-background="new 0 0 800 800" xml:space="preserve">
<path fill="#010101" d="M750,399.998779c0,192.988281-157.011719,350-350,350S50,592.991943,50,400.003662h50
	c0,165.419922,134.580078,299.995117,300,299.995117s300-134.580078,300-300s-134.580078-300-300-300
	c-96.820068,0-185.927124,46.116943-241.953125,122.695312l34.628906,34.628906
	c7.15332,7.148438,9.291992,17.900391,5.419922,27.241211c-3.867188,9.345703-12.983398,15.43457-23.095703,15.43457H75
	c-13.808594,0-25-11.191406-25-25v-100c0-10.112305,6.088867-19.228516,15.43457-23.095703
	c9.326172-3.881836,20.087891-1.738281,27.241211,5.419922l29.715576,29.715576
	C187.964478,101.389771,289.656372,49.998779,400,49.998779C592.988281,49.998779,750,207.010498,750,399.998779z M375,174.998779
	c-13.808594,0-25,11.191406-25,25v200c0,0.327759,0.084229,0.631714,0.096436,0.956421
	c0.032959,0.895996,0.13855,1.777954,0.269165,2.669067c0.112305,0.76416,0.22522,1.519165,0.404663,2.259521
	c0.192871,0.79834,0.457153,1.572876,0.731201,2.354736c0.275269,0.784912,0.55481,1.557007,0.903931,2.303467
	c0.319824,0.684204,0.699463,1.339722,1.085815,2.001343c0.458984,0.785522,0.933228,1.548462,1.472778,2.276001
	c0.19043,0.256958,0.31311,0.542603,0.514526,0.794678l100,125c4.936523,6.176758,12.202148,9.384766,19.536133,9.384766
	c5.478516,0,10.996094-1.791992,15.600586-5.478516c10.78125-8.623047,12.53418-24.355469,3.90625-35.136719L400,391.231689
	v-191.23291C400,186.190186,388.808594,174.998779,375,174.998779z"/>
</svg>
