<?xml version="1.0" encoding="utf-8"?>
<!-- Generator: Adobe Illustrator 21.0.0, SVG Export Plug-In . SVG Version: 6.00 Build 0)  -->
<svg version="1.1" id="Layer_1" xmlns="http://www.w3.org/2000/svg" xmlns:xlink="http://www.w3.org/1999/xlink" x="0px" y="0px"
	 viewBox="0 0 800 800" enable-background="new 0 0 800 800" xml:space="preserve">
<path fill="#000101" d="M725,374.998779c-13.808594,0-25,11.191406-25,25c0,165.419922-134.580078,300-300,300
	s-300-134.580078-300-300s134.580078-300,300-300c59.511719,0,116.624756,17.575684,165.081787,49.56665l-57.757568,57.757568
	c-7.15332,7.148438-9.291992,17.900391-5.419922,27.246094c3.867188,9.335938,12.983398,15.429688,23.095703,15.429688h150
	c13.808594,0,25-11.191406,25-25v-150c0-10.107422-6.088867-19.228516-15.43457-23.095703
	c-9.321289-3.867188-20.092773-1.738281-27.241211,5.419922l-56.237183,56.237183
	C542.802124,72.576904,472.93457,49.998779,400,49.998779c-192.988281,0-350,157.011719-350,350s157.011719,350,350,350
	s350-157.011719,350-350C750,386.190186,738.808594,374.998779,725,374.998779z"/>
</svg>
