<?xml version="1.0" encoding="utf-8"?>
<!-- Generator: Adobe Illustrator 21.0.0, SVG Export Plug-In . SVG Version: 6.00 Build 0)  -->
<svg version="1.1" id="Layer_1" xmlns="http://www.w3.org/2000/svg" xmlns:xlink="http://www.w3.org/1999/xlink" x="0px" y="0px"
	 viewBox="0 0 800 800" enable-background="new 0 0 800 800" xml:space="preserve">
<path fill="#010101" d="M400,49.998779c-192.988281,0-350,157.011719-350,350s157.011719,350,350,350s350-157.011719,350-350
	S592.988281,49.998779,400,49.998779z M400,699.998779c-165.419922,0-300-134.580078-300-300s134.580078-300,300-300
	s300,134.580078,300,300S565.419922,699.998779,400,699.998779z M531.259766,490.740967l37.480469,33.085938
	C526.015625,572.235107,464.511719,599.998779,400,599.998779c-64.521484,0-126.025391-27.763672-168.740234-76.162109
	l37.5-33.085938C301.982422,528.406982,349.814453,549.998779,400,549.998779
	C450.175781,549.998779,498.017578,528.397217,531.259766,490.740967z M300,399.998779h-50v-150h50V399.998779z M550,399.998779h-50
	v-150h50V399.998779z"/>
</svg>
