<?xml version="1.0" encoding="utf-8"?>
<!-- Generator: Adobe Illustrator 21.0.0, SVG Export Plug-In . SVG Version: 6.00 Build 0)  -->
<svg version="1.1" id="Layer_1" xmlns="http://www.w3.org/2000/svg" xmlns:xlink="http://www.w3.org/1999/xlink" x="0px" y="0px"
	 viewBox="0 0 800 800" enable-background="new 0 0 800 800" xml:space="preserve">
<path fill="#010101" d="M400,49.998779c-192.988281,0-350,157.011719-350,350s157.011719,350,350,350s350-157.011719,350-350
	S592.988281,49.998779,400,49.998779z M300,682.797241v-57.798462c0-32.792969,15.341797-50.966797,25.498047-62.988281
	c2.709961-3.212891,4.916992-5.913086,6.416016-8.081055l21.318359-30.737305l-36.552734-7.93457
	C242.529297,499.154053,200,460.516357,200,409.256592c0-28.481445,6.879883-52.714844,20.454102-72.026367L225,330.760498
	v-76.450195c28.208008,4.960938,51.665039,17.470703,69.926758,28.686523l8.754883,5.375977l10.009766-2.333984
	c25.371094-5.922852,54.40918-8.925781,86.308594-8.925781s60.9375,3.00293,86.313477,8.925781l10.009766,2.333984
	l8.759766-5.375977C523.339844,271.781006,546.787109,259.27124,575,254.310303v76.450195l4.545898,6.469727
	C593.120117,356.541748,600,380.775146,600,409.256592c0,51.259766-42.529297,89.897461-116.679688,106.000977l-36.552734,7.93457
	l21.318359,30.737305c1.499023,2.167969,3.706055,4.868164,6.416016,8.081055C484.658203,574.031982,500,592.205811,500,624.998779
	v57.798462c-31.298828,11.101074-64.943848,17.201538-100,17.201538S331.298828,693.898315,300,682.797241z M550,659.638672
	v-34.639893c0-31.21582-9.40918-54.49707-19.487305-71.152344C606.035156,527.30835,650,475.008545,650,409.256592
	c0-35.834961-8.40332-67.387695-25-93.925781V202.113037h-25c-50.625,0-91.230469,20.629883-112.412109,33.041992
	c-26.52832-5.336914-55.9375-8.041992-87.587891-8.041992s-61.05957,2.705078-87.587891,8.041992
	C291.230469,222.747803,250.620117,202.113037,200,202.113037h-25v113.217773c-16.59668,26.538086-25,58.09082-25,93.925781
	c0,65.751953,43.964844,118.051758,119.487305,144.589844C259.40918,570.501709,250,593.782959,250,624.998779v34.639893
	c-89.578247-51.954346-150-148.843384-150-259.639893c0-165.419922,134.580078-300,300-300s300,134.580078,300,300
	C700,510.795288,639.578247,607.684326,550,659.638672z"/>
</svg>
