<?xml version="1.0" encoding="utf-8"?>
<!-- Generator: Adobe Illustrator 21.0.0, SVG Export Plug-In . SVG Version: 6.00 Build 0)  -->
<svg version="1.1" id="Layer_1" xmlns="http://www.w3.org/2000/svg" xmlns:xlink="http://www.w3.org/1999/xlink" x="0px" y="0px"
	 viewBox="0 0 800 800" enable-background="new 0 0 800 800" xml:space="preserve">
<path fill="#010101" d="M789.912109,379.935303l-370-275c-8.759766-6.518555-20.732422-6.586914-29.570312-0.19043l-380,275
	c-11.181641,8.095703-13.691406,23.725586-5.595703,34.912109c4.892578,6.75293,12.529297,10.341797,20.273438,10.341797
	c5.078125,0,10.205078-1.542969,14.638672-4.746094L100,376.583862v298.414917c0,13.808594,11.191406,25,25,25h150
	c13.808594,0,25-11.191406,25-25v-225h200v225c0,13.808594,11.191406,25,25,25h150c13.808594,0,25-11.191406,25-25V375.402222
	l60.087891,44.660034c11.074219,8.227539,26.728516,5.927734,34.980469-5.151367
	C803.300781,403.831787,800.996094,388.167725,789.912109,379.935303z M650,349.998779v300H550v-225c0-13.808594-11.191406-25-25-25
	H275c-13.808594,0-25,11.191406-25,25v225H150v-300c0-2.985229-0.610962-5.809326-1.570435-8.463135l256.375122-185.535889
	l247.37915,183.863525C650.802612,342.966309,650,346.382446,650,349.998779z"/>
</svg>
