<?xml version="1.0" encoding="utf-8"?>
<!-- Generator: Adobe Illustrator 21.0.0, SVG Export Plug-In . SVG Version: 6.00 Build 0)  -->
<svg version="1.1" id="Layer_1" xmlns="http://www.w3.org/2000/svg" xmlns:xlink="http://www.w3.org/1999/xlink" x="0px" y="0px"
	 viewBox="0 0 800 800" enable-background="new 0 0 800 800" xml:space="preserve">
<path fill="#000101" d="M422.172852,528.260498c-40.185547,0-77.958984-15.649414-106.37207-44.0625
	c-9.765625-9.760742-9.765625-25.59082,0-35.351563c9.755859-9.765625,25.595703-9.765625,35.351563,0
	c18.969727,18.969727,44.194336,29.414063,71.020508,29.414063s52.050781-10.444336,71.020508-29.414063l177.392578-177.392578
	C689.550781,252.484131,700,227.259521,700,200.43335s-10.449219-52.050781-29.414063-71.020508
	c-18.969727-18.969727-44.194336-29.414063-71.020508-29.414063s-52.050781,10.444336-71.020508,29.414063l-88.261719,88.261719
	c-9.755859,9.765625-25.595703,9.765625-35.351563,0c-9.765625-9.760742-9.765625-25.59082,0-35.351563l88.261719-88.261719
	c28.413086-28.413086,66.186523-44.0625,106.37207-44.0625s77.958984,15.649414,106.37207,44.0625S750,160.247803,750,200.43335
	s-15.649414,77.958984-44.0625,106.37207L528.544922,484.197998C500.131836,512.611084,462.358398,528.260498,422.172852,528.260498
	z M306.806641,705.936279l88.261719-88.261719c9.765625-9.760742,9.765625-25.59082,0-35.351563
	c-9.755859-9.765625-25.595703-9.765625-35.351563,0l-88.261719,88.261719
	c-18.969727,18.969727-44.194336,29.414063-71.020508,29.414063s-52.050781-10.444336-71.020508-29.414063
	C110.449219,651.61499,100,626.390381,100,599.564209s10.449219-52.050781,29.414063-71.020508l177.392578-177.392578
	c18.969727-18.969727,44.194336-29.414063,71.020508-29.414063s52.050781,10.444336,71.020508,29.414063
	c9.755859,9.765625,25.595703,9.765625,35.351563,0c9.765625-9.760742,9.765625-25.59082,0-35.351563
	c-28.413086-28.413086-66.186523-44.0625-106.37207-44.0625s-77.958984,15.649414-106.37207,44.0625L94.0625,493.192139
	C65.649414,521.605225,50,559.378662,50,599.564209s15.649414,77.958984,44.0625,106.37207s66.186523,44.0625,106.37207,44.0625
	S278.393555,734.349365,306.806641,705.936279z"/>
</svg>
