<?xml version="1.0" encoding="utf-8"?>
<!-- Generator: Adobe Illustrator 21.0.0, SVG Export Plug-In . SVG Version: 6.00 Build 0)  -->
<svg version="1.1" id="Layer_1" xmlns="http://www.w3.org/2000/svg" xmlns:xlink="http://www.w3.org/1999/xlink" x="0px" y="0px"
	 viewBox="0 0 800 800" enable-background="new 0 0 800 800" xml:space="preserve">
<path fill="#010101" d="M400,49.998779c-192.988281,0-350,157.011719-350,350s157.011719,350,350,350s350-157.011719,350-350
	S592.988281,49.998779,400,49.998779z M400,699.998779c-165.419922,0-300-134.580078-300-300s134.580078-300,300-300
	s300,134.580078,300,300S565.419922,699.998779,400,699.998779z M550,324.998779
	c0,51.108398-27.822266,91.611328-76.328125,111.12793C433.359375,452.342529,400,468.338623,400,499.998779h-50
	c0-68.012695,65.732422-94.458008,105.009766-110.258789C484.863281,377.728271,500,355.946045,500,324.998779
	c0-43.457031-42.060547-75-100-75c-27.353516,0-65.371094,15.078125-78.359375,37.524414l-43.28125-25.048828
	C301.855469,221.893311,358.564453,199.998779,400,199.998779C485.517578,199.998779,550,253.739014,550,324.998779z
	 M350,549.998779h50v50h-50V549.998779z"/>
</svg>
