<?xml version="1.0" encoding="utf-8"?>
<!-- Generator: Adobe Illustrator 21.0.0, SVG Export Plug-In . SVG Version: 6.00 Build 0)  -->
<svg version="1.1" id="Layer_1" xmlns="http://www.w3.org/2000/svg" xmlns:xlink="http://www.w3.org/1999/xlink" x="0px" y="0px"
	 viewBox="0 0 800 800" enable-background="new 0 0 800 800" xml:space="preserve">
<path fill="#010101" d="M675,49.998779c-95.3125,0-266.416016-48.549805-268.134766-49.038086
	c-4.492188-1.279297-9.257812-1.279297-13.730469,0C391.416016,1.448975,220.390625,49.998779,125,49.998779
	c-13.808594,0-25,11.191406-25,25v372.802734c0,172.709961,123.330078,320.488281,293.242188,351.376953l2.275391,0.415039
	c1.484375,0.268555,2.978516,0.405273,4.482422,0.405273s2.998047-0.136719,4.482422-0.405273l2.275391-0.415039h-0.009766
	C576.669922,768.289795,700,620.511475,700,447.801514V74.998779C700,61.190186,688.808594,49.998779,675,49.998779z
	 M650,447.801514c0,147.788086-105,274.345703-250,301.777344C255,722.147217,150,595.5896,150,447.801514V99.158936
	c91.943359-5.771484,218.867188-39.589844,250-48.198242c31.132812,8.608398,158.056641,42.426758,250,48.198242V447.801514z
	 M350,199.998779h50v300h-50V199.998779z M350,549.998779h50v50h-50V549.998779z"/>
</svg>
