<!--Generator: Adobe Illustrator 21.0.0, SVG Export Plug-In . SVG Version: 6.00 Build 0)--><svg version="1.1" id="圖層_1" x="0px" y="0px" viewBox="0 0 90 90" enable-background="new 0 0 90 90" xml:space="preserve"><path d="M86.7,41C80,33.5,63.8,18,45,18S10,33.5,3.3,41c-2,2.3-2,5.7,0,8C10,56.5,26.2,72,45,72s35-15.5,41.7-23
	C88.7,46.7,88.7,43.3,86.7,41z M41.6,24.4c3.7,1.1,6.4,4.6,6.4,8.6c0,5-4,9-9,9c-4.1,0-7.5-2.7-8.6-6.4C30.1,34.8,30,33.9,30,33
	c0-2.6,1.1-4.9,2.9-6.6c1.6-1.5,3.8-2.4,6.1-2.4c0.7,0,1.5,0.1,2.1,0.3C41.3,24.3,41.5,24.3,41.6,24.4z M45,66
	C28.4,66,13.4,51.3,7.8,45c3.4-3.8,10-10.5,18.4-15.4c-1.4,2.8-2.2,6-2.2,9.3c0,11.6,9.4,21,21,21s21-9.4,21-21
	c0-3.4-0.8-6.5-2.2-9.3c8.4,4.8,15,11.6,18.4,15.3C76.6,51.3,61.6,66,45,66z"/></svg>