<!--Generator: Adobe Illustrator 21.0.0, SVG Export Plug-In . SVG Version: 6.00 Build 0)--><svg version="1.1" id="圖層_1" x="0px" y="0px" viewBox="0 0 90 90" enable-background="new 0 0 90 90" xml:space="preserve"><path d="M14.8,49.8L14,50.5l-1.7,1.7L10.5,54l-0.8,0.8l-2,2L6,58.5V61v2v9v6v6h6h6h9h2h2.5l1.8-1.8l2-2l0.8-0.8l4.2-4.2L74.5,41
	L49,15.5L14.8,49.8z M29,78h-2h-9h-6v-6v-9v-2l2-2l17,17L29,78z M82.9,32.5L82.9,32.5l-4.2,4.2L53.3,11.3l4.2-4.2l0,0
	c2.3-2.3,6.1-2.3,8.5,0l17,17l0,0C85.3,26.4,85.3,30.2,82.9,32.5z"/></svg>