<!--Generator: Adobe Illustrator 21.0.0, SVG Export Plug-In . SVG Version: 6.00 Build 0)--><svg version="1.1" id="圖層_1" x="0px" y="0px" viewBox="0 0 90 90" enable-background="new 0 0 90 90" xml:space="preserve"><path d="M86.7,49c-6,6.7-19.4,19.6-35.5,22.5l4.4-7.3C67.7,60,77.8,49.9,82.2,45c-2.1-2.3-5.4-5.8-9.6-9.2l3.1-5.2
	c4.7,3.8,8.5,7.6,11,10.4C88.7,43.3,88.7,46.7,86.7,49z M59.1,34L46.4,53.9l-1.9,3l-1.8,2.9l-3.5,5.5l-3.4,5.4l-6.6,10.4l-10.1-6.4
	l5.5-8.6C14.9,61,7.4,53.5,3.3,49c-2-2.3-2-5.7,0-8C10,33.5,26.2,18,45,18c0.4,0,0.9,0,1.3,0c2.7,0.1,5.4,0.5,8,1.2l6.6-10.4
	l10.1,6.4l-5.5,8.6l-2.7,4.3l-0.5,0.8l-1.3,2.1L59.1,34z M47.5,30c-1-2.7-3.1-4.7-5.8-5.6c-0.2,0-0.3-0.1-0.5-0.1
	C40.5,24.1,39.7,24,39,24c-2.4,0-4.5,0.9-6.1,2.4c-1.8,1.6-2.9,4-2.9,6.6c0,0.9,0.1,1.8,0.4,2.6c1.1,3.7,4.6,6.4,8.6,6.4
	c0.3,0,0.6,0,0.8,0L47.5,30z M31.5,55.1C26.9,51.2,24,45.4,24,39c0-3.4,0.8-6.5,2.2-9.3c-8.4,4.8-15,11.6-18.4,15.4
	c3.6,4,10.8,11.3,19.8,16.1L31.5,55.1z"/></svg>