<?xml version="1.0"?>
<svg xmlns="http://www.w3.org/2000/svg" xmlns:xlink="http://www.w3.org/1999/xlink">
  <view id="alert" viewBox="0 0 80 80">
</view>
<g transform="translate(0,0)"><path d="M74.618 67.553L41.9 12.266a4.891 4.891 0 00-4.245-2.421 4.891 4.891 0 00-4.246 2.42L.691 67.555a4.88 4.88 0 00-.04 4.956A4.88 4.88 0 004.937 75h65.435a4.88 4.88 0 004.286-2.49 4.882 4.882 0 00-.04-4.957zM37.714 14.81h-.007l-2.146-1.27 2.153 1.27zM5.054 70l32.601-55.09L70.255 70H5.055zm30.101-35h5v20h-5V35zm0 25h5v5h-5v-5z"/></g>
<view id="bars" viewBox="80 0 80 80">
</view>
<g transform="translate(80,0)"><path d="M77.5 25h-75a2.5 2.5 0 110-5h75a2.5 2.5 0 110 5zM80 42.5a2.5 2.5 0 00-2.5-2.5h-75a2.5 2.5 0 100 5h75a2.5 2.5 0 002.5-2.5zm0 20a2.5 2.5 0 00-2.5-2.5h-75a2.5 2.5 0 100 5h75a2.5 2.5 0 002.5-2.5z"/></g>
<view id="bell" viewBox="160 0 80 80">
</view>
<g transform="translate(160,0)"><path d="M68.063 65h-.124c-.72-1.014-3.284-6.647-3.338-35.457-.024-12.69-9.73-23.16-22.101-24.417V2.5a2.5 2.5 0 10-5 0v2.626C25.128 6.382 15.423 16.853 15.399 29.543 15.345 58.353 12.782 63.986 12.06 65h-.124a2.5 2.5 0 000 5H30c0 5.514 4.486 10 10 10s10-4.486 10-10h18.063a2.5 2.5 0 000-5zM40 75c-2.757 0-5-2.243-5-5h10c0 2.757-2.243 5-5 5zM17.473 65c1.69-5.1 2.888-15.283 2.926-35.447C20.419 18.77 29.213 10 40 10s19.58 8.771 19.601 19.553C59.64 49.717 60.837 59.899 62.527 65H17.473z"/></g>
<view id="book" viewBox="240 0 80 80">
</view>
<g transform="translate(240,0)"><path d="M72.5 5H45c-2.988 0-5.666 1.324-7.5 3.408C35.666 6.324 32.988 5 30 5H7.5A2.5 2.5 0 005 7.5v60A2.5 2.5 0 007.5 70H30c4.562 0 4.98 3.834 5 5.016v.012c.001.098.02.19.032.286.009.069.009.14.023.207.02.092.054.177.083.265.023.067.037.137.065.201.033.077.08.147.12.22.038.067.068.138.112.202.041.06.094.112.14.17.055.065.104.136.165.196.046.045.1.08.149.122.072.062.141.128.22.18.053.036.113.06.168.091.084.048.165.1.255.138.077.032.16.05.24.074.076.023.148.054.227.07a2.51 2.51 0 001.004 0c.047-.01.09-.03.136-.043.113-.03.227-.058.333-.103.05-.021.093-.052.141-.076.096-.049.194-.094.283-.154.055-.037.103-.086.155-.127.072-.058.148-.111.214-.177.054-.053.096-.116.145-.175.054-.064.113-.124.16-.193.044-.065.075-.137.112-.206.04-.072.086-.141.119-.218.031-.073.048-.153.072-.23.025-.079.057-.155.074-.237.016-.076.017-.157.025-.235.01-.087.027-.171.028-.26.02-1.182.437-5.016 5-5.016h27.5a2.5 2.5 0 002.5-2.5v-60A2.5 2.5 0 0072.5 5zM30 65H10V10h20c2.757 0 5 2.243 5 5v51.173C33.653 65.444 32.001 65 30 65zm40 0H45c-2.001 0-3.653.444-5 1.173V15c0-2.757 2.243-5 5-5h25v55z"/></g>
<view id="branch" viewBox="320 0 80 80">
</view>
<g transform="translate(320,0)"><path d="M70 12.5C70 5.607 64.393 0 57.5 0S45 5.607 45 12.5c0 6.037 4.301 11.087 10 12.248V25c0 8.271-6.729 15-15 15H25V24.748c5.699-1.161 10-6.211 10-12.248C35 5.607 29.393 0 22.5 0S10 5.607 10 12.5c0 6.037 4.301 11.087 10 12.248v30.504c-5.699 1.161-10 6.211-10 12.248C10 74.393 15.607 80 22.5 80S35 74.393 35 67.5c0-6.037-4.301-11.087-10-12.248V45h15c11.028 0 20-8.972 20-20v-.252c5.699-1.161 10-6.211 10-12.248zm-55 0C15 8.364 18.364 5 22.5 5S30 8.364 30 12.5 26.636 20 22.5 20 15 16.636 15 12.5zm15 55c0 4.136-3.364 7.5-7.5 7.5S15 71.636 15 67.5s3.364-7.5 7.5-7.5 7.5 3.364 7.5 7.5zM57.5 20c-4.136 0-7.5-3.364-7.5-7.5S53.364 5 57.5 5 65 8.364 65 12.5 61.636 20 57.5 20z"/></g>
<view id="building" viewBox="400 0 80 80">
</view>
<g transform="translate(400,0)"><path d="M67.5 0h-55A2.5 2.5 0 0010 2.5v75a2.5 2.5 0 002.5 2.5h55a2.5 2.5 0 002.5-2.5v-75A2.5 2.5 0 0067.5 0zM25 75V65h30v10H25zm40 0h-5V62.5a2.5 2.5 0 00-2.5-2.5h-35a2.5 2.5 0 00-2.5 2.5V75h-5V5h50v70zM45 47.5a2.5 2.5 0 012.5-2.5h10a2.5 2.5 0 110 5h-10a2.5 2.5 0 01-2.5-2.5zm-25 0a2.5 2.5 0 012.5-2.5h10a2.5 2.5 0 110 5h-10a2.5 2.5 0 01-2.5-2.5zm25-15a2.5 2.5 0 012.5-2.5h10a2.5 2.5 0 110 5h-10a2.5 2.5 0 01-2.5-2.5zm-25 0a2.5 2.5 0 012.5-2.5h10a2.5 2.5 0 110 5h-10a2.5 2.5 0 01-2.5-2.5zm25-15a2.5 2.5 0 012.5-2.5h10a2.5 2.5 0 110 5h-10a2.5 2.5 0 01-2.5-2.5zm-25 0a2.5 2.5 0 012.5-2.5h10a2.5 2.5 0 110 5h-10a2.5 2.5 0 01-2.5-2.5z"/></g>
<view id="bulb" viewBox="480 0 80 80">
</view>
<g transform="translate(480,0)"><path d="M60.006 7.645C53.659 1.963 45.13-.761 36.586.189 22.569 1.74 11.444 13.071 10.135 27.132c-.862 9.246 2.482 18.206 9.173 24.58C22.979 55.21 25 59.757 25 64.515V72.5c0 4.136 3.364 7.5 7.5 7.5h15c4.136 0 7.5-3.364 7.5-7.5v-7.522c0-5.006 2.049-9.817 5.621-13.198C66.67 46.056 70 38.32 70 30c0-8.52-3.643-16.668-9.994-22.355zM50 72.5c0 1.379-1.121 2.5-2.5 2.5h-15a2.502 2.502 0 01-2.5-2.5v-7.986c0-1.53-.16-3.04-.472-4.514h21.014A23.363 23.363 0 0050 64.978V72.5zM45 55H35V37.17l3.613 2.41c.84.56 1.934.56 2.774 0L45 37.17V55zm12.184-6.85A22.839 22.839 0 0052.242 55H50V32.5a2.5 2.5 0 00-3.887-2.08L40 34.495l-6.113-4.075A2.5 2.5 0 0030 32.5V55h-2.186c-1.215-2.524-2.912-4.863-5.058-6.907-5.576-5.314-8.361-12.784-7.644-20.498C16.203 15.887 25.466 6.45 37.138 5.158c.97-.107 1.936-.16 2.893-.16 6.171 0 11.994 2.212 16.64 6.371A25.043 25.043 0 0165 30c0 6.933-2.775 13.379-7.816 18.15zM45 67.5a2.5 2.5 0 01-2.5 2.5h-5a2.5 2.5 0 110-5h5a2.5 2.5 0 012.5 2.5z"/></g>
<view id="certificate" viewBox="560 0 80 80">
</view>
<g transform="translate(560,0)"><path d="M69.735 21.404a2.451 2.451 0 00-.075-.142 2.485 2.485 0 00-.392-.53l-20-20a2.48 2.48 0 00-.53-.392 2.488 2.488 0 00-.747-.292h-.007A2.498 2.498 0 0047.5 0h-35A2.5 2.5 0 0010 2.5v75a2.5 2.5 0 002.5 2.5h55a2.5 2.5 0 002.5-2.5v-55c0-.385-.098-.756-.265-1.096zM40 47.5c-5.514 0-10-4.486-10-10s4.486-10 10-10 10 4.486 10 10-4.486 10-10 10zM50 8.536l5.732 5.732L61.464 20H50V8.536zM15 75V5h30v17.5c0 .334.068.652.187.944-1.619-.6-3.362-.944-5.187-.944-8.271 0-15 6.729-15 15 0 5.368 2.843 10.072 7.093 12.723l-4.33 8.659a2.5 2.5 0 004.473 2.236l4.494-8.988c1.054.236 2.146.37 3.27.37s2.216-.134 3.27-.37l4.494 8.988a2.5 2.5 0 004.472-2.236l-4.33-8.659C52.158 47.572 55 42.868 55 37.5c0-5.214-2.677-9.811-6.726-12.5H65v50H15z"/></g>
<view id="check-circle" viewBox="640 0 80 80">
</view>
<g transform="translate(640,0)"><path d="M61.768 30.365L34.634 57.5 18.232 41.097l3.536-3.535 12.866 12.866L58.232 26.83l3.536 3.535zM75 40c0 19.299-15.701 35-35 35S5 59.299 5 40 20.701 5 40 5s35 15.701 35 35zm-5 0c0-16.542-13.458-30-30-30S10 23.458 10 40s13.458 30 30 30 30-13.458 30-30z"/></g>
<view id="check" viewBox="720 0 80 80">
</view>
<g transform="translate(720,0)"><path d="M29.94 68.597L.731 39.389l3.536-3.535 25.671 25.671 45.793-45.793 3.536 3.536z"/></g>
<view id="checkbox-off" viewBox="800 0 80 80">
</view>
<g transform="translate(800,0)"><path d="M75 75H5V5h70v70zm-65-5h60V10H10v60z"/></g>
<view id="checkbox-on" viewBox="880 0 80 80">
</view>
<g transform="translate(880,0)"><path d="M5 5v70h70V5H5zm65 65H10V10h60v60zM60 60H20V20h40v40z"/></g>
<view id="chevron-down" viewBox="960 0 80 80">
</view>
<g transform="translate(960,0)"><path d="M-.152 12.354A2.5 2.5 0 013.92 10.41l35.905 29.02 35.944-29.322a2.499 2.499 0 113.16 3.874L41.411 44.588a2.499 2.499 0 01-3.151.007L.777 14.3a2.495 2.495 0 01-.929-1.945zm.929 27.248L38.26 69.898c.92.744 2.235.74 3.151-.007l37.517-30.606a2.499 2.499 0 10-3.16-3.874L39.824 64.734 3.92 35.714a2.5 2.5 0 10-3.143 3.888z"/></g>
<view id="chevron-left" viewBox="1040 0 80 80">
</view>
<g transform="translate(1040,0)"><path d="M65.549 79.071L35.253 41.588a2.499 2.499 0 01.007-3.151L65.866.92a2.499 2.499 0 113.874 3.16L40.417 40.024l29.02 35.905a2.5 2.5 0 11-3.888 3.142zM42.192 80a2.5 2.5 0 001.943-4.071l-29.02-35.905L44.437 4.08A2.499 2.499 0 1040.563.92L9.957 38.437a2.499 2.499 0 00-.007 3.151l30.297 37.483a2.495 2.495 0 001.945.929z"/></g>
<view id="chevron-right" viewBox="1120 0 80 80">
</view>
<g transform="translate(1120,0)"><path d="M12.203 80a2.5 2.5 0 01-1.943-4.071l29.02-35.905L9.958 4.08A2.499 2.499 0 1113.832.92l30.605 37.517c.748.917.751 2.231.007 3.151L14.148 79.071a2.495 2.495 0 01-1.945.929zm27.248-.929l30.296-37.483c.744-.92.74-2.234-.007-3.151L39.134.92a2.499 2.499 0 10-3.874 3.16l29.323 35.944L35.562 75.93a2.5 2.5 0 103.889 3.142z"/></g>
<view id="chevron-up" viewBox="1200 0 80 80">
</view>
<g transform="translate(1200,0)"><path d="M79.849 67.646a2.5 2.5 0 01-4.071 1.943l-35.905-29.02L3.93 69.89a2.499 2.499 0 11-3.16-3.874L38.286 35.41a2.499 2.499 0 013.151-.007L78.92 65.7c.612.494.929 1.217.929 1.946zm-.929-27.248L41.437 10.1a2.499 2.499 0 00-3.151.007L.769 40.714a2.499 2.499 0 103.16 3.874l35.944-29.322 35.905 29.02a2.5 2.5 0 103.142-3.888z"/></g>
<view id="clipboard" viewBox="1280 0 80 80">
</view>
<g transform="translate(1280,0)"><path d="M67.5 5H55V2.5A2.5 2.5 0 0052.5 0h-25A2.5 2.5 0 0025 2.5V5H12.5A2.5 2.5 0 0010 7.5v70a2.5 2.5 0 002.5 2.5h55a2.5 2.5 0 002.5-2.5v-70A2.5 2.5 0 0067.5 5zM30 5h20v10H30V5zm35 70H15V10h10v7.5a2.5 2.5 0 002.5 2.5h25a2.5 2.5 0 002.5-2.5V10h10v65z"/></g>
<view id="clone" viewBox="1360 0 80 80">
</view>
<g transform="translate(1360,0)"><path d="M60 57.5v-50A2.5 2.5 0 0057.5 5h-50A2.5 2.5 0 005 7.5v50A2.5 2.5 0 007.5 60h50a2.5 2.5 0 002.5-2.5zM55 55H10V10h45v45zm20-32.5v50a2.5 2.5 0 01-2.5 2.5h-50a2.5 2.5 0 01-2.5-2.5v-5a2.5 2.5 0 115 0V70h45V25h-2.5a2.5 2.5 0 110-5h5a2.5 2.5 0 012.5 2.5z"/></g>
<view id="close-circle" viewBox="1440 0 80 80">
</view>
<g transform="translate(1440,0)"><path d="M56.768 26.768L43.535 40l13.233 13.232-3.536 3.536L40 43.535 26.768 56.768l-3.536-3.536L36.465 40 23.232 26.768l3.536-3.536L40 36.465l13.232-13.233 3.536 3.536zM75 40c0 19.299-15.701 35-35 35S5 59.299 5 40 20.701 5 40 5s35 15.701 35 35zm-5 0c0-16.542-13.458-30-30-30S10 23.458 10 40s13.458 30 30 30 30-13.458 30-30z"/></g>
<view id="close" viewBox="1520 0 80 80">
</view>
<g transform="translate(1520,0)"><path d="M71.768 11.768l-3.536-3.536L40 36.465 11.768 8.232l-3.536 3.536L36.465 40 8.232 68.232l3.536 3.536L40 43.535l28.232 28.233 3.536-3.536L43.535 40z"/></g>
<view id="code" viewBox="1600 0 80 80">
</view>
<g transform="translate(1600,0)"><path d="M30.65 69.182L4.122 40 30.65 10.818l3.7 3.364L10.878 40 34.35 65.818l-3.7 3.364zM75.878 40L49.35 10.818l-3.7 3.364L69.122 40 45.65 65.818l3.7 3.364L75.878 40z"/></g>
<view id="comment" viewBox="1680 0 80 80">
</view>
<g transform="translate(1680,0)"><path d="M65 70h-7.5c-6.037 0-11.087-4.302-12.249-10H7.5C3.364 60 0 56.636 0 52.5v-35C0 13.364 3.364 10 7.5 10h65c4.136 0 7.5 3.364 7.5 7.5v35c0 4.136-3.364 7.5-7.5 7.5H65v10zM7.5 15A2.503 2.503 0 005 17.5v35C5 53.879 6.122 55 7.5 55H50v2.5c0 4.136 3.364 7.5 7.5 7.5H60V55h12.5c1.378 0 2.5-1.121 2.5-2.5v-35c0-1.379-1.122-2.5-2.5-2.5h-65z"/></g>
<view id="dart-down" viewBox="1760 0 80 80">
</view>
<g transform="translate(1760,0)"><path d="M0 17.508a2.5 2.5 0 014.426-1.595l35.551 42.962L75.57 15.609a2.5 2.5 0 013.862 3.177L41.914 64.39a2.5 2.5 0 01-3.857.005L.574 19.1A2.49 2.49 0 010 17.508z"/></g>
<view id="dart-left" viewBox="1840 0 80 80">
</view>
<g transform="translate(1840,0)"><path d="M62.492 80a2.5 2.5 0 001.595-4.426L21.126 40.023 64.39 4.43A2.5 2.5 0 0061.214.569L15.61 38.086a2.5 2.5 0 00-.005 3.857L60.9 79.426a2.49 2.49 0 001.592.574z"/></g>
<view id="dart-right" viewBox="1920 0 80 80">
</view>
<g transform="translate(1920,0)"><path d="M17.508 80a2.5 2.5 0 01-1.595-4.426l42.962-35.551L15.609 4.43A2.5 2.5 0 0118.786.569L64.39 38.086a2.5 2.5 0 01.005 3.857L19.1 79.426a2.49 2.49 0 01-1.592.574z"/></g>
<view id="dart-up" viewBox="2000 0 80 80">
</view>
<g transform="translate(2000,0)"><path d="M80 62.492a2.5 2.5 0 01-4.426 1.595L40.023 21.126 4.43 64.39a2.5 2.5 0 01-3.862-3.177L38.086 15.61a2.5 2.5 0 013.857-.005L79.426 60.9A2.49 2.49 0 0180 62.492z"/></g>
<view id="desktop" viewBox="2080 0 80 80">
</view>
<g transform="translate(2080,0)"><path d="M80 55V10H0v45h27.5v10H15v5h50v-5H52.5V55H80zM5 50V15h70v35H5zm42.5 15h-15V55h15v10z"/></g>
<view id="doc" viewBox="2160 0 80 80">
</view>
<g transform="translate(2160,0)"><path d="M69.735 21.404a2.451 2.451 0 00-.075-.142 2.485 2.485 0 00-.392-.53l-20-20a2.485 2.485 0 00-.528-.39 2.493 2.493 0 00-.75-.293h-.003A2.496 2.496 0 0047.5 0h-35A2.5 2.5 0 0010 2.5v75a2.5 2.5 0 002.5 2.5h55a2.5 2.5 0 002.5-2.5v-55c0-.385-.098-.756-.265-1.096zM61.465 20H50V8.535L61.465 20zM15 75V5h30v10H27.5a2.5 2.5 0 100 5H45v2.5a2.5 2.5 0 002.5 2.5H65v50H15zm40-42.5a2.5 2.5 0 01-2.5 2.5h-25a2.5 2.5 0 110-5h25a2.5 2.5 0 012.5 2.5zm0 15a2.5 2.5 0 01-2.5 2.5h-25a2.5 2.5 0 110-5h25a2.5 2.5 0 012.5 2.5zm0 15a2.5 2.5 0 01-2.5 2.5h-25a2.5 2.5 0 110-5h25a2.5 2.5 0 012.5 2.5z"/></g>
<view id="download" viewBox="2240 0 80 80">
</view>
<g transform="translate(2240,0)"><path d="M70 75v5H10v-5h60zm-.732-40.732l-3.536-3.536L40 56.464V0h-5v56.464L9.268 30.732l-3.536 3.536L37.5 66.036l31.768-31.768z"/></g>
<view id="exclamation-circle" viewBox="2320 0 80 80">
</view>
<g transform="translate(2320,0)"><path d="M40 75C20.701 75 5 59.299 5 40S20.701 5 40 5s35 15.701 35 35-15.701 35-35 35zm0-65c-16.542 0-30 13.458-30 30s13.458 30 30 30 30-13.458 30-30-13.458-30-30-30zm0 10h-5v30h5V20zm0 35h-5v5h5v-5z"/></g>
<view id="eye-slash" viewBox="2400 0 80 80">
</view>
<g transform="translate(2400,0)"><path d="M78.81 36.104c-1.608-2.39-7.051-10.012-14.971-16.407l5.429-5.43-3.536-3.535-5.962 5.963C54.034 12.853 47.32 10 40 10 19.775 10 4.122 31.746 1.19 36.104a6.95 6.95 0 000 7.792c1.608 2.39 7.051 10.012 14.971 16.407l-5.429 5.43 3.536 3.535 5.962-5.963C25.966 67.147 32.68 70 40 70c20.225 0 35.878-21.746 38.81-26.104a6.95 6.95 0 000-7.792zm-73.472 5a1.967 1.967 0 010-2.208C6.983 36.45 21.935 15 40 15c5.817 0 11.307 2.23 16.138 5.327L19.744 56.72C11.773 50.396 6.296 42.529 5.338 41.104zm69.324 0C73.017 43.55 58.065 65 40 65c-5.817 0-11.307-2.23-16.138-5.327L60.256 23.28c7.971 6.325 13.448 14.192 14.406 15.617.452.67.452 1.537 0 2.208z"/></g>
<view id="eye" viewBox="2480 0 80 80">
</view>
<g transform="translate(2480,0)"><path d="M40 10C19.775 10 4.122 31.746 1.19 36.104a6.95 6.95 0 000 7.792C4.121 48.254 19.774 70 40 70s35.878-21.746 38.81-26.104a6.95 6.95 0 000-7.792C75.879 31.746 60.226 10 40 10zm34.662 31.104C73.017 43.55 58.065 65 40 65S6.983 43.55 5.338 41.104a1.967 1.967 0 010-2.208C6.983 36.45 21.935 15 40 15s33.017 21.45 34.662 23.896c.452.67.452 1.537 0 2.208zM40 25c-8.271 0-15 6.729-15 15s6.729 15 15 15 15-6.729 15-15-6.729-15-15-15zm0 25c-5.514 0-10-4.486-10-10s4.486-10 10-10 10 4.486 10 10-4.486 10-10 10z"/></g>
<view id="fb" viewBox="2560 0 80 80">
</view>
<g transform="translate(2560,0)"><path d="M65 5H15C9.486 5 5 9.486 5 15v50c0 5.514 4.486 10 10 10h50c5.514 0 10-4.486 10-10V15c0-5.514-4.486-10-10-10zm5 60c0 2.757-2.243 5-5 5H50V45h10v-5H50v-9.907C50 25 50.978 25 55.093 25H62.5v-5h-7.407C51.073 20 45 20 45 30.093V40H35v5h10v25H15c-2.757 0-5-2.243-5-5V15c0-2.757 2.243-5 5-5h50c2.757 0 5 2.243 5 5v50z"/></g>
<view id="file" viewBox="2640 0 80 80">
</view>
<g transform="translate(2640,0)"><path d="M69.952 22.018v-.007a2.487 2.487 0 00-.292-.749 2.48 2.48 0 00-.392-.53l-20-20a2.48 2.48 0 00-.533-.393A2.489 2.489 0 0047.5 0h-35A2.5 2.5 0 0010 2.5v75a2.5 2.5 0 002.5 2.5h55a2.5 2.5 0 002.5-2.5v-55a2.5 2.5 0 00-.048-.482zM61.464 20H50V8.536L61.464 20zM15 75V5h30v17.5a2.5 2.5 0 002.5 2.5H65v50H15z"/></g>
<view id="folder" viewBox="2720 0 80 80">
</view>
<g transform="translate(2720,0)"><path d="M72.5 20H34.571c-.668 0-1.296-.26-1.768-.732l-7.071-7.071A7.45 7.45 0 0020.429 10H7.5C3.364 10 0 13.364 0 17.5v45C0 66.636 3.364 70 7.5 70h65c4.136 0 7.5-3.364 7.5-7.5v-35c0-4.136-3.364-7.5-7.5-7.5zM75 62.5c0 1.378-1.122 2.5-2.5 2.5h-65A2.503 2.503 0 015 62.5v-45C5 16.122 6.122 15 7.5 15h12.93a2.52 2.52 0 011.767.732l7.071 7.071A7.45 7.45 0 0034.571 25H72.5c1.378 0 2.5 1.122 2.5 2.5v35z"/></g>
<view id="gear" viewBox="2800 0 80 80">
</view>
<g transform="translate(2800,0)"><path d="M49 75H31V63.326c-.38-.147-.758-.303-1.13-.468l-8.255 8.255L8.887 58.385l8.255-8.255c-.165-.372-.321-.75-.468-1.13H5V31h11.674c.147-.38.303-.758.468-1.13l-8.255-8.255L21.615 8.887l8.255 8.255c.372-.165.75-.321 1.13-.468V5h18v11.674c.38.147.758.303 1.13.468l8.255-8.255 12.728 12.728-8.255 8.255c.165.372.321.75.468 1.13H75v18H63.326c-.147.38-.303.758-.468 1.13l8.255 8.255-12.728 12.728-8.255-8.255c-.372.165-.75.321-1.13.468V75zm-13-5h8V59.685l1.779-.536a19.905 19.905 0 003.674-1.522l1.637-.88 7.295 7.295 5.657-5.657-7.295-7.295.88-1.637a19.905 19.905 0 001.522-3.674L59.685 44H70v-8H59.685l-.536-1.779a19.905 19.905 0 00-1.522-3.674l-.88-1.637 7.295-7.295-5.657-5.657-7.295 7.294-1.637-.88a19.937 19.937 0 00-3.674-1.52L44 20.314V10h-8v10.315l-1.779.536c-1.274.384-2.51.896-3.674 1.522l-1.637.88-7.295-7.295-5.657 5.657 7.295 7.295-.88 1.637a19.905 19.905 0 00-1.522 3.674L20.315 36H10v8h10.315l.536 1.779c.384 1.274.896 2.51 1.522 3.674l.88 1.637-7.295 7.295 5.657 5.657 7.295-7.295 1.637.88c1.163.626 2.4 1.138 3.674 1.522l1.779.536V70zm4-17.5c-6.893 0-12.5-5.607-12.5-12.5S33.107 27.5 40 27.5 52.5 33.107 52.5 40 46.893 52.5 40 52.5zm0-20c-4.136 0-7.5 3.364-7.5 7.5s3.364 7.5 7.5 7.5 7.5-3.364 7.5-7.5-3.364-7.5-7.5-7.5z"/></g>
<view id="github" viewBox="2880 0 80 80">
</view>
<g transform="translate(2880,0)"><path d="M40 5C20.172 5 4.111 21.07 4.111 40.889c0 15.86 10.282 29.309 24.54 34.049 1.794.338 2.452-.772 2.452-1.726 0-.852-.03-3.11-.045-6.1-9.983 2.165-12.089-4.816-12.089-4.816-1.633-4.142-3.992-5.248-3.992-5.248-3.251-2.226.25-2.18.25-2.18 3.605.25 5.498 3.696 5.498 3.696 3.2 5.488 8.4 3.903 10.452 2.985.323-2.321 1.248-3.903 2.273-4.8-7.97-.898-16.347-3.984-16.347-17.736 0-3.917 1.39-7.117 3.694-9.63-.404-.906-1.615-4.555.314-9.498 0 0 3.005-.963 9.869 3.678 2.871-.798 5.922-1.193 8.972-1.21 3.05.017 6.101.412 8.972 1.21 6.82-4.641 9.825-3.678 9.825-3.678 1.929 4.943.718 8.592.359 9.498 2.288 2.513 3.678 5.713 3.678 9.63 0 13.788-8.389 16.823-16.374 17.706 1.256 1.076 2.423 3.277 2.423 6.639 0 4.803-.045 8.661-.045 9.827 0 .943.628 2.064 2.467 1.705C65.615 70.183 75.89 56.725 75.89 40.89 75.889 21.069 59.819 5 40 5"/></g>
<view id="google" viewBox="2960 0 80 80">
</view>
<g transform="translate(2960,0)"><path d="M40 37.5h20V40c0 11.028-8.972 20-20 20s-20-8.972-20-20 8.972-20 20-20c4.93 0 9.667 1.81 13.336 5.096l-3.335 3.724A14.97 14.97 0 0040 25c-8.271 0-15 6.729-15 15s6.729 15 15 15c7.42 0 13.598-5.415 14.792-12.5H40v-5zM75 15v50c0 5.514-4.486 10-10 10H15C9.486 75 5 70.514 5 65V15C5 9.486 9.486 5 15 5h50c5.514 0 10 4.486 10 10zm-5 0c0-2.757-2.243-5-5-5H15c-2.757 0-5 2.243-5 5v50c0 2.757 2.243 5 5 5h50c2.757 0 5-2.243 5-5V15z"/></g>
<view id="heart" viewBox="3040 0 80 80">
</view>
<g transform="translate(3040,0)"><path d="M40 75c-.497 0-.995-.148-1.423-.444C37.207 73.606 5 51.039 5 27.5 5 11.354 15.1 5.625 23.75 5.625c6.219 0 12.777 3.069 16.25 8.392 3.473-5.323 10.031-8.392 16.25-8.392C64.9 5.625 75 11.354 75 27.5c0 23.54-32.206 46.106-33.577 47.056A2.496 2.496 0 0140 75zM23.75 10.625C17.103 10.625 10 15.058 10 27.5c0 18.323 23.861 37.324 30 41.908 6.139-4.584 30-23.585 30-41.908 0-5.638-1.51-10.167-4.368-13.099-2.374-2.435-5.706-3.776-9.382-3.776-6.612 0-13.75 4.54-13.75 11.875a2.5 2.5 0 11-5 0c0-7.335-7.138-11.875-13.75-11.875z"/></g>
<view id="history" viewBox="3120 0 80 80">
</view>
<g transform="translate(3120,0)"><path d="M75 40c0 19.299-15.701 35-35 35S5 59.3 5 40h5c0 16.542 13.458 30 30 30s30-13.458 30-30-13.458-30-30-30a29.905 29.905 0 00-24.195 12.27l3.463 3.462A2.498 2.498 0 0117.5 30h-10A2.5 2.5 0 015 27.5v-10a2.5 2.5 0 014.268-1.768l2.971 2.972A34.878 34.878 0 0140 5c19.299 0 35 15.701 35 35zM37.5 17.5A2.5 2.5 0 0035 20v20c0 .033.008.063.01.096.003.09.013.177.027.267a2.5 2.5 0 00.04.226c.02.08.046.157.073.235.028.078.056.156.09.23.033.069.07.134.11.2.045.079.092.155.146.228.02.026.032.054.052.08l10 12.5c.494.617 1.22.938 1.953.938a2.5 2.5 0 001.95-4.062l-9.451-11.815V20a2.5 2.5 0 00-2.5-2.5z"/></g>
<view id="home" viewBox="3200 0 80 80">
</view>
<g transform="translate(3200,0)"><path d="M78.991 37.994l-37-27.5a2.499 2.499 0 00-2.957-.02l-38 27.5a2.5 2.5 0 002.932 4.051L10 37.66V67.5a2.5 2.5 0 002.5 2.5h15a2.5 2.5 0 002.5-2.5V45h20v22.5a2.5 2.5 0 002.5 2.5h15a2.5 2.5 0 002.5-2.5V37.54l6.009 4.466a2.5 2.5 0 102.982-4.013zM65 35v30H55V42.5a2.5 2.5 0 00-2.5-2.5h-25a2.5 2.5 0 00-2.5 2.5V65H15V35c0-.299-.061-.58-.157-.846L40.48 15.6l24.738 18.386c-.138.31-.218.652-.218 1.014z"/></g>
<view id="html" viewBox="3280 0 80 80">
</view>
<g transform="translate(3280,0)"><path d="M19.644 16.286L5.415 40l14.229 23.714-4.288 2.572L-.415 40l15.771-26.286 4.288 2.572zm40.712 0L74.585 40 60.356 63.714l4.288 2.572L80.415 40 64.644 13.714l-4.288 2.572zM22.764 68.882l4.472 2.236 30-60-4.472-2.236-30 60z"/></g>
<view id="kanban" viewBox="3360 0 80 80">
</view>
<g transform="translate(3360,0)"><path d="M0 10v60h80V10H0zm75 55H5V15h70v50zM40 20H10v20h30V20zm-5 15H15V25h20v10zm35-15H45v40h25V20zm-5 35H50V25h15v30z"/></g>
<view id="legal" viewBox="3440 0 80 80">
</view>
<g transform="translate(3440,0)"><path d="M72.5 15H40v-2.5a2.5 2.5 0 10-5 0V15H2.5a2.5 2.5 0 100 5h11.53L5.129 46.709c-.012.037-.013.076-.023.114a2.469 2.469 0 00-.072.348c-.01.071-.018.142-.021.213-.002.04-.012.076-.012.116C5 54.393 10.607 60 17.5 60S30 54.393 30 47.5c0-.04-.01-.077-.012-.116a2.476 2.476 0 00-.021-.213 2.472 2.472 0 00-.072-.348c-.01-.038-.01-.077-.023-.114L20.97 20H35v45H22.5a2.5 2.5 0 100 5h30a2.5 2.5 0 100-5H40V20h14.03l-8.902 26.709c-.012.037-.013.076-.023.114a2.469 2.469 0 00-.072.348c-.01.071-.018.142-.021.213-.002.04-.012.076-.012.116C45 54.393 50.607 60 57.5 60S70 54.393 70 47.5c0-.04-.01-.077-.012-.116a2.476 2.476 0 00-.021-.213 2.472 2.472 0 00-.072-.348c-.01-.038-.01-.077-.023-.114L60.97 20H72.5a2.5 2.5 0 100-5zm-55 40c-3.258 0-6.03-2.092-7.063-5h14.126c-1.033 2.908-3.805 5-7.063 5zm-6.531-10L17.5 25.405 24.031 45H10.97zM57.5 55c-3.258 0-6.03-2.092-7.063-5h14.126c-1.033 2.908-3.805 5-7.063 5zm-6.531-10L57.5 25.405 64.031 45H50.97z"/></g>
<view id="line-chart" viewBox="3520 0 80 80">
</view>
<g transform="translate(3520,0)"><path d="M80 65v5H0V10h5v55h75zM32.5 36.036l15 15 29.268-29.268-3.536-3.536L47.5 43.964l-15-15L8.232 53.232l3.536 3.536L32.5 36.036z"/></g>
<view id="link" viewBox="3600 0 80 80">
</view>
<g transform="translate(3600,0)"><path d="M42.217 52.826A14.944 14.944 0 0131.58 48.42a2.5 2.5 0 113.535-3.535c1.897 1.897 4.42 2.941 7.102 2.941s5.205-1.044 7.102-2.941l17.74-17.74C68.955 25.25 70 22.727 70 20.044s-1.045-5.205-2.941-7.102C65.162 11.044 62.639 10 59.957 10s-5.206 1.044-7.103 2.941l-8.826 8.827a2.5 2.5 0 11-3.535-3.536l8.826-8.826C52.161 6.565 55.938 5 59.957 5s7.795 1.565 10.637 4.406S75 16.025 75 20.043s-1.565 7.796-4.406 10.638L52.854 48.42a14.944 14.944 0 01-10.637 4.406zM30.681 70.594l8.826-8.826a2.5 2.5 0 10-3.535-3.536l-8.826 8.827C25.249 68.956 22.726 70 20.043 70s-5.205-1.044-7.102-2.941C11.045 65.162 10 62.639 10 59.957s1.045-5.206 2.941-7.103l17.74-17.739c1.897-1.897 4.42-2.941 7.102-2.941s5.205 1.044 7.102 2.941a2.5 2.5 0 103.535-3.535c-2.841-2.841-6.619-4.406-10.637-4.406s-7.796 1.565-10.637 4.406L9.406 49.32C6.565 52.16 5 55.937 5 59.956s1.565 7.795 4.406 10.637S16.025 75 20.043 75s7.796-1.565 10.638-4.406z"/></g>
<view id="location" viewBox="3680 0 80 80">
</view>
<g transform="translate(3680,0)"><path d="M40 0C23.458 0 10 13.458 10 30c0 20.797 27.08 48.115 28.232 49.268L40 81.035l1.768-1.767C42.92 78.115 70 50.797 70 30 70 13.458 56.542 0 40 0zm-.001 73.884C34.027 67.494 15 45.886 15 30 15 16.215 26.215 5 40 5s25 11.215 25 25c0 15.871-19.03 37.492-25.001 43.884zM40 15c-8.271 0-15 6.729-15 15s6.729 15 15 15 15-6.729 15-15-6.729-15-15-15zm0 25c-5.514 0-10-4.486-10-10s4.486-10 10-10 10 4.486 10 10-4.486 10-10 10z"/></g>
<view id="lock" viewBox="3760 0 80 80">
</view>
<g transform="translate(3760,0)"><path d="M62.5 30H60V7.5C60 3.364 56.636 0 52.5 0h-25C23.364 0 20 3.364 20 7.5V30h-2.5c-4.136 0-7.5 3.364-7.5 7.5v35c0 4.136 3.364 7.5 7.5 7.5h45c4.136 0 7.5-3.364 7.5-7.5v-35c0-4.136-3.364-7.5-7.5-7.5zM25 7.5C25 6.121 26.121 5 27.5 5h25C53.879 5 55 6.121 55 7.5V30H25V7.5zm40 65c0 1.379-1.121 2.5-2.5 2.5h-45a2.502 2.502 0 01-2.5-2.5v-35c0-1.379 1.121-2.5 2.5-2.5h45c1.379 0 2.5 1.121 2.5 2.5v35zM30 40h15v5h-5v10h-5V45h-5v-5z"/></g>
<view id="magnify" viewBox="3840 0 80 80">
</view>
<g transform="translate(3840,0)"><path d="M74.268 70.732l-20-20a2.48 2.48 0 00-.76-.513C57.554 45.429 60 39.246 60 32.5 60 17.336 47.664 5 32.5 5S5 17.336 5 32.5 17.336 60 32.5 60c6.746 0 12.929-2.446 17.719-6.492.12.275.288.534.513.76l20 20c.488.488 1.128.732 1.768.732s1.28-.244 1.768-.732a2.5 2.5 0 000-3.536zM32.5 55C20.093 55 10 44.907 10 32.5S20.093 10 32.5 10 55 20.093 55 32.5 44.907 55 32.5 55z"/></g>
<view id="mail" viewBox="3920 0 80 80">
</view>
<g transform="translate(3920,0)"><path d="M0 10v60h80V10H0zm75 5v11L40 44.667 5 26V15h70zM5 65V31.667l35 18.666 35-18.666V65H5z"/></g>
<view id="merge" viewBox="4000 0 80 80">
</view>
<g transform="translate(4000,0)"><path d="M30 17.5C30 10.607 24.393 5 17.5 5S5 10.607 5 17.5c0 6.037 4.301 11.087 10 12.248v20.504C9.301 51.413 5 56.463 5 62.5 5 69.393 10.607 75 17.5 75S30 69.393 30 62.5c0-6.037-4.301-11.087-10-12.248V29.748c5.699-1.161 10-6.211 10-12.248zm-20 0c0-4.136 3.364-7.5 7.5-7.5s7.5 3.364 7.5 7.5-3.364 7.5-7.5 7.5-7.5-3.364-7.5-7.5zm15 45c0 4.136-3.364 7.5-7.5 7.5S10 66.636 10 62.5s3.364-7.5 7.5-7.5 7.5 3.364 7.5 7.5zm40-12.248V24.986C65 19.48 60.52 15 55.014 15H43.535l5.733-5.732-3.536-3.536L33.965 17.5l11.767 11.768 3.536-3.536L43.535 20h11.479A4.992 4.992 0 0160 24.986v25.266c-5.699 1.161-10 6.211-10 12.248C50 69.393 55.607 75 62.5 75S75 69.393 75 62.5c0-6.037-4.301-11.087-10-12.248zM62.5 70c-4.136 0-7.5-3.364-7.5-7.5s3.364-7.5 7.5-7.5 7.5 3.364 7.5 7.5-3.364 7.5-7.5 7.5z"/></g>
<view id="pause" viewBox="4080 0 80 80">
</view>
<g transform="translate(4080,0)"><path d="M27.5 5h-20A2.5 2.5 0 005 7.5v65A2.5 2.5 0 007.5 75h20a2.5 2.5 0 002.5-2.5v-65A2.5 2.5 0 0027.5 5zM25 70H10V10h15v60zM72.5 5h-20A2.5 2.5 0 0050 7.5v65a2.5 2.5 0 002.5 2.5h20a2.5 2.5 0 002.5-2.5v-65A2.5 2.5 0 0072.5 5zM70 70H55V10h15v60z"/></g>
<view id="pen" viewBox="4160 0 80 80">
</view>
<g transform="translate(4160,0)"><path d="M71.768 8.482l-.25-.25c-5.041-5.042-13.245-5.042-18.286 0l-5 5L16.34 45.126a38.453 38.453 0 00-8.873 13.805A38.574 38.574 0 005 72.5 2.5 2.5 0 007.5 75c4.634 0 9.2-.83 13.57-2.466a38.453 38.453 0 0013.804-8.873l31.894-31.893 5-5 .077-.079c4.956-5.04 4.921-13.208-.077-18.207zm-40.43 51.644a33.424 33.424 0 01-10.544 7.133l-8.053-8.053a33.424 33.424 0 017.133-10.545L50 18.536 61.464 30 31.34 60.126zm36.894-36.894L65 26.464 53.536 15l3.232-3.232c3.091-3.092 8.123-3.092 11.214 0l.25.25c3.066 3.065 3.087 8.075 0 11.214z"/></g>
<view id="phone" viewBox="4240 0 80 80">
</view>
<g transform="translate(4240,0)"><path d="M74.268 60.732l-12.5-12.5a2.5 2.5 0 00-3.536 0l-5.952 5.953c-10.34-8.022-19.234-16.903-26.483-26.447l5.97-5.97a2.5 2.5 0 000-3.536l-12.5-12.5a2.5 2.5 0 00-3.535 0l-10 10a2.497 2.497 0 00-.649 2.405c1.626 6.173 4.248 12.37 7.793 18.42 3.635 6.202 8.126 11.994 13.349 17.216 5.238 5.24 11.027 9.734 17.207 13.357 6.024 3.531 12.225 6.151 18.43 7.787a2.496 2.496 0 002.406-.65l10-10a2.5 2.5 0 000-3.535zm-12.506 8.97c-5.309-1.534-10.617-3.847-15.802-6.885v-.002c-5.812-3.406-11.262-7.638-16.2-12.577-4.921-4.922-9.15-10.375-12.57-16.209-3.05-5.206-5.365-10.51-6.892-15.79l7.202-7.204L26.465 20l-5.733 5.732a2.5 2.5 0 00-.249 3.246c8.15 11.12 18.415 21.387 30.511 30.517a2.497 2.497 0 003.274-.227L60 53.535l8.965 8.965-7.203 7.202z"/></g>
<view id="play-circle" viewBox="4320 0 80 80">
</view>
<g transform="translate(4320,0)"><path d="M40 75C20.701 75 5 59.299 5 40S20.701 5 40 5s35 15.701 35 35-15.701 35-35 35zm0-65c-16.542 0-30 13.458-30 30s13.458 30 30 30 30-13.458 30-30-13.458-30-30-30zM30 54.308V25.692L55.04 40 30 54.308zm5-20v11.384L44.96 40 35 34.308z"/></g>
<view id="play" viewBox="4400 0 80 80">
</view>
<g transform="translate(4400,0)"><path d="M73.618 37.764l-65-32.5A2.502 2.502 0 005 7.5v65a2.502 2.502 0 003.618 2.236l65-32.5a2.5 2.5 0 000-4.472zM10 68.455v-56.91L66.91 40 10 68.455z"/></g>
<view id="plus" viewBox="4480 0 80 80">
</view>
<g transform="translate(4480,0)"><path d="M75 42.5H42.5V75h-5V42.5H5v-5h32.5V5h5v32.5H75v5z"/></g>
<view id="print" viewBox="4560 0 80 80">
</view>
<g transform="translate(4560,0)"><path d="M72.5 20H65V7.5C65 3.364 61.636 0 57.5 0h-35C18.364 0 15 3.364 15 7.5V20H7.5C3.364 20 0 23.364 0 27.5v25C0 56.636 3.364 60 7.5 60H15v12.696C15 76.724 18.276 80 22.304 80h35.392C61.724 80 65 76.724 65 72.696V60h7.5c4.136 0 7.5-3.364 7.5-7.5v-25c0-4.136-3.364-7.5-7.5-7.5zM20 7.5C20 6.121 21.122 5 22.5 5h35C58.878 5 60 6.121 60 7.5V20H20V7.5zM57.696 75H22.304A2.306 2.306 0 0120 72.696V50h40v22.696A2.306 2.306 0 0157.696 75zM75 52.5c0 1.379-1.122 2.5-2.5 2.5H65v-7.5a2.5 2.5 0 00-2.5-2.5h-45a2.5 2.5 0 00-2.5 2.5V55H7.5A2.503 2.503 0 015 52.5v-25C5 26.121 6.122 25 7.5 25h65c1.378 0 2.5 1.121 2.5 2.5v25zm-20 5a2.5 2.5 0 01-2.5 2.5h-25a2.5 2.5 0 110-5h25a2.5 2.5 0 012.5 2.5zm10-25a2.5 2.5 0 01-2.5 2.5h-10a2.5 2.5 0 110-5h10a2.5 2.5 0 012.5 2.5zm-25 35a2.5 2.5 0 01-2.5 2.5h-10a2.5 2.5 0 110-5h10a2.5 2.5 0 012.5 2.5z"/></g>
<view id="question-circle" viewBox="4640 0 80 80">
</view>
<g transform="translate(4640,0)"><path d="M40 5C20.701 5 5 20.701 5 40s15.701 35 35 35 35-15.701 35-35S59.299 5 40 5zm0 65c-16.542 0-30-13.458-30-30s13.458-30 30-30 30 13.458 30 30-13.458 30-30 30zm15-37.5c0 5.11-2.782 9.161-7.633 11.113C43.336 45.234 40 46.834 40 50h-5c0-6.801 6.573-9.446 10.501-11.026C48.486 37.773 50 35.594 50 32.5c0-4.346-4.206-7.5-10-7.5-2.735 0-6.537 1.508-7.836 3.752l-4.328-2.504C30.186 22.189 35.856 20 40 20c8.552 0 15 5.374 15 12.5zM35 55h5v5h-5v-5z"/></g>
<view id="radiobox-off" viewBox="4720 0 80 80">
</view>
<g transform="translate(4720,0)"><path d="M40 75C20.701 75 5 59.299 5 40S20.701 5 40 5s35 15.701 35 35-15.701 35-35 35zm0-65c-16.542 0-30 13.458-30 30s13.458 30 30 30 30-13.458 30-30-13.458-30-30-30z"/></g>
<view id="radiobox-on" viewBox="4800 0 80 80">
</view>
<g transform="translate(4800,0)"><path d="M40 5C20.701 5 5 20.701 5 40s15.701 35 35 35 35-15.701 35-35S59.299 5 40 5zm0 65c-16.542 0-30-13.458-30-30s13.458-30 30-30 30 13.458 30 30-13.458 30-30 30zm20-30c0 11.028-8.972 20-20 20s-20-8.972-20-20 8.972-20 20-20 20 8.972 20 20z"/></g>
<view id="redo" viewBox="4880 0 80 80">
</view>
<g transform="translate(4880,0)"><path d="M72.5 37.5A2.5 2.5 0 0070 40c0 16.542-13.458 30-30 30S10 56.542 10 40s13.458-30 30-30a29.916 29.916 0 0116.508 4.957l-5.776 5.775A2.499 2.499 0 0052.5 25h15a2.5 2.5 0 002.5-2.5v-15a2.5 2.5 0 00-4.268-1.768l-5.623 5.624A34.901 34.901 0 0040 5C20.701 5 5 20.701 5 40s15.701 35 35 35 35-15.701 35-35a2.5 2.5 0 00-2.5-2.5z"/></g>
<view id="save" viewBox="4960 0 80 80">
</view>
<g transform="translate(4960,0)"><path d="M74.268 25.732l-20-20A2.498 2.498 0 0052.5 5h-45A2.5 2.5 0 005 7.5v65A2.5 2.5 0 007.5 75h65a2.5 2.5 0 002.5-2.5v-45a2.5 2.5 0 00-.732-1.768zM30 10v15h-5V10h5zm-5 60V45h30v25H25zm45 0H60V42.5a2.5 2.5 0 00-2.5-2.5h-35a2.5 2.5 0 00-2.5 2.5V70H10V10h10v17.5a2.5 2.5 0 002.5 2.5h10a2.5 2.5 0 002.5-2.5V10h16.465L70 28.536V70z"/></g>
<view id="shield" viewBox="5040 0 80 80">
</view>
<g transform="translate(5040,0)"><path d="M67.5 5C57.969 5 40.858.145 40.687.096a2.504 2.504 0 00-1.374 0C39.142.145 22.04 5 12.5 5A2.5 2.5 0 0010 7.5v37.28c0 17.271 12.333 32.05 29.324 35.138l.228.041a2.513 2.513 0 00.896 0l.228-.041h-.001C57.667 76.829 70 62.051 70 44.78V7.5A2.5 2.5 0 0067.5 5zM65 44.78c0 14.78-10.5 27.435-25 30.178-14.5-2.743-25-15.399-25-30.178V9.916c9.194-.577 21.887-3.959 25-4.82 3.113.861 15.806 4.243 25 4.82V44.78zM35 20h5v30h-5V20zm0 35h5v5h-5v-5z"/></g>
<view id="smiley" viewBox="5120 0 80 80">
</view>
<g transform="translate(5120,0)"><path d="M40 5C20.701 5 5 20.701 5 40s15.701 35 35 35 35-15.701 35-35S59.299 5 40 5zm0 65c-16.542 0-30-13.458-30-30s13.458-30 30-30 30 13.458 30 30-13.458 30-30 30zm13.126-20.926l3.748 3.309A22.518 22.518 0 0140 60a22.517 22.517 0 01-16.874-7.616l3.75-3.309A17.509 17.509 0 0040 55c5.018 0 9.802-2.16 13.126-5.926zM30 40h-5V25h5v15zm25 0h-5V25h5v15z"/></g>
<view id="star" viewBox="5200 0 80 80">
</view>
<g transform="translate(5200,0)"><path d="M74.749 32.162a5.068 5.068 0 00-3.614-3.37L53.77 24.438 44.32 9.312c-.937-1.5-2.552-2.396-4.321-2.396s-3.384.896-4.321 2.396L26.17 24.48 8.865 28.792a5.068 5.068 0 00-3.614 3.37 5.07 5.07 0 00.943 4.851l11.489 13.729-1.247 17.792a5.067 5.067 0 002.088 4.478 5.072 5.072 0 004.905.602l16.607-6.684 16.535 6.684a5.068 5.068 0 004.905-.602 5.067 5.067 0 002.088-4.479l-1.224-17.86 11.466-13.66a5.07 5.07 0 00.943-4.85zm-4.773 1.636L58.51 47.46a5.077 5.077 0 00-1.18 3.632l1.246 17.792-.132.095-16.536-6.684c-.615-.248-1.262-.373-1.908-.373s-1.294.125-1.91.373l-16.534 6.684-.132-.095L22.67 51.09a5.079 5.079 0 00-1.18-3.632l-11.467-13.66.05-.155 17.305-4.312a5.066 5.066 0 003.09-2.245L40 11.916c.053 0 .065.021.081.045l9.45 15.126a5.066 5.066 0 003.09 2.245l17.305 4.312.05.154z"/></g>
<view id="stop" viewBox="5280 0 80 80">
</view>
<g transform="translate(5280,0)"><path d="M72.5 5h-65A2.5 2.5 0 005 7.5v65A2.5 2.5 0 007.5 75h65a2.5 2.5 0 002.5-2.5v-65A2.5 2.5 0 0072.5 5zM70 70H10V10h60v60z"/></g>
<view id="sync" viewBox="5360 0 80 80">
</view>
<g transform="translate(5360,0)"><path d="M75 40c0 19.299-15.701 35-35 35a34.898 34.898 0 01-21.545-7.42l-4.187 4.188A2.498 2.498 0 0110 70V57.5a2.5 2.5 0 012.5-2.5H25a2.5 2.5 0 011.768 4.268l-4.744 4.744A29.91 29.91 0 0040 70c16.542 0 30-13.458 30-30a2.5 2.5 0 115 0zM40 10a29.916 29.916 0 0116.509 4.956l-5.777 5.776A2.499 2.499 0 0052.5 25h15a2.5 2.5 0 002.5-2.5v-15a2.5 2.5 0 00-4.268-1.768l-5.623 5.624A34.9 34.9 0 0040 5C20.701 5 5 20.701 5 40a2.5 2.5 0 105 0c0-16.542 13.458-30 30-30z"/></g>
<view id="tag" viewBox="5440 0 80 80">
</view>
<g transform="translate(5440,0)"><path d="M72.749 39.214L41.446 7.91A9.871 9.871 0 0034.42 5H15.083C9.523 5 5 9.523 5 15.083V34.42a9.871 9.871 0 002.911 7.027L39.214 72.75C40.665 74.201 42.595 75 44.648 75s3.983-.8 5.434-2.251l22.667-22.667C74.201 48.631 75 46.701 75 44.648s-.8-3.983-2.251-5.434zm-3.535 7.333L46.547 69.214a2.689 2.689 0 01-3.798 0L11.446 37.91A4.908 4.908 0 0110 34.42V15.083A5.089 5.089 0 0115.083 10H34.42c1.319 0 2.559.514 3.492 1.446L69.214 42.75a2.689 2.689 0 010 3.798zM30 20c-5.514 0-10 4.486-10 10s4.486 10 10 10 10-4.486 10-10-4.486-10-10-10zm0 15c-2.757 0-5-2.243-5-5s2.243-5 5-5 5 2.243 5 5-2.243 5-5 5z"/></g>
<view id="terminal" viewBox="5520 0 80 80">
</view>
<g transform="translate(5520,0)"><path d="M80 70H0V10h80v60zM5 65h70V15H5v50zm30.793-25L19.398 20.873l-3.796 3.254L29.207 40 15.602 55.873l3.796 3.254L35.793 40zM65 50H35v5h30v-5z"/></g>
<view id="trashcan" viewBox="5600 0 80 80">
</view>
<g transform="translate(5600,0)"><path d="M72.5 10H60V5c0-2.757-2.243-5-5-5H25c-2.757 0-5 2.243-5 5v5H7.5a2.5 2.5 0 100 5H10v55c0 5.514 4.486 10 10 10h40c5.514 0 10-4.486 10-10V15h2.5a2.5 2.5 0 100-5zM25 5h30v5H25V5zm40 65c0 2.757-2.243 5-5 5H20c-2.757 0-5-2.243-5-5V15h50v55zM35 22.5v45a2.5 2.5 0 11-5 0v-45a2.5 2.5 0 115 0zm15 0v45a2.5 2.5 0 11-5 0v-45a2.5 2.5 0 115 0z"/></g>
<view id="trophy" viewBox="5680 0 80 80">
</view>
<g transform="translate(5680,0)"><path d="M72.5 5H65V2.5A2.5 2.5 0 0062.5 0H18a2.5 2.5 0 00-2.5 2.5V5h-8A2.5 2.5 0 005 7.5v20c0 6.364 4.784 11.622 10.943 12.392 1.82 9.548 9.14 17.164 18.527 19.42L30.548 75H22.5a2.5 2.5 0 100 5h35a2.5 2.5 0 100-5h-8.048l-3.895-15.579c9.64-2.115 17.19-9.863 19.014-19.607C70.48 38.822 75 33.686 75 27.5v-20A2.5 2.5 0 0072.5 5zM15 34.571c-2.91-1.031-5-3.811-5-7.071V10h5v24.571zM44.298 75h-8.596l3.755-15.02c.264.008.527.02.793.02.1 0 .197-.006.296-.008L44.298 75zM40.25 55C29.36 55 20.5 46.14 20.5 35.25V5H60v30.25C60 46.14 51.14 55 40.25 55zM70 27.5c0 3.26-2.09 6.04-5 7.071V10h5v17.5z"/></g>
<view id="twt" viewBox="5760 0 80 80">
</view>
<g transform="translate(5760,0)"><path d="M77.5 22.5h-1.693l3.4-3.172a2.502 2.502 0 00.121-3.534 2.502 2.502 0 00-3.534-.122l-4.326 4.038C67.684 13.825 60.906 10 53.308 10c-3.159 0-6.228.664-9.121 1.975-7.25 3.284-11.992 10.254-12.205 17.865-5.768-.916-11.053-3.568-15.105-7.621a25.396 25.396 0 01-5-7.06 2.5 2.5 0 00-4.669.414c-3.2 11.71.108 23.923 8.85 32.67.464.462.942.914 1.432 1.354a31.947 31.947 0 01-14.205-1.328 2.498 2.498 0 00-2.874 3.747C7.814 63.277 20.548 70 34.475 70c22.148 0 40.168-17.16 40.168-38.25 0-.243-.008-.484-.017-.726l-.009-.262a36.59 36.59 0 00-.243-3.262H77.5a2.5 2.5 0 100-5zM34.475 65C24.65 65 15.514 61.21 8.94 54.62a37.09 37.09 0 0015.07-1.34 2.5 2.5 0 00.635-4.487 31.114 31.114 0 01-5.05-4.086c-5.894-5.894-8.896-13.625-8.553-21.521.713.893 1.48 1.75 2.297 2.568 5.57 5.57 13.082 8.903 21.155 9.383.757.057 1.474-.247 1.982-.795s.744-1.294.644-2.035a14.3 14.3 0 01-.146-1.932c0-5.95 3.553-11.254 9.274-13.846A17.007 17.007 0 0153.309 15c7.89 0 14.629 5.291 16.05 12.589.143 1.089.23 2.202.26 3.31v.007l.01.296c.007.183.014.364.014.548C69.643 50.084 53.866 65 34.475 65z"/></g>
<view id="undo" viewBox="5840 0 80 80">
</view>
<g transform="translate(5840,0)"><path d="M40 5a34.901 34.901 0 00-20.109 6.356l-5.623-5.624A2.499 2.499 0 0010 7.5v15a2.5 2.5 0 002.5 2.5h15a2.5 2.5 0 001.768-4.268l-5.776-5.775A29.916 29.916 0 0140 10c16.542 0 30 13.458 30 30S56.542 70 40 70 10 56.542 10 40a2.5 2.5 0 10-5 0c0 19.299 15.701 35 35 35s35-15.701 35-35S59.299 5 40 5z"/></g>
<view id="unlink" viewBox="5920 0 80 80">
</view>
<g transform="translate(5920,0)"><path d="M35.613 23.113L49.32 9.406c5.866-5.864 15.41-5.866 21.275 0 5.865 5.865 5.865 15.41 0 21.275L52.854 48.42l-3.535-3.535 17.74-17.74c3.916-3.916 3.916-10.288 0-14.204-3.915-3.915-10.288-3.917-14.205 0L39.148 26.648l-3.535-3.535zm5.239 30.24L27.146 67.058c-3.917 3.916-10.29 3.915-14.205 0-3.916-3.916-3.916-10.288 0-14.205l17.74-17.739-3.535-3.535-17.74 17.74c-5.865 5.865-5.865 15.409 0 21.274a14.995 14.995 0 0010.637 4.4c3.853 0 7.705-1.467 10.638-4.4l13.706-13.707-3.535-3.535zM27.625 24.09l-7.07-7.071-3.535 3.535 7.07 7.071 3.535-3.535zm-7.37 7.244l-9.66-2.588-1.294 4.83 9.659 2.589 1.295-4.83zm15.91-12.374L33.575 9.3l-4.83 1.295 2.588 9.66 4.83-1.295zm16.21 36.95l7.07 7.071 3.535-3.535-7.07-7.071-3.535 3.535zm-8.54 5.13l2.589 9.66 4.83-1.295-2.588-9.66-4.83 1.295zm15.91-12.374l9.66 2.588 1.294-4.83-9.659-2.589-1.295 4.83z"/></g>
<view id="unlock" viewBox="6000 0 80 80">
</view>
<g transform="translate(6000,0)"><path d="M62.5 30H60V7.5C60 3.364 56.636 0 52.5 0h-25C23.364 0 20 3.364 20 7.5V15h5V7.5C25 6.121 26.121 5 27.5 5h25C53.879 5 55 6.121 55 7.5V30H17.5c-4.136 0-7.5 3.364-7.5 7.5v35c0 4.136 3.364 7.5 7.5 7.5h45c4.136 0 7.5-3.364 7.5-7.5v-35c0-4.136-3.364-7.5-7.5-7.5zM65 72.5c0 1.379-1.121 2.5-2.5 2.5h-45a2.502 2.502 0 01-2.5-2.5v-35c0-1.379 1.121-2.5 2.5-2.5h45c1.379 0 2.5 1.121 2.5 2.5v35zM30 40h15v5h-5v10h-5V45h-5v-5z"/></g>
<view id="upload" viewBox="6080 0 80 80">
</view>
<g transform="translate(6080,0)"><path d="M80 50c0 8.271-6.729 15-15 15H45v-5h20c5.514 0 10-4.486 10-10s-4.486-10-10-10h-2.5v-2.5C62.5 25.094 52.406 15 40 15a22.467 22.467 0 00-20.737 13.754l-.53 1.254-1.34.235A14.96 14.96 0 005 45c0 8.271 6.729 15 15 15h10v5H20C8.972 65 0 56.028 0 45a19.947 19.947 0 0115.203-19.402A27.45 27.45 0 0140 10c14.386 0 26.228 11.105 27.404 25.192C74.536 36.347 80 42.547 80 50zm-26.768-.732l3.536-3.536L37.5 26.465 18.232 45.732l3.536 3.536L35 36.035V70h5V36.035l13.232 13.233z"/></g>
<view id="user" viewBox="6160 0 80 80">
</view>
<g transform="translate(6160,0)"><path d="M56.679 37.585A22.411 22.411 0 0062.5 22.5C62.5 10.094 52.406 0 40 0S17.5 10.094 17.5 22.5a22.411 22.411 0 005.821 15.085C15.034 43.12 10 52.378 10 62.5v15a2.5 2.5 0 002.5 2.5h55a2.5 2.5 0 002.5-2.5v-15c0-10.122-5.034-19.38-13.321-24.915zM40 5c9.65 0 17.5 7.85 17.5 17.5 0 6.621-3.698 12.394-9.135 15.367-.05.027-.102.05-.152.076a17.42 17.42 0 01-1.329.641c-.082.036-.165.067-.248.1a17.338 17.338 0 01-1.62.575c-.413.124-.833.23-1.258.324-.133.03-.265.06-.4.086a17.48 17.48 0 01-1.263.193c-.138.017-.275.04-.414.053-.554.053-1.114.085-1.681.085s-1.127-.032-1.68-.085c-.14-.013-.277-.036-.415-.053a17.481 17.481 0 01-1.264-.193c-.134-.026-.266-.057-.399-.086a17.373 17.373 0 01-1.588-.425c-.438-.141-.868-.3-1.29-.473-.083-.034-.166-.065-.248-.1a17.42 17.42 0 01-1.329-.642l-.152-.076C26.198 34.894 22.5 29.12 22.5 22.5 22.5 12.85 30.35 5 40 5zm25 70H15V62.5c0-8.888 4.654-16.983 12.236-21.485.045.03.088.064.133.094.013.009.025.019.038.027.509.345 1.035.666 1.573.969l.074.043a22.33 22.33 0 007.102 2.517l.054.01c.589.1 1.184.178 1.787.231.075.007.15.011.225.017C38.809 44.97 39.4 45 40 45s1.191-.03 1.778-.077c.075-.006.15-.01.225-.017a22.409 22.409 0 001.787-.232l.054-.01a22.33 22.33 0 007.102-2.516l.074-.043a22.561 22.561 0 001.573-.969c.013-.008.025-.018.038-.027.045-.03.088-.063.133-.094C60.346 45.517 65 53.612 65 62.5V75z"/></g>
<view id="zip" viewBox="6240 0 80 80">
</view>
<g transform="translate(6240,0)"><path d="M69.952 22.018v-.007a2.487 2.487 0 00-.292-.749 2.48 2.48 0 00-.392-.53l-20-20a2.478 2.478 0 00-.532-.393 2.486 2.486 0 00-.748-.291h-.005A2.502 2.502 0 0047.5 0h-35A2.5 2.5 0 0010 2.5v75a2.5 2.5 0 002.5 2.5h55a2.5 2.5 0 002.5-2.5v-55a2.5 2.5 0 00-.048-.482zM61.464 20H50V8.536L61.464 20zM15 75V5h30v17.5a2.5 2.5 0 002.5 2.5H65v10h-7.5a2.5 2.5 0 100 5H65v35H15zm15-37.5a2.5 2.5 0 01-2.5 2.5h-5a2.5 2.5 0 110-5h5a2.5 2.5 0 012.5 2.5zM47.5 40a2.5 2.5 0 100-5h-10a2.5 2.5 0 100 5H40v5h-2.5a2.5 2.5 0 00-2.5 2.5v15a2.5 2.5 0 002.5 2.5h10a2.5 2.5 0 002.5-2.5v-15a2.5 2.5 0 00-2.5-2.5H45v-5h2.5zM45 60h-5V50h5v10z"/></g>
</svg>