<!--Generator: Adobe Illustrator 28.0.0, SVG Export Plug-In . SVG Version: 6.00 Build 0)--><svg version="1.1" id="圖層_1" x="0px" y="0px" viewBox="0 0 1200 1200" enable-background="new 0 0 1200 1200" xml:space="preserve"><path d="M950,1150c-110.280273,0-200-89.719727-200-200V850H450v100c0,110.280273-89.719727,200-200,200S50,1060.280273,50,950
	s89.719727-200,200-200h100V450H250c-110.280273,0-200-89.719727-200-200S139.719727,50,250,50s200,89.719727,200,200v100h300V250
	c0-110.280273,89.719727-200,200-200s200,89.719727,200,200s-89.719727,200-200,200H850v300h100c110.280273,0,200,89.719727,200,200
	S1060.280273,1150,950,1150z M850,850v100c0,55.140625,44.859863,100,100,100s100-44.859375,100-100s-44.859863-100-100-100H850z
	 M250,850c-55.140137,0-100,44.859375-100,100s44.859863,100,100,100s100-44.859375,100-100V850H250z M450,750h300V450H450V750z
	 M850,350h100c55.140137,0,100-44.859375,100-100s-44.859863-100-100-100s-100,44.859375-100,100V350z M250,150
	c-55.140137,0-100,44.859375-100,100s44.859863,100,100,100h100V250C350,194.859375,305.140137,150,250,150z"/></svg>