<!--Generator: Adobe Illustrator 28.0.0, SVG Export Plug-In . SVG Version: 6.00 Build 0)--><svg version="1.1" id="圖層_1" x="0px" y="0px" viewBox="0 0 1200 1200" enable-background="new 0 0 1200 1200" xml:space="preserve"><path d="M900,1100h-50c-63.508911,0-113.254761-17.543945-147.855225-52.144531
	c-24.928467-24.928711-41.004028-57.72168-48.043213-97.855469H100C44.859741,950,0,905.140625,0,850V250
	c0-55.140625,44.859741-100,100-100h1000c55.140259,0,100,44.859375,100,100v600c0,55.140625-44.859741,100-100,100H950v100
	C950,1077.614258,927.614258,1100,900,1100z M100,849.99707L700,850c27.614258,0,50,22.385742,50,50
	c0,36.023438,7.689697,61.978516,22.855225,77.144531C788.020996,992.310547,813.976318,1000,850,1000V900
	c0-27.614258,22.385742-50,50-50h200V250H100v600V849.99707z M1100.012695,250.000977h0.000244h0.000244H1100.012695z"/></svg>