<!--Generator: Adobe Illustrator 28.0.0, SVG Export Plug-In . SVG Version: 6.00 Build 0)--><svg version="1.1" id="圖層_1" x="0px" y="0px" viewBox="0 0 1200 1200" enable-background="new 0 0 1200 1200" xml:space="preserve"><path d="M1200,300c0,27.614258-22.385742,50-50,50H50c-27.614258,0-50-22.385742-50-50s22.385742-50,50-50h1100
	C1177.614258,250,1200,272.385742,1200,300z M1150,550H50c-27.614258,0-50,22.385742-50,50s22.385742,50,50,50h1100
	c27.614258,0,50-22.385742,50-50S1177.614258,550,1150,550z M1150,850H50c-27.614258,0-50,22.385742-50,50s22.385742,50,50,50h1100
	c27.614258,0,50-22.385742,50-50S1177.614258,850,1150,850z"/></svg>