<!--Generator: Adobe Illustrator 28.0.0, SVG Export Plug-In . SVG Version: 6.00 Build 0)--><svg version="1.1" id="圖層_1" x="0px" y="0px" viewBox="0 0 1200 1200" enable-background="new 0 0 1200 1200" xml:space="preserve"><path d="M1200,825c0,60.099609-23.404297,116.601562-65.901367,159.098633S1035.099609,1050,975,1050H800
	c-27.614258,0-50-22.385742-50-50s22.385742-50,50-50h175c68.924805,0,125-56.075195,125-125
	c0-68.833008-55.929688-124.849609-124.727539-125c-0.382812,0.005859-0.740234,0.009766-1.097656,0.009766
	c-13.831055,0-27.043945-5.729492-36.498047-15.825195c-9.453125-10.095703-14.302734-23.657227-13.394531-37.458008
	C924.758789,639.494141,925,632.18457,925,625c0-179.205078-145.794922-325-325-325
	c-123.572266,0-234.882812,68.626953-290.494141,179.098633c-6.741211,13.392578-19.136719,23.052734-33.769531,26.318359
	C173.907227,528.141602,100,620.489258,100,725c0,116.798828,87.555664,213.091797,203.662109,223.986328
	c2.152344,0.202148,4.277344,0.541992,6.362305,1.013672H400c27.614258,0,50,22.385742,50,50s-22.385742,50-50,50H300
	c-5.429688,0-10.756836-0.882812-15.793945-2.55957c-76.334961-9.579102-146.666992-45.922852-198.966797-103.041992
	C30.272461,884.366211,0,806.448242,0,725c0-37.900391,6.478516-75.051758,19.254883-110.419922
	c12.345703-34.173828,30.255859-65.863281,53.234375-94.1875c41.052734-50.603516,96.731445-87.870117,158.62793-106.582031
	c34.631836-60.399414,83.649414-111.530273,142.856445-148.777344C441.600586,222.488281,519.759766,200,600,200
	c57.352539,0,113.015625,11.244141,165.444336,33.418945c50.614258,21.408203,96.060547,52.044922,135.076172,91.060547
	c39.014648,39.014648,69.652344,84.460938,91.060547,135.076172c19.645508,46.447266,30.711914,95.4375,32.980469,145.888672
	c41.174805,9.209961,78.976562,29.896484,109.537109,60.456055C1176.595703,708.397461,1200,764.900391,1200,825z
	 M814.644531,785.355469C824.408203,795.118164,837.204102,800,850,800s25.591797-4.881836,35.355469-14.644531
	c19.526367-19.526367,19.526367-51.18457,0-70.710938l-250-250c-19.527344-19.525391-51.183594-19.525391-70.710938,0l-250,250
	c-19.526367,19.526367-19.526367,51.18457,0,70.710938c19.527344,19.525391,51.183594,19.525391,70.710938,0L550,620.710938V1050
	c0,27.614258,22.385742,50,50,50s50-22.385742,50-50V620.710938L814.644531,785.355469z"/></svg>