<svg width="1200px" height="1200px" version="1.1" xml:space="preserve" xmlns:serif="http://www.serif.com/"><path d="M825,100L1000,100C1027.614,100 1050,122.386 1050,150L1050,1150C1050,1177.614 1027.614,1200 1000,1200L200,1200C172.386,1200 150,1177.614 150,1150L150,150C150,122.386 172.386,100 200,100L375,100L375,50C375,22.386 397.386,0 425,-0L775,-0C802.614,0 825,22.386 825,50L825,100ZM375,200L250,200L250,1100L950,1100L950,200L825,200L825,250C825,277.614 802.614,300 775,300L425,300C397.386,300 375,277.614 375,250L375,200ZM400,400C427.596,400 450,422.404 450,450C450,477.596 427.596,500 400,500L390,500C362.404,500 340,477.596 340,450C340,422.404 362.404,400 390,400L400,400ZM550,500C522.404,500 500,477.596 500,450C500,422.404 522.404,400 550,400L800,400C827.596,400 850,422.404 850,450C850,477.596 827.596,500 800,500L550,500ZM400,590C427.596,590 450,612.404 450,640C450,667.596 427.596,690 400,690L390,690C362.404,690 340,667.596 340,640C340,612.404 362.404,590 390,590L400,590ZM550,900C522.404,900 500,877.596 500,850C500,822.404 522.404,800 550,800L800,800C827.596,800 850,822.404 850,850C850,877.596 827.596,900 800,900L550,900ZM400,800C427.596,800 450,822.404 450,850C450,877.596 427.596,900 400,900L390,900C362.404,900 340,877.596 340,850C340,822.404 362.404,800 390,800L400,800ZM550,690C522.404,690 500,667.596 500,640C500,612.404 522.404,590 550,590L800,590C827.596,590 850,612.404 850,640C850,667.596 827.596,690 800,690L550,690ZM475,100L475,200L725,200L725,100L475,100Z"/></svg>