<svg width="1200px" height="1200px" version="1.1" xml:space="preserve" xmlns:serif="http://www.serif.com/"><path d="M312,350C284.404,350 262,327.596 262,300C262,272.404 284.404,250 312,250L1052,250C1079.596,250 1102,272.404 1102,300C1102,327.596 1079.596,350 1052,350L312,350ZM156,250C183.596,250 206,272.404 206,300C206,327.596 183.596,350 156,350L148,350C120.404,350 98,327.596 98,300C98,272.404 120.404,250 148,250L156,250ZM158,440C185.596,440 208,462.404 208,490C208,517.596 185.596,540 158,540L148,540C120.404,540 98,517.596 98,490C98,462.404 120.404,440 148,440L158,440ZM158,650C185.596,650 208,672.404 208,700C208,727.596 185.596,750 158,750L148,750C120.404,750 98,727.596 98,700C98,672.404 120.404,650 148,650L158,650ZM312,540C284.404,540 262,517.596 262,490C262,462.404 284.404,440 312,440L1052,440C1079.596,440 1102,462.404 1102,490C1102,517.596 1079.596,540 1052,540L312,540ZM312,750C284.404,750 262,727.596 262,700C262,672.404 284.404,650 312,650L1052,650C1079.596,650 1102,672.404 1102,700C1102,727.596 1079.596,750 1052,750L312,750ZM312,950C284.404,950 262,927.596 262,900C262,872.404 284.404,850 312,850L752,850C779.596,850 802,872.404 802,900C802,927.596 779.596,950 752,950L312,950ZM158,850C185.596,850 208,872.404 208,900C208,927.596 185.596,950 158,950L148,950C120.404,950 98,927.596 98,900C98,872.404 120.404,850 148,850L158,850Z"/></svg>