<!--Generator: Adobe Illustrator 28.0.0, SVG Export Plug-In . SVG Version: 6.00 Build 0)--><svg version="1.1" id="圖層_1" x="0px" y="0px" viewBox="0 0 1200 1200" enable-background="new 0 0 1200 1200" xml:space="preserve"><path d="M1150,150H50c-27.614258,0-50,22.385742-50,50v800c0,27.614258,22.385742,50,50,50h1100c27.614258,0,50-22.385742,50-50V200
	C1200,172.385742,1177.614258,150,1150,150z M1100,950H100V250h1000V950z M210.957031,818.765137L385.96875,600
	L210.957031,381.234863c-17.250977-21.562988-13.754883-53.027832,7.808594-70.27832
	c21.563477-17.250977,53.027344-13.753906,70.277344,7.808594l200,250c14.609375,18.26123,14.609375,44.208496,0,62.469727l-200,250
	c-9.875,12.34375-24.408203,18.76709-39.075195,18.76709c-10.954102,0-21.983398-3.583008-31.202148-10.958496
	C197.202148,871.792969,193.706055,840.328125,210.957031,818.765137z M500,800c0-27.614258,22.385742-50,50-50h400
	c27.614258,0,50,22.385742,50,50s-22.385742,50-50,50H550C522.385742,850,500,827.614258,500,800z"/></svg>