<!--Generator: Adobe Illustrator 28.0.0, SVG Export Plug-In . SVG Version: 6.00 Build 0)--><svg version="1.1" id="圖層_1" x="0px" y="0px" viewBox="0 0 1200 1200" enable-background="new 0 0 1200 1200" xml:space="preserve"><path d="M1150,350h-15.969727l55.012695-68.765625c17.250977-21.5625,13.754883-53.027344-7.808594-70.277344
	c-21.5625-17.25293-53.027344-13.753906-70.277344,7.808594l-58.78125,73.476562
	c-15.463867-25.561523-34.348633-48.483398-56.361328-68.205078C941.751953,175.601562,872.378906,150,795.197266,150h-18.641602
	c-51.22168,0-100.458984,12.942383-146.34668,38.46875c-42.625977,23.711914-81.035156,58.203125-111.076172,99.745117
	C490.34668,328.021484,469.25,375.203125,458.123047,424.65918c-1.583984,7.041016-2.916992,13.925781-4.022461,20.555664
	c-23.603516-4.958008-47.178711-13.798828-71.209961-26.65332c-36.610352-19.581055-73.494141-48.035156-112.759766-86.988281
	c-31.003906-30.757812-58.355469-68.366211-75.041992-103.182617c-9.97168-20.804688-32.882812-32.086914-55.448242-27.305664
	c-22.568359,4.779297-38.9375,24.378906-39.619141,47.438477c-2.18457,73.938477-2.007812,160.827148,15.862305,244.654297
	c9.606445,45.061523,23.859375,86.696289,42.362305,123.74707c20.666016,41.378906,47.404297,78.682617,79.501953,110.918945
	C227.989258,729.214844,218.166016,730,208.204102,730c-52.075195,0-103.573242-14.701172-142.620117-27.509766
	c-20.230469-6.637695-42.446289,0.267578-55.351562,17.202148c-12.90625,16.935547-13.671875,40.18457-1.908203,57.931641
	c53.608398,80.876953,127.768555,148.791016,214.464844,196.400391C313.300781,1023.727539,415.716797,1050,518.964844,1050
	c159.554688,0,307.006836-59.255859,415.195312-166.852539c52.411133-52.125,93.431641-113.188477,121.919922-181.493164
	C1085.223633,631.779297,1100,557.204102,1100,480c0-3.154297-0.560547-15.669922-1.441406-30H1150c27.614258,0,50-22.385742,50-50
	S1177.614258,350,1150,350z M863.643555,812.243164C774.321289,901.077148,651.912109,950,518.964844,950
	c-86.467773,0-172.238281-22.00293-248.041016-63.628906c-29.669922-16.292969-57.567383-35.402344-83.241211-56.914062
	C194.463867,829.811523,201.306641,830,208.204102,830c52.117188,0,96.15918-13.609375,138.750977-26.771484
	c5.808594-1.793945,11.628906-3.59375,17.479492-5.357422c18.665039-5.62793,32.356445-21.591797,35.076172-40.895508
	c2.719727-19.304688-6.02832-38.429688-22.412109-48.995117c-3.336914-2.152344-6.585938-4.231445-9.763672-6.263672
	c-22.793945-14.581055-39.263672-25.116211-57.325195-43.03418c-48.297852-47.915039-79.805664-108.87207-96.323242-186.354492
	c-4.608398-21.614258-7.865234-43.74707-10.116211-65.949219c44.864258,43.960938,88.136719,76.818359,132.15625,100.362305
	C389.394531,535.445312,444.663086,550,500,550c14.4375,0,28.169922-6.241211,37.665039-17.116211
	c9.188477-10.524414,13.540039-24.395508,12.046875-38.243164c-0.19043-4.780273,0.436523-25.216797,6.956055-52.249023
	c8.504883-35.270508,23.140625-67.428711,43.498047-95.580078C644.657227,285.286133,708.948242,250,776.555664,250h18.641602
	c52.163086,0,98.460938,16.777344,133.888672,48.517578c33.892578,30.364258,57.004883,72.905273,66.897461,123.103516
	c1.821289,14.750977,3.855469,51.857422,4.016602,58.683594C999.922852,606.990234,951.504883,724.862305,863.643555,812.243164z"/></svg>