<!--Generator: Adobe Illustrator 28.0.0, SVG Export Plug-In . SVG Version: 6.00 Build 0)--><svg version="1.1" id="圖層_1" x="0px" y="0px" viewBox="0 0 1200 1200" enable-background="new 0 0 1200 1200" xml:space="preserve"><path d="M1050,1100c0,27.614014-22.385742,50-50,50H200c-27.614014,0-50-22.385986-50-50s22.385986-50,50-50h800
	C1027.614258,1050,1050,1072.385986,1050,1100z M564.644531,935.355469C574.407715,945.118408,587.204102,950,600,950
	s25.592285-4.881592,35.355469-14.644531l400-400c19.525879-19.526367,19.525879-51.18457,0-70.710938
	c-19.526367-19.525879-51.18457-19.525879-70.710938,0L650,779.289062V100c0-27.614258-22.385742-50-50-50s-50,22.385742-50,50
	v679.289062L235.355469,464.644531c-19.526367-19.525879-51.18457-19.525879-70.710938,0
	c-19.526123,19.526367-19.526123,51.18457,0,70.710938L564.644531,935.355469z"/></svg>