<!--Generator: Adobe Illustrator 28.0.0, SVG Export Plug-In . SVG Version: 6.00 Build 0)--><svg version="1.1" id="圖層_1" x="0px" y="0px" viewBox="0 0 1200 1200" enable-background="new 0 0 1200 1200" xml:space="preserve"><path d="M850,1200H350c-27.614258,0-50-22.385742-50-50V700H50c-19.828613,0-37.783203-11.716797-45.767578-29.867188
	c-7.983887-18.149414-4.48877-39.302734,8.910156-53.918945l550-600C572.612793,5.882812,585.984863,0,600,0
	s27.387207,5.882812,36.857422,16.213867l550,600c13.398926,14.616211,16.894043,35.769531,8.910156,53.918945
	C1187.783203,688.283203,1169.828613,700,1150,700H900v450C900,1177.614258,877.614258,1200,850,1200z M400,1100h400V650
	c0-27.614258,22.385742-50,50-50h186.338379L600,123.995117L163.661621,600H350c27.614258,0,50,22.385742,50,50V1100z"/></svg>