<!--Generator: Adobe Illustrator 28.0.0, SVG Export Plug-In . SVG Version: 6.00 Build 0)--><svg version="1.1" id="圖層_1" x="0px" y="0px" viewBox="0 0 1200 1200" enable-background="new 0 0 1200 1200" xml:space="preserve"><path d="M1105.329102,210.099609c-26.578125-50.005859-65.663574-90.948242-113.030273-118.400391
	c-7.382812-4.27832-14.951172-8.220703-22.675049-11.832031c-0.131836-0.0625-0.263916-0.123047-0.39624-0.183594
	c-39.449219-18.375-83.017578-27.990234-127.523438-27.990234c-0.546387,0-1.102539,0.000977-1.648926,0.003906
	c-52.975586,0.282227-104.703125,14.103516-149.590332,39.969727c-37.646973,21.694336-68.597656,50.634766-91.878906,85.064453
	c-11.91748-17.605469-25.839355-33.757812-41.658691-48.304688c-27.074219-24.895508-58.713867-44.22168-94.039551-57.441406
	c-34.207031-12.801758-70.263184-19.291992-107.166016-19.291992c-38.986816,0-76.833984,7.234375-112.490479,21.503906
	c-37.670654,15.076172-71.153809,37.349609-99.518799,66.202148c-62.270508,63.341797-95.185059,153.868164-95.185059,261.792969
	c0,51.676758,9.889648,105.556641,29.485107,161.100586c0.471436,1.548828,1.02002,3.079102,1.645264,4.585938
	c13.520996,37.370117,31.405273,75.482422,53.641357,114.181641c27.80127,48.384766,62.475342,97.893555,103.561523,147.954102
	c0.144287,0.179688,0.291748,0.357422,0.438721,0.535156c23.033203,28.035156,48.068848,56.242188,75.052734,84.523438
	c126.94873,133.051758,252.180176,221.459961,257.449219,225.15918c8.620605,6.050781,18.672363,9.075195,28.726074,9.075195
	c10.065918,0,20.133301-3.033203,28.759277-9.098633c5.259766-3.698242,130.273926-92.104492,257.108398-225.151367
	c75.269531-78.956055,135.489746-157.342773,178.98877-232.981445c56.279297-97.863281,84.925293-191.988281,85.143066-279.759766
	C1148.70752,328.704102,1134.17334,264.370117,1105.329102,210.099609z M740.393555,178.311523
	c33.509277-19.30957,72.268311-28.084961,110.485352-26.373047L648.10498,354.712891
	c0.268555-2.099609,0.422363-4.233398,0.422363-6.405273C648.527344,272.820312,681.152832,212.448242,740.393555,178.311523z
	 M215.023193,209.504883c36.650391-37.280273,86.61792-57.811523,140.698486-57.811523
	c27.603516,0,54.778076,5.589844,79.441895,15.959961L152.320801,450.496094
	c-2.516113-16.798828-3.793457-33.245117-3.793457-49.303711C148.527344,320.039062,171.52124,253.754883,215.023193,209.504883z
	 M184.311035,559.927734l329.672852-329.671875c22.697021,32.301758,34.543457,72.446289,34.543457,118.051758
	c0,27.614258,22.385742,50,50,50c2.171631,0,4.306152-0.15332,6.404785-0.422852L280.361816,722.455078
	c-23.041504-30.905273-43.205078-61.365234-60.356201-91.214844C206.081055,607.005859,194.188232,583.219727,184.311035,559.927734
	z M343.801514,800.4375l612.873779-612.874023c24.888428,17.594727,45.157227,40.880859,60.351074,69.46875
	c9.231934,17.370117,16.452637,36.448242,21.63916,57.120117L446.396973,906.419922
	c-20.178711-19.103516-40.949463-39.635742-61.694336-61.37793C370.461914,830.116211,356.831055,815.243164,343.801514,800.4375z
	 M813.17334,843.839844c-85.162598,89.522461-171.328613,159.041016-214.68457,192.21582
	c-18.91748-14.442383-45.97998-35.791992-77.577148-62.727539l523.854004-523.854492
	c-8.441406,56.608398-31.086426,117.277344-67.648438,181.016602C937.79541,699.040039,882.636719,770.821289,813.17334,843.839844z
	"/></svg>