<!--Generator: Adobe Illustrator 28.0.0, SVG Export Plug-In . SVG Version: 6.00 Build 0)--><svg version="1.1" id="圖層_1" x="0px" y="0px" viewBox="0 0 1200 1200" enable-background="new 0 0 1200 1200" xml:space="preserve"><path d="M1150,250H50c-27.6,0-50-22.4-50-50c0-27.6,22.4-50,50-50h1100c27.6,0,50,22.4,50,50C1200,227.6,1177.6,250,1150,250z
	 M1200,600c0-27.6-22.4-50-50-50H50c-27.6,0-50,22.4-50,50s22.4,50,50,50h1100C1177.6,650,1200,627.6,1200,600z M1200,400
	c0-27.6-22.4-50-50-50H50c-27.6,0-50,22.4-50,50s22.4,50,50,50h1100C1177.6,450,1200,427.6,1200,400z M1200,1000
	c0-27.6-22.4-50-50-50H50c-27.6,0-50,22.4-50,50s22.4,50,50,50h1100C1177.6,1050,1200,1027.6,1200,1000z M1200,800
	c0-27.6-22.4-50-50-50H50c-27.6,0-50,22.4-50,50s22.4,50,50,50h1100C1177.6,850,1200,827.6,1200,800z"/></svg>