<!--Generator: Adobe Illustrator 28.0.0, SVG Export Plug-In . SVG Version: 6.00 Build 0)--><svg version="1.1" id="圖層_1" x="0px" y="0px" viewBox="0 0 1200 1200" enable-background="new 0 0 1200 1200" xml:space="preserve"><path d="M972.473633,305.480225c-1.321289-1.099121-2.644531-2.187744-3.966797-3.276001l66.848633-66.848755
	c19.526367-19.526367,19.526367-51.18457,0-70.710938c-19.527344-19.525879-51.183594-19.525879-70.710938,0l-77.878906,77.87915
	c-27.541992-17.602051-55.186523-32.772217-82.75-45.378174C735.614258,165.862061,666.973633,150,600,150
	s-135.614258,15.862061-204.015625,47.145508c-56.336914,25.765625-113.014648,62.2146-168.458008,108.334717
	C115.624023,398.564941,40.173828,505.013672,19.714844,535.421875c-26.394531,39.229736-26.394531,89.926514,0,129.15625
	c20.458984,30.408203,95.90918,136.856934,207.811523,229.94165c1.321289,1.099121,2.644531,2.187744,3.966797,3.276123
	l-66.848633,66.848633c-19.526367,19.526367-19.526367,51.18457,0,70.710938C174.408203,1045.118408,187.204102,1050,200,1050
	s25.591797-4.881592,35.355469-14.644531l77.878906-77.87915c27.541992,17.602051,55.186523,32.772217,82.75,45.378174
	C464.385742,1034.137939,533.026367,1050,600,1050s135.614258-15.862061,204.015625-47.145508
	c56.336914-25.765625,113.014648-62.2146,168.458008-108.334717c111.902344-93.084717,187.352539-199.533447,207.811523-229.94165
	c26.394531-39.229736,26.394531-89.926514,0-129.15625C1159.826172,505.013672,1084.375977,398.564941,972.473633,305.480225z
	 M102.683594,608.755371c-3.578125-5.318848-3.578125-12.191895,0-17.510742C126.183594,556.316895,339.792969,250,600,250
	c76.69043,0,149.329102,26.613037,214.25,65.03894L302.522461,826.766602
	C191.665039,737.352539,116.116211,628.719971,102.683594,608.755371z M1097.316406,608.755371
	C1073.816406,643.683105,860.207031,950,600,950c-76.69043,0-149.329102-26.613037-214.25-65.039062l511.727539-511.727539
	c110.857422,89.414062,186.40625,198.046631,199.838867,218.01123
	C1100.894531,596.563477,1100.894531,603.436523,1097.316406,608.755371z"/></svg>