<?xml version="1.0" encoding="utf-8"?>
<!-- Generator: Adobe Illustrator 21.0.0, SVG Export Plug-In . SVG Version: 6.00 Build 0)  -->
<svg version="1.1" id="Layer_1" xmlns="http://www.w3.org/2000/svg" xmlns:xlink="http://www.w3.org/1999/xlink" x="0px" y="0px"
	 viewBox="0 0 800 800" enable-background="new 0 0 800 800" xml:space="preserve">
<path fill="#010101" d="M612.131836,87.868164C555.46875,31.205078,480.132812,0,400,0S244.53125,31.205078,187.868164,87.868164
	S100,219.867188,100,300c0,49.381836,15.280273,106.370117,45.415039,169.379883
	c23.479492,49.09375,56.089844,102.220703,96.924805,157.904297c69.085938,94.208008,137.120117,162.53125,139.982422,165.393555
	C387.010742,797.366211,393.369141,800,400,800s12.989258-2.633789,17.677734-7.322266
	c2.862305-2.862305,70.896484-71.185547,139.982422-165.393555c40.834961-55.683594,73.445312-108.810547,96.924805-157.904297
	C684.719727,406.370117,700,349.381836,700,300C700,219.867188,668.794922,144.53125,612.131836,87.868164z M399.994141,738.835938
	C340.276367,674.941406,150,458.858398,150,300c0-137.850586,112.149414-250,250-250s250,112.149414,250,250
	C650,458.708984,459.697266,674.921875,399.994141,738.835938z M400,150c-82.709961,0-150,67.290039-150,150s67.290039,150,150,150
	s150-67.290039,150-150S482.709961,150,400,150z M400,400c-55.140625,0-100-44.859375-100-100s44.859375-100,100-100
	s100,44.859375,100,100S455.140625,400,400,400z"/>
</svg>
