<?xml version="1.0" encoding="utf-8"?>
<!-- Generator: Adobe Illustrator 21.0.0, SVG Export Plug-In . SVG Version: 6.00 Build 0)  -->
<svg version="1.1" id="Layer_1" xmlns="http://www.w3.org/2000/svg" xmlns:xlink="http://www.w3.org/1999/xlink" x="0px" y="0px"
	 viewBox="0 0 800 800" enable-background="new 0 0 800 800" xml:space="preserve">
<path fill="#010101" d="M722.485107,263.756348c-17.629639-41.680664-42.862305-79.108398-74.997803-111.243652
	c-32.135254-32.135254-69.563232-57.368164-111.243896-74.997559C493.077637,59.257324,447.23877,50,400,50
	s-93.077637,9.257324-136.243408,27.515137c-41.680664,17.629395-79.108643,42.862305-111.243896,74.997559
	c-32.135498,32.135254-57.368164,69.562988-74.997803,111.243652C59.257324,306.922363,50,352.76123,50,400
	s9.257324,93.077637,27.514893,136.243652c17.629639,41.680664,42.862305,79.108398,74.997803,111.243652
	c32.135254,32.135254,69.563232,57.368164,111.243896,74.997559C306.922363,740.742676,352.76123,750,400,750
	s93.077637-9.257324,136.243408-27.515137c41.680664-17.629395,79.108643-42.862305,111.243896-74.997559
	c32.135498-32.135254,57.368164-69.562988,74.997803-111.243652C740.742676,493.077637,750,447.23877,750,400
	S740.742676,306.922363,722.485107,263.756348z M300,682.840576v-58.176025c0-33.008301,15.363525-51.287598,25.529785-63.383301
	c2.460205-2.927246,4.584717-5.455078,6.416748-8.109375c4.733887-6.859375,5.738281-15.626953,2.678223-23.379395
	s-9.782227-13.469727-17.925049-15.246094C242.5354,498.366211,200,459.516113,200,407.95752
	c0-28.648926,6.89209-53.026855,20.484619-72.456055C223.423584,331.300293,225,326.297363,225,321.17041v-68.959961
	c28.1875,4.983398,51.626709,17.540527,69.881348,28.799316c5.625,3.470215,12.395752,4.571777,18.830078,3.062012
	c25.361328-5.945312,54.392822-8.959961,86.288574-8.959961c31.895996,0,60.92749,3.014648,86.28833,8.959961
	c6.433838,1.508789,13.205078,0.407227,18.830322-3.061523C523.37207,269.751953,546.815674,257.194824,575,252.210449v68.959961
	c0,5.126953,1.576416,10.129883,4.515381,14.331055C593.10791,354.930664,600,379.308105,600,407.95752
	c0,51.558594-42.5354,90.408691-116.699707,106.588867c-8.142822,1.776367-14.865234,7.494141-17.925049,15.246582
	c-3.060303,7.752441-2.055664,16.52002,2.678467,23.379395c1.832031,2.654297,3.956299,5.181641,6.41626,8.108398
	C484.636475,573.376465,500,591.65625,500,624.664551v58.176025C468.705994,693.937744,435.050049,700,400,700
	S331.294006,693.937744,300,682.840576z M550,659.728027v-35.063477c0-31.380859-9.440186-54.770996-19.5354-71.492676
	c31.852295-11.140137,58.019043-26.852051,78.073486-46.922363C635.662598,479.103027,650,445.114258,650,407.95752
	c0-35.973633-8.405273-67.647461-25-94.283691V225c0-13.807129-11.192871-25-25-25
	c-50.617676,0-91.233398,20.713867-112.427734,33.183594c-26.522461-5.358398-55.926514-8.071777-87.572266-8.071777
	c-31.645508,0-61.049561,2.713379-87.572266,8.072266C291.233398,220.713867,250.618164,200,200,200
	c-13.807129,0-25,11.192871-25,25v88.674316c-16.594727,26.63623-25,58.310059-25,94.283203
	c0,37.156738,14.337402,71.145508,41.462158,98.291992c20.054443,20.070312,46.221191,35.782227,78.073242,46.922363
	C259.44043,569.893555,250,593.28418,250,624.664551v35.063477C160.398743,607.779785,100,510.813965,100,400
	c0-165.42041,134.579346-300,300-300s300,134.57959,300,300C700,510.813965,639.601257,607.779785,550,659.728027z"/>
</svg>
