<?xml version="1.0" encoding="utf-8"?>
<!-- Generator: Adobe Illustrator 21.0.0, SVG Export Plug-In . SVG Version: 6.00 Build 0)  -->
<svg version="1.1" id="Layer_1" xmlns="http://www.w3.org/2000/svg" xmlns:xlink="http://www.w3.org/1999/xlink" x="0px" y="0px"
	 viewBox="0 0 800 800" enable-background="new 0 0 800 800" xml:space="preserve">
<path fill="#010101" d="M775,100H25c-13.806641,0-25,11.192871-25,25v550c0,13.807129,11.193359,25,25,25h750
	c13.806641,0,25-11.192871,25-25V125C800,111.192871,788.806641,100,775,100z M750,650H50V150h700V650z M156.018555,558.72998
	L292.073242,400L156.018555,241.27002c-8.985352-10.483398-7.771484-26.266113,2.711914-35.251465
	c10.482422-8.985352,26.267578-7.770508,35.250977,2.711426l150,175c8.024414,9.362305,8.024414,23.177734,0,32.540039l-150,175
	c-4.944336,5.768066-11.948242,8.72998-18.993164,8.730469c-5.758789,0.000488-11.542969-1.977539-16.257812-6.019043
	C148.24707,584.996094,147.033203,569.213379,156.018555,558.72998z M350,525c0-13.807129,11.193359-25,25-25h250
	c13.806641,0,25,11.192871,25,25s-11.193359,25-25,25H375C361.193359,550,350,538.807129,350,525z"/>
</svg>
