<?xml version="1.0" encoding="utf-8"?>
<!-- Generator: Adobe Illustrator 21.0.0, SVG Export Plug-In . SVG Version: 6.00 Build 0)  -->
<svg version="1.1" id="Layer_1" xmlns="http://www.w3.org/2000/svg" xmlns:xlink="http://www.w3.org/1999/xlink" x="0px" y="0px"
	 viewBox="0 0 800 800" enable-background="new 0 0 800 800" xml:space="preserve">
<path fill="#010101" d="M775,700H587.5c-8.619629,0-16.631348-4.474304-21.200195-11.839661L232.734863,150.381638H25
	c-13.807129,0-25-11.278793-25-25.190819S11.192871,100,25,100h221.59082c8.619629,0,16.631348,4.474319,21.199707,11.839684
	l333.565918,537.778687H775c13.807129,0,25,11.278809,25,25.190857C800,688.721191,788.807129,700,775,700z M800,125.190819
	C800,111.278793,788.807129,100,775,100H468.181641c-13.807129,0-25,11.278793-25,25.190819s11.192871,25.190819,25,25.190819H775
	C788.807129,150.381638,800,139.102844,800,125.190819z"/>
</svg>
