<?xml version="1.0" encoding="utf-8"?>
<!-- Generator: Adobe Illustrator 21.0.0, SVG Export Plug-In . SVG Version: 6.00 Build 0)  -->
<svg version="1.1" id="Layer_1" xmlns="http://www.w3.org/2000/svg" xmlns:xlink="http://www.w3.org/1999/xlink" x="0px" y="0px"
	 viewBox="0 0 800 800" enable-background="new 0 0 800 800" xml:space="preserve">
<path fill="#010101" d="M430.666016,750c-13.463379,0-26.121094-5.243164-35.641113-14.762939L64.762695,404.974854
	C55.242676,395.454346,50,382.796875,50,369.33374V100.404785C50,72.611572,72.611328,50,100.404785,50h268.929199
	c13.462891,0,26.120605,5.24292,35.641113,14.762695l330.261719,330.261963C744.756836,404.544678,750,417.202637,750,430.66626
	s-5.243164,26.121582-14.763672,35.641602L466.307617,735.236816C456.787598,744.756836,444.129883,750,430.666016,750z
	 M100.118652,369.619873l330.26123,330.261475C430.44043,699.942139,430.498535,700,430.666016,700
	s0.225098-0.057373,0.286133-0.118408l268.929199-268.928955C699.942383,430.891113,700,430.83374,700,430.66626
	s-0.057617-0.225098-0.118164-0.286133L369.620117,100.118408C369.544922,100.043457,369.44043,100,369.333984,100H100.404785
	C100.181641,100,100,100.181641,100,100.404785V369.33374c0,0.108154,0.041992,0.209961,0.119141,0.286621L100.118652,369.619873z
	 M303,405c-56.794434,0-103-46.205566-103-103s46.205566-103,103-103s103,46.205566,103,103S359.794434,405,303,405z M303,249
	c-29.224121,0-53,23.775635-53,53s23.775879,53,53,53s53-23.775635,53-53S332.224121,249,303,249z"/>
</svg>
