<?xml version="1.0" encoding="utf-8"?>
<!-- Generator: Adobe Illustrator 21.0.0, SVG Export Plug-In . SVG Version: 6.00 Build 0)  -->
<svg version="1.1" id="Layer_1" xmlns="http://www.w3.org/2000/svg" xmlns:xlink="http://www.w3.org/1999/xlink" x="0px" y="0px"
	 viewBox="0 0 800 800" enable-background="new 0 0 800 800" xml:space="preserve">
<path fill="#010101" d="M750,200H335.355469l-85.354492-85.355469c-9.443848-9.443848-22-14.644531-35.355469-14.644531H50
	c-27.570312,0-50,22.429688-50,50v500c0,27.570312,22.429688,50,50,50h700c27.570312,0,50-22.429688,50-50V250
	C800,222.429688,777.570312,200,750,200z M750,650H50V150h164.645508L300,235.355469C309.443848,244.799316,322,250,335.355469,250
	H750l0.031738,399.998535C750.031738,649.998535,750.021484,650,750,650z"/>
</svg>
