<?xml version="1.0" encoding="utf-8"?>
<!-- Generator: Adobe Illustrator 21.0.0, SVG Export Plug-In . SVG Version: 6.00 Build 0)  -->
<svg version="1.1" id="Layer_1" xmlns="http://www.w3.org/2000/svg" xmlns:xlink="http://www.w3.org/1999/xlink" x="0px" y="0px"
	 viewBox="0 0 800 800" enable-background="new 0 0 800 800" xml:space="preserve">
<path fill="#010101" d="M750,100H50c-27.570068,0-50,22.429688-50,50v400c0,27.570312,22.429932,50,50,50h402.51123
	C464.126953,656.984375,514.635742,700,575,700h50c13.807129,0,25-11.193359,25-25v-75h100c27.570068,0,50-22.429688,50-50V150
	C800,122.429688,777.570068,100,750,100z M750,550H625c-13.807129,0-25,11.193359-25,25v75h-25c-41.35498,0-75-33.644531-75-75
	c0-13.806641-11.192871-25-25-25H50V150h700V550z"/>
</svg>
