<?xml version="1.0" encoding="utf-8"?>
<!-- Generator: Adobe Illustrator 21.0.0, SVG Export Plug-In . SVG Version: 6.00 Build 0)  -->
<svg version="1.1" id="Layer_1" xmlns="http://www.w3.org/2000/svg" xmlns:xlink="http://www.w3.org/1999/xlink" x="0px" y="0px"
	 viewBox="0 0 800 800" enable-background="new 0 0 800 800" xml:space="preserve">
<path fill="#010101" d="M744.041992,674.991699L418.030273,124.080566C408.938477,108.716797,392.852539,99.544434,375,99.544434
	s-33.938477,9.172363-43.030273,24.536133h0.000977L5.957031,674.992188c-9.262695,15.652832-9.413086,34.430664-0.40332,50.230957
	c9.008789,15.799805,25.246094,25.232422,43.43457,25.232422h652.023438c18.188477,0,34.425781-9.432617,43.43457-25.232422
	C753.456055,709.422852,753.305664,690.64502,744.041992,674.991699z M701.011719,700.455566H48.988281h-0.000977L375,149.544434
	l326.011719,550.910645C701.011719,700.455078,701.011719,700.455078,701.011719,700.455566z M375,299.455566
	c13.806641,0,25,11.192871,25,25v200c0,13.807129-11.193359,25-25,25s-25-11.192871-25-25v-200
	C350,310.648438,361.193359,299.455566,375,299.455566z M400,624.455566v1c0,13.807129-11.193359,25-25,25s-25-11.192871-25-25v-1
	c0-13.807129,11.193359-25,25-25S400,610.648438,400,624.455566z"/>
</svg>
