<?xml version="1.0" encoding="utf-8"?>
<!-- Generator: Adobe Illustrator 21.0.0, SVG Export Plug-In . SVG Version: 6.00 Build 0)  -->
<svg version="1.1" id="Layer_1" xmlns="http://www.w3.org/2000/svg" xmlns:xlink="http://www.w3.org/1999/xlink" x="0px" y="0px"
	 viewBox="0 0 800 800" enable-background="new 0 0 800 800" xml:space="preserve">
<path fill="#010101" d="M750,100H50c-27.570312,0-50,22.429932-50,50v500c0,27.570068,22.429688,50,50,50h700
	c27.570312,0,50-22.429932,50-50V150C800,122.429932,777.570312,100,750,100z M750,650H50V150h700l0.03125,499.998779
	C750.03125,649.998779,750.021484,650,750,650z M350,200H150c-27.570312,0-50,22.429932-50,50v100c0,27.570068,22.429688,50,50,50
	h200c27.570312,0,50-22.429932,50-50V250C400,222.429932,377.570312,200,350,200z M350,350H150V250h200l0.03125,99.998779
	C350.03125,349.998779,350.021484,350,350,350z M650,200H500c-27.570312,0-50,22.429932-50,50v300c0,27.570068,22.429688,50,50,50
	h150c27.570312,0,50-22.429932,50-50V250C700,222.429932,677.570312,200,650,200z M650,550H500V250h150l0.03125,299.998779
	C650.03125,549.998779,650.021484,550,650,550z"/>
</svg>
