<?xml version="1.0" encoding="utf-8"?>
<!-- Generator: Adobe Illustrator 21.0.0, SVG Export Plug-In . SVG Version: 6.00 Build 0)  -->
<svg version="1.1" id="Layer_1" xmlns="http://www.w3.org/2000/svg" xmlns:xlink="http://www.w3.org/1999/xlink" x="0px" y="0px"
	 viewBox="0 0 800 800" enable-background="new 0 0 800 800" xml:space="preserve">
<path fill="#010101" d="M275,49.998779H75c-13.808594,0-25,11.191406-25,25v650c0,13.808594,11.191406,25,25,25h200
	c13.808594,0,25-11.191406,25-25v-650C300,61.190186,288.808594,49.998779,275,49.998779z M250,699.998779H100v-600h150V699.998779z
	 M725,49.998779H525c-13.808594,0-25,11.191406-25,25v650c0,13.808594,11.191406,25,25,25h200c13.808594,0,25-11.191406,25-25v-650
	C750,61.190186,738.808594,49.998779,725,49.998779z M700,699.998779H550v-600h150V699.998779z"/>
</svg>
