<?xml version="1.0" encoding="utf-8"?>
<!-- Generator: Adobe Illustrator 21.0.0, SVG Export Plug-In . SVG Version: 6.00 Build 0)  -->
<svg version="1.1" id="Layer_1" xmlns="http://www.w3.org/2000/svg" xmlns:xlink="http://www.w3.org/1999/xlink" x="0px" y="0px"
	 viewBox="0 0 800 800" enable-background="new 0 0 800 800" xml:space="preserve">
<path fill="#010101" d="M621.59082,750c-70.805176,0-128.40918-57.604492-128.40918-128.40918v-78.40918H306.818359v78.40918
	C306.818359,692.395508,249.214355,750,178.40918,750S50,692.395508,50,621.59082s57.604004-128.40918,128.40918-128.40918h78.40918
	V306.818359h-78.40918C107.604004,306.818359,50,249.213867,50,178.40918S107.604004,50,178.40918,50
	s128.40918,57.604492,128.40918,128.40918v78.40918h186.363281v-78.40918C493.181641,107.604492,550.785645,50,621.59082,50
	S750,107.604492,750,178.40918s-57.604004,128.40918-128.40918,128.40918h-78.40918v186.363281h78.40918
	C692.395996,493.181641,750,550.786133,750,621.59082S692.395996,750,621.59082,750z M543.181641,543.181641v78.40918
	c0,43.235352,35.174316,78.40918,78.40918,78.40918S700,664.826172,700,621.59082s-35.174316-78.40918-78.40918-78.40918H543.181641
	z M178.40918,543.181641c-43.234863,0-78.40918,35.173828-78.40918,78.40918S135.174316,700,178.40918,700
	s78.40918-35.173828,78.40918-78.40918v-78.40918H178.40918z M306.818359,493.181641h186.363281V306.818359H306.818359V493.181641z
	 M543.181641,256.818359h78.40918c43.234863,0,78.40918-35.173828,78.40918-78.40918S664.825684,100,621.59082,100
	s-78.40918,35.173828-78.40918,78.40918V256.818359z M178.40918,100C135.174316,100,100,135.173828,100,178.40918
	s35.174316,78.40918,78.40918,78.40918h78.40918v-78.40918C256.818359,135.173828,221.644043,100,178.40918,100z"/>
</svg>
