<?xml version="1.0" encoding="utf-8"?>
<!-- Generator: Adobe Illustrator 21.0.0, SVG Export Plug-In . SVG Version: 6.00 Build 0)  -->
<svg version="1.1" id="Layer_1" xmlns="http://www.w3.org/2000/svg" xmlns:xlink="http://www.w3.org/1999/xlink" x="0px" y="0px"
	 viewBox="0 0 800 800" enable-background="new 0 0 800 800" xml:space="preserve">
<path fill="#010101" d="M400,750c-47.238281,0-93.077148-9.257812-136.243164-27.514648
	c-41.680664-17.629883-79.108398-42.862305-111.244141-74.998047s-57.368164-69.563477-74.998047-111.244141
	C59.257812,493.077148,50,447.238281,50,400s9.257812-93.077148,27.514648-136.243164
	c17.629883-41.680664,42.862305-79.108398,74.998047-111.244141s69.563477-57.368164,111.244141-74.998047
	C306.922852,59.257812,352.761719,50,400,50s93.077148,9.257812,136.243164,27.514648
	c41.680664,17.629883,79.108398,42.862305,111.244141,74.998047s57.368164,69.563477,74.998047,111.244141
	C740.742188,306.922852,750,352.761719,750,400s-9.257812,93.077148-27.514648,136.243164
	c-17.629883,41.680664-42.862305,79.108398-74.998047,111.244141s-69.563477,57.368164-111.244141,74.998047
	C493.077148,740.742188,447.238281,750,400,750z M400,100c-80.132812,0-155.469727,31.205078-212.131836,87.868164
	C131.205078,244.530273,100,319.867188,100,400s31.205078,155.469727,87.868164,212.131836
	C244.530273,668.794922,319.867188,700,400,700s155.469727-31.205078,212.131836-87.868164
	C668.794922,555.469727,700,480.132812,700,400s-31.205078-155.469727-87.868164-212.131836
	C555.469727,131.205078,480.132812,100,400,100z M544.505859,540.636719c8.636719-10.772461,6.904297-26.506836-3.869141-35.142578
	C509.056641,480.177734,459.022461,450,400,450c-59.019531,0-109.054688,30.177734-140.636719,55.493164
	c-10.772461,8.635742-12.505859,24.370117-3.870117,35.143555c8.637695,10.774414,24.370117,12.505859,35.143555,3.870117
	C315.964844,524.203125,355.499023,500,400,500c44.50293,0,84.035156,24.202148,109.363281,44.505859
	c4.613281,3.698242,10.134766,5.495117,15.621094,5.495117C532.308594,550.000977,539.568359,546.796875,544.505859,540.636719z
	 M300,375v-99c0-13.807617-11.192383-25-25-25s-25,11.192383-25,25v99c0,13.807617,11.192383,25,25,25S300,388.807617,300,375z
	 M550,375v-99c0-13.807617-11.192383-25-25-25s-25,11.192383-25,25v99c0,13.807617,11.192383,25,25,25S550,388.807617,550,375z"/>
</svg>
