<?xml version="1.0" encoding="utf-8"?>
<!-- Generator: Adobe Illustrator 21.0.0, SVG Export Plug-In . SVG Version: 6.00 Build 0)  -->
<svg version="1.1" id="Layer_1" xmlns="http://www.w3.org/2000/svg" xmlns:xlink="http://www.w3.org/1999/xlink" x="0px" y="0px"
	 viewBox="0 0 800 800" enable-background="new 0 0 800 800" xml:space="preserve">
<path fill="#010101" d="M700,775c0,13.807129-11.192871,25-25,25H125c-13.807129,0-25-11.192871-25-25s11.192871-25,25-25h550
	C688.807129,750,700,761.192871,700,775z M375,650c6.397949,0,12.795898-2.440918,17.677734-7.322266l300-300
	c9.763184-9.763184,9.763184-25.592285,0-35.355469c-9.763672-9.762695-25.591797-9.762695-35.355469,0L400,564.644531V25
	c0-13.807129-11.192871-25-25-25s-25,11.192871-25,25v539.644531L92.677734,307.322266
	c-9.763672-9.762695-25.591797-9.762695-35.355469,0c-9.763184,9.763184-9.763184,25.592285,0,35.355469l300,300
	C362.204102,647.559082,368.602051,650,375,650z"/>
</svg>
