<?xml version="1.0" encoding="utf-8"?>
<!-- Generator: Adobe Illustrator 21.0.0, SVG Export Plug-In . SVG Version: 6.00 Build 0)  -->
<svg version="1.1" id="Layer_1" xmlns="http://www.w3.org/2000/svg" xmlns:xlink="http://www.w3.org/1999/xlink" x="0px" y="0px"
	 viewBox="0 0 800 800" enable-background="new 0 0 800 800" xml:space="preserve">
<path fill="#010101" d="M600,400c0,110.280273-89.719727,200-200,200s-200-89.719727-200-200s89.719727-200,200-200
	c47.815918,0,103.427246,22.12793,141.67627,56.375c10.286621,9.209961,11.15918,25.014648,1.949219,35.300781
	c-9.210449,10.288086-25.015625,11.160156-35.301758,1.949219C479.180176,267.53125,435.648438,250,400,250
	c-82.710449,0-150,67.290039-150,150s67.289551,150,150,150c74.193848,0,135.979492-54.148438,147.916504-125H426
	c-13.807129,0-25-11.193359-25-25s11.192871-25,25-25h149C588.807129,375,600,386.193359,600,400z M750,150v500
	c0,55.140625-44.859863,100-100,100H150c-55.140137,0-100-44.859375-100-100V150C50,94.859375,94.859863,50,150,50h500
	C705.140137,50,750,94.859375,750,150z M700,150c0-27.570312-22.429688-50-50-50H150c-27.570312,0-50,22.429688-50,50v500
	c0,27.570312,22.429688,50,50,50h500c27.570312,0,50-22.429688,50-50V150z"/>
</svg>
