<?xml version="1.0" encoding="utf-8"?>
<!-- Generator: Adobe Illustrator 21.0.0, SVG Export Plug-In . SVG Version: 6.00 Build 0)  -->
<svg version="1.1" id="Layer_1" xmlns="http://www.w3.org/2000/svg" xmlns:xlink="http://www.w3.org/1999/xlink" x="0px" y="0px"
	 viewBox="0 0 800 800" enable-background="new 0 0 800 800" xml:space="preserve">
<path fill="#010101" d="M722.797363,150.084961c-16.617188-31.264648-41.032715-56.850586-70.607422-73.991211
	c-4.414795-2.558594-8.945801-4.905273-13.557617-7.082031c-0.522705-0.272461-1.054688-0.519531-1.591797-0.751953
	C612.584473,57,585.617188,51.100586,558.064453,51.100586c-0.34375,0-0.687988,0.000977-1.032227,0.00293
	c-33.135254,0.176758-65.477051,8.814453-93.528809,24.978516c-26.937988,15.523438-48.375977,37.018555-63.400879,62.833984
	c-8.598145-14.723633-19.366211-28.097656-32.219727-39.916992c-33.589844-30.887695-78.233398-47.898438-125.707031-47.898438
	c-50.696289,0-97.737305,19.450195-132.45752,54.767578C70.650391,145.608398,50,202.631836,50,270.775391
	c0,32.276367,6.115234,65.963867,18.221191,100.732422c0.247559,0.857422,0.540527,1.704102,0.881836,2.537109
	c8.714111,24.474609,20.391846,49.480469,35.001465,74.907227c17.826904,31.025391,40.068848,62.791992,66.432617,94.93457
	c0.090332,0.112305,0.182617,0.224609,0.275391,0.335938c14.903076,18.151367,31.114746,36.421875,48.599609,54.74707
	c82.01123,85.954102,162.824219,143.005859,166.224609,145.391602c4.310059,3.025391,9.335938,4.538086,14.362793,4.538086
	c5.032715,0,10.066406-1.516602,14.379395-4.549805c3.394043-2.385742,84.067871-59.436523,166.006348-145.387695
	c48.51123-50.887695,87.293457-101.355469,115.269043-150.000977c35.922363-62.464844,54.206543-122.394531,54.344727-178.123047
	C750.112793,224.886719,740.960938,184.259766,722.797363,150.084961z M145.374023,140.920898
	c25.244141-25.678711,59.622559-39.820312,96.801758-39.820312c22.216797,0,44.047607,5.283203,63.188232,14.962891
	L104.7854,316.642578C101.603027,300.916016,100,285.611328,100,270.775391
	C100,216.017578,115.689941,171.115234,145.374023,140.920898z M121.340576,370.797852l223.588867-223.588867
	c19.722656,23.508789,30.070068,54.017578,30.070068,89.191406c0,13.806641,11.192871,25,25,25s25-11.193359,25-25
	c0-51.861328,22.540039-93.411133,63.468262-116.996094c27.636475-15.925781,60.473145-21.44043,91.626465-16.550781
	L192.209473,490.738281c-17.265869-22.613281-32.22583-44.895508-44.751953-66.696289
	C137.045898,405.921875,128.342285,388.158203,121.340576,370.797852z M255.587402,564.454102
	c-11.102051-11.635742-21.645996-23.226562-31.627197-34.755859l407.630127-407.630859
	c31.89209,20.209961,53.374268,53.083008,62.864014,95.254883L301.734863,610.041992
	C286.731934,596.025391,271.148682,580.763672,255.587402,564.454102z M652.523926,423.663086
	c-25.886719,45.101562-62.138184,92.267578-107.746582,140.1875c-58.773926,61.751953-118.233398,108.919922-144.795898,129.001953
	c-13.394287-10.104492-35.151855-27.087891-60.980957-49.365234L699.609619,282.87793
	C697.016602,326.386719,681.214355,373.675781,652.523926,423.663086z"/>
</svg>
