<?xml version="1.0" encoding="utf-8"?>
<!-- Generator: Adobe Illustrator 21.0.0, SVG Export Plug-In . SVG Version: 6.00 Build 0)  -->
<svg version="1.1" id="Layer_1" xmlns="http://www.w3.org/2000/svg" xmlns:xlink="http://www.w3.org/1999/xlink" x="0px" y="0px"
	 viewBox="0 0 800 800" enable-background="new 0 0 800 800" xml:space="preserve">
<path fill="#010101" d="M400,750c-47.23877,0-93.077637-9.257812-136.243652-27.514648
	c-41.680664-17.629883-79.108398-42.862305-111.243652-74.998047s-57.368164-69.563477-74.997559-111.244141
	C59.257324,493.077148,50,447.238281,50,400s9.257324-93.077148,27.515137-136.243164
	c17.629395-41.680664,42.862305-79.108398,74.997559-111.244141s69.562988-57.368164,111.243652-74.998047
	C306.922363,59.257812,352.76123,50,400,50s93.077637,9.257812,136.243652,27.514648
	c41.680664,17.629883,79.108398,42.862305,111.243652,74.998047s57.368164,69.563477,74.997559,111.244141
	C740.742676,306.922852,750,352.761719,750,400s-9.257324,93.077148-27.515137,136.243164
	c-17.629395,41.680664-42.862305,79.108398-74.997559,111.244141s-69.562988,57.368164-111.243652,74.998047
	C493.077637,740.742188,447.23877,750,400,750z M400,100c-80.132812,0-155.469727,31.205078-212.132324,87.868164
	C131.205566,244.530273,100,319.867188,100,400s31.205566,155.469727,87.867676,212.131836
	C244.530273,668.794922,319.867188,700,400,700s155.469727-31.205078,212.132324-87.868164
	C668.794434,555.469727,700,480.132812,700,400s-31.205566-155.469727-87.867676-212.131836
	C555.469727,131.205078,480.132812,100,400,100z M400,476V225c0-13.806641-11.192871-25-25-25s-25,11.193359-25,25v251
	c0,13.806641,11.192871,25,25,25S400,489.806641,400,476z M400,576v-1c0-13.806641-11.192871-25-25-25s-25,11.193359-25,25v1
	c0,13.806641,11.192871,25,25,25S400,589.806641,400,576z"/>
</svg>
