<?xml version="1.0" encoding="utf-8"?>
<!-- Generator: Adobe Illustrator 21.0.0, SVG Export Plug-In . SVG Version: 6.00 Build 0)  -->
<svg version="1.1" id="Layer_1" xmlns="http://www.w3.org/2000/svg" xmlns:xlink="http://www.w3.org/1999/xlink" x="0px" y="0px"
	 viewBox="0 0 800 800" enable-background="new 0 0 800 800" xml:space="preserve">
<path fill="#000101" d="M775,249.998779H25c-13.808594,0-25-11.191406-25-25s11.191406-25,25-25h750c13.808594,0,25,11.191406,25,25
	S788.808594,249.998779,775,249.998779z M800,424.998779c0-13.808594-11.191406-25-25-25H25c-13.808594,0-25,11.191406-25,25
	s11.191406,25,25,25h750C788.808594,449.998779,800,438.807373,800,424.998779z M800,624.998779c0-13.808594-11.191406-25-25-25H25
	c-13.808594,0-25,11.191406-25,25s11.191406,25,25,25h750C788.808594,649.998779,800,638.807373,800,624.998779z"/>
</svg>
