<?xml version="1.0" encoding="utf-8"?>
<!-- Generator: Adobe Illustrator 21.0.0, SVG Export Plug-In . SVG Version: 6.00 Build 0)  -->
<svg version="1.1" id="Layer_1" xmlns="http://www.w3.org/2000/svg" xmlns:xlink="http://www.w3.org/1999/xlink" x="0px" y="0px"
	 viewBox="0 0 800 800" enable-background="new 0 0 800 800" xml:space="preserve">
<path fill="#000101" d="M400,750c-47.23877,0-93.077637-9.257324-136.243652-27.514893
	c-41.680664-17.629639-79.108398-42.862305-111.243652-74.997803c-32.135254-32.135254-57.368164-69.563232-74.997559-111.243896
	C59.257324,493.077637,50,447.23877,50,400s9.257324-93.077637,27.515137-136.243408
	c17.629395-41.680664,42.862305-79.108643,74.997559-111.243896c32.135254-32.135498,69.562988-57.368164,111.243652-74.997803
	C306.922363,59.257324,352.76123,50,400,50s93.077637,9.257324,136.243652,27.514893
	c41.680664,17.629639,79.108398,42.862305,111.243652,74.997803c32.135254,32.135254,57.368164,69.563232,74.997559,111.243896
	C740.742676,306.922363,750,352.76123,750,400s-9.257324,93.077637-27.515137,136.243408
	c-17.629395,41.680664-42.862305,79.108643-74.997559,111.243896c-32.135254,32.135498-69.562988,57.368164-111.243652,74.997803
	C493.077637,740.742676,447.23877,750,400,750z M400,100c-165.42041,0-300,134.579346-300,300s134.57959,300,300,300
	s300-134.579346,300-300S565.42041,100,400,100z M400,475V225c0-13.807129-11.192871-25-25-25s-25,11.192871-25,25v250
	c0,13.807129,11.192871,25,25,25S400,488.807129,400,475z M376.22998,599.969971
	c0.409668-0.02002,0.819824-0.050049,1.22998-0.090088c0.810059-0.090088,1.619629-0.209961,2.429688-0.369873
	c0.790039-0.160156,1.590332-0.360107,2.370117-0.600098c0.780273-0.23999,1.550293-0.51001,2.300293-0.830078
	c0.75-0.309814,1.5-0.659912,2.209961-1.040039c0.719727-0.379883,1.429688-0.799805,2.109863-1.25
	c0.680176-0.459961,1.339844-0.949951,1.969727-1.459961c0.320313-0.26001,0.630371-0.530029,0.930176-0.799805
	c0.310059-0.280029,0.609863-0.560059,0.899902-0.850098s0.570313-0.590088,0.850098-0.899902
	c0.27002-0.300049,0.540039-0.610107,0.799805-0.930176c0.510254-0.629883,1-1.290039,1.460449-1.969971
	c0.439941-0.679932,0.869629-1.389893,1.25-2.109863c0.379883-0.710205,0.72998-1.460205,1.039551-2.210205
	c0.320313-0.75,0.590332-1.52002,0.830078-2.299805c0.240234-0.780029,0.439941-1.580078,0.600098-2.370117
	c0.160156-0.810059,0.280273-1.619873,0.370117-2.429932c0.040039-0.410156,0.069824-0.820068,0.089844-1.22998
	C399.989746,575.819824,400,575.409912,400,575c0-0.410156-0.010254-0.820068-0.030273-1.22998
	c-0.02002-0.410156-0.049805-0.820068-0.089844-1.230225c-0.089844-0.809814-0.209961-1.619873-0.370117-2.419922
	s-0.359863-1.599854-0.600098-2.379883c-0.239746-0.780029-0.509766-1.550049-0.830078-2.300049
	c-0.30957-0.75-0.659668-1.5-1.039551-2.209961c-0.380371-0.719971-0.810059-1.430176-1.25-2.110107
	c-0.460449-0.679932-0.950195-1.339844-1.460449-1.969971c-0.259766-0.320068-0.529785-0.629883-0.799805-0.929932
	c-0.279785-0.310059-0.560059-0.610107-0.850098-0.900146c-0.290039-0.289795-0.589844-0.569824-0.899902-0.849854
	c-0.299805-0.27002-0.609863-0.540039-0.930176-0.800049c-0.629883-0.51001-1.289551-1-1.969727-1.459961
	c-0.680176-0.449951-1.390137-0.870117-2.109863-1.25c-0.709961-0.380127-1.459961-0.72998-2.209961-1.040039
	c-0.75-0.320068-1.52002-0.590088-2.300293-0.830078c-0.779785-0.23999-1.580078-0.439941-2.370117-0.599854
	c-0.810059-0.160156-1.619629-0.280029-2.429688-0.370117c-0.410156-0.040039-0.820313-0.070068-1.22998-0.089844
	c-0.810059-0.040039-1.640137-0.040039-2.459961,0c-0.410156,0.019775-0.820313,0.049805-1.22998,0.089844
	c-0.810059,0.090088-1.620117,0.209961-2.42041,0.370117c-0.799805,0.159912-1.599609,0.359863-2.379883,0.599854
	c-0.779785,0.23999-1.549805,0.51001-2.299805,0.830078c-0.75,0.310059-1.5,0.659912-2.209961,1.040039
	c-0.720215,0.379883-1.430176,0.800049-2.110352,1.25c-0.679688,0.459961-1.339844,0.949951-1.969727,1.459961
	c-0.320313,0.26001-0.629883,0.530029-0.930176,0.800049c-0.310059,0.280029-0.609863,0.560059-0.899902,0.849854
	c-0.290039,0.290039-0.569824,0.590088-0.850098,0.900146c-0.27002,0.300049-0.540039,0.609863-0.799805,0.929932
	c-0.510254,0.630127-1,1.290039-1.459961,1.969971c-0.450195,0.679932-0.870117,1.390137-1.25,2.110107
	c-0.380371,0.709961-0.72998,1.459961-1.040039,2.209961c-0.320313,0.75-0.590332,1.52002-0.830078,2.300049
	c-0.240234,0.780029-0.439941,1.579834-0.600098,2.379883s-0.279785,1.610107-0.370117,2.419922
	c-0.040039,0.410156-0.069824,0.820068-0.089844,1.230225C350.009766,574.179932,350,574.589844,350,575
	c0,0.409912,0.009766,0.819824,0.029785,1.22998c0.02002,0.409912,0.049805,0.819824,0.089844,1.22998
	c0.090332,0.810059,0.209961,1.619873,0.370117,2.429932c0.160156,0.790039,0.359863,1.590088,0.600098,2.370117
	c0.239746,0.779785,0.509766,1.549805,0.830078,2.299805c0.310059,0.75,0.659668,1.5,1.040039,2.210205
	c0.379883,0.719971,0.799805,1.429932,1.25,2.109863c0.459961,0.679932,0.949707,1.340088,1.459961,1.969971
	c0.259766,0.320068,0.529785,0.630127,0.799805,0.930176c0.280273,0.309814,0.560059,0.609863,0.850098,0.899902
	s0.589844,0.570068,0.899902,0.850098c0.300293,0.269775,0.609863,0.539795,0.930176,0.799805
	c0.629883,0.51001,1.290039,1,1.969727,1.459961c0.680176,0.450195,1.390137,0.870117,2.110352,1.25
	c0.709961,0.380127,1.459961,0.730225,2.209961,1.040039c0.75,0.320068,1.52002,0.590088,2.299805,0.830078
	c0.780273,0.23999,1.580078,0.439941,2.379883,0.600098c0.800293,0.159912,1.610352,0.279785,2.42041,0.369873
	c0.409668,0.040039,0.819824,0.070068,1.22998,0.090088C374.179688,599.98999,374.589844,600,375,600
	C375.409668,600,375.819824,599.98999,376.22998,599.969971z"/>
</svg>
