<?xml version="1.0" encoding="utf-8"?>
<!-- Generator: Adobe Illustrator 21.0.0, SVG Export Plug-In . SVG Version: 6.00 Build 0)  -->
<svg version="1.1" id="Layer_1" xmlns="http://www.w3.org/2000/svg" xmlns:xlink="http://www.w3.org/1999/xlink" x="0px" y="0px"
	 viewBox="0 0 800 800" enable-background="new 0 0 800 800" xml:space="preserve">
<path fill="#000101" d="M400,275c-68.925293,0-125,56.074707-125,125s56.074707,125,125,125s125-56.074707,125-125
	S468.925293,275,400,275z M400,475c-41.355225,0-75-33.644775-75-75s33.644775-75,75-75s75,33.644775,75,75S441.355225,475,400,475z
	 M700,300h-58.578613l41.421143-41.421387c9.443848-9.443359,14.64502-21.999756,14.64502-35.355225
	c0-13.355713-5.201172-25.911865-14.644775-35.355469l-70.710449-70.710449c-9.443848-9.443848-22-14.64502-35.355713-14.64502
	c-13.355469,0-25.911865,5.201172-35.355225,14.644775L500,158.578613V100c0-27.570068-22.429932-50-50-50H350
	c-27.570068,0-50,22.429932-50,50v58.578613l-41.421387-41.421143c-9.443359-9.443848-21.999756-14.64502-35.355225-14.64502
	c-13.355713,0-25.911865,5.201172-35.355469,14.644775l-70.710449,70.710449c-9.443848,9.443848-14.64502,22-14.64502,35.355713
	c0,13.355469,5.201172,25.911865,14.644775,35.355225L158.578613,300H100c-27.570068,0-50,22.429932-50,50v100
	c0,27.570068,22.429932,50,50,50h58.578613l-41.421143,41.421387c-9.443848,9.443359-14.64502,21.999512-14.64502,35.355225
	c0,13.355469,5.201172,25.911621,14.644775,35.355469l70.710449,70.710449c9.443848,9.443848,22,14.64502,35.355713,14.64502
	c13.355469,0,25.911865-5.201172,35.355225-14.644775L300,641.421387V700c0,27.570068,22.429932,50,50,50h100
	c27.570068,0,50-22.429932,50-50v-58.578613l41.421387,41.421143c9.443359,9.443848,21.999756,14.64502,35.355225,14.64502
	c13.355713,0,25.911865-5.201172,35.355469-14.644775l70.710693-70.710693c9.443604-9.443848,14.644775-22,14.644775-35.355469
	c0-13.355713-5.201172-25.911865-14.644775-35.355225L641.421387,500H700c27.570068,0,50-22.429932,50-50V350
	C750,322.429932,727.570068,300,700,300z M700,450H594.500488l-5.89209,16.668213
	c-2.361816,6.681641-5.084473,13.256592-8.092041,19.541748l-7.636719,15.958984l74.60791,74.607666l-70.710938,70.710693
	l-74.607666-74.607666l-15.958984,7.636719c-6.285156,3.007568-12.860107,5.730225-19.541748,8.092041L450,594.500488V700H350
	V594.500488l-16.668213-5.89209c-6.681641-2.361816-13.256592-5.084473-19.541748-8.092041l-15.958984-7.636719l-74.607666,74.60791
	l-70.710693-70.710938l74.607666-74.607666l-7.636719-15.958984c-3.007568-6.285156-5.730225-12.860107-8.092041-19.541748
	L205.499512,450H100V350h105.499512l5.89209-16.668213c2.361816-6.681641,5.084473-13.256592,8.092041-19.541748l7.636719-15.958984
	l-74.60791-74.607666l70.710938-70.710693l74.607666,74.607666l15.958984-7.636719
	c6.285156-3.007568,12.860107-5.730225,19.541748-8.092041L350,205.499512V100h100v105.499512l16.668213,5.89209
	c6.681641,2.361816,13.256592,5.084473,19.541748,8.092041l15.958984,7.636719l74.607666-74.60791l70.710693,70.710938
	l-74.607666,74.607666l7.636719,15.958984c3.007568,6.285156,5.730225,12.860107,8.092041,19.541748L594.500488,350H700V450z"/>
</svg>
