<?xml version="1.0" encoding="utf-8"?>
<!-- Generator: Adobe Illustrator 21.0.0, SVG Export Plug-In . SVG Version: 6.00 Build 0)  -->
<svg version="1.1" id="Layer_1" xmlns="http://www.w3.org/2000/svg" xmlns:xlink="http://www.w3.org/1999/xlink" x="0px" y="0px"
	 viewBox="0 0 800 800" enable-background="new 0 0 800 800" xml:space="preserve">
<path fill="#000101" d="M-1.517587,123.53566c0-5.517578,1.816406-11.074219,5.556641-15.698242
	c8.681641-10.742188,24.418945-12.407227,35.15625-3.730469l359.042969,290.200195l359.443359-293.222656
	c10.698242-8.730469,26.445313-7.133789,35.170898,3.569336c8.740234,10.683594,7.138672,26.445313-3.569336,35.170898
	L414.112305,445.879425c-9.165039,7.480469-22.314453,7.509766-31.513672,0.073242L7.769523,142.993668
	C1.656241,138.052261-1.517587,130.825699-1.517587,123.53566z M7.769523,396.016144L382.598633,698.97998
	c9.199219,7.436523,22.348633,7.407227,31.513672-0.073242l375.170898-306.054657
	c10.708008-8.730469,12.30957-24.477539,3.569336-35.170898c-8.725586-10.703125-24.472656-12.299805-35.170898-3.569336
	L398.238281,647.334473L39.195305,357.129425c-10.737307-8.676758-26.474609-7.011719-35.15625,3.730469
	c-3.740234,4.624023-5.556641,10.180664-5.556641,15.698242C-1.517587,383.848175,1.656241,391.074738,7.769523,396.016144z"/>
</svg>
