<?xml version="1.0" encoding="utf-8"?>
<!-- Generator: Adobe Illustrator 21.0.0, SVG Export Plug-In . SVG Version: 6.00 Build 0)  -->
<svg version="1.1" id="Layer_1" xmlns="http://www.w3.org/2000/svg" xmlns:xlink="http://www.w3.org/1999/xlink" x="0px" y="0px"
	 viewBox="0 0 800 800" enable-background="new 0 0 800 800" xml:space="preserve">
<path fill="#000101" d="M680.634766,649.998779h-1.245117c-7.207031-10.141602-32.836914-66.469727-33.378906-354.570313
	C645.767822,168.530273,548.718262,63.820801,425,51.262817V24.998779c0-13.808594-11.191406-25-25-25s-25,11.191406-25,25
	v26.264038C251.281738,63.820801,154.232178,168.530273,153.989258,295.428467
	c-0.541992,288.100586-26.171875,344.428711-33.378906,354.570313h-1.245117c-13.803711,0-25,11.191406-25,25s11.196289,25,25,25
	H300c0,55.141602,44.858398,100,100,100s100-44.858398,100-100h180.634766c13.803711,0,25-11.191406,25-25
	S694.438477,649.998779,680.634766,649.998779z M400,749.998779c-27.568359,0-50-22.431641-50-50h100
	C450,727.567139,427.568359,749.998779,400,749.998779z M174.726563,649.998779
	c16.904297-51.005859,28.881836-152.832031,29.262695-354.472656C204.194336,187.713623,292.128906,99.998779,400,99.998779
	s195.805664,87.714844,196.010742,195.527344c0.380859,201.640625,12.358398,303.466797,29.262695,354.472656H174.726563z"/>
</svg>
