<?xml version="1.0" encoding="utf-8"?>
<!-- Generator: Adobe Illustrator 21.0.0, SVG Export Plug-In . SVG Version: 6.00 Build 0)  -->
<svg version="1.1" id="Layer_1" xmlns="http://www.w3.org/2000/svg" xmlns:xlink="http://www.w3.org/1999/xlink" x="0px" y="0px"
	 viewBox="0 0 800 800" enable-background="new 0 0 800 800" xml:space="preserve">
<path fill="#000101" d="M699.523315,220.176392c-0.004272-0.021362-0.002441-0.043335-0.006714-0.065308
	c-0.422974-2.122192-1.211548-4.130859-2.160034-6.065674c-0.238647-0.487061-0.488892-0.950928-0.760498-1.42395
	c-1.090698-1.903687-2.340698-3.720093-3.920288-5.298462l-199.995117-200c-1.586304-1.588135-3.413696-2.843018-5.328369-3.936768
	c-0.456543-0.26062-0.90332-0.502319-1.373291-0.733032c-3.397827-1.668701-7.116699-2.654419-10.974121-2.654419H125
	c-13.808594,0-25,11.191406-25,25v750c0,13.808594,11.191406,25,25,25h550c13.808594,0,25-11.191406,25-25v-550
	C700,223.36731,699.833374,221.75415,699.523315,220.176392z M614.643555,199.998779H500V85.355225L614.643555,199.998779z
	 M150,749.998779v-700h300v175c0,13.808594,11.191406,25,25,25h175v500H150z"/>
</svg>
