<?xml version="1.0" encoding="utf-8"?>
<!-- Generator: Adobe Illustrator 21.0.0, SVG Export Plug-In . SVG Version: 6.00 Build 0)  -->
<svg version="1.1" id="Layer_1" xmlns="http://www.w3.org/2000/svg" xmlns:xlink="http://www.w3.org/1999/xlink" x="0px" y="0px"
	 viewBox="0 0 800 800" enable-background="new 0 0 800 800" xml:space="preserve">
<path fill="#000101" d="M700,50.5H525c-52.117676,0-98.105469,26.723816-125,67.182495
	C373.105469,77.223816,327.117676,50.5,275,50.5H100c-13.807617,0-25,11.192871-25,25v600c0,13.807129,11.192383,25,25,25h225
	c45.553711,0,49.658203,20.281006,50.008789,24.660645c0.00293,0.104065,0.011719,0.206421,0.015625,0.310181
	c0.008301,0.212341,0.019043,0.423828,0.032227,0.634766c0.013672,0.211182,0.029297,0.421509,0.04834,0.631287
	c0.018066,0.208008,0.039063,0.4151,0.0625,0.621582c0.023926,0.209229,0.050293,0.41748,0.07959,0.625061
	c0.02832,0.20459,0.059082,0.408447,0.092285,0.61145c0.03418,0.206238,0.070801,0.411255,0.109863,0.615723
	c0.038574,0.200684,0.078125,0.400635,0.121582,0.599548c0.043945,0.204041,0.091309,0.40686,0.140137,0.609009
	c0.047852,0.19519,0.096191,0.389648,0.148438,0.583008c0.054199,0.201904,0.111816,0.402161,0.170898,0.60199
	c0.056641,0.190796,0.11377,0.381042,0.174805,0.569946c0.063965,0.198364,0.131348,0.394958,0.200195,0.591125
	c0.064941,0.185669,0.130859,0.370789,0.200195,0.554382c0.073242,0.194458,0.149902,0.387024,0.228027,0.579163
	c0.07373,0.182007,0.148438,0.363586,0.226563,0.543396c0.082031,0.18927,0.167969,0.376404,0.254395,0.563232
	c0.08252,0.177307,0.165039,0.35437,0.251465,0.529419c0.09082,0.184875,0.186035,0.36731,0.28125,0.549561
	c0.090332,0.172363,0.180664,0.344482,0.274902,0.514465c0.099609,0.179321,0.202637,0.35614,0.306641,0.532776
	c0.098633,0.168152,0.197266,0.336182,0.299316,0.50177c0.107422,0.173462,0.21875,0.344055,0.330078,0.514648
	c0.106445,0.162598,0.212402,0.325134,0.321777,0.485046c0.116211,0.168945,0.236328,0.334839,0.356445,0.500732
	c0.112793,0.15625,0.225586,0.312683,0.341797,0.466125c0.123535,0.16272,0.250977,0.322083,0.378418,0.481628
	c0.120605,0.151123,0.240723,0.30249,0.364746,0.450684c0.130371,0.156067,0.265137,0.308472,0.399414,0.461243
	c0.12793,0.145508,0.255371,0.291565,0.38623,0.434082c0.137207,0.148926,0.27832,0.293945,0.419434,0.439514
	c0.134766,0.139709,0.269043,0.28009,0.407227,0.416626c0.144531,0.142578,0.29248,0.280945,0.44043,0.419983
	c0.141113,0.132813,0.28125,0.266479,0.425293,0.396057c0.151367,0.135803,0.306152,0.267029,0.460938,0.399109
	c0.146973,0.125977,0.293457,0.253052,0.443359,0.37561c0.157227,0.128296,0.318359,0.251587,0.478516,0.376099
	c0.153809,0.119385,0.306152,0.240173,0.462891,0.356018c0.162598,0.1203,0.329102,0.235291,0.494629,0.351685
	c0.159668,0.112488,0.318359,0.226563,0.481445,0.335388c0.167969,0.112549,0.340332,0.219482,0.511719,0.328003
	c0.165039,0.104919,0.329102,0.211731,0.497559,0.312866c0.173828,0.104797,0.352051,0.203552,0.528809,0.30426
	c0.17041,0.096802,0.338867,0.195679,0.511719,0.288574c0.180664,0.097351,0.365234,0.188171,0.548828,0.281128
	c0.173828,0.088074,0.346191,0.17865,0.522461,0.262756c0.186523,0.089111,0.376953,0.171387,0.566406,0.255981
	c0.177734,0.079468,0.354004,0.161743,0.533691,0.237122c0.193359,0.080994,0.390137,0.154602,0.585938,0.230896
	c0.180176,0.070374,0.359375,0.143738,0.541504,0.210022c0.201172,0.072876,0.405273,0.137878,0.608398,0.205688
	c0.181152,0.060608,0.361328,0.124634,0.544434,0.181152c0.208496,0.064331,0.42041,0.1203,0.631348,0.17926
	c0.182129,0.050964,0.362793,0.105835,0.546875,0.152771c0.21582,0.055054,0.435059,0.101318,0.65332,0.150757
	c0.182617,0.041382,0.363281,0.086853,0.546875,0.124146c0.230957,0.046814,0.464844,0.084106,0.697754,0.124512
	c0.174316,0.030273,0.347168,0.065308,0.522949,0.091919c0.249023,0.03772,0.500977,0.065308,0.752441,0.095642
	c0.163574,0.019775,0.325195,0.044678,0.489746,0.061218c0.27832,0.028076,0.560059,0.045105,0.84082,0.063965
	c0.140137,0.009399,0.27832,0.024231,0.418945,0.031311C399.146484,749.488953,399.571777,749.5,400,749.5
	s0.853516-0.011047,1.276367-0.032288c0.140625-0.00708,0.278809-0.021912,0.418945-0.031311
	c0.280762-0.01886,0.5625-0.035889,0.84082-0.063965c0.164551-0.016541,0.326172-0.041443,0.489746-0.061218
	c0.251465-0.030334,0.503418-0.057922,0.752441-0.095642c0.175781-0.026611,0.348633-0.061646,0.522949-0.091919
	c0.23291-0.040405,0.466797-0.077698,0.697754-0.124512c0.183594-0.037292,0.364258-0.082764,0.546875-0.124146
	c0.218262-0.049438,0.4375-0.095703,0.65332-0.150757c0.184082-0.046936,0.364746-0.101807,0.546875-0.152771
	c0.210938-0.05896,0.422852-0.114929,0.631348-0.17926c0.183105-0.056519,0.363281-0.120544,0.544434-0.181152
	c0.203125-0.06781,0.407227-0.132813,0.608398-0.205688c0.182129-0.066284,0.361328-0.139648,0.541504-0.210022
	c0.195801-0.076294,0.392578-0.149902,0.585938-0.230896c0.179688-0.075378,0.355957-0.157654,0.533691-0.237122
	c0.189453-0.084595,0.379883-0.16687,0.566406-0.255981c0.17627-0.084106,0.348633-0.174683,0.522461-0.262756
	c0.183594-0.092957,0.368164-0.183777,0.548828-0.281128c0.172852-0.092896,0.341309-0.191772,0.511719-0.288574
	c0.176758-0.100708,0.35498-0.199463,0.528809-0.30426c0.168457-0.101135,0.33252-0.207947,0.497559-0.312866
	c0.171387-0.108521,0.34375-0.215454,0.511719-0.328003c0.163086-0.108826,0.321777-0.2229,0.481445-0.335388
	c0.165527-0.116394,0.332031-0.231384,0.494629-0.351685c0.156738-0.115845,0.309082-0.236633,0.462891-0.356018
	c0.160156-0.124512,0.321289-0.247803,0.478516-0.376099c0.149902-0.122559,0.296387-0.249634,0.443359-0.37561
	c0.154785-0.13208,0.30957-0.263306,0.460938-0.399109c0.144043-0.129578,0.28418-0.263245,0.425293-0.396057
	c0.147949-0.139038,0.295898-0.277405,0.44043-0.419983c0.138184-0.136536,0.272461-0.276917,0.407227-0.416626
	c0.141113-0.145569,0.282227-0.290588,0.419434-0.439514c0.130859-0.142517,0.258301-0.288574,0.38623-0.434082
	c0.134277-0.152771,0.269043-0.305176,0.399414-0.461243c0.124023-0.148193,0.244141-0.299561,0.364746-0.450684
	c0.127441-0.159546,0.254883-0.318909,0.378418-0.481628c0.116211-0.153442,0.229004-0.309875,0.341797-0.466125
	c0.120117-0.165894,0.240234-0.331787,0.356445-0.500732c0.109375-0.159912,0.215332-0.322449,0.321777-0.485046
	c0.111328-0.170593,0.222656-0.341187,0.330078-0.514648c0.102051-0.165588,0.200684-0.333618,0.299316-0.50177
	c0.104004-0.176636,0.207031-0.353455,0.306641-0.532776c0.094238-0.169983,0.18457-0.342102,0.274902-0.514465
	c0.095215-0.182251,0.19043-0.364685,0.28125-0.549561c0.086426-0.175049,0.168945-0.352112,0.251465-0.529419
	c0.086426-0.186829,0.172363-0.373962,0.254395-0.563232c0.078125-0.17981,0.152832-0.361389,0.226563-0.543396
	c0.078125-0.192139,0.154785-0.384705,0.228027-0.579163c0.069336-0.183594,0.135254-0.368713,0.200195-0.554382
	c0.068848-0.196167,0.13623-0.392761,0.200195-0.591125c0.061035-0.188904,0.118164-0.37915,0.174805-0.569946
	c0.059082-0.199829,0.116699-0.400085,0.170898-0.60199c0.052246-0.193359,0.100586-0.387817,0.148438-0.583008
	c0.048828-0.202148,0.096191-0.404968,0.140137-0.609009c0.043457-0.198914,0.083008-0.398865,0.121582-0.599548
	c0.039063-0.204468,0.075684-0.409485,0.109863-0.615723c0.033203-0.203003,0.063965-0.40686,0.092285-0.61145
	c0.029297-0.207581,0.055664-0.415833,0.07959-0.625061c0.023438-0.206482,0.044434-0.413574,0.0625-0.621582
	c0.019043-0.209778,0.034668-0.420105,0.04834-0.631287c0.013184-0.210938,0.023926-0.422424,0.032227-0.634766
	c0.003906-0.10376,0.012695-0.206116,0.015625-0.310181C425.341797,720.781006,429.446289,700.5,475,700.5h225
	c13.807617,0,25-11.192871,25-25v-600C725,61.692871,713.807617,50.5,700,50.5z M325,650.5H125v-550h150
	c55.140625,0,100,44.859863,100,100v458.408203C362.117188,653.852539,345.751953,650.5,325,650.5z M375.007813,725.124023
	C374.985352,724.719238,375,724.5,375,724.5C375,724.708984,375.00293,724.91626,375.007813,725.124023z M424.992188,725.124023
	C424.99707,724.91626,425,724.708984,425,724.5C425,724.5,425.014648,724.719238,424.992188,725.124023z M675,650.5H475
	c-20.751953,0-37.117188,3.352539-50,8.408203V200.5c0-55.140137,44.859375-100,100-100h150V650.5z"/>
</svg>
