<?xml version="1.0" encoding="utf-8"?>
<!-- Generator: Adobe Illustrator 21.0.0, SVG Export Plug-In . SVG Version: 6.00 Build 0)  -->
<svg version="1.1" id="Layer_1" xmlns="http://www.w3.org/2000/svg" xmlns:xlink="http://www.w3.org/1999/xlink" x="0px" y="0px"
	 viewBox="0 0 800 800" enable-background="new 0 0 800 800" xml:space="preserve">
<path fill="#000101" d="M275.007324,700.000244c-6.79834,0-13.572266-2.756592-18.505859-8.18335l-250-275
	c-8.668457-9.535645-8.668457-24.098145,0-33.633789l250-275c9.287598-10.216064,25.099121-10.969482,35.31543-1.681641
	s10.969238,25.098877,1.681641,35.31543L58.786621,400l234.711914,258.183105
	c9.287598,10.216553,8.534668,26.027588-1.681641,35.31543C287.027344,697.852783,281.007813,700.000244,275.007324,700.000244z
	 M543.498535,691.816895l250-275c8.668457-9.535645,8.668457-24.098145,0-33.633789l-250-275
	c-9.288086-10.216553-25.099609-10.968994-35.31543-1.681641c-10.216309,9.287842-10.969238,25.098877-1.681641,35.31543
	L741.213379,400L506.501465,658.183105c-9.287598,10.216553-8.534668,26.027588,1.681641,35.31543
	c4.790039,4.354736,10.808594,6.501709,16.80957,6.501709C531.790527,700.000244,538.56543,697.24292,543.498535,691.816895z"/>
</svg>
