<?xml version="1.0" encoding="utf-8"?>
<!-- Generator: Adobe Illustrator 21.0.0, SVG Export Plug-In . SVG Version: 6.00 Build 0)  -->
<svg version="1.1" id="Layer_1" xmlns="http://www.w3.org/2000/svg" xmlns:xlink="http://www.w3.org/1999/xlink" x="0px" y="0px"
	 viewBox="0 0 800 800" enable-background="new 0 0 800 800" xml:space="preserve">
<path fill="#000101" d="M400,49.998779c-72.93457,0-142.802124,22.578125-201.087036,63.561401l-56.237183-56.237183
	c-7.148438-7.158203-17.905273-9.287109-27.241211-5.419922C106.088867,55.770264,100,64.891357,100,74.998779v150
	c0,13.808594,11.191406,25,25,25h150c10.112305,0,19.228516-6.09375,23.095703-15.429688
	c3.87207-9.345703,1.733398-20.097656-5.419922-27.246094l-57.757568-57.757568
	C283.375244,117.574463,340.488281,99.998779,400,99.998779c165.419922,0,300,134.580078,300,300s-134.580078,300-300,300
	s-300-134.580078-300-300c0-13.808594-11.191406-25-25-25s-25,11.191406-25,25c0,192.988281,157.011719,350,350,350
	s350-157.011719,350-350S592.988281,49.998779,400,49.998779z"/>
</svg>
