<?xml version="1.0" encoding="utf-8"?>
<!-- Generator: Adobe Illustrator 21.0.0, SVG Export Plug-In . SVG Version: 6.00 Build 0)  -->
<svg version="1.1" id="Layer_1" xmlns="http://www.w3.org/2000/svg" xmlns:xlink="http://www.w3.org/1999/xlink" x="0px" y="0px"
	 viewBox="0 0 800 800" enable-background="new 0 0 800 800" xml:space="preserve">
<path fill="#000101" d="M699.523315,220.176392c-0.004272-0.021362-0.002441-0.043335-0.006714-0.065308
	c-0.422974-2.122192-1.211548-4.130859-2.160034-6.065674c-0.238647-0.487061-0.488892-0.950928-0.760498-1.42395
	c-1.090698-1.903687-2.340698-3.720093-3.920288-5.298462l-199.995117-200c-1.583252-1.585083-3.406982-2.838135-5.317993-3.930664
	c-0.462646-0.264893-0.916138-0.510254-1.392822-0.744019c-1.940918-0.952759-3.956299-1.743164-6.086426-2.166748
	c-0.016479-0.003052-0.032959-0.001831-0.049438-0.004883c-1.57959-0.310669-3.19519-0.477905-4.829102-0.477905H125
	c-13.808594,0-25,11.191406-25,25v750c0,13.808594,11.191406,25,25,25h550c13.808594,0,25-11.191406,25-25v-550
	C700,223.36731,699.833374,221.75415,699.523315,220.176392z M614.643555,199.998779H500V85.355225L614.643555,199.998779z
	 M150,749.998779v-700h300v175c0,13.808594,11.191406,25,25,25h175v100h-75c-13.808594,0-25,11.191406-25,25s11.191406,25,25,25h75
	v350H150z M300,374.998779c0,13.808594-11.191406,25-25,25h-50c-13.808594,0-25-11.191406-25-25s11.191406-25,25-25h50
	C288.808594,349.998779,300,361.190186,300,374.998779z M475,399.998779c13.808594,0,25-11.191406,25-25s-11.191406-25-25-25H375
	c-13.808594,0-25,11.191406-25,25s11.191406,25,25,25h25v50h-25c-13.808594,0-25,11.191406-25,25v150
	c0,13.808594,11.191406,25,25,25h100c13.808594,0,25-11.191406,25-25v-150c0-13.808594-11.191406-25-25-25h-25v-50H475z
	 M450,599.998779h-50v-100h50V599.998779z"/>
</svg>
