<?xml version="1.0" encoding="utf-8"?>
<!-- Generator: Adobe Illustrator 21.0.0, SVG Export Plug-In . SVG Version: 6.00 Build 0)  -->
<svg version="1.1" id="Layer_1" xmlns="http://www.w3.org/2000/svg" xmlns:xlink="http://www.w3.org/1999/xlink" x="0px" y="0px"
	 viewBox="0 0 800 800" enable-background="new 0 0 800 800" xml:space="preserve">
<path fill="#000101" d="M775,100H25c-13.806641,0-25,11.192871-25,25v400c0,13.807129,11.193359,25,25,25h250v100H175
	c-13.807617,0-25,11.192871-25,25s11.192383,25,25,25h125h200h125c13.807617,0,25-11.192871,25-25s-11.192383-25-25-25H525V550h250
	c13.806641,0,25-11.192871,25-25V125C800,111.192871,788.806641,100,775,100z M475,650H325V550h150V650z M750,500H500H300H50V150
	h700V500z"/>
</svg>
