<?xml version="1.0" encoding="utf-8"?>
<!-- Generator: Adobe Illustrator 21.0.0, SVG Export Plug-In . SVG Version: 6.00 Build 0)  -->
<svg version="1.1" id="Layer_1" xmlns="http://www.w3.org/2000/svg" xmlns:xlink="http://www.w3.org/1999/xlink" x="0px" y="0px"
	 viewBox="0 0 800 800" enable-background="new 0 0 800 800" xml:space="preserve">
<path fill="#010101" d="M725,199.998779h-75v-125c0-41.357422-33.642578-75-75-75H225c-41.357422,0-75,33.642578-75,75v125H75
	c-41.357422,0-75,33.642578-75,75v250c0,41.357422,33.642578,75,75,75h75V726.96167
	c0,40.273438,32.763672,73.037109,73.037109,73.037109h353.925781C617.236328,799.998779,650,767.235107,650,726.96167V599.998779
	h75c41.357422,0,75-33.642578,75-75v-250C800,233.641357,766.357422,199.998779,725,199.998779z M200,74.998779
	c0-13.789062,11.21582-25,25-25h350c13.78418,0,25,11.210938,25,25v125H200V74.998779z M576.962891,749.998779H223.037109
	C210.332031,749.998779,200,739.666748,200,726.96167V499.998779h400v74.951782c0,0.016479-0.004883,0.031738-0.004883,0.048218
	S600,575.030518,600,575.046997V726.96167C600,739.666748,589.667969,749.998779,576.962891,749.998779z M750,524.998779
	c0,13.789062-11.21582,25-25,25h-75v-75c0-13.808594-11.191406-25-25-25H175c-13.808594,0-25,11.191406-25,25v75H75
	c-13.78418,0-25-11.210938-25-25v-250c0-13.789062,11.21582-25,25-25h100h450h100c13.78418,0,25,11.210938,25,25V524.998779z
	 M550,574.998779c0,13.808594-11.191406,25-25,25H275c-13.808594,0-25-11.191406-25-25s11.191406-25,25-25h250
	C538.808594,549.998779,550,561.190186,550,574.998779z M650,324.998779c0,13.808594-11.191406,25-25,25H525
	c-13.808594,0-25-11.191406-25-25s11.191406-25,25-25h100C638.808594,299.998779,650,311.190186,650,324.998779z M400,674.998779
	c0,13.808594-11.191406,25-25,25H275c-13.808594,0-25-11.191406-25-25s11.191406-25,25-25h100
	C388.808594,649.998779,400,661.190186,400,674.998779z"/>
</svg>
