<?xml version="1.0" encoding="utf-8"?>
<!-- Generator: Adobe Illustrator 21.0.0, SVG Export Plug-In . SVG Version: 6.00 Build 0)  -->
<svg version="1.1" id="Layer_1" xmlns="http://www.w3.org/2000/svg" xmlns:xlink="http://www.w3.org/1999/xlink" x="0px" y="0px"
	 viewBox="0 0 800 800" enable-background="new 0 0 800 800" xml:space="preserve">
<path fill="#010101" d="M788.105469,361.043701c-16.088257-23.912354-70.519409-100.12207-149.719849-164.078979
	l54.290161-54.290161l-35.351562-35.351562l-59.623413,59.623413C540.344849,128.533325,473.192749,99.998779,400,99.998779
	c-202.246094,0-358.779297,217.456055-388.105469,261.040039c-15.927734,23.666992-15.927734,54.25293,0,77.915039
	c16.088257,23.912354,70.519409,100.12207,149.719849,164.078979l-54.290161,54.290161l35.351562,35.351562l59.623413-59.623413
	C259.655151,671.464233,326.807251,699.998779,400,699.998779c202.246094,0,358.779297-217.456055,388.105469-261.040039
	C804.033203,415.291748,804.033203,384.710693,788.105469,361.043701z M53.378906,411.038818
	c-4.521484-6.708984-4.521484-15.371094,0-22.084961C69.833984,364.49585,219.345703,149.998779,400,149.998779
	c58.170776,0,113.07312,22.29126,161.383057,53.265381L197.438965,567.208252
	C117.72644,503.95874,62.962036,425.285645,53.378906,411.038818z M746.621094,411.043701
	C730.166016,435.501709,580.654297,649.998779,400,649.998779c-58.170776,0-113.07312-22.29126-161.383057-53.265381
	l363.944702-363.944702c79.711914,63.248901,134.476318,141.920776,144.059448,156.165161v0.004883
	C751.142578,395.667725,751.142578,404.329834,746.621094,411.043701z"/>
</svg>
