<?xml version="1.0" encoding="utf-8"?>
<!-- Generator: Adobe Illustrator 21.0.0, SVG Export Plug-In . SVG Version: 6.00 Build 0)  -->
<svg version="1.1" id="Layer_1" xmlns="http://www.w3.org/2000/svg" xmlns:xlink="http://www.w3.org/1999/xlink" x="0px" y="0px"
	 viewBox="0 0 800 800" enable-background="new 0 0 800 800" xml:space="preserve">
<path fill="#010101" d="M356.132812,231.126709l137.060547-137.06543c58.652344-58.647461,154.091797-58.666992,212.744141,0
	c58.652344,58.652344,58.652344,154.091797,0,212.744141L528.544922,484.197998l-35.351562-35.351562l177.392578-177.392578
	c39.160156-39.160156,39.160156-102.880859,0-142.041016c-39.150391-39.150391-102.871094-39.169922-142.041016,0
	l-137.060547,137.06543L356.132812,231.126709z M408.515625,533.519287l-137.060547,137.06543
	c-39.169922,39.165039-102.890625,39.155273-142.041016,0c-39.160156-39.160156-39.160156-102.880859,0-142.041016
	l177.392578-177.392578l-35.351562-35.351562L94.0625,493.192139c-58.652344,58.652344-58.652344,154.091797,0,212.744141
	c29.326172,29.331055,67.851562,43.994141,106.367188,43.994141c38.525391,0,77.050781-14.663086,106.376953-43.994141
	l137.060547-137.06543L408.515625,533.519287z M276.25,240.9021l-70.703125-70.712891l-35.351562,35.351562l70.703125,70.712891
	L276.25,240.9021z M202.548828,313.343506l-96.591797-25.883789l-12.949219,48.300781l96.591797,25.883789L202.548828,313.343506z
	 M361.640625,189.603271l-25.878906-96.59668l-48.300781,12.939453l25.878906,96.59668L361.640625,189.603271z M523.75,559.095459
	l70.703125,70.712891l35.351562-35.351562l-70.703125-70.712891L523.75,559.095459z M438.359375,610.394287l25.878906,96.59668
	l48.300781-12.939453l-25.878906-96.59668L438.359375,610.394287z M597.451172,486.654053l96.591797,25.883789l12.949219-48.300781
	l-96.591797-25.883789L597.451172,486.654053z"/>
</svg>
