<?xml version="1.0" encoding="utf-8"?>
<!-- Generator: Adobe Illustrator 21.0.0, SVG Export Plug-In . SVG Version: 6.00 Build 0)  -->
<svg version="1.1" id="Layer_1" xmlns="http://www.w3.org/2000/svg" xmlns:xlink="http://www.w3.org/1999/xlink" x="0px" y="0px"
	 viewBox="0 0 800 800" enable-background="new 0 0 800 800" xml:space="preserve">
<path fill="#010101" d="M725,199.998779H345.712891c-6.679688,0-12.958984-2.597656-17.680664-7.319336l-70.712891-70.712891
	c-14.165039-14.165039-32.998047-21.967773-53.027344-21.967773H75c-41.357422,0-75,33.642578-75,75v450
	c0,41.357422,33.642578,75,75,75h650c41.357422,0,75-33.642578,75-75v-350C800,233.641357,766.357422,199.998779,725,199.998779z
	 M750,624.998779c0,13.78418-11.21582,25-25,25H75c-13.78418,0-25-11.21582-25-25v-450c0-13.78418,11.21582-25,25-25h129.291992
	c6.577148,0,13.022461,2.670898,17.675781,7.319336l70.712891,70.712891
	c14.165039,14.165039,32.998047,21.967773,53.032227,21.967773H725c13.78418,0,25,11.21582,25,25V624.998779z"/>
</svg>
