<?xml version="1.0" encoding="utf-8"?>
<!-- Generator: Adobe Illustrator 21.0.0, SVG Export Plug-In . SVG Version: 6.00 Build 0)  -->
<svg version="1.1" id="Layer_1" xmlns="http://www.w3.org/2000/svg" xmlns:xlink="http://www.w3.org/1999/xlink" x="0px" y="0px"
	 viewBox="0 0 800 800" enable-background="new 0 0 800 800" xml:space="preserve">
<path fill="#010101" d="M727.490234,392.137451L414.462891,79.110107c-18.769531-18.774414-43.725586-29.111328-70.273438-29.111328
	H150.834961C95.234375,49.998779,50,95.233154,50,150.83374v193.354492c0,26.547852,10.336914,51.503906,29.111328,70.273438
	l313.027344,313.027344c14.511719,14.516602,33.813477,22.509766,54.34082,22.509766s39.829102-7.993164,54.34082-22.509766
	l226.669922-226.669922C742.006836,486.307373,750,467.005615,750,446.478271S742.006836,406.64917,727.490234,392.137451z
	 M692.138672,465.467529L465.46875,692.137451c-10.46875,10.46875-27.509766,10.46875-37.978516,0L114.462891,379.110107
	C105.136719,369.779053,100,357.376709,100,344.188232V150.83374c0-28.032227,22.802734-50.834961,50.834961-50.834961h193.354492
	c13.188477,0,25.59082,5.136719,34.921875,14.462891l313.027344,313.027344
	C702.607422,437.962646,702.607422,454.993896,692.138672,465.467529z M300,199.998779c-55.141602,0-100,44.858398-100,100
	s44.858398,100,100,100s100-44.858398,100-100S355.141602,199.998779,300,199.998779z M300,349.998779
	c-27.568359,0-50-22.431641-50-50s22.431641-50,50-50s50,22.431641,50,50S327.568359,349.998779,300,349.998779z"/>
</svg>
