<?xml version="1.0" encoding="utf-8"?>
<!-- Generator: Adobe Illustrator 21.0.0, SVG Export Plug-In . SVG Version: 6.00 Build 0)  -->
<svg version="1.1" id="Layer_1" xmlns="http://www.w3.org/2000/svg" xmlns:xlink="http://www.w3.org/1999/xlink" x="0px" y="0px"
	 viewBox="0 0 800 800" enable-background="new 0 0 800 800" xml:space="preserve">
<path fill="#010101" d="M300,174.998779c0-68.925781-56.074219-125-125-125s-125,56.074219-125,125
	c0,60.365601,43.013306,110.866089,100,122.480469v205.039062C93.013306,514.13269,50,564.633179,50,624.998779
	c0,68.925781,56.074219,125,125,125s125-56.074219,125-125c0-60.365601-43.013306-110.866089-100-122.480469V297.479248
	C256.986694,285.864868,300,235.36438,300,174.998779z M100,174.998779c0-41.357422,33.642578-75,75-75s75,33.642578,75,75
	s-33.642578,75-75,75S100,216.356201,100,174.998779z M250,624.998779c0,41.357422-33.642578,75-75,75s-75-33.642578-75-75
	s33.642578-75,75-75S250,583.641357,250,624.998779z M650,502.518311v-252.65625
	c0-55.063477-44.794922-99.863281-99.863281-99.863281H435.351562l57.324219-57.324219l-35.351562-35.351562L339.648438,174.998779
	l117.675781,117.675781l35.351562-35.351562l-57.324219-57.324219h114.785156c27.490234,0,49.863281,22.368164,49.863281,49.863281
	v252.65625c-56.986694,11.61438-100,62.114868-100,122.480469c0,68.925781,56.074219,125,125,125s125-56.074219,125-125
	C750,564.633179,706.986694,514.13269,650,502.518311z M625,699.998779c-41.357422,0-75-33.642578-75-75s33.642578-75,75-75
	s75,33.642578,75,75S666.357422,699.998779,625,699.998779z"/>
</svg>
