<?xml version="1.0" encoding="utf-8"?>
<!-- Generator: Adobe Illustrator 21.0.0, SVG Export Plug-In . SVG Version: 6.00 Build 0)  -->
<svg version="1.1" id="Layer_1" xmlns="http://www.w3.org/2000/svg" xmlns:xlink="http://www.w3.org/1999/xlink" x="0px" y="0px"
	 viewBox="0 0 800 800" enable-background="new 0 0 800 800" xml:space="preserve">
<path fill="#010101" d="M717.675781,84.822998l-2.5-2.5c-50.410156-50.419922-132.441406-50.419922-182.851562,0l-50,50
	L163.388672,451.258545C124.09668,490.550537,94.243164,536.99585,74.658203,589.30542
	C58.295898,633.006592,50,678.660889,50,724.998779c0,13.808594,11.191406,25,25,25
	c46.337891,0,91.992188-8.295898,135.693359-24.658203c52.30957-19.584961,98.754883-49.438477,138.046875-88.730469
	l318.935547-318.935547l50-50c0.053711-0.048828,0.722656-0.727539,0.771484-0.78125
	C768.007812,216.483154,767.661133,134.80835,717.675781,84.822998z M313.388672,601.258545
	c-30.458984,30.458984-65.874023,54.404297-105.444336,71.333008l-80.537109-80.537109
	c16.928711-39.570312,40.874023-74.985352,71.333008-105.444336L500,185.355225l114.643555,114.643555L313.388672,601.258545z
	 M682.324219,232.322998L650,264.642334L535.356445,149.998779l32.319336-32.324219
	c30.917969-30.917969,81.230469-30.917969,112.148438,0l2.5,2.5C712.978516,150.83374,713.188477,200.926514,682.324219,232.322998z
	"/>
</svg>
