<?xml version="1.0" encoding="utf-8"?>
<!-- Generator: Adobe Illustrator 21.0.0, SVG Export Plug-In . SVG Version: 6.00 Build 0)  -->
<svg version="1.1" id="Layer_1" xmlns="http://www.w3.org/2000/svg" xmlns:xlink="http://www.w3.org/1999/xlink" x="0px" y="0px"
	 viewBox="0 0 800 800" enable-background="new 0 0 800 800" xml:space="preserve">
<g>
	<path fill="#010101" d="M400,749.998779c-4.970703,0-9.951172-1.479492-14.228516-4.443359
		C372.060547,736.063232,50,510.389404,50,274.998779c0-161.459961,101.005859-218.75,187.5-218.75
		c62.1875,0,127.773438,30.688477,162.5,83.920898c34.726562-53.232422,100.3125-83.920898,162.5-83.920898
		c86.494141,0,187.5,57.290039,187.5,218.75c0,235.390625-322.060547,461.064453-335.771484,470.556641
		C409.951172,748.519287,404.970703,749.998779,400,749.998779z M237.5,106.248779c-66.474609,0-137.5,44.331055-137.5,168.75
		c0,183.227539,238.613281,373.237305,300,419.077148c61.386719-45.839844,300-235.849609,300-419.077148
		c0-56.381836-15.107422-101.674805-43.681641-130.986328c-23.740234-24.350586-57.060547-37.763672-93.818359-37.763672
		c-66.123047,0-137.5,45.400391-137.5,118.75c0,13.808594-11.191406,25-25,25s-25-11.191406-25-25
		C375,151.64917,303.623047,106.248779,237.5,106.248779z"/>
</g>
</svg>
