<?xml version="1.0" encoding="utf-8"?>
<!-- Generator: Adobe Illustrator 21.0.0, SVG Export Plug-In . SVG Version: 6.00 Build 0)  -->
<svg version="1.1" id="Layer_1" xmlns="http://www.w3.org/2000/svg" xmlns:xlink="http://www.w3.org/1999/xlink" x="0px" y="0px"
	 viewBox="0 0 800 800" enable-background="new 0 0 800 800" xml:space="preserve">
<path fill="#010101" d="M567.675781,267.674561L435.351562,399.998779l132.324219,132.324219l-35.351562,35.351562L400,435.350342
	L267.675781,567.674561l-35.351562-35.351562l132.324219-132.324219L232.324219,267.674561l35.351562-35.351562L400,364.647217
	l132.324219-132.324219L567.675781,267.674561z M750,399.998779c0,192.988281-157.011719,350-350,350s-350-157.011719-350-350
	s157.011719-350,350-350S750,207.010498,750,399.998779z M700,399.998779c0-165.419922-134.580078-300-300-300
	s-300,134.580078-300,300s134.580078,300,300,300S700,565.418701,700,399.998779z"/>
</svg>
