<?xml version="1.0" encoding="utf-8"?>
<!-- Generator: Adobe Illustrator 21.0.0, SVG Export Plug-In . SVG Version: 6.00 Build 0)  -->
<svg version="1.1" id="Layer_1" xmlns="http://www.w3.org/2000/svg" xmlns:xlink="http://www.w3.org/1999/xlink" x="0px" y="0px"
	 viewBox="0 0 800 800" enable-background="new 0 0 800 800" xml:space="preserve">
<path fill="#010101" d="M490,749.998779H310V633.260498c-3.808594-1.469727-7.578125-3.027344-11.303711-4.677734
	l-82.543945,82.543945L88.87207,583.846436l82.543945-82.543945c-1.650391-3.725586-3.208008-7.495117-4.677734-11.303711H50v-180
	h116.738281c1.469727-3.808594,3.027344-7.578125,4.677734-11.303711L88.87207,216.151123L216.152344,88.87085l82.548828,82.543945
	c3.720703-1.650391,7.490234-3.208008,11.298828-4.677734V49.998779h180v116.738281
	c3.808594,1.469727,7.578125,3.027344,11.298828,4.677734l82.548828-82.543945L711.12793,216.151123l-82.543945,82.543945
	c1.650391,3.725586,3.208008,7.495117,4.677734,11.303711H750v180H633.261719
	c-1.469727,3.808594-3.027344,7.578125-4.677734,11.303711l82.543945,82.543945L583.847656,711.126709l-82.543945-82.543945
	c-3.725586,1.650391-7.495117,3.208008-11.303711,4.677734V749.998779z M360,699.998779h80V596.844482l17.788086-5.356445
	c12.744141-3.842773,25.107422-8.959961,36.738281-15.214844l16.37207-8.803711l72.949219,72.944336l56.567383-56.567383
	l-72.944336-72.949219l8.803711-16.37207c6.254883-11.630859,11.37207-23.994141,15.214844-36.738281l5.356445-17.788086H700v-80
	H596.845703l-5.356445-17.788086c-3.842773-12.744141-8.959961-25.107422-15.214844-36.738281l-8.803711-16.37207
	l72.944336-72.949219l-56.567383-56.567383l-72.944336,72.939453l-16.37207-8.798828
	c-11.635742-6.254883-24.003906-11.37207-36.743164-15.214844L440,203.153076V99.998779h-80v103.154297l-17.788086,5.356445
	c-12.739258,3.842773-25.107422,8.959961-36.743164,15.214844l-16.37207,8.798828l-72.944336-72.939453l-56.567383,56.567383
	l72.944336,72.949219l-8.803711,16.37207c-6.254883,11.630859-11.37207,23.994141-15.214844,36.738281l-5.356445,17.788086H100v80
	h103.154297l5.356445,17.788086c3.842773,12.744141,8.959961,25.107422,15.214844,36.738281l8.803711,16.37207l-72.944336,72.949219
	l56.567383,56.567383l72.949219-72.944336l16.37207,8.803711c11.630859,6.254883,23.994141,11.37207,36.738281,15.214844
	L360,596.844482V699.998779z M400,524.998779c-68.925781,0-125-56.074219-125-125s56.074219-125,125-125s125,56.074219,125,125
	S468.925781,524.998779,400,524.998779z M400,324.998779c-41.357422,0-75,33.642578-75,75s33.642578,75,75,75s75-33.642578,75-75
	S441.357422,324.998779,400,324.998779z"/>
</svg>
