<?xml version="1.0" encoding="utf-8"?>
<!-- Generator: Adobe Illustrator 21.0.0, SVG Export Plug-In . SVG Version: 6.00 Build 0)  -->
<svg version="1.1" id="Layer_1" xmlns="http://www.w3.org/2000/svg" xmlns:xlink="http://www.w3.org/1999/xlink" x="0px" y="0px"
	 viewBox="0 0 800 800" enable-background="new 0 0 800 800" xml:space="preserve">
<path fill="#010101" d="M625,299.998779h-25v-225c0-41.357422-33.642578-75-75-75H275c-41.357422,0-75,33.642578-75,75v75h50v-75
	c0-13.789062,11.210938-25,25-25h250c13.789062,0,25,11.210938,25,25v225H175c-41.357422,0-75,33.642578-75,75v350
	c0,41.357422,33.642578,75,75,75h450c41.357422,0,75-33.642578,75-75v-350C700,333.641357,666.357422,299.998779,625,299.998779z
	 M650,724.998779c0,13.789062-11.210938,25-25,25H175c-13.789062,0-25-11.210938-25-25v-350c0-13.789062,11.210938-25,25-25h450
	c13.789062,0,25,11.210938,25,25V724.998779z M300,399.998779h150v50h-50v100h-50v-100h-50V399.998779z"/>
</svg>
