<?xml version="1.0" encoding="utf-8"?>
<!-- Generator: Adobe Illustrator 21.0.0, SVG Export Plug-In . SVG Version: 6.00 Build 0)  -->
<svg version="1.1" id="Layer_1" xmlns="http://www.w3.org/2000/svg" xmlns:xlink="http://www.w3.org/1999/xlink" x="0px" y="0px"
	 viewBox="0 0 800 800" enable-background="new 0 0 800 800" xml:space="preserve">
<path fill="#010101" d="M400,374.998779h200v25c0,110.283203-89.72168,200-200,200s-200-89.716797-200-200s89.72168-200,200-200
	c49.306641,0,96.669922,18.095703,133.364258,50.957031l-33.349609,37.246094
	C472.5,263.563232,436.982422,249.998779,400,249.998779c-82.709961,0-150,67.285156-150,150s67.290039,150,150,150
	c74.194336,0,135.981445-54.150391,147.915039-125H400V374.998779z M750,149.998779v500c0,55.136719-44.858398,100-100,100H150
	c-55.141602,0-100-44.863281-100-100v-500c0-55.136719,44.858398-100,100-100h500
	C705.141602,49.998779,750,94.862061,750,149.998779z M700,149.998779c0-27.568359-22.431641-50-50-50H150
	c-27.568359,0-50,22.431641-50,50v500c0,27.568359,22.431641,50,50,50h500c27.568359,0,50-22.431641,50-50V149.998779z"/>
</svg>
