<?xml version="1.0" encoding="utf-8"?>
<!-- Generator: Adobe Illustrator 21.0.0, SVG Export Plug-In . SVG Version: 6.00 Build 0)  -->
<svg version="1.1" id="Layer_1" xmlns="http://www.w3.org/2000/svg" xmlns:xlink="http://www.w3.org/1999/xlink" x="0px" y="0px"
	 viewBox="0 0 800 800" enable-background="new 0 0 800 800" xml:space="preserve">
<path fill="#010101" d="M746.181641,675.531006L419.003906,122.655029c-8.974609-15.15625-24.84375-24.208984-42.451172-24.208984
	c-17.617188,0-33.486328,9.052734-42.460938,24.208984L6.914062,675.535889
	c-9.140625,15.444336-9.287109,33.974609-0.400391,49.56543c8.896484,15.59082,24.912109,24.897461,42.861099,24.897461h654.345947
	c17.949219,0,33.974609-9.306641,42.861328-24.897461C755.46875,709.515381,755.322266,690.985107,746.181641,675.531006z
	 M377.138672,148.0896l-0.068359,0.004883l-21.464844-12.705078L377.138672,148.0896z M50.537109,699.998779l326.015625-550.908203
	l326.005859,550.908203H50.537109z M351.552734,349.998779h50v200h-50V349.998779z M351.552734,599.998779h50v50h-50V599.998779z"/>
</svg>
