<?xml version="1.0" encoding="utf-8"?>
<!-- Generator: Adobe Illustrator 21.0.0, SVG Export Plug-In . SVG Version: 6.00 Build 0)  -->
<svg version="1.1" id="Layer_1" xmlns="http://www.w3.org/2000/svg" xmlns:xlink="http://www.w3.org/1999/xlink" x="0px" y="0px"
	 viewBox="0 0 800 800" enable-background="new 0 0 800 800" xml:space="preserve">
<path d="M750,100H50c-27.570312,0-50,22.429688-50,50v500c0,27.570312,22.429688,50,50,50h700c27.570312,0,50-22.429688,50-50V150
	C800,122.429688,777.570312,100,750,100z M750,150l0.009766,150H50V150H750z M750,650H50V350h700.012695l0.018555,299.999023
	C750.03125,649.999023,750.021484,650,750,650z M100,500h50v100h-50V500z M200,500h50v100h-50V500z M300,500h50v100h-50V500z"/>
</svg>
