<?xml version="1.0" encoding="utf-8"?>
<!-- Generator: Adobe Illustrator 21.0.0, SVG Export Plug-In . SVG Version: 6.00 Build 0)  -->
<svg version="1.1" id="圖層_1" xmlns="http://www.w3.org/2000/svg" xmlns:xlink="http://www.w3.org/1999/xlink" x="0px" y="0px"
	 viewBox="0 0 90 90" enable-background="new 0 0 90 90" xml:space="preserve">
<path d="M86.1,81.9L59.2,55c4.2-5.2,6.8-11.8,6.8-19C66,19.4,52.6,6,36,6S6,19.4,6,36s13.4,30,30,30c7.2,0,13.8-2.5,19-6.8
	l26.9,26.9c0.6,0.6,1.4,0.9,2.1,0.9s1.5-0.3,2.1-0.9C87.3,84.9,87.3,83.1,86.1,81.9z M36,60c-13.2,0-24-10.8-24-24s10.8-24,24-24
	s24,10.8,24,24S49.2,60,36,60z"/>
</svg>
