<?xml version="1.0" encoding="utf-8"?>
<!-- Generator: Adobe Illustrator 21.0.0, SVG Export Plug-In . SVG Version: 6.00 Build 0)  -->
<svg version="1.1" id="圖層_1" xmlns="http://www.w3.org/2000/svg" xmlns:xlink="http://www.w3.org/1999/xlink" x="0px" y="0px"
	 viewBox="0 0 90 90" enable-background="new 0 0 90 90" xml:space="preserve">
<path fill="#040000" d="M45,6C23.5,6,6,23.4,6,45c0,17.2,11.2,31.9,26.7,37c2,0.4,2.7-0.8,2.7-1.9c0-0.9,0-3.4,0-6.6
	c-10.8,2.4-13.1-5.2-13.1-5.2c-1.8-4.5-4.3-5.7-4.3-5.7c-3.5-2.4,0.3-2.4,0.3-2.4c3.9,0.3,6,4,6,4c3.5,6,9.1,4.2,11.4,3.2
	c0.4-2.5,1.4-4.2,2.5-5.2c-8.7-1-17.8-4.3-17.8-19.3c0-4.3,1.5-7.7,4-10.5c-0.4-1-1.8-4.9,0.3-10.3c0,0,3.3-1,10.7,4
	c3.1-0.9,6.4-1.3,9.8-1.3c3.3,0,6.6,0.4,9.8,1.3c7.4-5,10.7-4,10.7-4c2.1,5.4,0.8,9.3,0.4,10.3c2.5,2.7,4,6.2,4,10.5
	c0,15-9.1,18.3-17.8,19.2c1.4,1.2,2.6,3.6,2.6,7.2c0,5.2,0,9.4,0,10.7c0,1,0.7,2.2,2.7,1.9C72.8,76.8,84,62.2,84,45
	C84,23.4,66.5,6,45,6"/>
</svg>
