<?xml version="1.0" encoding="utf-8"?>
<!-- Generator: Adobe Illustrator 21.0.0, SVG Export Plug-In . SVG Version: 6.00 Build 0)  -->
<svg version="1.1" id="圖層_1" xmlns="http://www.w3.org/2000/svg" xmlns:xlink="http://www.w3.org/1999/xlink" x="0px" y="0px"
	 viewBox="0 0 90 90" enable-background="new 0 0 90 90" xml:space="preserve">
<path d="M51,72H39V60h12V72z M51,51.3c0-0.7,0.9-1.8,2.6-2.6c6.6-2.9,10.6-8.9,10.3-15.3c-0.5-8.3-8.4-15-18.1-15.4
	c-5.7-0.2-11.2,1.8-15,5.4c-3.1,3-4.8,6.8-4.8,10.8h12c0-0.9,0.6-1.7,1.1-2.2c1.4-1.4,3.7-2.1,6.2-2.1c3.6,0.1,6.4,2.3,6.5,4.1
	c0.1,1.6-1.6,3-3.1,3.6c-6.1,2.6-9.8,7.8-9.8,13.6V57h12V51.3z M84,45C84,23.5,66.5,6,45,6S6,23.5,6,45s17.5,39,39,39S84,66.5,84,45
	z M78,45c0,18.2-14.8,33-33,33S12,63.2,12,45s14.8-33,33-33S78,26.8,78,45z"/>
</svg>
