<?xml version="1.0" encoding="utf-8"?>
<!-- Generator: Adobe Illustrator 21.0.0, SVG Export Plug-In . SVG Version: 6.00 Build 0)  -->
<svg version="1.1" id="圖層_1" xmlns="http://www.w3.org/2000/svg" xmlns:xlink="http://www.w3.org/1999/xlink" x="0px" y="0px"
	 viewBox="0 0 90 90" enable-background="new 0 0 90 90" xml:space="preserve">
<path d="M23.8,84.2c-4.8,0-9.3-1.9-12.7-5.3C7.7,75.5,5.8,71,5.8,66.2c0-4.8,1.9-9.3,5.3-12.7l8.5-8.5c1.2-1.2,3.1-1.2,4.2,0
	c1.2,1.2,1.2,3.1,0,4.2l-8.5,8.5C13,60,11.8,63,11.8,66.2c0,3.2,1.2,6.2,3.5,8.5c2.3,2.3,5.3,3.5,8.5,3.5s6.2-1.2,8.5-3.5l18-18
	c4.7-4.7,4.7-12.3,0-17c-1.2-1.2-1.2-3.1,0-4.2c1.2-1.2,3.1-1.2,4.2,0c7,7,7,18.4,0,25.5l-18,18C33.1,82.3,28.6,84.2,23.8,84.2z
	 M39.7,54.5c1.2-1.2,1.2-3.1,0-4.2c-4.7-4.7-4.7-12.3,0-17l18-18c2.3-2.3,5.3-3.5,8.5-3.5s6.2,1.2,8.5,3.5c2.3,2.3,3.5,5.3,3.5,8.5
	c0,3.2-1.2,6.2-3.5,8.5l-8.5,8.5c-1.2,1.2-1.2,3.1,0,4.2c1.2,1.2,3.1,1.2,4.2,0l8.5-8.5c3.4-3.4,5.3-7.9,5.3-12.7
	c0-4.8-1.9-9.3-5.3-12.7C75.5,7.7,71,5.8,66.2,5.8c-4.8,0-9.3,1.9-12.7,5.3l-18,18c-7,7-7,18.4,0,25.5c0.6,0.6,1.4,0.9,2.1,0.9
	S39.1,55.1,39.7,54.5z"/>
</svg>
