<?xml version="1.0" encoding="utf-8"?>
<!-- Generator: Adobe Illustrator 21.0.0, SVG Export Plug-In . SVG Version: 6.00 Build 0)  -->
<svg version="1.1" id="圖層_1" xmlns="http://www.w3.org/2000/svg" xmlns:xlink="http://www.w3.org/1999/xlink" x="0px" y="0px"
	 viewBox="0 0 90 90" enable-background="new 0 0 90 90" xml:space="preserve">
<path d="M45,30c-8.3,0-15,6.7-15,15s6.7,15,15,15s15-6.7,15-15S53.3,30,45,30z M45,54c-5,0-9-4-9-9s4-9,9-9s9,4,9,9S50,54,45,54z
	 M59.1,12.9c1.2,1.2,1.2,3.1,0,4.2C58.5,17.7,57.8,18,57,18s-1.5-0.3-2.1-0.9L48,10.2V21c0,1.7-1.3,3-3,3s-3-1.3-3-3V10.2l-6.9,6.9
	C34.5,17.7,33.8,18,33,18s-1.5-0.3-2.1-0.9c-1.2-1.2-1.2-3.1,0-4.2l12-12c0.1-0.1,0.3-0.3,0.5-0.4c0.1,0,0.1-0.1,0.2-0.1
	c0.1-0.1,0.2-0.1,0.3-0.2c0.1,0,0.2-0.1,0.3-0.1c0.1,0,0.2-0.1,0.3-0.1c0.4-0.1,0.8-0.1,1.2,0c0.1,0,0.2,0.1,0.3,0.1
	c0.1,0,0.2,0.1,0.3,0.1c0.1,0,0.2,0.1,0.3,0.2c0.1,0,0.1,0.1,0.2,0.1c0.2,0.1,0.3,0.2,0.5,0.4L59.1,12.9z M24,45c0,1.7-1.3,3-3,3
	H10.2l6.9,6.9c1.2,1.2,1.2,3.1,0,4.2C16.5,59.7,15.8,60,15,60s-1.5-0.3-2.1-0.9l-12-12c-0.1-0.1-0.3-0.3-0.4-0.5
	c0-0.1-0.1-0.1-0.1-0.2c-0.1-0.1-0.1-0.2-0.2-0.3c0-0.1-0.1-0.2-0.1-0.3c0-0.1-0.1-0.2-0.1-0.3c-0.1-0.4-0.1-0.8,0-1.2
	c0-0.1,0.1-0.2,0.1-0.3c0-0.1,0.1-0.2,0.1-0.3c0-0.1,0.1-0.2,0.2-0.3c0-0.1,0.1-0.1,0.1-0.2c0.1-0.2,0.2-0.3,0.4-0.5l12-12
	c1.2-1.2,3.1-1.2,4.2,0c1.2,1.2,1.2,3.1,0,4.2L10.2,42H21C22.7,42,24,43.3,24,45z M59.1,72.9c1.2,1.2,1.2,3.1,0,4.2l-12,12
	c-0.1,0.1-0.3,0.3-0.5,0.4c-0.1,0-0.1,0.1-0.2,0.1c-0.1,0.1-0.2,0.1-0.3,0.2c-0.1,0-0.2,0.1-0.3,0.1c-0.1,0-0.2,0.1-0.3,0.1
	C45.4,90,45.2,90,45,90s-0.4,0-0.6-0.1c-0.1,0-0.2-0.1-0.3-0.1c-0.1,0-0.2-0.1-0.3-0.1c-0.1,0-0.2-0.1-0.3-0.2
	c-0.1,0-0.1-0.1-0.2-0.1c-0.2-0.1-0.3-0.2-0.5-0.4l-12-12c-1.2-1.2-1.2-3.1,0-4.2c1.2-1.2,3.1-1.2,4.2,0l6.9,6.9V69c0-1.7,1.3-3,3-3
	s3,1.3,3,3v10.8l6.9-6.9C56.1,71.7,57.9,71.7,59.1,72.9z M89.1,47.1l-12,12C76.5,59.7,75.8,60,75,60s-1.5-0.3-2.1-0.9
	c-1.2-1.2-1.2-3.1,0-4.2l6.9-6.9H69c-1.7,0-3-1.3-3-3s1.3-3,3-3h10.8l-6.9-6.9c-1.2-1.2-1.2-3.1,0-4.2c1.2-1.2,3.1-1.2,4.2,0l12,12
	c0.1,0.1,0.3,0.3,0.4,0.5c0,0.1,0.1,0.1,0.1,0.2c0.1,0.1,0.1,0.2,0.2,0.3c0,0.1,0.1,0.2,0.1,0.3c0,0.1,0.1,0.2,0.1,0.3
	c0.1,0.4,0.1,0.8,0,1.2c0,0.1-0.1,0.2-0.1,0.3c0,0.1-0.1,0.2-0.1,0.3c0,0.1-0.1,0.2-0.2,0.3c0,0.1-0.1,0.1-0.1,0.2
	C89.4,46.8,89.3,47,89.1,47.1z"/>
</svg>
