<?xml version="1.0" encoding="utf-8"?>
<!-- Generator: Adobe Illustrator 21.0.0, SVG Export Plug-In . SVG Version: 6.00 Build 0)  -->
<svg version="1.1" id="圖層_1" xmlns="http://www.w3.org/2000/svg" xmlns:xlink="http://www.w3.org/1999/xlink" x="0px" y="0px"
	 viewBox="0 0 90 90" enable-background="new 0 0 90 90" xml:space="preserve">
<path d="M6.1,78h77.8c3.4,0,6.1-2.7,6.1-6.1V42V30V18.1c0-3.4-2.7-6.1-6.1-6.1H6.1C2.7,12,0,14.7,0,18.1L0,30l0,12l0,29.9
	C0,75.3,2.7,78,6.1,78z M6,18.1C6,18,6,18,6.1,18h77.8c0.1,0,0.1,0,0.1,0.1V30H6V18.1z M84,42v29.9c0,0.1,0,0.1-0.1,0.1H6.1
	C6,72,6,72,6,71.9V42H84z M18,66h-6V54h6V66z M30,66h-6V54h6V66z M42,66h-6V54h6V66z"/>
</svg>
