<?xml version="1.0" encoding="utf-8"?>
<!-- Generator: Adobe Illustrator 21.0.0, SVG Export Plug-In . SVG Version: 6.00 Build 0)  -->
<svg version="1.1" id="圖層_1" xmlns="http://www.w3.org/2000/svg" xmlns:xlink="http://www.w3.org/1999/xlink" x="0px" y="0px"
	 viewBox="0 0 90 90" enable-background="new 0 0 90 90" xml:space="preserve">
<path d="M12.1,45.1c0-1.5,0.6-3.1,1.8-4.2l24-24c2.3-2.3,6.1-2.3,8.5,0c2.3,2.3,2.3,6.1,0,8.5L26.6,45.1l19.7,19.7
	c2.3,2.3,2.3,6.1,0,8.5c-2.3,2.3-6.1,2.3-8.5,0l-24-24C12.7,48.1,12.1,46.6,12.1,45.1z M43.7,49.3l24,24c2.3,2.3,6.1,2.3,8.5,0
	c2.3-2.3,2.3-6.1,0-8.5L56.4,45.1l19.7-19.7c2.3-2.3,2.3-6.1,0-8.5c-2.3-2.3-6.1-2.3-8.5,0l-24,24C42.5,42,42,43.5,42,45.1
	S42.5,48.1,43.7,49.3z"/>
</svg>
