<?xml version="1.0" encoding="utf-8"?>
<!-- Generator: Adobe Illustrator 21.0.0, SVG Export Plug-In . SVG Version: 6.00 Build 0)  -->
<svg version="1.1" id="圖層_1" xmlns="http://www.w3.org/2000/svg" xmlns:xlink="http://www.w3.org/1999/xlink" x="0px" y="0px"
	 viewBox="0 0 90 90" enable-background="new 0 0 90 90" xml:space="preserve">
<path fill="#040000" d="M79.7,6H10.3C7.9,6,6,7.9,6,10.3v69.4c0,2.4,1.9,4.3,4.3,4.3H48V53.8H37.5V42H48v-8.7
	c0-10.1,5.8-15.6,14.8-15.6c4.3,0,8,0.3,9.1,0.5v10.5h-6.2c-4.9,0-5.8,2.3-5.8,5.8V42h11.7L70,53.8H59.8V84h19.9
	c2.4,0,4.3-1.9,4.3-4.3V10.3C84,7.9,82.1,6,79.7,6"/>
</svg>
