<?xml version="1.0" encoding="utf-8"?>
<!-- Generator: Adobe Illustrator 21.0.0, SVG Export Plug-In . SVG Version: 6.00 Build 0)  -->
<svg version="1.1" id="圖層_1" xmlns="http://www.w3.org/2000/svg" xmlns:xlink="http://www.w3.org/1999/xlink" x="0px" y="0px"
	 viewBox="0 0 90 90" enable-background="new 0 0 90 90" xml:space="preserve">
<path d="M30.9,12h-9.9c-3.3,0-6.1,2.7-6.1,6.1v53.9c0,3.3,2.7,6.1,6.1,6.1h9.9c3.3,0,6.1-2.7,6.1-6.1V18.1C37,14.7,34.3,12,30.9,12z
	"/>
<path d="M53,18.1v53.9c0,3.3,2.7,6.1,6.1,6.1h9.9c3.3,0,6.1-2.7,6.1-6.1V18.1c0-3.3-2.7-6.1-6.1-6.1h-9.9C55.7,12,53,14.7,53,18.1z"
	/>
</svg>
