<?xml version="1.0" encoding="utf-8"?>
<!-- Generator: Adobe Illustrator 21.0.0, SVG Export Plug-In . SVG Version: 6.00 Build 0)  -->
<svg version="1.1" id="圖層_1" xmlns="http://www.w3.org/2000/svg" xmlns:xlink="http://www.w3.org/1999/xlink" x="0px" y="0px"
	 viewBox="0 0 90 90" enable-background="new 0 0 90 90" xml:space="preserve">
<path d="M66,0H54H36H18H5.8C2.6,0,0,2.6,0,5.8v78.3C0,87.4,2.6,90,5.8,90H18h54h12.2c3.2,0,5.8-2.6,5.8-5.8V24L66,0z M48,6v23.8
	c0,0.1-0.1,0.2-0.2,0.2H36V6H48z M24,84V54.2c0-0.1,0.1-0.2,0.2-0.2h41.7c0.1,0,0.2,0.1,0.2,0.2V84H24z M84,84H72V54.2
	c0-3.4-2.8-6.2-6.2-6.2H24.2c-3.4,0-6.2,2.8-6.2,6.2V84H6V6h12v23.8c0,3.4,2.8,6.2,6.2,6.2H36h11.8c3.4,0,6.2-2.8,6.2-6.2V6h9.5
	L84,26.5V84z"/>
</svg>
