<?xml version="1.0" encoding="utf-8"?>
<!-- Generator: Adobe Illustrator 21.0.0, SVG Export Plug-In . SVG Version: 6.00 Build 0)  -->
<svg version="1.1" id="圖層_1" xmlns="http://www.w3.org/2000/svg" xmlns:xlink="http://www.w3.org/1999/xlink" x="0px" y="0px"
	 viewBox="0 0 90 90" enable-background="new 0 0 90 90" xml:space="preserve">
<path d="M90,59.8C90,69.8,82.7,78,73.7,78H54v-6h19.7C79.4,72,84,66.5,84,59.8c0-11.2-7.7-12.1-9-12.2l-3,0.2l0-3.2
	C71.8,30.4,60.1,18,46.9,18c-9.4,0-17.7,6.5-21.3,16.6l-0.8,2.2l-2.4-0.3c-0.5-0.1-1-0.1-1.4-0.1c-8.3,0-15,8-15,17.7S12.7,72,21,72
	h15v6H21C9.4,78,0,67.4,0,54.3c0-13,9.3-23.6,20.8-23.7C25.6,19.2,35.7,12,46.9,12c15.5,0,29.4,13.7,30.9,30c2,0.5,4.6,1.6,6.9,3.7
	C88.2,49,90,53.7,90,59.8z M60.9,59.1c0.6,0.6,1.4,0.9,2.1,0.9s1.5-0.3,2.1-0.9c1.2-1.2,1.2-3.1,0-4.2L45,34.8L24.9,54.9
	c-1.2,1.2-1.2,3.1,0,4.2c1.2,1.2,3.1,1.2,4.2,0L42,46.2V81c0,1.7,1.3,3,3,3s3-1.3,3-3V46.2L60.9,59.1z"/>
</svg>
