<?xml version="1.0" encoding="utf-8"?>
<!-- Generator: Adobe Illustrator 21.0.0, SVG Export Plug-In . SVG Version: 6.00 Build 0)  -->
<svg version="1.1" id="圖層_1" xmlns="http://www.w3.org/2000/svg" xmlns:xlink="http://www.w3.org/1999/xlink" x="0px" y="0px"
	 viewBox="0 0 80 80" enable-background="new 0 0 80 80" xml:space="preserve">
<path d="M70,12.5C70,5.607422,64.392578,0,57.5,0S45,5.607422,45,12.5c0,6.03656,4.301331,11.086609,10,12.248047V25
	c0,8.270996-6.729004,15-15,15H25V24.748047C30.698669,23.586609,35,18.53656,35,12.5C35,5.607422,29.392578,0,22.5,0
	S10,5.607422,10,12.5c0,6.03656,4.301331,11.086609,10,12.248047v30.503906C14.301331,56.413391,10,61.46344,10,67.5
	C10,74.392578,15.607422,80,22.5,80S35,74.392578,35,67.5c0-6.03656-4.301331-11.086609-10-12.248047V45h15
	c11.027832,0,20-8.972168,20-20v-0.251953C65.698669,23.586609,70,18.53656,70,12.5z M15,12.5C15,8.364258,18.364258,5,22.5,5
	S30,8.364258,30,12.5S26.635742,20,22.5,20S15,16.635742,15,12.5z M30,67.5c0,4.135742-3.364258,7.5-7.5,7.5S15,71.635742,15,67.5
	s3.364258-7.5,7.5-7.5S30,63.364258,30,67.5z M57.5,20c-4.135742,0-7.5-3.364258-7.5-7.5S53.364258,5,57.5,5S65,8.364258,65,12.5
	S61.635742,20,57.5,20z"/>
</svg>
