<?xml version="1.0" encoding="utf-8"?>
<!-- Generator: Adobe Illustrator 21.0.0, SVG Export Plug-In . SVG Version: 6.00 Build 0)  -->
<svg version="1.1" id="圖層_1" xmlns="http://www.w3.org/2000/svg" xmlns:xlink="http://www.w3.org/1999/xlink" x="0px" y="0px"
	 viewBox="0 0 80 80" enable-background="new 0 0 80 80" xml:space="preserve">
<path d="M67.5,5H55V2.5C55,1.119141,53.880859,0,52.5,0h-25C26.119141,0,25,1.119141,25,2.5V5H12.5C11.119141,5,10,6.119141,10,7.5
	v70c0,1.380859,1.119141,2.5,2.5,2.5h55c1.380859,0,2.5-1.119141,2.5-2.5v-70C70,6.119141,68.880859,5,67.5,5z M30,5h20v10H30V5z
	 M65,75H15V10h10v7.5c0,1.380859,1.119141,2.5,2.5,2.5h25c1.380859,0,2.5-1.119141,2.5-2.5V10h10V75z"/>
</svg>
