<?xml version="1.0" encoding="utf-8"?>
<!-- Generator: Adobe Illustrator 21.0.0, SVG Export Plug-In . SVG Version: 6.00 Build 0)  -->
<svg version="1.1" id="圖層_1" xmlns="http://www.w3.org/2000/svg" xmlns:xlink="http://www.w3.org/1999/xlink" x="0px" y="0px"
	 viewBox="0 0 80 80" enable-background="new 0 0 80 80" xml:space="preserve">
<path d="M40,5C20.701172,5,5,20.701172,5,40s15.701172,35,35,35s35-15.701172,35-35S59.298828,5,40,5z M40,70
	c-16.541992,0-30-13.458008-30-30s13.458008-30,30-30s30,13.458008,30,30S56.541992,70,40,70z M60,40c0,11.02832-8.972168,20-20,20
	s-20-8.97168-20-20s8.972168-20,20-20S60,28.97168,60,40z"/>
</svg>
