<?xml version="1.0" encoding="utf-8"?>
<!-- Generator: Adobe Illustrator 21.0.0, SVG Export Plug-In . SVG Version: 6.00 Build 0)  -->
<svg version="1.1" id="圖層_1" xmlns="http://www.w3.org/2000/svg" xmlns:xlink="http://www.w3.org/1999/xlink" x="0px" y="0px"
	 viewBox="0 0 80 80" enable-background="new 0 0 80 80" xml:space="preserve">
<path d="M69.952332,22.017761c-0.000427-0.002136-0.000244-0.004333-0.000671-0.006531
	c-0.042297-0.212219-0.121155-0.413086-0.216003-0.606567c-0.023865-0.048706-0.048889-0.095093-0.07605-0.142395
	c-0.10907-0.190369-0.23407-0.372009-0.392029-0.529846l-19.999512-20c-0.15863-0.158813-0.34137-0.284302-0.532837-0.393677
	c-0.045654-0.026062-0.090332-0.050232-0.137329-0.073303C48.258118,0.098572,47.88623,0,47.500488,0H12.5
	C11.119141,0,10,1.119141,10,2.5v75c0,1.380859,1.119141,2.5,2.5,2.5h55c1.380859,0,2.5-1.119141,2.5-2.5v-55
	C70,22.336853,69.983337,22.175537,69.952332,22.017761z M61.464355,20H50V8.535645L61.464355,20z M15,75V5h30v17.5
	c0,1.380859,1.119141,2.5,2.5,2.5H65v50H15z"/>
</svg>
