<?xml version="1.0" encoding="utf-8"?>
<!-- Generator: Adobe Illustrator 21.0.0, SVG Export Plug-In . SVG Version: 6.00 Build 0)  -->
<svg version="1.1" id="圖層_1" xmlns="http://www.w3.org/2000/svg" xmlns:xlink="http://www.w3.org/1999/xlink" x="0px" y="0px"
	 viewBox="0 0 80 80" enable-background="new 0 0 80 80" xml:space="preserve">
<path d="M71.767578,8.482422l-0.25-0.25c-5.041016-5.041992-13.244141-5.041992-18.285156,0l-5,5L16.338867,45.125977
	c-3.929199,3.929199-6.914551,8.57373-8.873047,13.804688C5.82959,63.300781,5,67.866211,5,72.5C5,73.880859,6.119141,75,7.5,75
	c4.633789,0,9.199219-0.82959,13.569336-2.46582c5.230957-1.958496,9.875488-4.943848,13.804688-8.873047l31.893555-31.893555l5-5
	c0.005371-0.004883,0.072266-0.072754,0.077148-0.078125C76.800781,21.648438,76.766113,13.480957,71.767578,8.482422z
	 M31.338867,60.125977c-3.045898,3.045898-6.587402,5.44043-10.544434,7.133301l-8.053711-8.053711
	c1.692871-3.957031,4.087402-7.498535,7.133301-10.544434L50,18.535645L61.464355,30L31.338867,60.125977z M68.232422,23.232422
	L65,26.464355L53.535645,15l3.231934-3.232422c3.091797-3.091797,8.123047-3.091797,11.214844,0l0.25,0.25
	C71.297852,15.083496,71.318848,20.092773,68.232422,23.232422z"/>
</svg>
