<?xml version="1.0" encoding="utf-8"?>
<!-- Generator: Adobe Illustrator 21.0.0, SVG Export Plug-In . SVG Version: 6.00 Build 0)  -->
<svg version="1.1" id="圖層_1" xmlns="http://www.w3.org/2000/svg" xmlns:xlink="http://www.w3.org/1999/xlink" x="0px" y="0px"
	 viewBox="0 0 80 80" enable-background="new 0 0 80 80" xml:space="preserve">
<path d="M62.5,30H60V7.5C60,3.364258,56.635742,0,52.5,0h-25C23.364258,0,20,3.364258,20,7.5V30h-2.5
	c-4.135742,0-7.5,3.364258-7.5,7.5v35c0,4.135742,3.364258,7.5,7.5,7.5h45c4.135742,0,7.5-3.364258,7.5-7.5v-35
	C70,33.364258,66.635742,30,62.5,30z M25,7.5C25,6.121094,26.121094,5,27.5,5h25C53.878906,5,55,6.121094,55,7.5V30H25V7.5z
	 M65,72.5c0,1.378906-1.121094,2.5-2.5,2.5h-45c-1.378906,0-2.5-1.121094-2.5-2.5v-35c0-1.378906,1.121094-2.5,2.5-2.5H20h40h2.5
	c1.378906,0,2.5,1.121094,2.5,2.5V72.5z M30,40h15v5h-5v10h-5V45h-5V40z"/>
</svg>
