<?xml version="1.0" encoding="utf-8"?>
<!-- Generator: Adobe Illustrator 21.0.0, SVG Export Plug-In . SVG Version: 6.00 Build 0)  -->
<svg version="1.1" id="圖層_1" xmlns="http://www.w3.org/2000/svg" xmlns:xlink="http://www.w3.org/1999/xlink" x="0px" y="0px"
	 viewBox="0 0 80 80" enable-background="new 0 0 80 80" xml:space="preserve">
<path d="M27.5,5h-20C6.119141,5,5,6.119141,5,7.5v65C5,73.880859,6.119141,75,7.5,75h20c1.380859,0,2.5-1.119141,2.5-2.5v-65
	C30,6.119141,28.880859,5,27.5,5z M25,70H10V10h15V70z M72.5,5h-20C51.119141,5,50,6.119141,50,7.5v65
	c0,1.380859,1.119141,2.5,2.5,2.5h20c1.380859,0,2.5-1.119141,2.5-2.5v-65C75,6.119141,73.880859,5,72.5,5z M70,70H55V10h15V70z"/>
</svg>
