<?xml version="1.0" encoding="utf-8"?>
<!-- Generator: Adobe Illustrator 21.0.0, SVG Export Plug-In . SVG Version: 6.00 Build 0)  -->
<svg version="1.1" id="圖層_1" xmlns="http://www.w3.org/2000/svg" xmlns:xlink="http://www.w3.org/1999/xlink" x="0px" y="0px"
	 viewBox="0 0 80 80" enable-background="new 0 0 80 80" xml:space="preserve">
<path d="M40,5C20.701172,5,5,20.701172,5,40s15.701172,35,35,35s35-15.701172,35-35S59.298828,5,40,5z M35,69.575378V57.5
	c0-0.935547,0.023438-1.818848,0.307129-2.344727l1.484375-2.753418l-3.012695-0.84082
	C28.199707,50.00293,25,46.126953,25,40.925781c0-2.94873,0.55127-5.452148,1.638184-7.441406l0.306152-0.560059v-7.303223
	c1.705078,0.553711,3.171875,1.579102,4.351074,2.510254l1.021484,0.806641l1.246582-0.374023
	C35.448242,27.998047,37.61377,27.711426,40,27.711426s4.551758,0.286621,6.436523,0.852539l1.246582,0.374023l1.021484-0.806641
	c1.179199-0.931152,2.645996-1.956543,4.351074-2.510254v7.303223l0.306152,0.560059C54.44873,35.473633,55,37.977051,55,40.925781
	c0,5.201172-3.199707,9.077148-8.778809,10.635254l-3.012695,0.84082l1.484375,2.753418C44.976563,55.681152,45,56.564453,45,57.5
	v12.075378C43.372742,69.84967,41.704041,70,40,70S36.627258,69.84967,35,69.575378z M50,68.279846V57.5
	c0-0.630371-0.011719-1.276855-0.083496-1.926758C56.27832,52.96875,60,47.637695,60,40.925781
	c0-3.527344-0.653809-6.634766-1.944336-9.249512V20.211426h-2.5c-3.977051,0-7.150879,1.92041-8.941895,3.225098
	C44.589355,22.955078,42.370605,22.711426,40,22.711426s-4.589355,0.243652-6.61377,0.725098
	c-1.791016-1.304688-4.964844-3.225098-8.941895-3.225098h-2.5V31.67627C20.653809,34.291016,20,37.398438,20,40.925781
	c0,6.711914,3.72168,12.042969,10.083496,14.647461C30.011719,56.223145,30,56.869629,30,57.5V60
	c-3.182129,0-5.172852-2.544922-7.445313-5.871582C21.041504,51.913086,19.734863,50,17.5,50c-1.380859,0-2.5,1.119141-2.5,2.5
	c0,1.188477,0.829102,2.183105,1.940918,2.437012c0.365723,0.372559,1.003906,1.307129,1.484863,2.011719
	C20.615723,60.154785,23.925293,65,30,65v3.279846C18.360962,64.151794,10,53.036377,10,40c0-16.541992,13.458008-30,30-30
	s30,13.458008,30,30C70,53.036377,61.639038,64.151794,50,68.279846z"/>
</svg>
