<?xml version="1.0" encoding="utf-8"?>
<!-- Generator: Adobe Illustrator 21.0.0, SVG Export Plug-In . SVG Version: 6.00 Build 0)  -->
<svg version="1.1" id="圖層_1" xmlns="http://www.w3.org/2000/svg" xmlns:xlink="http://www.w3.org/1999/xlink" x="0px" y="0px"
	 viewBox="0 0 80 80" enable-background="new 0 0 80 80" xml:space="preserve">
<path d="M69.735291,21.404236c-0.023743-0.048523-0.048767-0.094666-0.075745-0.141785
	c-0.109131-0.19043-0.234131-0.372192-0.391968-0.530029l-20-20c-0.157898-0.158081-0.339722-0.283081-0.530212-0.392212
	c-0.046753-0.026855-0.09259-0.051575-0.140747-0.075195c-0.193481-0.094971-0.394348-0.174133-0.606628-0.216553
	c-0.00177-0.000366-0.003662-0.000244-0.005493-0.000549C47.82605,0.016602,47.66394,0,47.5,0h-35C11.119141,0,10,1.119141,10,2.5
	v75c0,1.380859,1.119141,2.5,2.5,2.5h55c1.380859,0,2.5-1.119141,2.5-2.5v-55C70,22.114868,69.901733,21.743591,69.735291,21.404236
	z M40,47.5c-5.513672,0-10-4.48584-10-10s4.486328-10,10-10s10,4.48584,10,10S45.513672,47.5,40,47.5z M50,8.535645
	l5.732422,5.732178L61.464478,20H50V8.535645z M15,75V5h30v17.5c0,0.334412,0.068298,0.652222,0.187378,0.943787
	C43.567993,22.844055,41.825439,22.5,40,22.5c-8.271484,0-15,6.729004-15,15c0,5.367554,2.842957,10.072021,7.093079,12.723083
	l-4.329407,8.658752c-0.617188,1.234863-0.116211,2.736816,1.118164,3.354004
	c0.359375,0.179688,0.740234,0.264648,1.116211,0.264648c0.916992,0,1.799805-0.506348,2.238281-1.382324l4.494019-8.987976
	C37.784363,52.365723,38.875977,52.5,40,52.5s2.215637-0.134277,3.269653-0.369812l4.494019,8.987976
	c0.438477,0.875977,1.321289,1.382324,2.238281,1.382324c0.375977,0,0.756836-0.084961,1.116211-0.264648
	c1.234375-0.617188,1.735352-2.119141,1.118164-3.354004l-4.329407-8.658752C52.157043,47.572021,55,42.867554,55,37.5
	c0-5.214233-2.677246-9.811035-6.726257-12.5H65v50H15z"/>
</svg>
