<?xml version="1.0" encoding="utf-8"?>
<!-- Generator: Adobe Illustrator 21.0.0, SVG Export Plug-In . SVG Version: 6.00 Build 0)  -->
<svg version="1.1" id="圖層_1" xmlns="http://www.w3.org/2000/svg" xmlns:xlink="http://www.w3.org/1999/xlink" x="0px" y="0px"
	 viewBox="0 0 80 80" enable-background="new 0 0 80 80" xml:space="preserve">
<path d="M72.5,37.5c-1.380859,0-2.5,1.119141-2.5,2.5c0,16.541992-13.458008,30-30,30S10,56.541992,10,40s13.458008-30,30-30
	c5.951172,0,11.662476,1.757568,16.508179,4.956665l-5.775757,5.775757c-0.715332,0.714844-0.929199,1.790039-0.541992,2.724609
	C50.577148,24.390625,51.48877,25,52.5,25h15c1.380859,0,2.5-1.119141,2.5-2.5v-15c0-1.010742-0.608887-1.922852-1.543457-2.30957
	c-0.932129-0.386719-2.009277-0.173828-2.724121,0.541992l-5.623718,5.623718C54.280212,7.257813,47.293457,5,40,5
	C20.701172,5,5,20.701172,5,40s15.701172,35,35,35s35-15.701172,35-35C75,38.619141,73.880859,37.5,72.5,37.5z"/>
</svg>
