<?xml version="1.0" encoding="utf-8"?>
<!-- Generator: Adobe Illustrator 21.0.0, SVG Export Plug-In . SVG Version: 6.00 Build 0)  -->
<svg version="1.1" id="圖層_1" xmlns="http://www.w3.org/2000/svg" xmlns:xlink="http://www.w3.org/1999/xlink" x="0px" y="0px"
	 viewBox="0 0 80 80" enable-background="new 0 0 80 80" xml:space="preserve">
<path d="M78.810547,36.104492c-1.608826-2.391235-7.051941-10.012207-14.971985-16.407898l5.429016-5.429016l-3.535156-3.535156
	l-5.962341,5.962341C54.034485,12.853455,47.319275,10,40,10C19.775391,10,4.12207,31.745605,1.189453,36.104004
	c-1.592773,2.366699-1.592773,5.425293,0,7.791504c1.608826,2.391235,7.051941,10.012207,14.971985,16.407898l-5.429016,5.429016
	l3.535156,3.535156l5.962341-5.962341C25.965515,67.146545,32.680725,70,40,70c20.224609,0,35.87793-21.745605,38.810547-26.104004
	C80.40332,41.529297,80.40332,38.471191,78.810547,36.104492z M5.337891,41.104004c-0.452148-0.670898-0.452148-1.537109,0-2.208496
	C6.983398,36.449707,21.93457,15,40,15c5.817078,0,11.307312,2.229126,16.138306,5.326538L19.743896,56.720947
	C11.772644,50.395996,6.296204,42.528687,5.337891,41.104004z M74.662109,41.104492C73.016602,43.550293,58.06543,65,40,65
	c-5.817078,0-11.307312-2.229126-16.138306-5.326538l36.39447-36.39447c7.971191,6.32489,13.447632,14.192078,14.405945,15.616516
	v0.000488C75.114258,39.566895,75.114258,40.433105,74.662109,41.104492z"/>
</svg>
