<?xml version="1.0" encoding="utf-8"?>
<!-- Generator: Adobe Illustrator 21.0.0, SVG Export Plug-In . SVG Version: 6.00 Build 0)  -->
<svg version="1.1" id="圖層_1" xmlns="http://www.w3.org/2000/svg" xmlns:xlink="http://www.w3.org/1999/xlink" x="0px" y="0px"
	 viewBox="0 0 80 80" enable-background="new 0 0 80 80" xml:space="preserve">
<path d="M78.991211,37.993652l-37-27.5c-0.875977-0.651855-2.073242-0.658691-2.957031-0.019043l-38,27.5
	c-1.118164,0.80957-1.369141,2.372559-0.55957,3.491211C0.963867,42.141113,1.727539,42.5,2.501953,42.5
	c0.507813,0,1.020508-0.154297,1.463867-0.474609L10,37.658508V67.5c0,1.380859,1.119141,2.5,2.5,2.5h15
	c1.380859,0,2.5-1.119141,2.5-2.5V45h20v22.5c0,1.380859,1.119141,2.5,2.5,2.5h15c1.380859,0,2.5-1.119141,2.5-2.5V37.540344
	l6.008789,4.466003c1.107422,0.822754,2.672852,0.592773,3.498047-0.515137
	C80.330078,40.383301,80.099609,38.816895,78.991211,37.993652z M65,35v30H55V42.5c0-1.380859-1.119141-2.5-2.5-2.5h-25
	c-1.380859,0-2.5,1.119141-2.5,2.5V65H15V35c0-0.298523-0.061096-0.580933-0.157043-0.846313l25.637512-18.553589
	L65.218384,33.98645C65.080261,34.296753,65,34.638367,65,35z"/>
</svg>
