<?xml version="1.0" encoding="utf-8"?>
<!-- Generator: Adobe Illustrator 21.0.0, SVG Export Plug-In . SVG Version: 6.00 Build 0)  -->
<svg version="1.1" id="圖層_1" xmlns="http://www.w3.org/2000/svg" xmlns:xlink="http://www.w3.org/1999/xlink" x="0px" y="0px"
	 viewBox="0 0 80 80" enable-background="new 0 0 80 80" xml:space="preserve">
<path d="M12.202637,80c-0.551758,0-1.107422-0.181641-1.569824-0.555664c-1.074219-0.868164-1.240723-2.441895-0.373047-3.515625
	l29.02002-35.904297L9.95752,4.080078c-0.873047-1.069824-0.713379-2.644531,0.356934-3.51709
	c1.068359-0.874023,2.644531-0.713867,3.51709,0.356934l30.605469,37.51709c0.748047,0.916504,0.750977,2.231445,0.007324,3.151367
	l-30.295898,37.48291C13.654297,79.682617,12.931641,80,12.202637,80z M39.450684,79.071289l30.296387-37.48291
	c0.743652-0.919922,0.740723-2.234863-0.007324-3.151367L39.134277,0.919922c-0.873047-1.070801-2.447754-1.230957-3.51709-0.356934
	c-1.070313,0.872559-1.22998,2.447266-0.356934,3.51709L64.58252,40.024414L35.562012,75.928711
	c-0.867676,1.07373-0.701172,2.647461,0.373047,3.515625C36.397461,79.818359,36.953125,80,37.504883,80
	C38.233887,80,38.956543,79.682617,39.450684,79.071289z"/>
</svg>
