<?xml version="1.0" encoding="utf-8"?>
<!-- Generator: Adobe Illustrator 21.0.0, SVG Export Plug-In . SVG Version: 6.00 Build 0)  -->
<svg version="1.1" id="圖層_1" xmlns="http://www.w3.org/2000/svg" xmlns:xlink="http://www.w3.org/1999/xlink" x="0px" y="0px"
	 viewBox="0 0 80 80" enable-background="new 0 0 80 80" xml:space="preserve">
<path d="M42.217285,52.826172c-4.018555,0-7.795898-1.564941-10.637207-4.40625c-0.976562-0.976074-0.976562-2.559082,0-3.535156
	c0.975586-0.976562,2.55957-0.976562,3.535156,0c1.896973,1.896973,4.419434,2.941406,7.102051,2.941406
	s5.205078-1.044434,7.102051-2.941406l17.739258-17.739258C68.955078,25.248535,70,22.726074,70,20.043457
	s-1.044922-5.205078-2.941406-7.102051C65.161621,11.044434,62.63916,10,59.956543,10s-5.205078,1.044434-7.102051,2.941406
	l-8.826172,8.826172c-0.975586,0.976562-2.55957,0.976562-3.535156,0c-0.976562-0.976074-0.976562-2.559082,0-3.535156
	l8.826172-8.826172C52.160645,6.564941,55.937988,5,59.956543,5s7.795898,1.564941,10.637207,4.40625S75,16.024902,75,20.043457
	s-1.564941,7.795898-4.40625,10.637207L52.854492,48.419922C50.013184,51.26123,46.23584,52.826172,42.217285,52.826172z
	 M30.680664,70.59375l8.826172-8.826172c0.976562-0.976074,0.976562-2.559082,0-3.535156
	c-0.975586-0.976562-2.55957-0.976562-3.535156,0l-8.826172,8.826172C25.248535,68.955566,22.726074,70,20.043457,70
	s-5.205078-1.044434-7.102051-2.941406C11.044922,65.161621,10,62.63916,10,59.956543s1.044922-5.205078,2.941406-7.102051
	l17.739258-17.739258c1.896973-1.896973,4.419434-2.941406,7.102051-2.941406s5.205078,1.044434,7.102051,2.941406
	c0.975586,0.976562,2.55957,0.976562,3.535156,0c0.976562-0.976074,0.976562-2.559082,0-3.535156
	c-2.841309-2.841309-6.618652-4.40625-10.637207-4.40625s-7.795898,1.564941-10.637207,4.40625L9.40625,49.319336
	C6.564941,52.160645,5,55.937988,5,59.956543s1.564941,7.795898,4.40625,10.637207S16.024902,75,20.043457,75
	S27.839355,73.435059,30.680664,70.59375z"/>
</svg>
