<?xml version="1.0" encoding="utf-8"?>
<!-- Generator: Adobe Illustrator 21.0.0, SVG Export Plug-In . SVG Version: 6.00 Build 0)  -->
<svg version="1.1" id="圖層_1" xmlns="http://www.w3.org/2000/svg" xmlns:xlink="http://www.w3.org/1999/xlink" x="0px" y="0px"
	 viewBox="0 0 80 80" enable-background="new 0 0 80 80" xml:space="preserve">
<path d="M65.548752,79.071289l-30.295898-37.48291c-0.743652-0.919922-0.740723-2.234863,0.007324-3.151367l30.605469-37.51709
	c0.872559-1.070801,2.44873-1.230957,3.51709-0.356934c1.070313,0.872559,1.22998,2.447266,0.356934,3.51709L40.417404,40.024414
	l29.02002,35.904297c0.867676,1.07373,0.701172,2.647461-0.373047,3.515625C68.601974,79.818359,68.04631,80,67.494553,80
	C66.765549,80,66.042892,79.682617,65.548752,79.071289z M42.192307,80c0.551758,0,1.107422-0.181641,1.569824-0.555664
	c1.074219-0.868164,1.240723-2.441895,0.373047-3.515625L15.11467,40.024414L44.436935,4.080078
	c0.873047-1.069824,0.713379-2.644531-0.356934-3.51709c-1.069336-0.874023-2.644043-0.713867-3.51709,0.356934L9.957443,38.437012
	c-0.748047,0.916504-0.750977,2.231445-0.007324,3.151367l30.296387,37.48291C40.740646,79.682617,41.463303,80,42.192307,80z"/>
</svg>
