<?xml version="1.0" encoding="utf-8"?>
<!-- Generator: Adobe Illustrator 21.0.0, SVG Export Plug-In . SVG Version: 6.00 Build 0)  -->
<svg version="1.1" id="圖層_1" xmlns="http://www.w3.org/2000/svg" xmlns:xlink="http://www.w3.org/1999/xlink" x="0px" y="0px"
	 viewBox="0 0 80 80" enable-background="new 0 0 80 80" xml:space="preserve">
<path d="M40,5C20.701172,5,5,20.701172,5,40s15.701172,35,35,35s35-15.701172,35-35S59.298828,5,40,5z M40,70
	c-16.541992,0-30-13.458008-30-30s13.458008-30,30-30s30,13.458008,30,30S56.541992,70,40,70z M55,32.5
	c0,5.11084-2.782227,9.161133-7.632812,11.112793C43.335938,45.234375,40,46.833984,40,50h-5
	c0-6.80127,6.573242-9.445801,10.500977-11.025879C48.486328,37.772949,50,35.594727,50,32.5c0-4.345703-4.206055-7.5-10-7.5
	c-2.735352,0-6.537109,1.507812-7.835938,3.752441l-4.328125-2.504883C30.185547,22.189453,35.856445,20,40,20
	C48.551758,20,55,25.374023,55,32.5z M35,55h5v5h-5V55z"/>
</svg>
