<?xml version="1.0" encoding="utf-8"?>
<!-- Generator: Adobe Illustrator 21.0.0, SVG Export Plug-In . SVG Version: 6.00 Build 0)  -->
<svg version="1.1" id="圖層_1" xmlns="http://www.w3.org/2000/svg" xmlns:xlink="http://www.w3.org/1999/xlink" x="0px" y="0px"
	 viewBox="0 0 80 80" enable-background="new 0 0 80 80" xml:space="preserve">
<path d="M74.749023,32.162109c-0.546875-1.682129-1.898438-2.941895-3.614258-3.369629l-17.364258-4.354492L44.321289,9.312012
	c-0.9375-1.5-2.552734-2.395996-4.321289-2.395996s-3.383789,0.895996-4.321289,2.395996l-9.507812,15.168457L8.865234,28.79248
	c-1.71582,0.427734-3.067383,1.6875-3.614258,3.369629c-0.545898,1.682617-0.193359,3.495605,0.943359,4.851074l11.488281,13.728516
	l-1.24707,17.791992c-0.123062,1.764648,0.657227,3.438965,2.088867,4.478516
	c0.888672,0.645508,1.931641,0.976562,2.987305,0.976562c0.645508,0,1.294922-0.123535,1.916992-0.375l16.607422-6.683594
	l16.535156,6.683594c1.638672,0.662598,3.47168,0.437988,4.904297-0.601562c1.431641-1.039551,2.211899-2.713867,2.088867-4.479004
	l-1.224609-17.859375l11.46582-13.661133C74.942383,35.657715,75.294922,33.844727,74.749023,32.162109z M69.975586,33.79834
	l-11.46582,13.661133c-0.853516,1.017578-1.272461,2.307129-1.180664,3.631836l1.24707,17.791504l-0.131836,0.095215
	l-16.536133-6.684082C41.292969,62.045898,40.646484,61.921387,40,61.921387s-1.293945,0.124512-1.90918,0.373047
	l-16.535156,6.683594l-0.131836-0.095215l1.24707-17.791992c0.091797-1.324219-0.327148-2.61377-1.180664-3.631836
	L10.024414,33.79834l0.049805-0.154297l17.304688-4.312012c1.290039-0.320801,2.387695-1.118164,3.09082-2.244629L40,11.916016
	c0.052734,0,0.06543,0.020996,0.081055,0.04541l9.449219,15.125488c0.703125,1.126953,1.800781,1.924316,3.089844,2.245117
	l17.305664,4.312012L69.975586,33.79834z"/>
</svg>
