<?xml version="1.0" encoding="utf-8"?>
<!-- Generator: Adobe Illustrator 21.0.0, SVG Export Plug-In . SVG Version: 6.00 Build 0)  -->
<svg version="1.1" id="圖層_1" xmlns="http://www.w3.org/2000/svg" xmlns:xlink="http://www.w3.org/1999/xlink" x="0px" y="0px"
	 viewBox="0 0 80 80" enable-background="new 0 0 80 80" xml:space="preserve">
<path d="M74.267578,70.732422l-20-20c-0.225037-0.225281-0.48468-0.392578-0.759521-0.513916
	C57.554077,45.428894,60,39.246094,60,32.5C60,17.336426,47.663574,5,32.5,5S5,17.336426,5,32.5S17.336426,60,32.5,60
	c6.746094,0,12.928894-2.445923,17.718567-6.492004c0.121338,0.27478,0.288635,0.534424,0.513855,0.759583l20,20
	C71.220215,74.755859,71.860352,75,72.5,75s1.279785-0.244141,1.767578-0.732422
	C75.244141,73.291504,75.244141,71.708496,74.267578,70.732422z M32.5,55C20.093262,55,10,44.906738,10,32.5S20.093262,10,32.5,10
	S55,20.093262,55,32.5S44.906738,55,32.5,55z"/>
</svg>
