<?xml version="1.0" encoding="utf-8"?>
<!-- Generator: Adobe Illustrator 21.0.0, SVG Export Plug-In . SVG Version: 6.00 Build 0)  -->
<svg version="1.1" id="圖層_1" xmlns="http://www.w3.org/2000/svg" xmlns:xlink="http://www.w3.org/1999/xlink" x="0px" y="0px"
	 viewBox="0 0 80 80" enable-background="new 0 0 80 80" xml:space="preserve">
<path d="M65,5H15C9.486328,5,5,9.486328,5,15v50c0,5.513672,4.486328,10,10,10h50c5.513672,0,10-4.486328,10-10V15
	C75,9.486328,70.513672,5,65,5z M70,65c0,2.756836-2.243164,5-5,5H50V45h10v-5H50v-9.907227C50,25,50.977539,25,55.092773,25H62.5
	v-5h-7.407227C51.073242,20,45,20,45,30.092773V40H35v5h10v25H15c-2.756836,0-5-2.243164-5-5V15c0-2.756836,2.243164-5,5-5h50
	c2.756836,0,5,2.243164,5,5V65z"/>
</svg>
