<?xml version="1.0" encoding="utf-8"?>
<!-- Generator: Adobe Illustrator 21.0.0, SVG Export Plug-In . SVG Version: 6.00 Build 0)  -->
<svg version="1.1" id="圖層_1" xmlns="http://www.w3.org/2000/svg" xmlns:xlink="http://www.w3.org/1999/xlink" x="0px" y="0px"
	 viewBox="0 0 80 80" enable-background="new 0 0 80 80" xml:space="preserve">
<path d="M40,5c-7.293457,0-14.280212,2.257813-20.108704,6.35614l-5.623718-5.623718
	c-0.714844-0.71582-1.790527-0.928711-2.724121-0.541992C10.608887,5.577148,10,6.489258,10,7.5v15c0,1.380859,1.119141,2.5,2.5,2.5
	h15c1.01123,0,1.922852-0.609375,2.30957-1.542969c0.387207-0.93457,0.17334-2.009766-0.541992-2.724609l-5.775757-5.775757
	C28.337524,11.757568,34.048828,10,40,10c16.541992,0,30,13.458008,30,30S56.541992,70,40,70S10,56.541992,10,40
	c0-1.380859-1.119141-2.5-2.5-2.5S5,38.619141,5,40c0,19.298828,15.701172,35,35,35s35-15.701172,35-35S59.298828,5,40,5z"/>
</svg>
