<?xml version="1.0" encoding="utf-8"?>
<!-- Generator: Adobe Illustrator 21.0.0, SVG Export Plug-In . SVG Version: 6.00 Build 0)  -->
<svg version="1.1" id="圖層_1" xmlns="http://www.w3.org/2000/svg" xmlns:xlink="http://www.w3.org/1999/xlink" x="0px" y="0px"
	 viewBox="0 0 80 80" enable-background="new 0 0 80 80" xml:space="preserve">
<path d="M-0.151759,12.353688c0-0.551758,0.181641-1.107422,0.555664-1.569824C1.272069,9.709645,2.8458,9.543141,3.91953,10.410817
	l35.904297,29.02002l35.94434-29.322266c1.069824-0.873047,2.644531-0.713379,3.51709,0.356934
	c0.874023,1.068359,0.713867,2.644531-0.356934,3.51709L41.411228,44.588062
	c-0.916504,0.748047-2.231445,0.750977-3.151367,0.007324L0.776952,14.299489
	C0.165624,13.805348-0.151759,13.082692-0.151759,12.353688z M0.776952,39.601734l37.48291,30.296391
	c0.919922,0.743652,2.234863,0.740723,3.151367-0.007324l37.517094-30.605473c1.070801-0.873047,1.230957-2.447754,0.356934-3.51709
	c-0.872559-1.070313-2.447266-1.22998-3.51709-0.356934l-35.94434,29.322269L3.91953,35.713062
	c-1.07373-0.867676-2.647461-0.701172-3.515625,0.373047c-0.374023,0.462402-0.555664,1.018066-0.555664,1.569824
	C-0.151759,38.384937,0.165624,39.107594,0.776952,39.601734z"/>
</svg>
