<?xml version="1.0" encoding="utf-8"?>
<!-- Generator: Adobe Illustrator 21.0.0, SVG Export Plug-In . SVG Version: 6.00 Build 0)  -->
<svg version="1.1" id="圖層_1" xmlns="http://www.w3.org/2000/svg" xmlns:xlink="http://www.w3.org/1999/xlink" x="0px" y="0px"
	 viewBox="0 0 80 80" enable-background="new 0 0 80 80" xml:space="preserve">
<path d="M80,50c0,8.271484-6.728516,15-15,15H45v-5h20c5.513672,0,10-4.486328,10-10s-4.486328-10-10-10h-2.5v-2.5
	C62.5,25.09375,52.40625,15,40,15c-9.069336,0-17.208984,5.398438-20.737305,13.753906l-0.529297,1.253906l-1.34082,0.235352
	C10.211914,31.503906,5,37.709961,5,45c0,8.271484,6.728516,15,15,15h10v5H20C8.97168,65,0,56.02832,0,45
	c0-9.268555,6.316406-17.223633,15.203125-19.402344C19.768555,16.078125,29.361328,10,40,10
	c14.385742,0,26.227539,11.105469,27.404297,25.192383C74.536133,36.34668,80,42.546875,80,50z M53.232422,49.267578
	l3.535156-3.535156L37.5,26.464844L18.232422,45.732422l3.535156,3.535156L35,36.035156V70h5V36.035156L53.232422,49.267578z"/>
</svg>
