<?xml version="1.0" encoding="utf-8"?>
<!-- Generator: Adobe Illustrator 21.0.0, SVG Export Plug-In . SVG Version: 6.00 Build 0)  -->
<svg version="1.1" id="圖層_1" xmlns="http://www.w3.org/2000/svg" xmlns:xlink="http://www.w3.org/1999/xlink" x="0px" y="0px"
	 viewBox="0 0 80 80" enable-background="new 0 0 80 80" xml:space="preserve">
<path d="M72.5,20H34.571289c-0.667969,0-1.295898-0.259766-1.768066-0.731934l-7.071289-7.071289
	C24.31543,10.780273,22.432129,10,20.429199,10H7.5C3.364258,10,0,13.364258,0,17.5v45C0,66.635742,3.364258,70,7.5,70h65
	c4.135742,0,7.5-3.364258,7.5-7.5v-35C80,23.364258,76.635742,20,72.5,20z M75,62.5c0,1.378418-1.121582,2.5-2.5,2.5h-65
	C6.121582,65,5,63.878418,5,62.5v-45C5,16.121582,6.121582,15,7.5,15h12.929199c0.657715,0,1.302246,0.26709,1.767578,0.731934
	l7.071289,7.071289C30.68457,24.219727,32.567871,25,34.571289,25H72.5c1.378418,0,2.5,1.121582,2.5,2.5V62.5z"/>
</svg>
