<?xml version="1.0" encoding="utf-8"?>
<!-- Generator: Adobe Illustrator 21.0.0, SVG Export Plug-In . SVG Version: 6.00 Build 0)  -->
<svg version="1.1" id="圖層_1" xmlns="http://www.w3.org/2000/svg" xmlns:xlink="http://www.w3.org/1999/xlink" x="0px" y="0px"
	 viewBox="0 0 80 80" enable-background="new 0 0 80 80" xml:space="preserve">
<path d="M68.063477,65h-0.124512c-0.720703-1.01416-3.283691-6.646973-3.337891-35.457031
	C64.576782,16.853149,54.871826,6.382202,42.5,5.126404V2.5C42.5,1.119141,41.380859,0,40,0s-2.5,1.119141-2.5,2.5v2.626404
	C25.128174,6.382202,15.423218,16.853149,15.398926,29.542969C15.344727,58.353027,12.781738,63.98584,12.061035,65h-0.124512
	c-1.380371,0-2.5,1.119141-2.5,2.5s1.119629,2.5,2.5,2.5H30c0,5.51416,4.48584,10,10,10s10-4.48584,10-10h18.063477
	c1.380371,0,2.5-1.119141,2.5-2.5S69.443848,65,68.063477,65z M40,75c-2.756836,0-5-2.243164-5-5h10
	C45,72.756836,42.756836,75,40,75z M17.472656,65c1.69043-5.100586,2.888184-15.283203,2.92627-35.447266
	C20.419434,18.771484,29.212891,10,40,10s19.580566,8.771484,19.601074,19.552734
	C59.63916,49.716797,60.836914,59.899414,62.527344,65H17.472656z"/>
</svg>
