<?xml version="1.0" encoding="utf-8"?>
<!-- Generator: Adobe Illustrator 21.0.0, SVG Export Plug-In . SVG Version: 6.00 Build 0)  -->
<svg version="1.1" id="圖層_1" xmlns="http://www.w3.org/2000/svg" xmlns:xlink="http://www.w3.org/1999/xlink" x="0px" y="0px"
	 viewBox="0 0 80 80" enable-background="new 0 0 80 80" xml:space="preserve">
<path d="M56.678589,37.585022C60.294128,33.591309,62.5,28.298584,62.5,22.5C62.5,10.09375,52.40625,0,40,0S17.5,10.09375,17.5,22.5
	c0,5.798584,2.205872,11.091309,5.821411,15.085022C15.033997,43.120361,10,52.377808,10,62.5v15c0,1.380859,1.119141,2.5,2.5,2.5
	h55c1.380859,0,2.5-1.119141,2.5-2.5v-15C70,52.377808,64.966003,43.120361,56.678589,37.585022z M40,5
	c9.649414,0,17.5,7.850586,17.5,17.5c0,6.62146-3.697571,12.39447-9.135437,15.366516
	c-0.049866,0.027405-0.101746,0.05011-0.151794,0.076965c-0.432739,0.231079-0.875122,0.446167-1.32843,0.64093
	c-0.082092,0.0354-0.165833,0.066284-0.248474,0.100281c-0.42218,0.173767-0.852051,0.332214-1.289978,0.473083
	c-0.109314,0.035095-0.219238,0.067993-0.329224,0.100891c-0.41333,0.123962-0.833679,0.230957-1.259094,0.324524
	c-0.132813,0.028992-0.265015,0.059753-0.398682,0.085632c-0.415649,0.081177-0.838135,0.142273-1.263611,0.19342
	c-0.138367,0.016357-0.275208,0.03949-0.414368,0.052612C41.127197,39.967896,40.567383,40,40,40
	s-1.127197-0.032104-1.680908-0.085144c-0.13916-0.013123-0.276001-0.036255-0.414368-0.052612
	c-0.425476-0.051147-0.847961-0.112244-1.263611-0.19342c-0.133667-0.025879-0.265869-0.056641-0.398682-0.085632
	c-0.425415-0.093567-0.845764-0.200562-1.259094-0.324524c-0.109985-0.032898-0.21991-0.065796-0.329224-0.100891
	c-0.437927-0.140869-0.867798-0.299316-1.289978-0.473083c-0.082642-0.033997-0.166382-0.06488-0.248474-0.100281
	c-0.453308-0.194763-0.895691-0.409851-1.32843-0.64093c-0.050049-0.026855-0.101929-0.049561-0.151794-0.076965
	C26.197571,34.89447,22.5,29.12146,22.5,22.5C22.5,12.850586,30.350586,5,40,5z M65,75H15V62.5
	c0-8.888,4.65387-16.983276,12.236328-21.484985c0.044556,0.030762,0.087585,0.06366,0.132324,0.094116
	c0.012878,0.008728,0.025146,0.018372,0.038025,0.0271c0.508972,0.345032,1.035461,0.665466,1.572937,0.968811
	c0.024841,0.013977,0.049194,0.028809,0.074097,0.042664c2.172119,1.215027,4.564636,2.078003,7.101868,2.516907
	c0.018311,0.003174,0.036438,0.006653,0.054688,0.009827c0.588257,0.100281,1.183716,0.178101,1.786499,0.231567
	c0.07489,0.006775,0.14978,0.011169,0.224792,0.017151C38.809021,44.96936,39.400818,45,40,45s1.190979-0.03064,1.778442-0.076843
	c0.075012-0.005981,0.149902-0.010376,0.224792-0.017151c0.602783-0.053467,1.198242-0.131287,1.786499-0.231567
	c0.01825-0.003174,0.036377-0.006653,0.054688-0.009827c2.537231-0.438904,4.929749-1.30188,7.101868-2.516907
	c0.024902-0.013855,0.049255-0.028687,0.074097-0.042664c0.537476-0.303345,1.063965-0.623779,1.572937-0.968811
	c0.012878-0.008728,0.025146-0.018372,0.038025-0.0271c0.044739-0.030457,0.087769-0.063354,0.132324-0.094116
	C60.34613,45.516724,65,53.612,65,62.5V75z"/>
</svg>
