<?xml version="1.0" encoding="utf-8"?>
<!-- Generator: Adobe Illustrator 21.0.0, SVG Export Plug-In . SVG Version: 6.00 Build 0)  -->
<svg version="1.1" id="圖層_1" xmlns="http://www.w3.org/2000/svg" xmlns:xlink="http://www.w3.org/1999/xlink" x="0px" y="0px"
	 viewBox="0 0 80 80" enable-background="new 0 0 80 80" xml:space="preserve">
<path d="M40,5C20.701172,5,5,20.701172,5,40s15.701172,35,35,35s35-15.701172,35-35S59.298828,5,40,5z M40,70
	c-16.541992,0-30-13.458008-30-30s13.458008-30,30-30s30,13.458008,30,30S56.541992,70,40,70z M53.125977,49.074219
	l3.748047,3.308594C52.601563,57.223633,46.451172,60,40,60c-6.452148,0-12.602539-2.776367-16.874023-7.616211l3.75-3.308594
	C30.198242,52.84082,34.981445,55,40,55C45.017578,55,49.801758,52.839844,53.125977,49.074219z M30,40h-5V25h5V40z M55,40h-5V25h5
	V40z"/>
</svg>
