<?xml version="1.0" encoding="utf-8"?>
<!-- Generator: Adobe Illustrator 21.0.0, SVG Export Plug-In . SVG Version: 6.00 Build 0)  -->
<svg version="1.1" id="圖層_1" xmlns="http://www.w3.org/2000/svg" xmlns:xlink="http://www.w3.org/1999/xlink" x="0px" y="0px"
	 viewBox="0 0 80 80" enable-background="new 0 0 80 80" xml:space="preserve">
<path d="M40,37.5h20V40c0,11.02832-8.972168,20-20,20s-20-8.97168-20-20s8.972168-20,20-20
	c4.930664,0,9.666992,1.80957,13.336426,5.095703l-3.334961,3.724609C47.25,26.356445,43.698242,25,40,25
	c-8.270996,0-15,6.728516-15,15s6.729004,15,15,15c7.419434,0,13.598145-5.415039,14.791504-12.5H40V37.5z M75,15v50
	c0,5.513672-4.48584,10-10,10H15C9.48584,75,5,70.513672,5,65V15C5,9.486328,9.48584,5,15,5h50C70.51416,5,75,9.486328,75,15z
	 M70,15c0-2.756836-2.243164-5-5-5H15c-2.756836,0-5,2.243164-5,5v50c0,2.756836,2.243164,5,5,5h50c2.756836,0,5-2.243164,5-5V15z"
	/>
</svg>
