<?xml version="1.0" encoding="utf-8"?>
<!-- Generator: Adobe Illustrator 21.0.0, SVG Export Plug-In . SVG Version: 6.00 Build 0)  -->
<svg version="1.1" id="圖層_1" xmlns="http://www.w3.org/2000/svg" xmlns:xlink="http://www.w3.org/1999/xlink" x="0px" y="0px"
	 viewBox="0 0 80 80" enable-background="new 0 0 80 80" xml:space="preserve">
<path d="M69.952332,22.017761c-0.000427-0.002136-0.000244-0.004333-0.000671-0.006531
	c-0.042297-0.212219-0.121155-0.413086-0.216003-0.606567c-0.023865-0.048706-0.048889-0.095093-0.07605-0.142395
	c-0.10907-0.190369-0.23407-0.372009-0.392029-0.529846l-19.999512-20c-0.158325-0.158508-0.340698-0.283813-0.531799-0.393066
	c-0.046265-0.026489-0.091614-0.051025-0.139282-0.074402c-0.194092-0.095276-0.39563-0.174316-0.608643-0.216675
	c-0.001648-0.000305-0.003296-0.000183-0.004944-0.000488C47.825439,0.016724,47.663879,0,47.500488,0H12.5
	C11.119141,0,10,1.119141,10,2.5v75c0,1.380859,1.119141,2.5,2.5,2.5h55c1.380859,0,2.5-1.119141,2.5-2.5v-55
	C70,22.336853,69.983337,22.175537,69.952332,22.017761z M61.464355,20H50V8.535645L61.464355,20z M15,75V5h30v17.5
	c0,1.380859,1.119141,2.5,2.5,2.5H65v10h-7.5c-1.380859,0-2.5,1.119141-2.5,2.5s1.119141,2.5,2.5,2.5H65v35H15z M30,37.5
	c0,1.380859-1.119141,2.5-2.5,2.5h-5c-1.380859,0-2.5-1.119141-2.5-2.5s1.119141-2.5,2.5-2.5h5C28.880859,35,30,36.119141,30,37.5z
	 M47.5,40c1.380859,0,2.5-1.119141,2.5-2.5S48.880859,35,47.5,35h-10c-1.380859,0-2.5,1.119141-2.5,2.5s1.119141,2.5,2.5,2.5H40v5
	h-2.5c-1.380859,0-2.5,1.119141-2.5,2.5v15c0,1.380859,1.119141,2.5,2.5,2.5h10c1.380859,0,2.5-1.119141,2.5-2.5v-15
	c0-1.380859-1.119141-2.5-2.5-2.5H45v-5H47.5z M45,60h-5V50h5V60z"/>
</svg>
