<?xml version="1.0" encoding="utf-8"?>
<!-- Generator: Adobe Illustrator 21.0.0, SVG Export Plug-In . SVG Version: 6.00 Build 0)  -->
<svg version="1.1" id="圖層_1" xmlns="http://www.w3.org/2000/svg" xmlns:xlink="http://www.w3.org/1999/xlink" x="0px" y="0px"
	 viewBox="0 0 80 80" enable-background="new 0 0 80 80" xml:space="preserve">
<path d="M67.5,0h-55C11.119141,0,10,1.119141,10,2.5v75c0,1.380859,1.119141,2.5,2.5,2.5h10h35h10c1.380859,0,2.5-1.119141,2.5-2.5
	v-75C70,1.119141,68.880859,0,67.5,0z M25,75V65h30v10H25z M65,75h-5V62.5c0-1.380859-1.119141-2.5-2.5-2.5h-35
	c-1.380859,0-2.5,1.119141-2.5,2.5V75h-5V5h50V75z M45,47.5c0-1.380859,1.119141-2.5,2.5-2.5h10c1.380859,0,2.5,1.119141,2.5,2.5
	S58.880859,50,57.5,50h-10C46.119141,50,45,48.880859,45,47.5z M20,47.5c0-1.380859,1.119141-2.5,2.5-2.5h10
	c1.380859,0,2.5,1.119141,2.5,2.5S33.880859,50,32.5,50h-10C21.119141,50,20,48.880859,20,47.5z M45,32.5
	c0-1.380859,1.119141-2.5,2.5-2.5h10c1.380859,0,2.5,1.119141,2.5,2.5S58.880859,35,57.5,35h-10C46.119141,35,45,33.880859,45,32.5z
	 M20,32.5c0-1.380859,1.119141-2.5,2.5-2.5h10c1.380859,0,2.5,1.119141,2.5,2.5S33.880859,35,32.5,35h-10
	C21.119141,35,20,33.880859,20,32.5z M45,17.5c0-1.380859,1.119141-2.5,2.5-2.5h10c1.380859,0,2.5,1.119141,2.5,2.5
	S58.880859,20,57.5,20h-10C46.119141,20,45,18.880859,45,17.5z M20,17.5c0-1.380859,1.119141-2.5,2.5-2.5h10
	c1.380859,0,2.5,1.119141,2.5,2.5S33.880859,20,32.5,20h-10C21.119141,20,20,18.880859,20,17.5z"/>
</svg>
