<?xml version="1.0" encoding="utf-8"?>
<!-- Generator: Adobe Illustrator 21.0.0, SVG Export Plug-In . SVG Version: 6.00 Build 0)  -->
<svg version="1.1" id="圖層_1" xmlns="http://www.w3.org/2000/svg" xmlns:xlink="http://www.w3.org/1999/xlink" x="0px" y="0px"
	 viewBox="0 0 80 80" enable-background="new 0 0 80 80" xml:space="preserve">
<g>
	<path d="M65,70h-7.5c-6.036621,0-11.087402-4.301758-12.249023-10H7.5C3.364258,60,0,56.635742,0,52.5v-35
		C0,13.364258,3.364258,10,7.5,10h65c4.135742,0,7.5,3.364258,7.5,7.5v35c0,4.135742-3.364258,7.5-7.5,7.5H65V70z M7.5,15
		C6.121582,15,5,16.121094,5,17.5v35C5,53.878906,6.121582,55,7.5,55H50v2.5c0,4.135742,3.364258,7.5,7.5,7.5H60V55h12.5
		c1.378418,0,2.5-1.121094,2.5-2.5v-35c0-1.378906-1.121582-2.5-2.5-2.5H7.5z"/>
</g>
</svg>
