<?xml version="1.0" encoding="utf-8"?>
<!-- Generator: Adobe Illustrator 21.0.0, SVG Export Plug-In . SVG Version: 6.00 Build 0)  -->
<svg version="1.1" id="圖層_1" xmlns="http://www.w3.org/2000/svg" xmlns:xlink="http://www.w3.org/1999/xlink" x="0px" y="0px"
	 viewBox="0 0 80 80" enable-background="new 0 0 80 80" xml:space="preserve">
<path d="M77.5,22.5h-1.692566l3.398621-3.171875c1.008789-0.942383,1.063477-2.524414,0.12207-3.53418
	c-0.943359-1.008789-2.523438-1.063477-3.53418-0.12207l-4.326416,4.037781C67.683594,13.825012,60.905945,10,53.308594,10
	c-3.15918,0-6.228516,0.664063-9.12207,1.974609c-7.249023,3.28418-11.991211,10.254883-12.204102,17.865234
	c-5.768555-0.916016-11.053711-3.567383-15.105469-7.621094c-2.078125-2.078125-3.759766-4.454102-4.999023-7.05957
	c-0.449219-0.944336-1.428711-1.509766-2.478516-1.416992c-1.041016,0.092773-1.915039,0.823242-2.19043,1.831055
	c-3.201172,11.709961,0.107422,23.922852,8.849609,32.668945C16.522461,48.705078,17,49.157227,17.490234,49.59668
	c-4.762695,0.634766-9.65332,0.177734-14.205078-1.328125c-1.008789-0.331055-2.121094,0.007813-2.768555,0.852539
	s-0.69043,2.005859-0.105469,2.894531C7.814453,63.277344,20.547852,70,34.474609,70
	c22.148438,0,40.167969-17.15918,40.167969-38.25c0-0.243164-0.007813-0.484375-0.016602-0.725586l-0.008789-0.262695
	c-0.028503-1.090637-0.117981-2.182556-0.243408-3.261719H77.5c1.380859,0,2.5-1.119141,2.5-2.5S78.880859,22.5,77.5,22.5z
	 M34.474609,65c-9.824219,0-18.960938-3.790039-25.533203-10.379883c5.020508,0.591797,10.193359,0.141602,15.069336-1.34082
	c0.929688-0.283203,1.611328-1.079102,1.748047-2.041016c0.135742-0.962891-0.297852-1.916992-1.113281-2.446289
	c-1.833984-1.192383-3.533203-2.566406-5.049805-4.084961c-5.893555-5.894531-8.895508-13.625-8.552734-21.521484
	c0.712891,0.893555,1.479492,1.75,2.296875,2.568359c5.569336,5.570313,13.082031,8.90332,21.155273,9.382813
	c0.756836,0.057617,1.473633-0.24707,1.981445-0.794922s0.744141-1.293945,0.644531-2.035156
	c-0.099609-0.739258-0.146484-1.352539-0.146484-1.931641c0-5.949219,3.553711-11.253906,9.274414-13.845703
	C48.490234,15.514648,50.865234,15,53.308594,15c7.889648,0,14.628906,5.291016,16.049805,12.588867
	c0.143555,1.088867,0.231445,2.202148,0.260742,3.310547c0,0.001953,0,0.003906,0,0.006836l0.009766,0.295898
	c0.006836,0.182617,0.013672,0.364258,0.013672,0.547852C69.642578,50.083984,53.866211,65,34.474609,65z"/>
</svg>
