<?xml version="1.0" encoding="utf-8"?>
<!-- Generator: Adobe Illustrator 21.0.0, SVG Export Plug-In . SVG Version: 6.00 Build 0)  -->
<svg version="1.1" id="圖層_1" xmlns="http://www.w3.org/2000/svg" xmlns:xlink="http://www.w3.org/1999/xlink" x="0px" y="0px"
	 viewBox="0 0 80 80" enable-background="new 0 0 80 80" xml:space="preserve">
<path d="M60.005859,7.644531c-6.34668-5.681641-14.875-8.405273-23.418945-7.455078
	C22.568359,1.740234,11.443359,13.071289,10.133789,27.131836c-0.861328,9.246094,2.482422,18.206055,9.172852,24.581055
	C22.978516,55.208984,25,59.755859,25,64.513672V72.5c0,4.135742,3.364258,7.5,7.5,7.5h15c4.135742,0,7.5-3.364258,7.5-7.5
	v-7.522461c0-5.005859,2.048828-9.816406,5.621094-13.197266C66.668945,46.055664,70,38.320313,70,30
	C70,21.480469,66.357422,13.332031,60.005859,7.644531z M50,72.5c0,1.378906-1.121094,2.5-2.5,2.5h-15
	c-1.378906,0-2.5-1.121094-2.5-2.5v-7.986328C30,62.984497,29.839966,61.474426,29.528015,60h21.014282
	C50.188293,61.623413,50,63.291382,50,64.977539V72.5z M45,55H35V37.170898l3.613281,2.40918
	c0.839844,0.560547,1.933594,0.560547,2.773438,0L45,37.170898V55z M57.183594,48.149414
	C55.113647,50.108215,53.449036,52.442261,52.242188,55H50V32.5c0-0.921875-0.507813-1.769531-1.320313-2.204102
	c-0.814453-0.436523-1.799805-0.388672-2.566406,0.124023L40,34.495117l-6.113281-4.075195
	c-0.766602-0.511719-1.753906-0.560547-2.566406-0.124023C30.507813,30.730469,30,31.578125,30,32.5V55h-2.18634
	c-1.214355-2.524048-2.911499-4.862793-5.0578-6.907227c-5.576172-5.313477-8.361328-12.78418-7.643555-20.498047
	C16.203125,15.886719,25.46582,6.450195,37.137695,5.158203c0.970703-0.107422,1.936523-0.160156,2.893555-0.160156
	c6.170898,0,11.994141,2.211914,16.639648,6.371094C61.963867,16.109375,65,22.900391,65,30
	C65,36.932617,62.224609,43.378906,57.183594,48.149414z M45,67.5c0,1.380859-1.119141,2.5-2.5,2.5h-5
	c-1.380859,0-2.5-1.119141-2.5-2.5s1.119141-2.5,2.5-2.5h5C43.880859,65,45,66.119141,45,67.5z"/>
</svg>
