<?xml version="1.0" encoding="utf-8"?>
<!-- Generator: Adobe Illustrator 21.0.0, SVG Export Plug-In . SVG Version: 6.00 Build 0)  -->
<svg version="1.1" id="圖層_1" xmlns="http://www.w3.org/2000/svg" xmlns:xlink="http://www.w3.org/1999/xlink" x="0px" y="0px"
	 viewBox="0 0 80 80" enable-background="new 0 0 80 80" xml:space="preserve">
<path d="M60,57.5v-50C60,6.119141,58.880859,5,57.5,5h-50C6.119141,5,5,6.119141,5,7.5v50C5,58.880859,6.119141,60,7.5,60h50
	C58.880859,60,60,58.880859,60,57.5z M55,55H10V10h45V55z M75,22.5v50c0,1.380859-1.119141,2.5-2.5,2.5h-50
	c-1.380859,0-2.5-1.119141-2.5-2.5v-5c0-1.380859,1.119141-2.5,2.5-2.5s2.5,1.119141,2.5,2.5V70h45V25h-2.5
	c-1.380859,0-2.5-1.119141-2.5-2.5s1.119141-2.5,2.5-2.5h5C73.880859,20,75,21.119141,75,22.5z"/>
</svg>
