<?xml version="1.0" encoding="utf-8"?>
<!-- Generator: Adobe Illustrator 21.0.0, SVG Export Plug-In . SVG Version: 6.00 Build 0)  -->
<svg version="1.1" id="圖層_1" xmlns="http://www.w3.org/2000/svg" xmlns:xlink="http://www.w3.org/1999/xlink" x="0px" y="0px"
	 viewBox="0 0 80 80" enable-background="new 0 0 80 80" xml:space="preserve">
<path d="M74.618164,67.553223L41.900391,12.265625C41.00293,10.75,39.416016,9.844727,37.655273,9.844727
	c-1.761719,0-3.348633,0.905273-4.246094,2.420898L0.691406,67.553711c-0.914063,1.544434-0.928711,3.397461-0.040039,4.956543
	C1.541016,74.069336,3.142578,75,4.9375,75h65.43457c1.794922,0,3.397461-0.930664,4.286133-2.489746
	C75.546875,70.95166,75.532227,69.098633,74.618164,67.553223z M37.713867,14.809082l-0.006836,0.000488l-2.146484-1.270508
	L37.713867,14.809082z M5.053711,70l32.601563-55.09082L70.255859,70H5.053711z M35.155273,35h5v20h-5V35z M35.155273,60h5v5h-5V60z
	"/>
</svg>
