<?xml version="1.0" encoding="utf-8"?>
<!-- Generator: Adobe Illustrator 21.0.0, SVG Export Plug-In . SVG Version: 6.00 Build 0)  -->
<svg version="1.1" id="圖層_1" xmlns="http://www.w3.org/2000/svg" xmlns:xlink="http://www.w3.org/1999/xlink" x="0px" y="0px"
	 viewBox="0 0 80 80" enable-background="new 0 0 80 80" xml:space="preserve">
<path d="M74.267578,25.732422l-20-20C53.798828,5.263184,53.163086,5,52.5,5h-20h-10h-15C6.119141,5,5,6.119141,5,7.5v65
	C5,73.880859,6.119141,75,7.5,75h15h35h15c1.380859,0,2.5-1.119141,2.5-2.5v-45
	C75,26.836914,74.736328,26.201172,74.267578,25.732422z M30,10v15h-5V10H30z M25,70V45h30v25H25z M70,70H60V42.5
	c0-1.380859-1.119141-2.5-2.5-2.5h-35c-1.380859,0-2.5,1.119141-2.5,2.5V70H10V10h10v17.5c0,1.380859,1.119141,2.5,2.5,2.5h10
	c1.380859,0,2.5-1.119141,2.5-2.5V10h16.464844L70,28.535645V70z"/>
</svg>
