<?xml version="1.0" encoding="utf-8"?>
<!-- Generator: Adobe Illustrator 21.0.0, SVG Export Plug-In . SVG Version: 6.00 Build 0)  -->
<svg version="1.1" id="圖層_1" xmlns="http://www.w3.org/2000/svg" xmlns:xlink="http://www.w3.org/1999/xlink" x="0px" y="0px"
	 viewBox="0 0 80 80" enable-background="new 0 0 80 80" xml:space="preserve">
<path d="M40,10C19.775391,10,4.12207,31.745605,1.189453,36.104004c-1.592773,2.366699-1.592773,5.425293,0,7.791504
	C4.12207,48.254395,19.775391,70,40,70s35.87793-21.745605,38.810547-26.104004c1.592773-2.366699,1.592773-5.424805,0-7.791504
	C75.87793,31.745605,60.224609,10,40,10z M74.662109,41.104492C73.016602,43.550293,58.06543,65,40,65
	S6.983398,43.550293,5.337891,41.104004c-0.452148-0.670898-0.452148-1.537109,0-2.208496C6.983398,36.449707,21.93457,15,40,15
	s33.016602,21.449707,34.662109,23.895508v0.000488C75.114258,39.566895,75.114258,40.433105,74.662109,41.104492z M40,25
	c-8.271484,0-15,6.729004-15,15s6.728516,15,15,15s15-6.729004,15-15S48.271484,25,40,25z M40,50c-5.513672,0-10-4.48584-10-10
	s4.486328-10,10-10s10,4.48584,10,10S45.513672,50,40,50z"/>
</svg>
