<?xml version="1.0" encoding="utf-8"?>
<!-- Generator: Adobe Illustrator 21.0.0, SVG Export Plug-In . SVG Version: 6.00 Build 0)  -->
<svg version="1.1" id="圖層_1" xmlns="http://www.w3.org/2000/svg" xmlns:xlink="http://www.w3.org/1999/xlink" x="0px" y="0px"
	 viewBox="0 0 80 80" enable-background="new 0 0 80 80" xml:space="preserve">
<path d="M40,0C23.458008,0,10,13.458008,10,30c0,20.796875,27.079102,48.115234,28.232422,49.267578L40,81.035156l1.767578-1.767578
	C42.920898,78.115234,70,50.796875,70,30C70,13.458008,56.541992,0,40,0z M39.999023,73.883789
	C34.027344,67.494141,15,45.885742,15,30C15,16.214844,26.214844,5,40,5s25,11.214844,25,25
	C65,45.871094,45.969727,67.492188,39.999023,73.883789z M40,15c-8.271484,0-15,6.728516-15,15s6.728516,15,15,15s15-6.728516,15-15
	S48.271484,15,40,15z M40,40c-5.513672,0-10-4.486328-10-10s4.486328-10,10-10s10,4.486328,10,10S45.513672,40,40,40z"/>
</svg>
