<?xml version="1.0" encoding="utf-8"?>
<!-- Generator: Adobe Illustrator 21.0.0, SVG Export Plug-In . SVG Version: 6.00 Build 0)  -->
<svg version="1.1" id="圖層_1" xmlns="http://www.w3.org/2000/svg" xmlns:xlink="http://www.w3.org/1999/xlink" x="0px" y="0px"
	 viewBox="0 0 80 80" enable-background="new 0 0 80 80" xml:space="preserve">
<path d="M30,17.5C30,10.607422,24.392578,5,17.5,5S5,10.607422,5,17.5c0,6.03656,4.301331,11.086609,10,12.248047v20.503906
	C9.301331,51.413391,5,56.46344,5,62.5C5,69.392578,10.607422,75,17.5,75S30,69.392578,30,62.5
	c0-6.03656-4.301331-11.086609-10-12.248047V29.748047C25.698669,28.586609,30,23.53656,30,17.5z M10,17.5
	c0-4.135742,3.364258-7.5,7.5-7.5s7.5,3.364258,7.5,7.5S21.635742,25,17.5,25S10,21.635742,10,17.5z M25,62.5
	c0,4.135742-3.364258,7.5-7.5,7.5S10,66.635742,10,62.5s3.364258-7.5,7.5-7.5S25,58.364258,25,62.5z M65,50.251953V24.986328
	C65,19.47998,60.520508,15,55.013672,15H43.535156l5.732422-5.732422l-3.535156-3.535156L33.964844,17.5l11.767578,11.767578
	l3.535156-3.535156L43.535156,20h11.478516C57.762695,20,60,22.236816,60,24.986328v25.265625
	C54.301331,51.413391,50,56.46344,50,62.5C50,69.392578,55.607422,75,62.5,75S75,69.392578,75,62.5
	C75,56.46344,70.698669,51.413391,65,50.251953z M62.5,70c-4.135742,0-7.5-3.364258-7.5-7.5s3.364258-7.5,7.5-7.5
	s7.5,3.364258,7.5,7.5S66.635742,70,62.5,70z"/>
</svg>
