<?xml version="1.0" encoding="utf-8"?>
<!-- Generator: Adobe Illustrator 21.0.0, SVG Export Plug-In . SVG Version: 6.00 Build 0)  -->
<svg version="1.1" id="圖層_1" xmlns="http://www.w3.org/2000/svg" xmlns:xlink="http://www.w3.org/1999/xlink" x="0px" y="0px"
	 viewBox="0 0 80 80" enable-background="new 0 0 80 80" xml:space="preserve">
<path d="M72.749023,39.213867L41.446289,7.911133C39.569336,6.033691,37.07373,5,34.418945,5H15.083496
	C9.523438,5,5,9.523438,5,15.083496v19.335449c0,2.654785,1.033691,5.150391,2.911133,7.027344l31.302734,31.302734
	C40.665039,74.200684,42.595215,75,44.647949,75s3.98291-0.799316,5.434082-2.250977l22.666992-22.666992
	C74.200684,48.630859,75,46.700684,75,44.647949S74.200684,40.665039,72.749023,39.213867z M69.213867,46.546875
	L46.546875,69.213867c-1.046875,1.046875-2.750977,1.046875-3.797852,0L11.446289,37.911133
	C10.513672,36.978027,10,35.737793,10,34.418945V15.083496C10,12.280273,12.280273,10,15.083496,10h19.335449
	c1.318848,0,2.559082,0.513672,3.492188,1.446289l31.302734,31.302734C70.260742,43.796387,70.260742,45.499512,69.213867,46.546875
	z M30,20c-5.51416,0-10,4.48584-10,10s4.48584,10,10,10s10-4.48584,10-10S35.51416,20,30,20z M30,35c-2.756836,0-5-2.243164-5-5
	s2.243164-5,5-5s5,2.243164,5,5S32.756836,35,30,35z"/>
</svg>
