<?xml version="1.0" encoding="utf-8"?>
<!-- Generator: Adobe Illustrator 21.0.0, SVG Export Plug-In . SVG Version: 6.00 Build 0)  -->
<svg version="1.1" id="圖層_1" xmlns="http://www.w3.org/2000/svg" xmlns:xlink="http://www.w3.org/1999/xlink" x="0px" y="0px"
	 viewBox="0 0 80 80" enable-background="new 0 0 80 80" xml:space="preserve">
<path d="M77.5,25h-75C1.119141,25,0,23.880859,0,22.5S1.119141,20,2.5,20h75c1.380859,0,2.5,1.119141,2.5,2.5S78.880859,25,77.5,25z
	 M80,42.5c0-1.380859-1.119141-2.5-2.5-2.5h-75C1.119141,40,0,41.119141,0,42.5S1.119141,45,2.5,45h75
	C78.880859,45,80,43.880859,80,42.5z M80,62.5c0-1.380859-1.119141-2.5-2.5-2.5h-75C1.119141,60,0,61.119141,0,62.5
	S1.119141,65,2.5,65h75C78.880859,65,80,63.880859,80,62.5z"/>
</svg>
