<?xml version="1.0" encoding="utf-8"?>
<!-- Generator: Adobe Illustrator 21.0.0, SVG Export Plug-In . SVG Version: 6.00 Build 0)  -->
<svg version="1.1" id="圖層_1" xmlns="http://www.w3.org/2000/svg" xmlns:xlink="http://www.w3.org/1999/xlink" x="0px" y="0px"
	 viewBox="0 0 80 80" enable-background="new 0 0 80 80" xml:space="preserve">
<path d="M72.5,10h-5H60V5c0-2.756836-2.243164-5-5-5H25c-2.756836,0-5,2.243164-5,5v5h-7.5h-5C6.119141,10,5,11.119141,5,12.5
	S6.119141,15,7.5,15H10v55c0,5.51416,4.48584,10,10,10h40c5.51416,0,10-4.48584,10-10V15h2.5c1.380859,0,2.5-1.119141,2.5-2.5
	S73.880859,10,72.5,10z M25,5h30v5H25V5z M65,70c0,2.756836-2.243164,5-5,5H20c-2.756836,0-5-2.243164-5-5V15h7.5h35H65V70z
	 M35,22.5v45c0,1.380859-1.119141,2.5-2.5,2.5S30,68.880859,30,67.5v-45c0-1.380859,1.119141-2.5,2.5-2.5S35,21.119141,35,22.5z
	 M50,22.5v45c0,1.380859-1.119141,2.5-2.5,2.5S45,68.880859,45,67.5v-45c0-1.380859,1.119141-2.5,2.5-2.5S50,21.119141,50,22.5z"/>
</svg>
