<?xml version="1.0" encoding="utf-8"?>
<!-- Generator: Adobe Illustrator 21.0.0, SVG Export Plug-In . SVG Version: 6.00 Build 0)  -->
<svg version="1.1" id="圖層_1" xmlns="http://www.w3.org/2000/svg" xmlns:xlink="http://www.w3.org/1999/xlink" x="0px" y="0px"
	 viewBox="0 0 80 80" enable-background="new 0 0 80 80" xml:space="preserve">
<path d="M72.5,15H40v-2.5c0-1.380859-1.119141-2.5-2.5-2.5S35,11.119141,35,12.5V15H2.5C1.119141,15,0,16.119141,0,17.5
	S1.119141,20,2.5,20h11.530945L5.12793,46.708984c-0.01239,0.037292-0.012756,0.076233-0.023376,0.113892
	c-0.032043,0.11322-0.055481,0.228577-0.07135,0.347717c-0.009521,0.071594-0.01825,0.141907-0.021545,0.213684
	C5.009827,47.423462,5,47.460388,5,47.5C5,54.392578,10.607422,60,17.5,60S30,54.392578,30,47.5
	c0-0.039612-0.009827-0.076538-0.011658-0.115723c-0.003296-0.071777-0.012024-0.14209-0.021545-0.213684
	c-0.015869-0.119202-0.039368-0.23468-0.071411-0.347961c-0.010559-0.037537-0.010925-0.076416-0.023315-0.113647L20.969055,20H35
	v45H22.5c-1.380859,0-2.5,1.119141-2.5,2.5s1.119141,2.5,2.5,2.5h30c1.380859,0,2.5-1.119141,2.5-2.5S53.880859,65,52.5,65H40V20
	h14.030945L45.12793,46.708984c-0.01239,0.037292-0.012756,0.076233-0.023376,0.113892
	c-0.032043,0.11322-0.055481,0.228577-0.07135,0.347717c-0.009521,0.071594-0.01825,0.141907-0.021545,0.213684
	C45.009827,47.423462,45,47.460388,45,47.5C45,54.392578,50.607422,60,57.5,60S70,54.392578,70,47.5
	c0-0.039612-0.009827-0.076538-0.011658-0.115723c-0.003296-0.071777-0.012024-0.14209-0.021545-0.213684
	c-0.015869-0.119202-0.039368-0.23468-0.071411-0.347961c-0.010559-0.037537-0.010925-0.076416-0.023315-0.113647L60.969055,20H72.5
	c1.380859,0,2.5-1.119141,2.5-2.5S73.880859,15,72.5,15z M17.5,55c-3.258179,0-6.029724-2.091736-7.0625-5h14.125
	C23.529724,52.908264,20.758179,55,17.5,55z M10.96875,45L17.5,25.405273L24.03125,45H10.96875z M57.5,55
	c-3.258179,0-6.029724-2.091736-7.0625-5h14.125C63.529724,52.908264,60.758179,55,57.5,55z M50.96875,45L57.5,25.405273
	L64.03125,45H50.96875z"/>
</svg>
