<?xml version="1.0" encoding="utf-8"?>
<!-- Generator: Adobe Illustrator 21.0.0, SVG Export Plug-In . SVG Version: 6.00 Build 0)  -->
<svg version="1.1" id="圖層_1" xmlns="http://www.w3.org/2000/svg" xmlns:xlink="http://www.w3.org/1999/xlink" x="0px" y="0px"
	 viewBox="0 0 80 80" enable-background="new 0 0 80 80" xml:space="preserve">
<g>
	<path d="M40,75c-0.49707,0-0.995117-0.147949-1.422852-0.444336C37.206055,73.606445,5,51.039063,5,27.5
		C5,11.354004,15.100586,5.625,23.75,5.625c6.21875,0,12.777344,3.068848,16.25,8.39209
		C43.472656,8.693848,50.03125,5.625,56.25,5.625C64.899414,5.625,75,11.354004,75,27.5
		c0,23.539063-32.206055,46.106445-33.577148,47.055664C40.995117,74.852051,40.49707,75,40,75z M23.75,10.625
		C17.102539,10.625,10,15.058105,10,27.5c0,18.322754,23.861328,37.32373,30,41.907715C46.138672,64.82373,70,45.822754,70,27.5
		c0-5.638184-1.510742-10.16748-4.368164-13.098633C63.257813,11.966309,59.925781,10.625,56.25,10.625
		c-6.612305,0-13.75,4.540039-13.75,11.875c0,1.380859-1.119141,2.5-2.5,2.5s-2.5-1.119141-2.5-2.5
		C37.5,15.165039,30.362305,10.625,23.75,10.625z"/>
</g>
</svg>
