<?xml version="1.0" encoding="utf-8"?>
<!-- Generator: Adobe Illustrator 21.0.0, SVG Export Plug-In . SVG Version: 6.00 Build 0)  -->
<svg version="1.1" id="圖層_1" xmlns="http://www.w3.org/2000/svg" xmlns:xlink="http://www.w3.org/1999/xlink" x="0px" y="0px"
	 viewBox="0 0 80 80" enable-background="new 0 0 80 80" xml:space="preserve">
<path d="M79.848946,67.645607c0,0.551758-0.181641,1.107422-0.555664,1.569824
	c-0.868164,1.074219-2.441895,1.240723-3.515625,0.373047L39.873363,40.568455L3.929027,69.890724
	c-1.069824,0.873047-2.644531,0.713379-3.51709-0.356934c-0.874023-1.068359-0.713867-2.644531,0.356934-3.51709l37.51709-30.605473
	c0.916504-0.748047,2.231445-0.750977,3.151367-0.007324l37.482906,30.295902
	C79.531563,66.193947,79.848946,66.916603,79.848946,67.645607z M78.920235,40.397556L41.437328,10.101171
	c-0.919922-0.743652-2.234863-0.740723-3.151367,0.007324L0.76887,40.713963c-1.070801,0.873047-1.230957,2.447754-0.356934,3.51709
	c0.872559,1.070313,2.447266,1.22998,3.51709,0.356934l35.944336-29.322266l35.904293,29.020508
	c1.07373,0.867676,2.647461,0.701172,3.515625-0.373047c0.374023-0.462402,0.555664-1.018066,0.555664-1.569824
	C79.848946,41.614353,79.531563,40.891697,78.920235,40.397556z"/>
</svg>
