<?xml version="1.0" encoding="utf-8"?>
<!-- Generator: Adobe Illustrator 21.0.0, SVG Export Plug-In . SVG Version: 6.00 Build 0)  -->
<svg version="1.1" id="圖層_1" xmlns="http://www.w3.org/2000/svg" xmlns:xlink="http://www.w3.org/1999/xlink" x="0px" y="0px"
	 viewBox="0 0 80 80" enable-background="new 0 0 80 80" xml:space="preserve">
<path d="M69.735291,21.404236c-0.023743-0.048523-0.048767-0.094666-0.075745-0.141785
	c-0.109131-0.19043-0.234131-0.372192-0.391968-0.530029l-20-20c-0.157104-0.157104-0.337891-0.281677-0.527283-0.390503
	c-0.048523-0.027893-0.096252-0.053711-0.146362-0.078186c-0.192871-0.09436-0.393005-0.172974-0.604431-0.215271
	c-0.000793-0.000183-0.001648-0.000122-0.002441-0.000244C47.827759,0.016541,47.664795,0,47.5,0h-35
	C11.119141,0,10,1.119141,10,2.5v75c0,1.380859,1.119141,2.5,2.5,2.5h55c1.380859,0,2.5-1.119141,2.5-2.5v-55
	C70,22.114868,69.901733,21.743591,69.735291,21.404236z M61.464844,20H50V8.535156L61.464844,20z M15,75V5h30v10H27.5
	c-1.380859,0-2.5,1.119141-2.5,2.5s1.119141,2.5,2.5,2.5H45v2.5c0,1.380859,1.119141,2.5,2.5,2.5H65v50H15z M55,32.5
	c0,1.380859-1.119141,2.5-2.5,2.5h-25c-1.380859,0-2.5-1.119141-2.5-2.5s1.119141-2.5,2.5-2.5h25C53.880859,30,55,31.119141,55,32.5
	z M55,47.5c0,1.380859-1.119141,2.5-2.5,2.5h-25c-1.380859,0-2.5-1.119141-2.5-2.5s1.119141-2.5,2.5-2.5h25
	C53.880859,45,55,46.119141,55,47.5z M55,62.5c0,1.380859-1.119141,2.5-2.5,2.5h-25c-1.380859,0-2.5-1.119141-2.5-2.5
	s1.119141-2.5,2.5-2.5h25C53.880859,60,55,61.119141,55,62.5z"/>
</svg>
