<?xml version="1.0" encoding="utf-8"?>
<!-- Generator: Adobe Illustrator 21.0.0, SVG Export Plug-In . SVG Version: 6.00 Build 0)  -->
<svg version="1.1" id="圖層_1" xmlns="http://www.w3.org/2000/svg" xmlns:xlink="http://www.w3.org/1999/xlink" x="0px" y="0px"
	 viewBox="0 0 80 80" enable-background="new 0 0 80 80" xml:space="preserve">
<path d="M74.267578,60.732422l-12.5-12.5c-0.976563-0.976563-2.558594-0.976563-3.535156,0l-5.952148,5.952148
	c-10.34082-8.021484-19.234375-16.902344-26.483398-26.446289l5.970703-5.970703c0.976563-0.976563,0.976563-2.558594,0-3.535156
	l-12.5-12.5c-0.976563-0.976563-2.558594-0.976563-3.535156,0l-10,10c-0.628906,0.628906-0.876953,1.544922-0.649414,2.404297
	c1.625977,6.172852,4.248047,12.370117,7.792969,18.419922c3.634766,6.202148,8.125977,11.994141,13.348633,17.216797
	c5.238281,5.239258,11.027344,9.733398,17.207031,13.356445c0,0,0,0.000977,0.000977,0.000977
	c6.023438,3.530273,12.224609,6.150391,18.429688,7.786133C62.073242,74.972656,62.287109,75,62.5,75
	c0.654297,0,1.292969-0.257813,1.767578-0.732422l10-10C75.244141,63.291016,75.244141,61.708984,74.267578,60.732422z
	 M61.761719,69.702148c-5.308472-1.53418-10.617004-3.847534-15.801453-6.885559l0.000671-0.00116
	c-5.8125-3.40625-11.262695-7.638672-16.201172-12.577148c-4.920898-4.921875-9.150391-10.375-12.569336-16.208984
	c-3.049805-5.206055-5.365234-10.510742-6.892578-15.791016L17.5,11.035156L26.464844,20l-5.732422,5.732422
	c-0.87207,0.87207-0.978516,2.25-0.249023,3.245117c8.150391,11.120117,18.415039,21.387695,30.510742,30.517578
	c0.995117,0.75293,2.392578,0.654297,3.273438-0.227539L60,53.535156L68.964844,62.5L61.761719,69.702148z"/>
</svg>
