<?xml version="1.0" encoding="utf-8"?>
<!-- Generator: Adobe Illustrator 21.0.0, SVG Export Plug-In . SVG Version: 6.00 Build 0)  -->
<svg version="1.1" id="圖層_1" xmlns="http://www.w3.org/2000/svg" xmlns:xlink="http://www.w3.org/1999/xlink" x="0px" y="0px"
	 viewBox="0 0 80 80" enable-background="new 0 0 80 80" xml:space="preserve">
<path d="M75,40c0,19.298828-15.701172,35-35,35S5,59.299316,5,40.000488h5C10,56.54248,23.458008,70,40,70s30-13.458008,30-30
	S56.541992,10,40,10c-9.682007,0-18.592712,4.611694-24.195312,12.269531l3.462891,3.462891
	c0.715332,0.714844,0.929199,1.790039,0.541992,2.724121C19.422852,29.391113,18.51123,30,17.5,30h-10
	C6.119141,30,5,28.880859,5,27.5v-10c0-1.01123,0.608887-1.922852,1.543457-2.30957
	c0.932617-0.388184,2.008789-0.173828,2.724121,0.541992l2.971558,2.971558C18.796448,10.139099,28.965637,5,40,5
	C59.298828,5,75,20.701172,75,40z M37.5,17.5c-1.380859,0-2.5,1.119141-2.5,2.5v20c0,0.032776,0.008423,0.063171,0.009644,0.095642
	c0.003296,0.0896,0.013855,0.177795,0.026917,0.266907c0.01123,0.076416,0.022522,0.151917,0.040466,0.225952
	c0.019287,0.079834,0.045715,0.157288,0.07312,0.235474c0.027527,0.078491,0.055481,0.155701,0.090393,0.230347
	c0.031982,0.06842,0.069946,0.133972,0.108582,0.200134c0.045898,0.078552,0.093323,0.154846,0.147278,0.2276
	c0.019043,0.025696,0.031311,0.05426,0.051453,0.079468l10,12.5C46.041504,54.679199,46.768066,55,47.501465,55
	c0.547852,0,1.099609-0.179199,1.560059-0.547852c1.078125-0.862305,1.253418-2.435547,0.390625-3.513672L40,39.123291V20
	C40,18.619141,38.880859,17.5,37.5,17.5z"/>
</svg>
