<?xml version="1.0" encoding="utf-8"?>
<!-- Generator: Adobe Illustrator 21.0.0, SVG Export Plug-In . SVG Version: 6.00 Build 0)  -->
<svg version="1.1" id="圖層_1" xmlns="http://www.w3.org/2000/svg" xmlns:xlink="http://www.w3.org/1999/xlink" x="0px" y="0px"
	 viewBox="0 0 80 80" enable-background="new 0 0 80 80" xml:space="preserve">
<path d="M56.767578,26.767578L43.535156,40l13.232422,13.232422l-3.535156,3.535156L40,43.535156L26.767578,56.767578
	l-3.535156-3.535156L36.464844,40L23.232422,26.767578l3.535156-3.535156L40,36.464844l13.232422-13.232422L56.767578,26.767578z
	 M75,40c0,19.298828-15.701172,35-35,35S5,59.298828,5,40S20.701172,5,40,5S75,20.701172,75,40z M70,40
	c0-16.541992-13.458008-30-30-30S10,23.458008,10,40s13.458008,30,30,30S70,56.541992,70,40z"/>
</svg>
