<?xml version="1.0" encoding="utf-8"?>
<!-- Generator: Adobe Illustrator 21.0.0, SVG Export Plug-In . SVG Version: 6.00 Build 0)  -->
<svg version="1.1" id="圖層_1" xmlns="http://www.w3.org/2000/svg" xmlns:xlink="http://www.w3.org/1999/xlink" x="0px" y="0px"
	 viewBox="0 0 80 80" enable-background="new 0 0 80 80" xml:space="preserve">
<path d="M49,75H31V63.326172c-0.380859-0.146973-0.757813-0.302734-1.130371-0.467773l-8.254395,8.254395L8.887207,58.384766
	l8.254395-8.254395C16.976563,49.757813,16.820801,49.380859,16.673828,49H5V31h11.673828
	c0.146973-0.380859,0.302734-0.757813,0.467773-1.130371l-8.254395-8.254395L21.615234,8.887207l8.254883,8.254395
	c0.37207-0.165039,0.749023-0.320801,1.129883-0.467773V5h18v11.673828c0.380859,0.146973,0.757813,0.302734,1.129883,0.467773
	l8.254883-8.254395l12.728027,12.728027l-8.254395,8.254395C63.023438,30.242188,63.179199,30.619141,63.326172,31H75v18H63.326172
	c-0.146973,0.380859-0.302734,0.757813-0.467773,1.130371l8.254395,8.254395L58.384766,71.112793l-8.254395-8.254395
	C49.757813,63.023438,49.380859,63.179199,49,63.326172V75z M36,70h8V59.68457l1.778809-0.535645
	c1.274414-0.384277,2.510742-0.895996,3.673828-1.521484l1.637207-0.880371l7.294922,7.294434l5.656738-5.656738l-7.294434-7.294922
	l0.880371-1.637207c0.625488-1.163086,1.137207-2.399414,1.521484-3.673828L59.68457,44H70v-8H59.68457l-0.535645-1.778809
	c-0.384277-1.274414-0.895996-2.510742-1.521484-3.673828l-0.880371-1.637207l7.294434-7.294922l-5.656738-5.656738
	l-7.294434,7.293945l-1.637207-0.879883c-1.163574-0.625488-2.400391-1.137207-3.674316-1.521484L44,20.31543V10h-8v10.31543
	l-1.778809,0.535645c-1.273926,0.384277-2.510742,0.895996-3.674316,1.521484l-1.637207,0.879883l-7.294434-7.293945
	l-5.656738,5.656738l7.294434,7.294922l-0.880371,1.637207c-0.625488,1.163086-1.137207,2.399414-1.521484,3.673828L20.31543,36H10
	v8h10.31543l0.535645,1.778809c0.384277,1.274414,0.895996,2.510742,1.521484,3.673828l0.880371,1.637207l-7.294434,7.294922
	l5.656738,5.656738l7.294922-7.294434l1.637207,0.880371c1.163086,0.625488,2.399414,1.137207,3.673828,1.521484L36,59.68457V70z
	 M40,52.5c-6.892578,0-12.5-5.607422-12.5-12.5S33.107422,27.5,40,27.5S52.5,33.107422,52.5,40S46.892578,52.5,40,52.5z M40,32.5
	c-4.135742,0-7.5,3.364258-7.5,7.5s3.364258,7.5,7.5,7.5s7.5-3.364258,7.5-7.5S44.135742,32.5,40,32.5z"/>
</svg>
