<?xml version="1.0" encoding="utf-8"?>
<!-- Generator: Adobe Illustrator 21.0.0, SVG Export Plug-In . SVG Version: 6.00 Build 0)  -->
<svg version="1.1" id="圖層_1" xmlns="http://www.w3.org/2000/svg" xmlns:xlink="http://www.w3.org/1999/xlink" x="0px" y="0px"
	 viewBox="0 0 80 80" enable-background="new 0 0 80 80" xml:space="preserve">
<path d="M75,40c0,19.298828-15.701172,35-35,35c-7.902588,0-15.447021-2.647461-21.54541-7.419434l-4.187012,4.187012
	C13.789551,72.246094,13.149902,72.5,12.499512,72.5c-0.322266,0-0.646973-0.0625-0.956055-0.19043
	C10.608887,71.922852,10,71.010742,10,70V57.5c0-1.380859,1.119141-2.5,2.5-2.5H25c1.01123,0,1.922852,0.609375,2.30957,1.542969
	c0.387207,0.93457,0.17334,2.009766-0.541992,2.724609l-4.743958,4.743958C27.163025,67.86554,33.436401,70,40,70
	c16.541992,0,30-13.458008,30-30c0-1.380859,1.119141-2.5,2.5-2.5S75,38.619141,75,40z M40,10
	c5.951538,0,11.663086,1.757324,16.508545,4.956299l-5.776123,5.776123c-0.715332,0.714844-0.929199,1.790039-0.541992,2.724609
	C50.577148,24.390625,51.48877,25,52.5,25h15c1.380859,0,2.5-1.119141,2.5-2.5v-15c0-1.010742-0.608887-1.922852-1.543457-2.30957
	c-0.932617-0.386719-2.009766-0.173828-2.724121,0.541992l-5.623535,5.623535C54.280762,7.257629,47.293945,5,40,5
	C20.701172,5,5,20.701172,5,40c0,1.380859,1.119141,2.5,2.5,2.5S10,41.380859,10,40C10,23.458008,23.458008,10,40,10z"/>
</svg>
