<?xml version="1.0" encoding="utf-8"?>
<!-- Generator: Adobe Illustrator 21.0.0, SVG Export Plug-In . SVG Version: 6.00 Build 0)  -->
<svg version="1.1" id="圖層_1" xmlns="http://www.w3.org/2000/svg" xmlns:xlink="http://www.w3.org/1999/xlink" x="0px" y="0px"
	 viewBox="0 0 80 80" enable-background="new 0 0 80 80" xml:space="preserve">
<path d="M40,5C20.701172,5,5,20.701172,5,40s15.701172,35,35,35s35-15.701172,35-35S59.298828,5,40,5z M30,68.279846V62.5
	c0-3.279297,1.53418-5.09668,2.549805-6.298828c0.270996-0.321289,0.491699-0.591309,0.641602-0.808105l2.131836-3.07373
	l-3.655273-0.793457C24.25293,49.915527,20,46.051758,20,40.925781c0-2.848145,0.687988-5.271484,2.04541-7.202637L22.5,33.076172
	v-7.64502c2.820801,0.496094,5.166504,1.74707,6.992676,2.868652l0.875488,0.537598l1.000977-0.233398
	C33.90625,28.011719,36.810059,27.711426,40,27.711426s6.09375,0.300293,8.631348,0.892578l1.000977,0.233398l0.875977-0.537598
	c1.825684-1.121582,4.17041-2.372559,6.991699-2.868652v7.64502l0.45459,0.646973C59.312012,35.654297,60,38.077637,60,40.925781
	c0,5.125977-4.25293,8.989746-11.667969,10.600098l-3.655273,0.793457l2.131836,3.07373
	c0.149902,0.216797,0.370605,0.486816,0.641602,0.808105C48.46582,57.40332,50,59.220703,50,62.5v5.779846
	C46.870117,69.389954,43.505615,70,40,70S33.129883,69.389954,30,68.279846z M55,65.963989V62.5
	c0-3.121582-0.940918-5.449707-1.94873-7.115234C60.603516,52.730957,65,47.500977,65,40.925781
	c0-3.583496-0.840332-6.73877-2.5-9.392578V20.211426H60c-5.0625,0-9.123047,2.062988-11.241211,3.304199
	C46.105957,22.981934,43.165039,22.711426,40,22.711426s-6.105957,0.270508-8.758789,0.804199
	C29.123047,22.274902,25.062012,20.211426,20,20.211426h-2.5v11.321777c-1.659668,2.653809-2.5,5.809082-2.5,9.392578
	c0,6.575195,4.396484,11.805176,11.94873,14.458984C25.940918,57.050293,25,59.378418,25,62.5v3.463989
	C16.042175,60.768555,10,51.079651,10,40c0-16.541992,13.458008-30,30-30s30,13.458008,30,30
	C70,51.079651,63.957825,60.768555,55,65.963989z"/>
</svg>
