<?xml version="1.0" encoding="utf-8"?>
<!-- Generator: Adobe Illustrator 21.0.0, SVG Export Plug-In . SVG Version: 6.00 Build 0)  -->
<svg version="1.1" id="圖層_1" xmlns="http://www.w3.org/2000/svg" xmlns:xlink="http://www.w3.org/1999/xlink" x="0px" y="0px"
	 viewBox="0 0 80 80" enable-background="new 0 0 80 80" xml:space="preserve">
<path d="M72.5,20H65V7.5C65,3.364258,61.635742,0,57.5,0h-35C18.364258,0,15,3.364258,15,7.5V20H7.5C3.364258,20,0,23.364258,0,27.5
	v25C0,56.635742,3.364258,60,7.5,60H15v12.696289C15,76.723633,18.276367,80,22.303711,80h35.392578
	C61.723633,80,65,76.723633,65,72.696289V60h7.5c4.135742,0,7.5-3.364258,7.5-7.5v-25C80,23.364258,76.635742,20,72.5,20z M20,7.5
	C20,6.121094,21.121582,5,22.5,5h35C58.878418,5,60,6.121094,60,7.5V20H20V7.5z M57.696289,75H22.303711
	C21.033203,75,20,73.966797,20,72.696289V50h40v7.495178c0,0.001648-0.000488,0.003174-0.000488,0.004822S60,57.503174,60,57.504822
	v15.191467C60,73.966797,58.966797,75,57.696289,75z M75,52.5c0,1.378906-1.121582,2.5-2.5,2.5H65v-7.5
	c0-1.380859-1.119141-2.5-2.5-2.5h-45c-1.380859,0-2.5,1.119141-2.5,2.5V55H7.5C6.121582,55,5,53.878906,5,52.5v-25
	C5,26.121094,6.121582,25,7.5,25h10h45h10c1.378418,0,2.5,1.121094,2.5,2.5V52.5z M55,57.5c0,1.380859-1.119141,2.5-2.5,2.5h-25
	c-1.380859,0-2.5-1.119141-2.5-2.5s1.119141-2.5,2.5-2.5h25C53.880859,55,55,56.119141,55,57.5z M65,32.5
	c0,1.380859-1.119141,2.5-2.5,2.5h-10c-1.380859,0-2.5-1.119141-2.5-2.5s1.119141-2.5,2.5-2.5h10C63.880859,30,65,31.119141,65,32.5
	z M40,67.5c0,1.380859-1.119141,2.5-2.5,2.5h-10c-1.380859,0-2.5-1.119141-2.5-2.5s1.119141-2.5,2.5-2.5h10
	C38.880859,65,40,66.119141,40,67.5z"/>
</svg>
