<?xml version="1.0" encoding="utf-8"?>
<!-- Generator: Adobe Illustrator 21.0.0, SVG Export Plug-In . SVG Version: 6.00 Build 0)  -->
<svg version="1.1" id="圖層_1" xmlns="http://www.w3.org/2000/svg" xmlns:xlink="http://www.w3.org/1999/xlink" x="0px" y="0px"
	 viewBox="0 0 80 80" enable-background="new 0 0 80 80" xml:space="preserve">
<path d="M35.613281,23.112793L49.319336,9.40625c5.865234-5.864746,15.40918-5.866699,21.274414,0
	c5.865234,5.865234,5.865234,15.40918,0,21.274414L52.854492,48.419922l-3.535156-3.535156l17.739258-17.739258
	c3.916016-3.916016,3.916016-10.288086,0-14.204102c-3.915039-3.915039-10.287109-3.916992-14.204102,0L39.148438,26.647949
	L35.613281,23.112793z M40.851563,53.352051L27.145508,67.058594c-3.916992,3.916504-10.289063,3.915527-14.204102,0
	c-3.916016-3.916016-3.916016-10.288086,0-14.204102l17.739258-17.739258l-3.535156-3.535156L9.40625,49.319336
	c-5.865234,5.865234-5.865234,15.40918,0,21.274414c2.932617,2.933105,6.785156,4.399414,10.636719,4.399414
	c3.852539,0,7.705078-1.466309,10.637695-4.399414l13.706055-13.706543L40.851563,53.352051z M27.625,24.090332l-7.070313-7.071289
	l-3.535156,3.535156l7.070313,7.071289L27.625,24.090332z M20.254883,31.334473l-9.65918-2.588379l-1.294922,4.830078
	l9.65918,2.588379L20.254883,31.334473z M36.164063,18.960449l-2.587891-9.659668l-4.830078,1.293945l2.587891,9.659668
	L36.164063,18.960449z M52.375,55.909668l7.070313,7.071289l3.535156-3.535156l-7.070313-7.071289L52.375,55.909668z
	 M43.835938,61.039551l2.587891,9.659668l4.830078-1.293945l-2.587891-9.659668L43.835938,61.039551z M59.745117,48.665527
	l9.65918,2.588379l1.294922-4.830078l-9.65918-2.588379L59.745117,48.665527z"/>
</svg>
