<?xml version="1.0" encoding="utf-8"?>
<!-- Generator: Adobe Illustrator 21.0.0, SVG Export Plug-In . SVG Version: 6.00 Build 0)  -->
<svg version="1.1" id="圖層_1" xmlns="http://www.w3.org/2000/svg" xmlns:xlink="http://www.w3.org/1999/xlink" x="0px" y="0px"
	 viewBox="0 0 80 80" enable-background="new 0 0 80 80" xml:space="preserve">
<path d="M67.5,5c-9.53125,0-26.641602-4.85498-26.813477-4.903809c-0.449219-0.12793-0.925781-0.12793-1.373047,0
	C39.141602,0.14502,22.039062,5,12.5,5C11.119141,5,10,6.119141,10,7.5v37.280273
	c0,17.270996,12.333008,32.048828,29.324219,35.137695l0.227539,0.041504C39.700195,79.986328,39.849609,80,40,80
	s0.299805-0.013672,0.448242-0.040527l0.227539-0.041504h-0.000977C57.666992,76.829102,70,62.05127,70,44.780273V7.5
	C70,6.119141,68.880859,5,67.5,5z M65,44.780273c0,14.778809-10.5,27.43457-25,30.177734c-14.5-2.743164-25-15.398926-25-30.177734
	V9.916016c9.194336-0.577148,21.886719-3.958984,25-4.819824c3.113281,0.86084,15.805664,4.242676,25,4.819824V44.780273z M35,20h5
	v30h-5V20z M35,55h5v5h-5V55z"/>
</svg>
