<?xml version="1.0" encoding="utf-8"?>
<!-- Generator: Adobe Illustrator 21.0.0, SVG Export Plug-In . SVG Version: 6.00 Build 0)  -->
<svg version="1.1" id="圖層_1" xmlns="http://www.w3.org/2000/svg" xmlns:xlink="http://www.w3.org/1999/xlink" x="0px" y="0px"
	 viewBox="0 0 80 80" enable-background="new 0 0 80 80" xml:space="preserve">
<path d="M72.5,5H45c-2.987549,0-5.665955,1.323853-7.5,3.407837C35.665955,6.323853,32.987549,5,30,5H7.5
	C6.119141,5,5,6.119141,5,7.5v60C5,68.880859,6.119141,70,7.5,70H30c4.562481,0,4.980469,3.834473,5,5.015625v0.000488
	c0,0.001465,0,0.001953,0,0.003906s0,0.003418,0,0.003906c0,0.001465,0,0.002441,0,0.003418v0.000977
	c0.001099,0.097778,0.019836,0.190552,0.03186,0.285339c0.008789,0.069031,0.008911,0.140625,0.023132,0.207764
	c0.01947,0.091614,0.05426,0.176758,0.083496,0.264404c0.022278,0.066895,0.036926,0.137146,0.064575,0.201416
	c0.033264,0.077148,0.079529,0.146301,0.120117,0.219238c0.037415,0.067322,0.068298,0.138672,0.111572,0.202026
	c0.041626,0.060913,0.094116,0.112793,0.140869,0.169678c0.054382,0.066284,0.103821,0.13678,0.164612,0.197144
	c0.045593,0.045166,0.099915,0.080566,0.148804,0.122131c0.072388,0.061523,0.141296,0.127136,0.220459,0.180237
	c0.052612,0.035278,0.112427,0.059387,0.167786,0.090637c0.083984,0.047485,0.1651,0.099548,0.254822,0.137268
	c0.07666,0.032166,0.160034,0.049683,0.240356,0.07428c0.075684,0.023132,0.147888,0.053833,0.22644,0.069824
	C37.160767,77.482666,37.328369,77.5,37.5,77.5c0.172302,0,0.340576-0.017517,0.503052-0.05072
	c0.047302-0.009644,0.090027-0.029846,0.136292-0.042114c0.112854-0.029907,0.226501-0.058411,0.332458-0.10321
	c0.049744-0.020996,0.093384-0.052368,0.141418-0.076416c0.09613-0.048157,0.193848-0.093628,0.28241-0.15332
	c0.055847-0.037659,0.103027-0.085754,0.155579-0.127686c0.072266-0.057739,0.148254-0.111023,0.213684-0.17627
	c0.05365-0.053528,0.096436-0.116638,0.145081-0.174805c0.053772-0.064331,0.112793-0.124207,0.159973-0.193848
	c0.043701-0.064392,0.07489-0.136841,0.112549-0.205383c0.039856-0.07251,0.085571-0.141235,0.118225-0.217834
	c0.03125-0.073486,0.048462-0.15332,0.072693-0.230164c0.024963-0.079163,0.056641-0.155212,0.07373-0.237549
	c0.015747-0.075867,0.016357-0.156433,0.025024-0.234619C39.981873,75.18927,39.999451,75.104858,40,75.015625
	C40.019531,73.834473,40.437481,70,45,70h27.5c1.380859,0,2.5-1.119141,2.5-2.5v-60C75,6.119141,73.880859,5,72.5,5z M30,65H10V10
	h20c2.756836,0,5,2.243164,5,5v51.172852C33.65332,65.444336,32.000977,65,30,65z M70,65H45
	c-2.000977,0-3.65332,0.444336-5,1.172852V15c0-2.756836,2.243164-5,5-5h25V65z"/>
</svg>
