<?xml version="1.0" encoding="utf-8"?>
<!-- Generator: Adobe Illustrator 21.0.0, SVG Export Plug-In . SVG Version: 6.00 Build 0)  -->
<svg version="1.1" id="圖層_1" xmlns="http://www.w3.org/2000/svg" xmlns:xlink="http://www.w3.org/1999/xlink" x="0px" y="0px"
	 viewBox="0 0 80 80" enable-background="new 0 0 80 80" xml:space="preserve">
<path fill="#040000" d="M40,5C20.171555,5,4.111411,21.069139,4.111411,40.888641
	c0,15.859791,10.282081,29.309059,24.538822,34.049347c1.79443,0.337952,2.452385-0.771606,2.452385-1.725647
	c0-0.852356-0.029907-3.110352-0.044861-6.101067c-9.983011,2.165276-12.088472-4.815063-12.088472-4.815063
	c-1.632931-4.142143-3.992605-5.248707-3.992605-5.248707c-3.250907-2.225094,0.251221-2.180237,0.251221-2.180237
	c3.603813,0.251221,5.496937,3.696533,5.496937,3.696533c3.200066,5.487965,8.400921,3.902889,10.452551,2.984734
	c0.322996-2.320793,1.247129-3.902889,2.272943-4.800102c-7.970257-0.897213-16.347252-3.983643-16.347252-17.73497
	c0-3.917843,1.390684-7.117916,3.693535-9.630121c-0.403748-0.906189-1.614986-4.554867,0.314026-9.498528
	c0,0,3.005669-0.963013,9.86936,3.678585c2.871088-0.798523,5.921618-1.193296,8.972147-1.211241
	c3.050529,0.017944,6.101059,0.412718,8.972149,1.211241c6.818829-4.641598,9.824501-3.678585,9.824501-3.678585
	c1.929016,4.943661,0.717773,8.592339,0.358891,9.498528c2.287895,2.512205,3.678577,5.712275,3.678577,9.630121
	c0,13.78722-8.388958,16.8228-16.374168,17.705063c1.2561,1.07666,2.422482,3.277828,2.422482,6.639397
	c0,4.803097-0.044861,8.661121-0.044861,9.827503c0,0.942078,0.628048,2.063599,2.467339,1.704712
	c14.358421-4.707397,24.631531-18.165634,24.631531-34.001495C75.888588,21.069139,59.819469,5,40,5"/>
</svg>
