<!--Generator: Adobe Illustrator 21.0.0, SVG Export Plug-In . SVG Version: 6.00 Build 0)--><svg version="1.1" id="Layer_1" x="0px" y="0px" viewBox="0 0 800 800" enable-background="new 0 0 800 800" xml:space="preserve"><path fill="#010101" d="M650,50H150C94.859375,50,50,94.859375,50,150v500c0,55.140625,44.859375,100,100,100h500
	c55.140625,0,100-44.859375,100-100V150C750,94.859375,705.140625,50,650,50z M700,650c0,27.570312-22.429688,50-50,50H500V450h75
	c13.806641,0,25-11.193359,25-25s-11.193359-25-25-25h-75v-99.069336c0-24.480469,4.06543-40.770508,11.448242-45.869141
	C518.775391,250,534.394531,250,550.930664,250H625c13.806641,0,25-11.193359,25-25s-11.193359-25-25-25h-74.069336
	c-23.472656,0-47.745117,0-67.899414,13.921875C453.423828,234.37207,450,273.373047,450,300.930664V400h-75
	c-13.806641,0-25,11.193359-25,25s11.193359,25,25,25h75v250H150c-27.570312,0-50-22.429688-50-50V150
	c0-27.570312,22.429688-50,50-50h500c27.570312,0,50,22.429688,50,50V650z"/></svg>