<!--Generator: Adobe Illustrator 26.3.1, SVG Export Plug-In . SVG Version: 6.00 Build 0)--><svg version="1.1" id="Layer_1" x="0px" y="0px" viewBox="0 0 800 800" enable-background="new 0 0 800 800" xml:space="preserve"><path fill="#010101" d="M325,50H75c-13.806641,0-25,11.193359-25,25v250c0,13.806641,11.193359,25,25,25h250
	c13.806641,0,25-11.193359,25-25V75C350,61.193359,338.806641,50,325,50z M300,300H100V100h200V300z M150,225v-50
	c0-13.807617,11.192383-25,25-25h50c13.807617,0,25,11.192383,25,25v50c0,13.807617-11.192383,25-25,25h-50
	C161.192383,250,150,238.807617,150,225z M150,625v-50c0-13.807617,11.192383-25,25-25h50c13.807617,0,25,11.192383,25,25v50
	c0,13.807617-11.192383,25-25,25h-50C161.192383,650,150,638.807617,150,625z M550,225v-50c0-13.807617,11.192383-25,25-25h50
	c13.807617,0,25,11.192383,25,25v50c0,13.807617-11.192383,25-25,25h-50C561.192383,250,550,238.807617,550,225z M325,450H75
	c-13.806641,0-25,11.193359-25,25v250c0,13.806641,11.193359,25,25,25h250c13.806641,0,25-11.193359,25-25V475
	C350,461.193359,338.806641,450,325,450z M300,700H100V500h200V700z M750,475v250c0,13.806641-11.193359,25-25,25H575
	c-13.806641,0-25-11.193359-25-25s11.193359-25,25-25h125V550h-75c-13.807617,0-25-11.192383-25-25v-50
	c0-13.807617,11.192383-25,25-25s25,11.192383,25,25v25h50v-25c0-13.806641,11.193359-25,25-25S750,461.193359,750,475z M725,50H475
	c-13.806641,0-25,11.193359-25,25v250c0,13.806641,11.193359,25,25,25h250c13.806641,0,25-11.193359,25-25V75
	C750,61.193359,738.806641,50,725,50z M700,300H500V100h200V300z M625,650H500v75c0,13.806641-11.193359,25-25,25
	s-25-11.193359-25-25V625c0-13.806641,11.193359-25,25-25h25V500h-25c-13.806641,0-25-11.193359-25-25s11.193359-25,25-25h50
	c13.806641,0,25,11.193359,25,25v125h75c13.806641,0,25,11.193359,25,25S638.806641,650,625,650z"/></svg>