<!--Generator: Adobe Illustrator 21.0.0, SVG Export Plug-In . SVG Version: 6.00 Build 0)--><svg version="1.1" id="Layer_1" x="0px" y="0px" viewBox="0 0 800 800" enable-background="new 0 0 800 800" xml:space="preserve"><path fill="#010101" d="M593.582031,283.275879c9.236328,10.262695,8.405273,26.069824-1.858398,35.306641l-250,225
	C336.958984,547.871094,330.975586,550,325.003906,550c-6.413086,0-12.813477-2.453613-17.681641-7.322266l-100-100
	c-9.762695-9.763184-9.762695-25.592285,0-35.355469c9.763672-9.762695,25.591797-9.762695,35.355469,0l83.228516,83.228516
	L558.276367,281.41748C568.538086,272.182129,584.344727,273.012207,593.582031,283.275879z M750,400
	c0,47.23877-9.257812,93.077637-27.514648,136.243652c-17.629883,41.680664-42.862305,79.108398-74.998047,111.243652
	s-69.563477,57.368164-111.244141,74.997559C493.077148,740.742676,447.238281,750,400,750
	s-93.077148-9.257324-136.243164-27.515137c-41.680664-17.629395-79.108398-42.862305-111.244141-74.997559
	s-57.368164-69.562988-74.998047-111.243652C59.257812,493.077637,50,447.23877,50,400s9.257812-93.077637,27.514648-136.243652
	c17.629883-41.680664,42.862305-79.108398,74.998047-111.243652s69.563477-57.368164,111.244141-74.997559
	C306.922852,59.257324,352.761719,50,400,50s93.077148,9.257324,136.243164,27.515137
	c41.680664,17.629395,79.108398,42.862305,111.244141,74.997559s57.368164,69.562988,74.998047,111.243652
	C740.742188,306.922363,750,352.76123,750,400z M700,400c0-165.42041-134.579102-300-300-300S100,234.57959,100,400
	s134.579102,300,300,300S700,565.42041,700,400z"/></svg>