<!--Generator: Adobe Illustrator 21.0.0, SVG Export Plug-In . SVG Version: 6.00 Build 0)--><svg version="1.1" id="Layer_1" x="0px" y="0px" viewBox="0 0 800 800" enable-background="new 0 0 800 800" xml:space="preserve"><path fill="#010101" d="M600.058594,76.444092c-63.466797-56.816406-148.75-84.052734-234.189453-74.550781
	C225.683594,17.401123,114.433594,130.71167,101.337891,271.317139c-8.613281,92.460938,24.824219,182.060547,91.728516,245.810547
	C229.785156,552.088623,250,597.557373,250,645.135498v79.863281c0,41.357422,33.642578,75,75,75h150
	c41.357422,0,75-33.642578,75-75V649.77417c0-50.058594,20.488281-98.164062,56.210938-131.972656
	C666.689453,460.55542,700,383.201904,700,299.998779C700,214.803467,663.574219,133.319092,600.058594,76.444092z M500,724.998779
	c0,13.789062-11.210938,25-25,25H325c-13.789062,0-25-11.210938-25-25v-79.863281
	c0-15.291748-1.600342-30.392456-4.719849-45.136719h210.142822C501.882935,616.23291,500,632.912598,500,649.77417V724.998779z
	 M450,549.998779H350V371.707764l36.132812,24.091797c8.398438,5.605469,19.335938,5.605469,27.734375,0L450,371.707764V549.998779z
	 M571.835938,481.49292c-20.699463,19.588013-37.345581,42.928467-49.414062,68.505859H500v-225
	c0-9.21875-5.078125-17.695312-13.203125-22.041016c-8.144531-4.365234-17.998047-3.886719-25.664062,1.240234L400,344.949951
	l-61.132812-40.751953c-7.666016-5.117188-17.539062-5.605469-25.664062-1.240234
	C305.078125,307.303467,300,315.780029,300,324.998779v225h-21.863403c-12.143555-25.240479-29.11499-48.62793-50.578003-69.072266
	c-55.761719-53.134766-83.613281-127.841797-76.435547-204.980469C162.03125,158.865967,254.658203,64.500732,371.376953,51.580811
	c9.707031-1.074219,19.365234-1.601562,28.935547-1.601562c61.708984,0,119.941406,22.119141,166.396484,63.710938
	C619.638672,161.092529,650,229.002686,650,299.998779C650,369.324951,622.246094,433.787842,571.835938,481.49292z M450,674.998779
	c0,13.808594-11.191406,25-25,25h-50c-13.808594,0-25-11.191406-25-25s11.191406-25,25-25h50
	C438.808594,649.998779,450,661.190186,450,674.998779z"/></svg>