<!--Generator: Adobe Illustrator 21.0.0, SVG Export Plug-In . SVG Version: 6.00 Build 0)--><svg version="1.1" id="Layer_1" x="0px" y="0px" viewBox="0 0 800 800" enable-background="new 0 0 800 800" xml:space="preserve"><path fill="#010101" d="M722.485352,263.756836c-17.629883-41.680664-42.862305-79.108398-74.998047-111.244141
	s-69.563477-57.368164-111.244141-74.998047C493.077148,59.257812,447.238281,50,400,50s-93.077148,9.257812-136.243164,27.514648
	c-41.680664,17.629883-79.108398,42.862305-111.244141,74.998047s-57.368164,69.563477-74.998047,111.244141
	C59.257812,306.922852,50,352.761719,50,400s9.257812,93.077148,27.514648,136.243164
	c17.629883,41.680664,42.862305,79.108398,74.998047,111.244141s69.563477,57.368164,111.244141,74.998047
	C306.922852,740.742188,352.761719,750,400,750s93.077148-9.257812,136.243164-27.514648
	c41.680664-17.629883,79.108398-42.862305,111.244141-74.998047s57.368164-69.563477,74.998047-111.244141
	C740.742188,493.077148,750,447.238281,750,400S740.742188,306.922852,722.485352,263.756836z M400,700
	c-165.420898,0-300-134.579102-300-300s134.579102-300,300-300s300,134.579102,300,300S565.420898,700,400,700z
	 M544.505859,509.363281c8.636719,10.772461,6.904297,26.506836-3.869141,35.142578C495.348633,580.810547,446.717773,600,400,600
	c-46.71582,0-95.34668-19.189453-140.636719-55.493164c-10.772461-8.635742-12.505859-24.370117-3.870117-35.143555
	c8.636719-10.773438,24.371094-12.504883,35.143555-3.870117C315.964844,525.796875,355.499023,550,400,550
	c44.50293,0,84.035156-24.202148,109.363281-44.505859C520.135742,496.857422,535.870117,498.59082,544.505859,509.363281z M250,375
	v-99c0-13.807617,11.192383-25,25-25s25,11.192383,25,25v99c0,13.807617-11.192383,25-25,25S250,388.807617,250,375z M550,276v99
	c0,13.807617-11.192383,25-25,25s-25-11.192383-25-25v-99c0-13.807617,11.192383-25,25-25S550,262.192383,550,276z"/></svg>