<!--Generator: Adobe Illustrator 21.0.0, SVG Export Plug-In . SVG Version: 6.00 Build 0)--><svg version="1.1" id="Layer_1" x="0px" y="0px" viewBox="0 0 800 800" enable-background="new 0 0 800 800" xml:space="preserve"><path fill="#010101" d="M400,750c-47.23877,0-93.077637-9.257812-136.243408-27.514648
	c-41.680664-17.629883-79.108643-42.862305-111.243896-74.998047c-32.135498-32.135742-57.368164-69.563477-74.997803-111.244141
	C59.257324,493.077148,50,447.238281,50,400s9.257324-93.077148,27.514893-136.243164
	c17.629639-41.680664,42.862305-79.108398,74.997803-111.244141c32.135254-32.135742,69.563232-57.368164,111.243896-74.998047
	C306.922363,59.257812,352.76123,50,400,50s93.077637,9.257812,136.243408,27.514648
	c41.680664,17.629883,79.108643,42.862305,111.243896,74.998047c32.135498,32.135742,57.368164,69.563477,74.997803,111.244141
	C740.742676,306.922852,750,352.761719,750,400s-9.257324,93.077148-27.514893,136.243164
	c-17.629639,41.680664-42.862305,79.108398-74.997803,111.244141c-32.135254,32.135742-69.563232,57.368164-111.243896,74.998047
	C493.077637,740.742188,447.23877,750,400,750z M400,100c-80.132812,0-155.469482,31.205078-212.13208,87.868164
	C131.205322,244.530273,100,319.867188,100,400s31.205322,155.469727,87.86792,212.131836
	C244.530518,668.794922,319.867188,700,400,700s155.469482-31.205078,212.13208-87.868164
	C668.794678,555.469727,700,480.132812,700,400s-31.205322-155.469727-87.86792-212.131836
	C555.469482,131.205078,480.132812,100,400,100z M400,600c-110.280273,0-200-89.719727-200-200s89.719727-200,200-200
	c13.807129,0,25,11.193359,25,25v350C425,588.806641,413.807129,600,400,600z M375,252.083008
	C304.147949,264.020508,250,325.805664,250,400s54.147949,135.979492,125,147.916992V252.083008z"/></svg>