<!--Generator: Adobe Illustrator 21.0.0, SVG Export Plug-In . SVG Version: 6.00 Build 0)--><svg version="1.1" id="Layer_1" x="0px" y="0px" viewBox="0 0 800 800" enable-background="new 0 0 800 800" xml:space="preserve"><path fill="#010101" d="M800,675c0,13.807129-11.192871,25-25,25H25c-13.807129,0-25-11.192871-25-25V125
	c0-13.807129,11.192871-25,25-25s25,11.192871,25,25v525h725C788.807129,650,800,661.192871,800,675z M125,550
	c6.397949,0,12.796143-2.440918,17.677734-7.322266L325,360.355469l132.322266,132.322266
	c9.763184,9.762695,25.592285,9.762695,35.355469,0l250-250c9.763184-9.763184,9.763184-25.592285,0-35.355469
	c-9.763184-9.762695-25.592285-9.762695-35.355469,0L475,439.644531L342.677734,307.322266
	c-9.763184-9.762695-25.592285-9.762695-35.355469,0l-200,200c-9.763184,9.763184-9.763184,25.592285,0,35.355469
	C112.203857,547.559082,118.602051,550,125,550z"/></svg>