<!--Generator: Adobe Illustrator 21.0.0, SVG Export Plug-In . SVG Version: 6.00 Build 0)--><svg version="1.1" id="Layer_1" x="0px" y="0px" viewBox="0 0 800 800" enable-background="new 0 0 800 800" xml:space="preserve"><path fill="#010101" d="M750,400c0,47.23877-9.257324,93.077637-27.515137,136.243652
	c-17.629395,41.680664-42.862305,79.108398-74.997559,111.243652s-69.562988,57.368164-111.243652,74.997559
	C493.077637,740.742676,447.23877,750,400,750c-88.573242,0-173.131836-33.35791-238.099121-93.929199
	C97.378418,595.914062,58.029297,514.55127,51.102051,426.971191c-1.088379-13.76416,9.187012-25.804688,22.951172-26.893555
	c13.766602-1.083984,25.805176,9.187012,26.893555,22.951172C113.230469,578.339844,244.590332,700,400,700
	c165.42041,0,300-134.57959,300-300S565.42041,100,400,100c-96.819092,0-186.000977,46.040039-242.025879,122.618652
	l34.703613,34.703613c7.149902,7.149902,9.288574,17.902832,5.419434,27.244629C194.227539,293.908691,185.111328,300,175,300H75
	c-13.807129,0-25-11.192871-25-25V175c0-10.111328,6.091309-19.227539,15.433105-23.097168
	c9.340332-3.868652,20.09375-1.72998,27.244629,5.419434l29.624512,29.624512
	c25.73999-33.510986,57.434814-62.271729,93.647461-84.700195C271.136719,68.066406,334.780273,50,400,50
	c47.23877,0,93.077637,9.257324,136.243652,27.515137c41.680664,17.629395,79.108398,42.862305,111.243652,74.997559
	s57.368164,69.562988,74.997559,111.243652C740.742676,306.922363,750,352.76123,750,400z M375,200c-13.807129,0-25,11.192871-25,25
	v199.994873c0,0.414795,0.010986,0.829346,0.03125,1.243652c0.009277,0.187256,0.026855,0.371826,0.040039,0.557861
	c0.015625,0.219971,0.028564,0.439941,0.050293,0.659668c0.023193,0.23877,0.055176,0.475098,0.085205,0.712158
	c0.020996,0.164307,0.038574,0.329102,0.062744,0.49292c0.038086,0.258789,0.084229,0.514404,0.129883,0.770264
	c0.025635,0.142334,0.04834,0.284912,0.076416,0.427002c0.051514,0.261719,0.110596,0.520752,0.17041,0.779785
	c0.031494,0.136719,0.061035,0.273926,0.094971,0.410645c0.0625,0.251953,0.13208,0.500977,0.202148,0.75
	c0.041016,0.145264,0.080322,0.291016,0.124023,0.435791c0.069824,0.231445,0.145752,0.460205,0.222168,0.688721
	c0.054199,0.162598,0.107178,0.325684,0.164795,0.487305c0.073486,0.206055,0.152344,0.40918,0.231201,0.612305
	c0.070312,0.182617,0.140381,0.365479,0.215332,0.546875c0.073486,0.177002,0.151367,0.351562,0.22876,0.526367
	c0.090088,0.20459,0.18042,0.408691,0.276367,0.611328c0.070557,0.148926,0.145264,0.295166,0.21875,0.442383
	c0.110596,0.22168,0.22168,0.443115,0.339111,0.662109c0.068604,0.12793,0.141113,0.253418,0.211914,0.380127
	c0.128906,0.230713,0.258789,0.460693,0.395752,0.688232c0.068848,0.114258,0.141357,0.226318,0.212158,0.3396
	c0.144775,0.231689,0.290283,0.463135,0.443359,0.691406c0.074219,0.11084,0.152832,0.21875,0.22876,0.328369
	c0.154541,0.222412,0.309082,0.444824,0.471924,0.66333c0.091309,0.122803,0.1875,0.241943,0.28125,0.363037
	c0.15332,0.198486,0.305176,0.397705,0.465332,0.592285c0.128906,0.156982,0.263916,0.308105,0.396484,0.461914
	c0.133545,0.154541,0.263184,0.311035,0.401367,0.463135c0.262451,0.289795,0.531982,0.57251,0.807617,0.849609
	c0.014648,0.014648,0.027832,0.030029,0.04248,0.044678l100,100C462.204102,547.559082,468.602051,550,475,550
	s12.795898-2.440918,17.677734-7.322266c9.763184-9.763184,9.763184-25.592285,0-35.355469L400,414.644531V225
	C400,211.192871,388.807129,200,375,200z"/></svg>