<!--Generator: Adobe Illustrator 21.0.0, SVG Export Plug-In . SVG Version: 6.00 Build 0)--><svg version="1.1" id="Layer_1" x="0px" y="0px" viewBox="0 0 800 800" enable-background="new 0 0 800 800" xml:space="preserve"><path fill="#010101" d="M742.675781,607.322998l-125-125c-9.765625-9.765625-25.585938-9.765625-35.351562,0l-59.521484,59.521484
	c-103.408203-80.214844-192.34375-169.023438-264.833984-264.462891l59.707031-59.707031
	c9.765625-9.765625,9.765625-25.585938,0-35.351562l-125-125c-9.765625-9.765625-25.585938-9.765625-35.351562,0l-100,100
	c-6.289062,6.289062-8.769531,15.449219-6.494141,24.042969c16.259766,61.728516,42.480469,123.701172,77.929688,184.199219
	c36.347656,62.021484,81.259766,119.941406,133.486328,172.167969c52.382812,52.392578,110.273438,97.333984,172.070312,133.564453
	c0,0,0,0.009766,0.009766,0.009766c60.234375,35.302734,122.246094,61.503906,184.296875,77.861328
	c2.109375,0.556641,4.248047,0.830078,6.376953,0.830078c6.542969,0,12.929688-2.578125,17.675781-7.324219l100-100
	C752.441406,632.908936,752.441406,617.088623,742.675781,607.322998z M617.617188,697.020264
	c-53.084717-15.341797-106.170044-38.475342-158.014526-68.855591l0.006714-0.011597
	c-58.125-34.0625-112.626953-76.386719-162.011719-125.771484c-49.208984-49.21875-91.503906-103.75-125.693359-162.089844
	c-30.498047-52.060547-53.652344-105.107422-68.925781-157.910156L175,110.350342l89.648438,89.648438l-57.324219,57.324219
	c-8.720703,8.720703-9.785156,22.5-2.490234,32.451172c81.503906,111.201172,184.150391,213.876953,305.107422,305.175781
	c9.951172,7.529297,23.925781,6.542969,32.734375-2.275391L600,535.350342l89.648438,89.648438L617.617188,697.020264z"/></svg>