<!--Generator: Adobe Illustrator 21.0.0, SVG Export Plug-In . SVG Version: 6.00 Build 0)--><svg version="1.1" id="Layer_1" x="0px" y="0px" viewBox="0 0 800 800" enable-background="new 0 0 800 800" xml:space="preserve"><path fill="#010101" d="M675,50C579.689453,50,408.583984,1.451904,406.866211,0.961426
	c-4.489258-1.281982-9.24707-1.281494-13.734375,0.000488C391.416016,1.452393,220.395508,50,125,50
	c-13.806641,0-25,11.192871-25,25v372.805176c0,172.707275,123.330078,320.48291,293.251953,351.37793l2.276367,0.413818
	C397.006836,799.865723,398.503906,800,400,800s2.993164-0.134277,4.47168-0.403076l2.276367-0.413818v-0.000244
	C576.669922,768.288086,700,620.512451,700,447.805176V75C700,61.192871,688.806641,50,675,50z M650,447.805176
	C650,595.5896,545,722.14624,400,749.582031C255,722.14624,150,595.5896,150,447.805176V99.160156
	c91.942383-5.773193,218.863281-39.590576,250-48.197998c31.136719,8.607422,158.057617,42.424805,250,48.197998V447.805176z
	 M400,225v249c0,13.807129-11.193359,25-25,25s-25-11.192871-25-25V225c0-13.807129,11.193359-25,25-25S400,211.192871,400,225z
	 M400,574v1c0,13.807129-11.193359,25-25,25s-25-11.192871-25-25v-1c0-13.807129,11.193359-25,25-25S400,560.192871,400,574z"/></svg>