<!--Generator: Adobe Illustrator 21.0.0, SVG Export Plug-In . SVG Version: 6.00 Build 0)--><svg version="1.1" id="Layer_1" x="0px" y="0px" viewBox="0 0 800 800" enable-background="new 0 0 800 800" xml:space="preserve"><path fill="#010101" d="M775,100H25c-13.807129,0-25,11.192871-25,25v550c0,13.807129,11.192871,25,25,25h750
	c13.807129,0,25-11.192871,25-25V125C800,111.192871,788.807129,100,775,100z M750,150v101.134155L400,450.456299L50,251.134155V150
	H750z M50,650V308.673645l325.86377,185.576599c7.556641,4.303467,15.846191,6.455322,24.13623,6.455322
	s16.57959-2.151855,24.13623-6.455322L750,308.673645V650H50z"/></svg>