<!--Generator: Adobe Illustrator 26.3.1, SVG Export Plug-In . SVG Version: 6.00 Build 0)--><svg version="1.1" id="Layer_1" x="0px" y="0px" viewBox="0 0 800 800" enable-background="new 0 0 800 800" xml:space="preserve"><path fill="#010101" d="M775,100H25c-13.806641,0-25,11.193359-25,25v550c0,13.806641,11.193359,25,25,25h750
	c13.806641,0,25-11.193359,25-25V125C800,111.193359,788.806641,100,775,100z M300,500V400h200v100H300z M500,550v100H300V550H500z
	 M750,250v100H550V250H750z M500,350H300V250h200V350z M250,350H50V250h200V350z M50,400h200v100H50V400z M550,400h200v100H550V400z
	 M750,150v50H50v-50H750z M50,550h200v100H50V550z M550,650V550h200v100H550z"/></svg>