<!--Generator: Adobe Illustrator 21.0.0, SVG Export Plug-In . SVG Version: 6.00 Build 0)--><svg version="1.1" id="Layer_1" x="0px" y="0px" viewBox="0 0 800 800" enable-background="new 0 0 800 800" xml:space="preserve"><path fill="#010101" d="M750,200H650V50c0-27.570312-22.429688-50-50-50H200c-27.570312,0-50,22.429688-50,50v150H50
	c-27.570312,0-50,22.429688-50,50v300c0,27.570312,22.429688,50,50,50h100v173c0,14.887695,12.112305,27,27,27h446
	c14.887695,0,27-12.112305,27-27V600h100c27.570312,0,50-22.429688,50-50V250C800,222.429688,777.570312,200,750,200z M200,50h400
	v150H200V50z M200,750V500h400v74.806641c-0.000488,0.064941-0.004883,0.128418-0.004883,0.193359
	s0.004395,0.128418,0.004883,0.193359V750H200z M750,550H650v-75c0-13.807617-11.192871-25-25-25H175
	c-13.807129,0-25,11.192383-25,25v75H50V250h125h450h125V550z M550,575c0,13.806641-11.192871,25-25,25H275
	c-13.807129,0-25-11.193359-25-25s11.192871-25,25-25h250C538.807129,550,550,561.193359,550,575z M625,300
	c13.807129,0,25,11.192383,25,25s-11.192871,25-25,25H525c-13.807129,0-25-11.192383-25-25s11.192871-25,25-25H625z M400,675
	c0,13.807617-11.192871,25-25,25H275c-13.807129,0-25-11.192383-25-25s11.192871-25,25-25h100
	C388.807129,650,400,661.192383,400,675z"/></svg>