<!--Generator: Adobe Illustrator 26.3.1, SVG Export Plug-In . SVG Version: 6.00 Build 0)--><svg version="1.1" id="Layer_1" x="0px" y="0px" viewBox="0 0 800 800" enable-background="new 0 0 800 800" xml:space="preserve"><path fill="#010101" d="M722.484863,263.756836c-17.629395-41.680664-42.862305-79.108398-74.997559-111.244141
	s-69.562988-57.368164-111.243652-74.998047C493.077637,59.257812,447.23877,50,400,50s-93.077637,9.257812-136.243652,27.514648
	c-41.680664,17.629883-79.108398,42.862305-111.243652,74.998047s-57.368164,69.563477-74.997559,111.244141
	C59.257324,306.922852,50,352.761719,50,400s9.257324,93.077148,27.515137,136.243164
	c17.629395,41.680664,42.862305,79.108398,74.997559,111.244141s69.562988,57.368164,111.243652,74.998047
	C306.922363,740.742188,352.76123,750,400,750s93.077637-9.257812,136.243652-27.514648
	c41.680664-17.629883,79.108398-42.862305,111.243652-74.998047s57.368164-69.563477,74.997559-111.244141
	C740.742676,493.077148,750,447.238281,750,400S740.742676,306.922852,722.484863,263.756836z M612.132324,187.868164
	c20.711426,20.711914,38.004395,43.926758,51.632812,68.950195H544.886719
	c-6.78125-35.166992-16.099609-67.652344-27.734863-96.09375c-7.007324-17.128906-14.72998-32.40625-23.058105-45.743164
	C538.101074,129.460938,578.421875,154.157227,612.132324,187.868164z M507.95459,400
	c0,32.129883-1.950684,63.458984-5.699707,93.181641H297.745117C293.996094,463.458984,292.04541,432.129883,292.04541,400
	s1.950684-63.458984,5.699707-93.181641h204.509766C506.003906,336.541016,507.95459,367.870117,507.95459,400z M400,700
	c-23.974609,0-50.469727-29.77832-70.874512-79.65625c-9.390137-22.954102-17.115234-48.972656-23.04541-77.162109h187.839844
	c-5.930176,28.189453-13.655273,54.208008-23.04541,77.162109C450.469727,670.22168,423.974609,700,400,700z M306.080078,256.818359
	c5.930176-28.189453,13.655273-54.208008,23.04541-77.162109C349.530273,129.77832,376.025391,100,400,100
	s50.469727,29.77832,70.874512,79.65625c9.390137,22.954102,17.115234,48.972656,23.04541,77.162109H306.080078z
	 M187.867676,187.868164c33.710449-33.710938,74.03125-58.407227,118.038574-72.886719
	c-8.328125,13.336914-16.050781,28.614258-23.058105,45.743164c-11.635254,28.441406-20.953613,60.926758-27.734863,96.09375
	H136.234863C149.863281,231.794922,167.15625,208.580078,187.867676,187.868164z M114.692871,306.818359h132.715332
	C243.878906,336.785156,242.04541,368.074219,242.04541,400s1.833496,63.214844,5.362793,93.181641H114.692871
	C105.029297,463.487305,100,432.130859,100,400S105.029297,336.512695,114.692871,306.818359z M187.867676,612.131836
	c-20.711426-20.711914-38.004395-43.926758-51.632812-68.950195h118.878418
	c6.78125,35.166992,16.099609,67.652344,27.734863,96.09375c7.007324,17.128906,14.72998,32.40625,23.058105,45.743164
	C261.898926,670.539062,221.578125,645.842773,187.867676,612.131836z M612.132324,612.131836
	c-33.710449,33.710938-74.03125,58.407227-118.038574,72.886719c8.328125-13.336914,16.050781-28.614258,23.058105-45.743164
	c11.635254-28.441406,20.953613-60.926758,27.734863-96.09375h118.878418
	C650.136719,568.205078,632.84375,591.419922,612.132324,612.131836z M685.307129,493.181641H552.591797
	c3.529297-29.966797,5.362793-61.255859,5.362793-93.181641s-1.833496-63.214844-5.362793-93.181641h132.715332
	C694.970703,336.512695,700,367.869141,700,400S694.970703,463.487305,685.307129,493.181641z"/></svg>