<!--Generator: Adobe Illustrator 21.0.0, SVG Export Plug-In . SVG Version: 6.00 Build 0)--><svg version="1.1" id="Layer_1" x="0px" y="0px" viewBox="0 0 800 800" enable-background="new 0 0 800 800" xml:space="preserve"><path fill="#010101" d="M800,500c0,82.709961-67.290039,150-150,150H475.001953c-13.807617,0-25-11.193359-25-25s11.192383-25,25-25
	H650c55.140625,0,100-44.859375,100-100s-44.859375-100-100-100c-13.806641,0-25-11.193359-25-25c0-124.06543-100.93457-225-225-225
	c-90.609375,0-171.980469,53.920898-207.303711,137.370117c-3.308594,7.817383-10.358398,13.420898-18.719727,14.881836
	C102.139648,314.803711,50,376.94043,50,450c0,82.709961,67.290039,150,150,150h74.998047c13.807617,0,25,11.193359,25,25
	s-11.192383,25-25,25H200C89.719727,650,0,560.280273,0,450c0-47.352539,16.852539-93.288086,47.453125-129.34375
	c27.292969-32.15918,64.071289-54.867188,104.660156-64.869141C197.813477,160.717773,293.706055,100,400,100
	c73.455078,0,142.513672,28.604492,194.454102,80.545898c46.46582,46.464844,74.255859,106.624023,79.597656,171.380859
	C745.37207,363.466797,800,425.472656,800,500z M507.322266,467.677734C512.204102,472.55957,518.601562,475,525,475
	s12.795898-2.44043,17.677734-7.322266c9.762695-9.762695,9.762695-25.592773,0-35.355469l-150-150
	c-9.763672-9.763672-25.591797-9.763672-35.355469,0l-150,150c-9.762695,9.762695-9.762695,25.592773,0,35.355469
	c9.763672,9.763672,25.591797,9.763672,35.355469,0L350,360.355469V675c0,13.806641,11.193359,25,25,25s25-11.193359,25-25
	V360.355469L507.322266,467.677734z"/></svg>