<!--Generator: Adobe Illustrator 26.3.1, SVG Export Plug-In . SVG Version: 6.00 Build 0)--><svg version="1.1" id="Layer_1" x="0px" y="0px" viewBox="0 0 800 800" enable-background="new 0 0 800 800" xml:space="preserve"><path fill="#010101" d="M750,100H50c-27.570312,0-50,22.429688-50,50v400c0,27.570312,22.429688,50,50,50h402.511719
	C464.126953,656.984375,514.635742,700,575,700h50c13.806641,0,25-11.193359,25-25v-75h100c27.570312,0,50-22.429688,50-50V150
	C800,122.429688,777.570312,100,750,100z M750,550H625c-13.806641,0-25,11.193359-25,25v75h-25c-41.355469,0-75-33.644531-75-75
	c0-13.806641-11.193359-25-25-25H50V150h700V550z M150,350c0-27.570312,22.429688-50,50-50s50,22.429688,50,50s-22.429688,50-50,50
	S150,377.570312,150,350z M350,350c0-27.570312,22.429688-50,50-50s50,22.429688,50,50s-22.429688,50-50,50S350,377.570312,350,350z
	 M550,350c0-27.570312,22.429688-50,50-50s50,22.429688,50,50s-22.429688,50-50,50S550,377.570312,550,350z"/></svg>