<!--Generator: Adobe Illustrator 21.0.0, SVG Export Plug-In . SVG Version: 6.00 Build 0)--><svg version="1.1" id="Layer_1" x="0px" y="0px" viewBox="0 0 800 800" enable-background="new 0 0 800 800" xml:space="preserve"><path fill="#010101" d="M742.677734,417.677734l-75,75c-4.782471,4.782227-11.177246,7.323242-17.68335,7.323242
	c-3.220459,0-6.468262-0.623047-9.561523-1.904297C631.091064,494.227539,625,485.111328,625,475v-50H425v200h50
	c10.111572,0,19.227539,6.09082,23.096924,15.432617c3.869629,9.341797,1.730713,20.094727-5.419189,27.245117l-75,75
	C412.796143,747.55957,406.397949,750,400,750s-12.796143-2.44043-17.677734-7.322266l-75-75
	c-7.149902-7.150391-9.288818-17.90332-5.419189-27.245117C305.772461,631.09082,314.888428,625,325,625h50V425H175v50
	c0,10.111328-6.091064,19.227539-15.432861,23.09668c-3.092773,1.28125-6.341553,1.904297-9.561523,1.904297
	c-6.506592,0-12.900391-2.540039-17.68335-7.323242l-75-75c-9.762939-9.762695-9.762939-25.592773,0-35.355469l75-75
	c7.149658-7.149414,17.902588-9.288086,27.244873-5.418945C168.908936,305.772461,175,314.888672,175,325v50h200V175h-50
	c-10.111572,0-19.227539-6.09082-23.096924-15.432617c-3.869629-9.341797-1.730713-20.094727,5.419189-27.245117l75-75
	c9.763184-9.763672,25.592285-9.763672,35.355469,0l75,75c7.149902,7.150391,9.288818,17.90332,5.419189,27.245117
	C494.227539,168.90918,485.111572,175,475,175h-50v200h200v-50c0-10.111328,6.091064-19.227539,15.432861-23.09668
	c9.342529-3.871094,20.094971-1.731445,27.244873,5.418945l75,75
	C752.440674,392.084961,752.440674,407.915039,742.677734,417.677734z"/></svg>