<!--Generator: Adobe Illustrator 21.0.0, SVG Export Plug-In . SVG Version: 6.00 Build 0)--><svg version="1.1" id="Layer_1" x="0px" y="0px" viewBox="0 0 800 800" enable-background="new 0 0 800 800" xml:space="preserve"><path fill="#010101" d="M798.489502,676.454834c0,5.517578-1.816406,11.074219-5.556641,15.698242
	c-8.681641,10.742188-24.418945,12.407227-35.15625,3.730469L398.733612,405.68335L39.290264,698.906006
	c-10.69824,8.730469-26.445312,7.133789-35.170898-3.569336c-8.740234-10.683594-7.138672-26.445312,3.569336-35.170898
	l375.170898-306.054688c9.165039-7.480469,22.314453-7.509766,31.513672-0.073242l374.829132,302.958984
	C795.315674,661.938232,798.489502,669.164795,798.489502,676.454834z M789.202393,403.974365L414.37326,101.01049
	c-9.199219-7.436523-22.348633-7.407227-31.513672,0.073242L7.688703,407.138428
	c-10.708008,8.730469-12.30957,24.477539-3.569336,35.170898c8.725586,10.703125,24.472656,12.299805,35.170898,3.569336
	l359.443359-293.222656l359.042999,290.205078c10.737305,8.676758,26.474609,7.011719,35.15625-3.730469
	c3.740234-4.624023,5.556641-10.180664,5.556641-15.698242C798.489502,416.142334,795.315674,408.915771,789.202393,403.974365z"/></svg>