<!--Generator: Adobe Illustrator 21.0.0, SVG Export Plug-In . SVG Version: 6.00 Build 0)--><svg version="1.1" id="Layer_1" x="0px" y="0px" viewBox="0 0 800 800" enable-background="new 0 0 800 800" xml:space="preserve"><path fill="#010101" d="M435.355469,400l257.322266-257.322266c9.762695-9.763184,9.762695-25.592285,0-35.355469
	c-9.763672-9.762695-25.591797-9.762695-35.355469,0L400,364.644531L142.677734,107.322266
	c-9.763672-9.762695-25.591797-9.762695-35.355469,0c-9.762695,9.763184-9.762695,25.592285,0,35.355469L364.644531,400
	L107.322266,657.322266c-9.762695,9.763184-9.762695,25.592285,0,35.355469C112.204102,697.559082,118.601562,700,125,700
	s12.795898-2.440918,17.677734-7.322266L400,435.355469l257.322266,257.322266C662.204102,697.559082,668.601562,700,675,700
	s12.795898-2.440918,17.677734-7.322266c9.762695-9.763184,9.762695-25.592285,0-35.355469L435.355469,400z"/></svg>