<!--Generator: Adobe Illustrator 21.0.0, SVG Export Plug-In . SVG Version: 6.00 Build 0)--><svg version="1.1" id="Layer_1" x="0px" y="0px" viewBox="0 0 800 800" enable-background="new 0 0 800 800" xml:space="preserve"><path fill="#010101" d="M722.484863,263.756836c-17.629395-41.680664-42.862305-79.108398-74.997559-111.244141
	s-69.562988-57.368164-111.243652-74.998047C493.077637,59.257812,447.23877,50,400,50s-93.077637,9.257812-136.243652,27.514648
	c-41.680664,17.629883-79.108398,42.862305-111.243652,74.998047s-57.368164,69.563477-74.997559,111.244141
	C59.257324,306.922852,50,352.761719,50,400s9.257324,93.077148,27.515137,136.243164
	c17.629395,41.680664,42.862305,79.108398,74.997559,111.244141s69.562988,57.368164,111.243652,74.998047
	C306.922363,740.742188,352.76123,750,400,750s93.077637-9.257812,136.243652-27.514648
	c41.680664-17.629883,79.108398-42.862305,111.243652-74.998047s57.368164-69.563477,74.997559-111.244141
	C740.742676,493.077148,750,447.238281,750,400S740.742676,306.922852,722.484863,263.756836z M612.132324,612.131836
	C555.469727,668.794922,480.132812,700,400,700s-155.469727-31.205078-212.132324-87.868164
	C131.205566,555.469727,100,480.132812,100,400s31.205566-155.469727,87.867676-212.131836
	C244.530273,131.205078,319.867188,100,400,100s155.469727,31.205078,212.132324,87.868164
	C668.794434,244.530273,700,319.867188,700,400S668.794434,555.469727,612.132324,612.131836z M400,200
	c-110.280273,0-200,89.719727-200,200s89.719727,200,200,200s200-89.719727,200-200S510.280273,200,400,200z M400,550
	c-82.710449,0-150-67.290039-150-150s67.289551-150,150-150s150,67.290039,150,150S482.710449,550,400,550z"/></svg>