<!--Generator: Adobe Illustrator 21.0.0, SVG Export Plug-In . SVG Version: 6.00 Build 0)--><svg version="1.1" id="Layer_1" x="0px" y="0px" viewBox="0 0 800 800" enable-background="new 0 0 800 800" xml:space="preserve"><path fill="#010101" d="M542.677734,292.677734L435.355469,400l107.322266,107.322266
	c9.762695,9.763184,9.762695,25.592285,0,35.355469C537.795898,547.559082,531.398438,550,525,550
	s-12.795898-2.440918-17.677734-7.322266L400,435.355469L292.677734,542.677734C287.795898,547.559082,281.398438,550,275,550
	s-12.795898-2.440918-17.677734-7.322266c-9.762695-9.763184-9.762695-25.592285,0-35.355469L364.644531,400L257.322266,292.677734
	c-9.762695-9.763184-9.762695-25.592285,0-35.355469c9.763672-9.762695,25.591797-9.762695,35.355469,0L400,364.644531
	l107.322266-107.322266c9.763672-9.762695,25.591797-9.762695,35.355469,0
	C552.44043,267.085449,552.44043,282.914551,542.677734,292.677734z M750,400c0,47.23877-9.257812,93.077637-27.514648,136.243652
	c-17.629883,41.680664-42.862305,79.108398-74.998047,111.243652s-69.563477,57.368164-111.244141,74.997559
	C493.077148,740.742676,447.238281,750,400,750s-93.077148-9.257324-136.243164-27.515137
	c-41.680664-17.629395-79.108398-42.862305-111.244141-74.997559s-57.368164-69.562988-74.998047-111.243652
	C59.257812,493.077637,50,447.23877,50,400s9.257812-93.077637,27.514648-136.243652
	c17.629883-41.680664,42.862305-79.108398,74.998047-111.243652s69.563477-57.368164,111.244141-74.997559
	C306.922852,59.257324,352.761719,50,400,50s93.077148,9.257324,136.243164,27.515137
	c41.680664,17.629395,79.108398,42.862305,111.244141,74.997559s57.368164,69.562988,74.998047,111.243652
	C740.742188,306.922363,750,352.76123,750,400z M700,400c0-165.42041-134.579102-300-300-300S100,234.57959,100,400
	s134.579102,300,300,300S700,565.42041,700,400z"/></svg>