<!--Generator: Adobe Illustrator 21.0.0, SVG Export Plug-In . SVG Version: 6.00 Build 0)--><svg version="1.1" id="Layer_1" x="0px" y="0px" viewBox="0 0 800 800" enable-background="new 0 0 800 800" xml:space="preserve"><path fill="#010101" d="M725,50H75c-13.807129,0-25,11.192383-25,25v650c0,13.807617,11.192871,25,25,25h650
	c13.807129,0,25-11.192383,25-25V75C750,61.192383,738.807129,50,725,50z M700,700H100V100h600V700z M225,600h350
	c13.807129,0,25-11.193359,25-25V225c0-13.806641-11.192871-25-25-25H225c-13.807129,0-25,11.193359-25,25v350
	C200,588.806641,211.192871,600,225,600z M250,250h300v300H250V250z"/></svg>