<!--Generator: Adobe Illustrator 21.0.0, SVG Export Plug-In . SVG Version: 6.00 Build 0)--><svg version="1.1" id="Layer_1" x="0px" y="0px" viewBox="0 0 800 800" enable-background="new 0 0 800 800" xml:space="preserve"><path fill="#010101" d="M570.45459,800H229.54541c-13.807129,0-25-11.193359-25-25V459.078125H25
	c-9.914551,0-18.891602-5.858398-22.883789-14.933594s-2.244141-19.651367,4.455078-26.959961l375-409.078125
	C386.306641,2.941406,392.992676,0,400,0s13.693359,2.941406,18.428711,8.106445l375,409.078125
	c6.699219,7.308594,8.447266,17.884766,4.455078,26.959961S784.914551,459.078125,775,459.078125H595.45459V775
	C595.45459,788.806641,584.261719,800,570.45459,800z M254.54541,750h290.90918V434.078125c0-13.806641,11.192871-25,25-25
	h147.713379L400,61.99707L81.832031,409.078125H229.54541c13.807129,0,25,11.193359,25,25V750z"/></svg>