<!--Generator: Adobe Illustrator 21.0.0, SVG Export Plug-In . SVG Version: 6.00 Build 0)--><svg version="1.1" id="Layer_1" x="0px" y="0px" viewBox="0 0 800 800" enable-background="new 0 0 800 800" xml:space="preserve"><path fill="#010101" d="M725,750H75c-13.807129,0-25-11.192383-25-25V75c0-13.807617,11.192871-25,25-25h650
	c13.807129,0,25,11.192383,25,25v650C750,738.807617,738.807129,750,725,750z M100,700h600V100H100V700z M224.994629,600.000977
	c-3.220703,0-6.468262-0.623047-9.561523-1.904297C206.09082,594.227539,200,585.111328,200,575V225c0-13.806641,11.192871-25,25-25
	h350c10.111328,0,19.227539,6.09082,23.097168,15.432617s1.730469,20.094727-5.419434,27.245117l-350,350
	C237.89502,597.459961,231.500488,600.000977,224.994629,600.000977z M250,250v264.644531L514.644531,250H250z"/></svg>