<!--Generator: Adobe Illustrator 21.0.0, SVG Export Plug-In . SVG Version: 6.00 Build 0)--><svg version="1.1" id="Layer_1" x="0px" y="0px" viewBox="0 0 800 800" enable-background="new 0 0 800 800" xml:space="preserve"><path fill="#010101" d="M722.485352,263.756348c-17.629883-41.680664-42.862305-79.108398-74.998047-111.243652
	s-69.563477-57.368164-111.244141-74.997559C493.077148,59.257324,447.238281,50,400,50s-93.077148,9.257324-136.243164,27.515137
	c-41.680664,17.629395-79.108398,42.862305-111.244141,74.997559s-57.368164,69.562988-74.998047,111.243652
	C59.257812,306.922363,50,352.76123,50,400s9.257812,93.077637,27.514648,136.243652
	c17.629883,41.680664,42.862305,79.108398,74.998047,111.243652s69.563477,57.368164,111.244141,74.997559
	C306.922852,740.742676,352.761719,750,400,750s93.077148-9.257324,136.243164-27.515137
	c41.680664-17.629395,79.108398-42.862305,111.244141-74.997559s57.368164-69.562988,74.998047-111.243652
	C740.742188,493.077637,750,447.23877,750,400S740.742188,306.922363,722.485352,263.756348z M400,700
	c-165.420898,0-300-134.57959-300-300s134.579102-300,300-300s300,134.57959,300,300S565.420898,700,400,700z M550,325
	c0,48.519043-23.521484,83.491211-74.022461,110.060059c-3.536133,1.860352-7.162109,3.709473-11.001953,5.66748
	C436.027344,455.490234,400,473.862793,400,500c0,13.807129-11.193359,25-25,25s-25-11.192871-25-25
	c0-56.765137,55.521484-85.079102,92.260742-103.814941c3.693359-1.883789,7.182617-3.662598,10.4375-5.375
	C491.956055,370.15625,500,349.564453,500,325c0-24.347656-19.954102-41.908691-31.848633-50.209473
	C445.577148,259.035645,414.905273,250,384,250c-26.953125,0-70.329102,16.681152-89.478516,40.617188
	c-8.625977,10.782227-24.359375,12.529297-35.138672,3.904297c-10.78125-8.625-12.530273-24.357422-3.904297-35.138672
	c17.505859-21.883301,42.293945-35.746582,60.004883-43.523438C338.775391,205.632324,363.108398,200,384,200
	c41.498047,0,81.545898,11.999512,112.766602,33.788086C531.094727,257.745117,550,290.138184,550,325z M400,574v1
	c0,13.807129-11.193359,25-25,25s-25-11.192871-25-25v-1c0-13.807129,11.193359-25,25-25S400,560.192871,400,574z"/></svg>