<!--Generator: Adobe Illustrator 26.3.1, SVG Export Plug-In . SVG Version: 6.00 Build 0)--><svg version="1.1" id="Layer_1" x="0px" y="0px" viewBox="0 0 800 800" enable-background="new 0 0 800 800" xml:space="preserve"><path fill="#010101" d="M401,624.599609V675c0,13.807617-11.192383,25-25,25s-25-11.192383-25-25v-50.400391
	c0-13.807617,11.192383-25,25-25S401,610.791992,401,624.599609z M529.75,145.503906
	C487.704102,116.160156,433.668945,100,377.599609,100c-53.390625,0-132.370117,29.693359-172.121094,79.382812
	c-8.625977,10.78125-6.876953,26.513672,3.904297,35.138672c10.780273,8.626953,26.512695,6.87793,35.138672-3.904297
	C273.529297,174.357422,336.750977,150,377.599609,150C469.439453,150,550,203.738281,550,265
	c0,44.984375-20.734375,74.241211-71.566406,100.983398c-2.037109,1.072266-4.109375,2.15625-6.208008,3.254883
	c-25.129883,13.154297-53.613281,28.064453-77.172852,48.928711C365.158203,444.642578,350,475.540039,350,510v15
	c0,13.806641,11.193359,25,25,25s25-11.193359,25-25v-15c0-43.09375,41.352539-68.166016,95.413086-96.463867
	c2.130859-1.115234,4.232422-2.214844,6.299805-3.302734c33.924805-17.847656,58.208984-38.020508,74.241211-61.670898
	C592.134766,324.693359,600,297.360352,600,265c0-23.516602-6.695312-46.272461-19.898438-67.637695
	C568.044922,177.854492,551.104492,160.40625,529.75,145.503906z"/></svg>