<!--Generator: Adobe Illustrator 21.0.0, SVG Export Plug-In . SVG Version: 6.00 Build 0)--><svg version="1.1" id="圖層_1" x="0px" y="0px" viewBox="0 0 90 90" enable-background="new 0 0 90 90" xml:space="preserve"><path d="M90,54V36H73.6c-0.5-1.7-1.2-3.3-2-4.9l11.6-11.6L70.5,6.8L58.9,18.4c-1.6-0.8-3.2-1.5-4.9-2V0H36v16.4
	c-1.7,0.5-3.3,1.2-4.9,2L19.5,6.8L6.8,19.5l11.6,11.6c-0.8,1.6-1.5,3.2-2,4.9H0v18h16.4c0.5,1.7,1.2,3.3,2,4.9L6.8,70.5l12.7,12.7
	l11.6-11.6c1.6,0.8,3.2,1.5,4.9,2V90h18V73.6c1.7-0.5,3.3-1.2,4.9-2l11.6,11.6l12.7-12.7L71.6,58.9c0.8-1.6,1.5-3.2,2-4.9H90z
	 M45,60c-8.3,0-15-6.7-15-15c0-8.3,6.7-15,15-15s15,6.7,15,15C60,53.3,53.3,60,45,60z"/></svg>