<!--Generator: Adobe Illustrator 21.0.0, SVG Export Plug-In . SVG Version: 6.00 Build 0)--><svg version="1.1" id="圖層_1" x="0px" y="0px" viewBox="0 0 90 90" enable-background="new 0 0 90 90" xml:space="preserve"><path d="M82.2,32.7l-28.9,0l10.1-10.1C58.3,18.3,51.8,16,45,16c-16,0-29,13-29,29H4C4,22.4,22.4,4,45,4c10,0,19.5,3.6,27,10.1
	L82.2,3.9L82.2,32.7z M7.8,86.1L18,75.9C25.5,82.4,35,86,45,86c22.6,0,41-18.4,41-41H74c0,16-13,29-29,29c-6.8,0-13.3-2.3-18.5-6.7
	l10.1-10.1l-28.9,0L7.8,86.1z"/></svg>