<!--Generator: Adobe Illustrator 21.0.0, SVG Export Plug-In . SVG Version: 6.00 Build 0)--><svg version="1.1" id="圖層_1" x="0px" y="0px" viewBox="0 0 90 90" enable-background="new 0 0 90 90" xml:space="preserve"><path d="M80.9,57.1l-6.3-6.3c-3.4-3.4-8.2-4.1-10.7-1.5L55.4,62C45,54.1,35.9,45,28,34.6l12.8-8.5c2.5-2.5,1.8-7.3-1.5-10.7
	l-6.3-6.3C29.6,5.7,24.8,5,22.2,7.5L9.8,20c-3.9,3.9-4.9,9.8-2.6,14.8c10.1,21.9,26.1,37.9,48.1,48.1c5,2.3,10.9,1.3,14.8-2.6
	l12.4-12.4C85,65.2,84.3,60.4,80.9,57.1z"/></svg>