<?xml version="1.0" encoding="utf-8"?>
<!-- Generator: Adobe Illustrator 21.0.0, SVG Export Plug-In . SVG Version: 6.00 Build 0)  -->
<svg version="1.1" id="圖層_1" xmlns="http://www.w3.org/2000/svg" xmlns:xlink="http://www.w3.org/1999/xlink" x="0px" y="0px"
	 viewBox="0 0 1200 1200" enable-background="new 0 0 1200 1200" xml:space="preserve">
<path d="M1187.06665,867.741699c17.815674,21.098633,15.154541,52.64502-5.944092,70.460449
	c-21.098145,17.81543-52.644287,15.154785-70.460205-5.943848l-510.70166-604.805664L88.169189,932.296875
	c-9.889648,11.687988-23.995361,17.704102-38.194092,17.704102c-11.410156,0-22.879639-3.884277-32.272217-11.831543
	c-21.080322-17.837402-23.709473-49.38623-5.87207-70.466309l550-650C571.330811,206.475586,585.293701,200,600.000488,200
	c0.009033,0,0.016113,0,0.025146,0c14.716309,0.007813,28.682129,6.498047,38.176514,17.741699L1187.06665,867.741699z"/>
</svg>
