<?xml version="1.0" encoding="utf-8"?>
<!-- Generator: Adobe Illustrator 28.0.0, SVG Export Plug-In . SVG Version: 6.00 Build 0)  -->
<svg version="1.1" id="圖層_1" xmlns="http://www.w3.org/2000/svg" xmlns:xlink="http://www.w3.org/1999/xlink" x="0px" y="0px"
	 viewBox="0 0 1200 1200" enable-background="new 0 0 1200 1200" xml:space="preserve">
<path d="M599.999023,1050.000977c-10.322266,0-20.641602-3.187012-29.40918-9.563477L20.591797,640.437012
	c-22.333008-16.242188-27.270508-47.513184-11.02832-69.845703c16.241211-22.33252,47.512695-27.27002,69.844727-11.027832
	l520.59082,378.612793l520.592773-378.613281c22.329102-16.242188,53.601562-11.305176,69.844727,11.02832
	c16.242188,22.33252,11.304688,53.603516-11.02832,69.845703l-550.000977,400.000977
	C620.642578,1046.8125,610.319336,1050.000977,599.999023,1050.000977z M629.407227,640.437988l550.000977-400.000977
	c22.333008-16.242188,27.270508-47.513184,11.02832-69.845703c-16.243164-22.333496-47.515625-27.270508-69.844727-11.02832
	L599.999023,538.17627L79.408203,159.563477c-22.332031-16.242676-53.603516-11.304199-69.844727,11.027832
	c-16.242188,22.33252-11.304688,53.603516,11.02832,69.845703L570.589844,640.4375
	c8.767578,6.376465,19.086914,9.563477,29.40918,9.563477C610.319336,650.000977,620.642578,646.8125,629.407227,640.437988z"/>
</svg>
