<?xml version="1.0" encoding="utf-8"?>
<!-- Generator: Adobe Illustrator 21.0.0, SVG Export Plug-In . SVG Version: 6.00 Build 0)  -->
<svg version="1.1" id="圖層_1" xmlns="http://www.w3.org/2000/svg" xmlns:xlink="http://www.w3.org/1999/xlink" x="0px" y="0px"
	 viewBox="0 0 1200 1200" enable-background="new 0 0 1200 1200" xml:space="preserve">
<path d="M639.926758,1119.892578c14.8125,19.592285,13.289063,47.600586-4.571289,65.460938
	c-9.412109,9.412109-22.148438,14.64502-35.353516,14.645508c-1.301758,0-2.606445-0.050781-3.914063-0.15332
	c-14.578125-1.143555-27.925781-8.61084-36.526367-20.437012l-400-550c-12.750977-17.532715-12.750977-41.284668,0-58.817383
	l400-550c16.241211-22.33252,47.512695-27.270508,69.844727-11.02832c22.333008,16.242188,27.270508,47.513184,11.02832,69.845703
	L261.823242,600L639.926758,1119.892578z M1029.40625,9.562988c-22.333008-16.242188-53.603516-11.304199-69.844727,11.02832
	l-400,550c-12.750977,17.532715-12.750977,41.284668,0,58.817383l400,550
	c8.600586,11.826172,21.948242,19.293457,36.526367,20.437012c1.307617,0.102539,2.612305,0.15332,3.914063,0.15332
	c13.205078-0.000488,25.941406-5.233398,35.353516-14.645508c17.860352-17.860352,19.383789-45.868652,4.571289-65.460938
	L661.823242,600L1040.43457,79.408691C1056.676758,57.076172,1051.739258,25.805176,1029.40625,9.562988z"/>
</svg>
