<?xml version="1.0" encoding="utf-8"?>
<!-- Generator: Adobe Illustrator 28.0.0, SVG Export Plug-In . SVG Version: 6.00 Build 0)  -->
<svg version="1.1" id="圖層_1" xmlns="http://www.w3.org/2000/svg" xmlns:xlink="http://www.w3.org/1999/xlink" x="0px" y="0px"
	 viewBox="0 0 1200 1200" enable-background="new 0 0 1200 1200" xml:space="preserve">
<path d="M261.588867,932.008789l-250-300c-15.452148-18.541992-15.452148-45.475586,0-64.017578l250-300
	c17.676758-21.214844,49.207031-24.081055,70.419922-6.402344c21.213867,17.678711,24.080078,49.206055,6.402344,70.419922
	L115.084961,600l223.326172,267.991211c17.677734,21.213867,14.811523,52.741211-6.402344,70.419922
	c-9.34668,7.789062-20.697266,11.589844-31.981445,11.589844C285.700195,950.000977,271.477539,943.875977,261.588867,932.008789z
	 M938.411133,267.991211c-17.676758-21.213867-49.206055-24.081055-70.419922-6.402344s-24.080078,49.206055-6.402344,70.419922
	L1084.915039,600L861.588867,867.991211c-17.677734,21.213867-14.811523,52.741211,6.402344,70.419922
	c9.347656,7.790039,20.695312,11.589844,31.981445,11.589844c14.326172,0,28.550781-6.125977,38.438477-17.992188l250-300
	c15.452148-18.541992,15.452148-45.475586,0-64.017578L938.411133,267.991211z M432.444336,1046.816406
	c5.783203,2.168945,11.714844,3.197266,17.547852,3.197266c20.244141,0,39.296875-12.385742,46.824219-32.458008l300-800
	c9.696289-25.855469-3.404297-54.675781-29.260742-64.37207c-25.855469-9.697266-54.675781,3.405273-64.37207,29.260742l-300,800
	C393.487305,1008.299805,406.587891,1037.120117,432.444336,1046.816406z"/>
</svg>
