<?xml version="1.0" encoding="utf-8"?>
<!-- Generator: Adobe Illustrator 28.0.0, SVG Export Plug-In . SVG Version: 6.00 Build 0)  -->
<svg version="1.1" id="圖層_1" xmlns="http://www.w3.org/2000/svg" xmlns:xlink="http://www.w3.org/1999/xlink" x="0px" y="0px"
	 viewBox="0 0 1200 1200" enable-background="new 0 0 1200 1200" xml:space="preserve">
<path d="M450,50H100c-27.614258,0-50,22.385742-50,50v1000c0,27.614258,22.385742,50,50,50h350c27.614258,0,50-22.385742,50-50V100
	C500,72.385742,477.614258,50,450,50z M400,1050H150V150h250V1050z M1100,50H750c-27.614258,0-50,22.385742-50,50v1000
	c0,27.614258,22.385742,50,50,50h350c27.614258,0,50-22.385742,50-50V100C1150,72.385742,1127.614258,50,1100,50z M1050,1050H800
	V150h250V1050z"/>
</svg>
