<?xml version="1.0" encoding="utf-8"?>
<!-- Generator: Adobe Illustrator 28.0.0, SVG Export Plug-In . SVG Version: 6.00 Build 0)  -->
<svg version="1.1" id="圖層_1" xmlns="http://www.w3.org/2000/svg" xmlns:xlink="http://www.w3.org/1999/xlink" x="0px" y="0px"
	 viewBox="0 0 1200 1200" enable-background="new 0 0 1200 1200" xml:space="preserve">
<path d="M906.199219,1150.015869c-11.892578,0.000488-23.867188-2.279785-35.333008-6.914307l-2.313477-0.935303L600,1001.034424
	L331.447266,1142.16626l-2.313477,0.935303c-30.230469,12.219971-64.02832,8.07251-90.40918-11.093506
	c-26.379883-19.166016-40.769531-50.027832-38.490234-82.555664l0.146484-2.086426l0.319336-2.066895l48.554688-313.712646
	L25.124023,550.450928l-3.108398-3.703369C1.051758,521.772217-5.448242,488.347168,4.62793,457.335449
	c10.076172-31.012207,34.981445-54.233398,66.62207-62.117432l2.329102-0.580566l288.452148-43.075195L520.335938,94.166992
	C537.611328,66.510986,567.392578,50,600,50s62.388672,16.510986,79.664062,44.166992l0.182617,0.294922l158.12207,257.100342
	l288.452148,43.075195l2.329102,0.580566c31.640625,7.884033,56.545898,31.105225,66.62207,62.117432
	c10.076172,31.011719,3.576172,64.436768-17.387695,89.412109l-3.108398,3.703369L950.745117,731.586426l48.874023,315.779541
	l0.146484,2.086426c2.279297,32.527832-12.110352,63.389648-38.490234,82.555664
	C944.900391,1143.905029,925.663086,1150.014893,906.199219,1150.015869z M600,899.963623
	c11.925781,0,23.850586,2.293945,35.200195,6.88208l2.313477,0.935059l260.499023,136.899902l-47.636719-307.787109
	l-0.146484-2.086426c-1.710938-24.424072,6.015625-48.201904,21.756836-66.953857l3.107422-3.702637l215.077148-173.817627
	l-276.135742-41.236084l-2.330078-0.580078c-23.756836-5.919678-43.983398-20.615234-56.954102-41.380371l-0.183594-0.295166
	L600,155.520508L445.249023,407.136475c-12.970703,20.765137-33.197266,35.460693-56.954102,41.380371l-2.330078,0.580078
	l-276.135742,41.236084L324.90625,664.150635l3.107422,3.702637c15.741211,18.751953,23.467773,42.529785,21.756836,66.953857
	l-0.146484,2.086426l-0.319336,2.067383l-47.317383,305.719727l260.499023-136.899902l2.313477-0.935059
	C576.149414,902.257568,588.074219,899.963623,600,899.963623z"/>
</svg>
