<?xml version="1.0" encoding="utf-8"?>
<!-- Generator: Adobe Illustrator 28.0.0, SVG Export Plug-In . SVG Version: 6.00 Build 0)  -->
<svg version="1.1" id="圖層_1" xmlns="http://www.w3.org/2000/svg" xmlns:xlink="http://www.w3.org/1999/xlink" x="0px" y="0px"
	 viewBox="0 0 1200 1200" enable-background="new 0 0 1200 1200" xml:space="preserve">
<path d="M963.762695,450H900V250c0-110.280273-89.719727-200-200-200H500c-110.280273,0-200,89.719727-200,200v200h-63.762695
	C188.685547,450,150,488.685547,150,536.237305v527.525391C150,1111.314453,188.685547,1150,236.237305,1150h727.525391
	C1011.314453,1150,1050,1111.314453,1050,1063.762695V536.237305C1050,488.685547,1011.314453,450,963.762695,450z M400,250
	c0-55.140625,44.859375-100,100-100h200c55.140625,0,100,44.859375,100,100v200H400V250z M950,1050H250V550h700V1050z"/>
</svg>
