<?xml version="1.0" encoding="utf-8"?>
<!-- Generator: Adobe Illustrator 28.0.0, SVG Export Plug-In . SVG Version: 6.00 Build 0)  -->
<svg version="1.1" id="圖層_1" xmlns="http://www.w3.org/2000/svg" xmlns:xlink="http://www.w3.org/1999/xlink" x="0px" y="0px"
	 viewBox="0 0 1200 1200" enable-background="new 0 0 1200 1200" xml:space="preserve">
<path d="M808.810547,738.099609c23.524658-29.771973,42.884277-62.459961,57.770508-97.655273
	C888.755859,588.016113,900,532.352539,900,475s-11.244141-113.016113-33.418945-165.444336
	c-21.408203-50.615234-52.04541-96.061035-91.060547-135.076172s-84.460938-69.652344-135.076172-91.060547
	C588.016113,61.244141,532.352539,50,475,50S361.983887,61.244141,309.555664,83.418945
	c-50.615234,21.408203-96.061035,52.04541-135.076172,91.060547s-69.6521,84.460938-91.060303,135.076172
	C61.243896,361.983887,50,417.647461,50,475s11.243896,113.016113,33.419189,165.444336
	c21.408203,50.615234,52.045166,96.061035,91.060303,135.076172s84.460938,69.652344,135.076172,91.060547
	C361.983887,888.755859,417.647461,900,475,900s113.016113-11.244141,165.444336-33.418945
	c35.195312-14.88623,67.883301-34.245605,97.655273-57.770508l301.544922,301.544922
	C1049.407715,1120.118652,1062.204102,1125,1075,1125s25.592285-4.881348,35.355469-14.644531
	c19.525879-19.526367,19.525879-51.18457,0-70.710938L808.810547,738.099609z M475,800c-179.205566,0-325-145.794434-325-325
	s145.794434-325,325-325s325,145.794434,325,325S654.205566,800,475,800z"/>
</svg>
