<?xml version="1.0" encoding="utf-8"?>
<!-- Generator: Adobe Illustrator 21.0.0, SVG Export Plug-In . SVG Version: 6.00 Build 0)  -->
<svg version="1.1" id="圖層_1" xmlns="http://www.w3.org/2000/svg" xmlns:xlink="http://www.w3.org/1999/xlink" x="0px" y="0px"
	 viewBox="0 0 1200 1200" enable-background="new 0 0 1200 1200" xml:space="preserve">
<path d="M935.355469,714.644531c-19.527344-19.525391-51.183594-19.525391-70.710938,0l-68.993164,68.994141
	C644.785156,665.901367,522.662109,544.019531,415.999023,404.711914l69.356445-69.356445
	c19.526367-19.526367,19.526367-51.18457,0-70.710938l-200-200c-19.527344-19.525391-51.183594-19.525391-70.710938,0l-150,150
	c-12.579102,12.579102-17.527344,30.895508-12.994141,48.097656c26.15332,99.233398,68.032227,199.558594,121.112305,290.129883
	c56.402344,96.243164,126.09668,186.140625,207.145508,267.195312c81.249023,81.254883,171.021484,150.944336,266.837891,207.140625
	c0.074219,0.043945,0.147461,0.087891,0.22168,0.130859c90.193359,52.873047,190.571289,94.717773,290.28418,121.008789
	c4.21582,1.111328,8.49707,1.65332,12.746094,1.65332c13.089844,0,25.859375-5.147461,35.357422-14.645508l150-150
	c19.526367-19.526367,19.526367-51.18457,0-70.710938L935.355469,714.644531z M935.298828,1043.991211
	c-81.859375-24.109375-163.453125-59.382812-237.579102-102.816406c-0.060547-0.036133-0.121094-0.072266-0.182617-0.107422
	c-88.551758-51.913086-171.625977-116.413086-246.916016-191.708984
	C375.59375,674.325195,311.135742,591.206055,259.038086,502.30957
	c-43.648438-74.477539-78.991211-156.077148-103.027344-237.610352L250,170.710938L379.289062,300l-64.644531,64.644531
	c-17.447266,17.447266-19.558594,45.012695-4.972656,64.913086C371.625,514.084961,437.663086,591.361328,511.55957,665.802734
	c77.592773,78.166016,162.089844,151.47168,258.317383,224.105469c19.907227,15.024414,47.841797,13.083008,65.478516-4.552734
	L900,820.710938L1029.289062,950L935.298828,1043.991211z"/>
</svg>
