<?xml version="1.0" encoding="utf-8"?>
<!-- Generator: Adobe Illustrator 21.0.0, SVG Export Plug-In . SVG Version: 6.00 Build 0)  -->
<svg version="1.1" id="圖層_1" xmlns="http://www.w3.org/2000/svg" xmlns:xlink="http://www.w3.org/1999/xlink" x="0px" y="0px"
	 viewBox="0 0 1200 1200" enable-background="new 0 0 1200 1200" xml:space="preserve">
<path d="M453.523926,233.786255L117.828613,600l335.695313,366.213745c18.660156,20.356079,17.284668,51.984253-3.071289,70.643921
	c-9.597656,8.797974-21.704102,13.1427-33.772949,13.1427c-13.527832,0-27.009277-5.455933-36.871094-16.214111l-366.66626-400
	c-17.522949-19.116089-17.522949-48.456421,0-67.57251l366.66626-400.000061
	c18.660645-20.356262,50.288086-21.730713,70.644043-3.071289C470.808594,181.801941,472.184082,213.430176,453.523926,233.786255z
	 M1186.857422,566.213745L820.190918,166.213684c-18.65918-20.355896-50.287598-21.730896-70.643555-3.071289
	c-20.355957,18.659546-21.731445,50.287781-3.071777,70.64386L1082.171387,600L746.475586,966.213745
	c-18.659668,20.356079-17.28418,51.984253,3.071777,70.643921c9.599121,8.799072,21.702637,13.1427,33.772949,13.1427
	c13.526367,0,27.010254-5.457153,36.870605-16.214111l366.666504-400
	C1204.380859,614.670166,1204.380859,585.329834,1186.857422,566.213745z"/>
</svg>
