<?xml version="1.0" encoding="utf-8"?>
<!-- Generator: Adobe Illustrator 21.0.0, SVG Export Plug-In . SVG Version: 6.00 Build 0)  -->
<svg version="1.1" id="圖層_1" xmlns="http://www.w3.org/2000/svg" xmlns:xlink="http://www.w3.org/1999/xlink" x="0px" y="0px"
	 viewBox="0 0 1200 1200" enable-background="new 0 0 1200 1200" xml:space="preserve">
<path d="M850,1200H350c-27.614258,0-50-22.385742-50-50V700H50c-19.828613,0-37.783691-11.717773-45.767578-29.868164
	c-7.984375-18.149414-4.488281-39.302734,8.911133-53.918945l550-599.958984C572.61377,5.923828,585.985352,0.041992,600,0.041992
	s27.38623,5.881836,36.856445,16.211914l550,599.958984c13.399414,14.616211,16.895508,35.769531,8.911133,53.918945
	C1187.783691,688.282227,1169.828613,700,1150,700H900v450C900,1177.614258,877.614258,1200,850,1200z M400,1100h400V650
	c0-27.614258,22.385742-50,50-50h186.33252L600,124.03418L163.66748,600H350c27.614258,0,50,22.385742,50,50V1100z"/>
</svg>
