<?xml version="1.0" encoding="utf-8"?>
<!-- Generator: Adobe Illustrator 21.0.0, SVG Export Plug-In . SVG Version: 6.00 Build 0)  -->
<svg version="1.1" id="圖層_1" xmlns="http://www.w3.org/2000/svg" xmlns:xlink="http://www.w3.org/1999/xlink" x="0px" y="0px"
	 viewBox="0 0 1200 1200" enable-background="new 0 0 1200 1200" xml:space="preserve">
<path d="M1152.828613,366.4375C1184.129395,440.440918,1200,519.022461,1200,600s-15.870605,159.559082-47.171387,233.5625
	c-30.222168,71.453613-73.477539,135.614746-128.564453,190.70166s-119.248047,98.342285-190.70166,128.564453
	C759.559082,1184.129395,680.977539,1200,600,1200c-150.754395,0-294.87793-56.132813-405.821777-158.058105
	C83.924316,940.649902,15.831543,803.048828,2.443848,654.487305c-2.478516-27.50293,17.808105-51.807617,45.311035-54.286133
	c27.507324-2.470215,51.807129,17.808105,54.285645,45.311035C125.38916,904.612793,339.464844,1100,600,1100
	c275.700684,0,500-224.298828,500-500S875.700684,100,600,100c-159.120117,0-305.859375,74.619141-399.445801,199.074219
	l65.570313,65.570313c14.299805,14.299805,18.577637,35.806152,10.838379,54.489746
	C269.224121,437.817871,250.992188,450,230.769043,450H50c-27.614258,0-50-22.385742-50-50V219.230713
	c0-20.223145,12.182129-38.454834,30.865723-46.194092c18.68457-7.739502,40.189941-3.461182,54.489746,10.838867
	l43.977539,43.977539c43.132324-54.493896,95.574707-101.386475,155.147461-138.282715C379.091309,30.9729,488.196289,0,600,0
	c80.977539,0,159.559082,15.87085,233.5625,47.171631c71.453613,30.222168,135.614746,73.477295,190.70166,128.564209
	C1079.351074,230.82251,1122.606445,294.983887,1152.828613,366.4375z M550,250c-27.614258,0-50,22.385742-50,50v338.461426
	c0,1.95874,0.125,3.887207,0.34375,5.787109c-1.685547,14.638672,3.072266,29.878174,14.300781,41.106934l200,200
	C724.407715,895.118652,737.204102,900,750,900s25.592285-4.881348,35.355469-14.644531
	c19.525879-19.526367,19.525879-51.18457,0-70.710938L600,629.289063V300C600,272.385742,577.614258,250,550,250z"/>
</svg>
