<?xml version="1.0" encoding="utf-8"?>
<!-- Generator: Adobe Illustrator 28.0.0, SVG Export Plug-In . SVG Version: 6.00 Build 0)  -->
<svg version="1.1" id="圖層_1" xmlns="http://www.w3.org/2000/svg" xmlns:xlink="http://www.w3.org/1999/xlink" x="0px" y="0px"
	 viewBox="0 0 1200 1200" enable-background="new 0 0 1200 1200" xml:space="preserve">
<path d="M1084.943848,111.244141c-81.527832-81.527832-214.184082-81.526855-295.712891,0l-76.271973,76.271973
	L226.443359,674.03125c-61.152344,61.152832-107.607422,133.426758-138.076172,214.813477
	c-25.45752,68-38.365234,139.042969-38.365234,211.155273c0,27.614258,22.385742,50,50,50
	c72.108887,0,143.147949-12.906738,211.145996-38.361328c0.00293-0.001465,0.006348-0.002441,0.009277-0.003418
	c81.38916-30.469727,153.662598-76.92627,214.813477-138.077637l486.515137-486.51416l76.271973-76.271973
	c0.105469-0.105957,0.210449-0.211914,0.31543-0.318359l0.927246-0.944336
	c38.923828-39.588867,60.230957-91.966309,59.995605-147.484375c-0.235352-55.517578-21.984863-107.712402-61.240234-146.967773
	L1084.943848,111.244141z M455.259766,902.847168c-43.500977,43.501465-93.773438,78.088379-149.787109,103.09668
	L194.058594,894.529297c25.007324-56.012695,59.59375-106.285156,103.095703-149.787598l451.159668-451.15918l158.105957,158.105469
	L455.259766,902.847168z M1018.67627,339.416992l-41.545898,41.560059L819.024902,222.871582l40.916992-40.916504
	c42.538086-42.538574,111.753418-42.537598,154.289551-0.002441l3.80957,3.810059
	c0.000488,0.000977,0.001465,0.001465,0.001953,0.002441C1060.222168,227.944336,1060.51416,296.864258,1018.67627,339.416992z"/>
</svg>
