<?xml version="1.0" encoding="utf-8"?>
<!-- Generator: Adobe Illustrator 21.0.0, SVG Export Plug-In . SVG Version: 6.00 Build 0)  -->
<svg version="1.1" id="圖層_1" xmlns="http://www.w3.org/2000/svg" xmlns:xlink="http://www.w3.org/1999/xlink" x="0px" y="0px"
	 viewBox="0 0 1200 1200" enable-background="new 0 0 1200 1200" xml:space="preserve">
<path d="M1150,200H650v-50c0-27.614258-22.385742-50-50-50s-50,22.385742-50,50v50H50c-27.614258,0-50,22.385742-50,50
	s22.385742,50,50,50h184.302734L102.416016,723.919922c-0.636719,1.972656-1.150391,3.999023-1.540039,6.071289
	c-0.030273,0.161133-0.057617,0.322266-0.085938,0.483398c-0.129883,0.728516-0.244141,1.461914-0.341797,2.201172
	c-0.033203,0.25293-0.066406,0.505859-0.09668,0.759766c-0.074219,0.640625-0.133789,1.286133-0.18457,1.93457
	c-0.024414,0.308594-0.051758,0.616211-0.070313,0.924805c-0.036133,0.610352-0.053711,1.225586-0.067383,1.841797
	c-0.007813,0.317383-0.023438,0.634766-0.024414,0.951172c0,0.066406-0.004883,0.131836-0.004883,0.198242
	c0,55.637695,20.37793,108.112305,57.380859,147.757813C195.272461,927.641602,245.921875,950,300,950
	s104.727539-22.358398,142.619141-62.956055C479.62207,847.398438,500,794.923828,500,739.286133
	c0-0.066406-0.004883-0.131836-0.004883-0.198242c-0.000977-0.316406-0.016602-0.633789-0.024414-0.951172
	c-0.013672-0.616211-0.03125-1.231445-0.067383-1.841797c-0.018555-0.308594-0.045898-0.616211-0.070313-0.924805
	c-0.050781-0.648438-0.110352-1.293945-0.18457-1.93457c-0.030273-0.253906-0.063477-0.506836-0.09668-0.759766
	c-0.097656-0.739258-0.211914-1.472656-0.341797-2.201172c-0.02832-0.161133-0.055664-0.322266-0.085938-0.483398
	c-0.389648-2.072266-0.90332-4.098633-1.540039-6.071289L365.697266,300H550v700H400c-27.614258,0-50,22.385742-50,50
	s22.385742,50,50,50h400c27.614258,0,50-22.385742,50-50s-22.385742-50-50-50H650V300h186.348633l-133.90332,425.620117
	c-0.639648,1.969727-1.15918,3.993164-1.552734,6.0625c-0.025391,0.132813-0.046875,0.265625-0.070313,0.398438
	c-0.137695,0.755859-0.258789,1.515625-0.361328,2.283203c-0.033203,0.24707-0.064453,0.494141-0.094727,0.742188
	c-0.076172,0.645508-0.139648,1.294922-0.191406,1.947266c-0.025391,0.3125-0.051758,0.625-0.071289,0.9375
	c-0.036133,0.59668-0.055664,1.199219-0.071289,1.801758c-0.008789,0.334961-0.023438,0.669922-0.025391,1.003906
	c0,0.091797-0.006836,0.182617-0.006836,0.274414c0,55.264648,20.446289,107.363281,57.572266,146.699219
	C795.447266,927.899414,846.029297,950,900,950s104.552734-22.100586,142.427734-62.229492
	C1079.553711,848.43457,1100,796.335938,1100,741.071289c0-0.091797-0.006836-0.182617-0.006836-0.274414
	c-0.001953-0.333984-0.016602-0.668945-0.025391-1.003906c-0.015625-0.602539-0.035156-1.205078-0.071289-1.801758
	c-0.019531-0.3125-0.045898-0.625-0.071289-0.9375c-0.051758-0.652344-0.115234-1.301758-0.191406-1.947266
	c-0.030273-0.248047-0.061523-0.495117-0.094727-0.742188c-0.102539-0.767578-0.223633-1.527344-0.361328-2.283203
	c-0.023438-0.132813-0.044922-0.265625-0.070313-0.398438c-0.393555-2.069336-0.913086-4.092773-1.552734-6.0625L963.651367,300
	H1150c27.614258,0,50-22.385742,50-50S1177.614258,200,1150,200z M300,850c-38.899414,0-72.679688-24.719727-89.205078-60.713867
	h178.410156C372.679688,825.280273,338.899414,850,300,850z M382.080078,689.286133H217.919922L300,425.455078
	L382.080078,689.286133z M900,850c-38.603516,0-72.164063-23.953125-88.824219-58.928711h177.648438
	C972.164063,826.046875,938.603516,850,900,850z M981.853516,691.071289H818.146484L900,430.894531L981.853516,691.071289z"/>
</svg>
