<?xml version="1.0" encoding="utf-8"?>
<!-- Generator: Adobe Illustrator 28.0.0, SVG Export Plug-In . SVG Version: 6.00 Build 0)  -->
<svg version="1.1" id="圖層_1" xmlns="http://www.w3.org/2000/svg" xmlns:xlink="http://www.w3.org/1999/xlink" x="0px" y="0px"
	 viewBox="0 0 1200 1200" enable-background="new 0 0 1200 1200" xml:space="preserve">
<path d="M1049.999512,950h-6.713867c-2.149414-2.529297-7.060547-9.645996-12.616211-26.627441
	c-7.086426-21.661621-12.96582-52.56543-17.474609-91.853027C1004.192871,753.083008,1000,636.164062,1000,463.568359
	c0-47.608398-10.498047-94.386719-31.202148-139.035156c-20.041016-43.217285-48.572754-82.162354-84.803223-115.75293
	C820.197998,149.63208,738.487061,112.892822,650,102.824219V50c0-27.614258-22.385742-50-50-50s-50,22.385742-50,50v52.824463
	c-88.486816,10.068604-170.197754,46.807861-233.994141,105.955566c-36.230469,33.59082-64.762451,72.535889-84.803467,115.753174
	C210.497803,369.181641,200,415.959961,200,463.568359c0,172.595703-4.192627,289.515137-13.19458,367.951172
	c-4.508789,39.287598-10.388428,70.191406-17.474854,91.853027c-5.555908,16.98291-10.467041,24.098633-12.616211,26.627441H150
	c-27.614258,0-50,22.385742-50,50s22.385742,50,50,50h300c0,82.710449,67.289551,150,150,150s150-67.289551,150-150h299.999512
	c27.614746,0,50-22.385742,50-50S1077.614258,950,1049.999512,950z M600,1100c-27.570312,0-50-22.429688-50-50h100
	C650,1077.570312,627.570312,1100,600,1100z M711.700195,950H488.299805H265.821777
	c5.729004-18.470703,10.536621-40.019043,14.629883-65.318359C293.971191,801.124023,300,671.248047,300,463.568359
	c0-65.827637,30.614746-131.966309,83.994629-181.456543C441.106445,229.161377,517.819336,200,600.000488,200
	s158.893066,29.161377,216.005371,82.111816C869.385254,331.602051,900,397.740723,900,463.568359
	c0,207.679199,6.028809,337.555176,19.54834,421.113281c4.093262,25.299316,8.900879,46.847656,14.629883,65.318359H711.700195z"/>
</svg>
