<?xml version="1.0" encoding="utf-8"?>
<!-- Generator: Adobe Illustrator 21.0.0, SVG Export Plug-In . SVG Version: 6.00 Build 0)  -->
<svg version="1.1" id="圖層_1" xmlns="http://www.w3.org/2000/svg" xmlns:xlink="http://www.w3.org/1999/xlink" x="0px" y="0px"
	 viewBox="0 0 1200 1200" enable-background="new 0 0 1200 1200" xml:space="preserve">
<path d="M735.355469,14.644531C725.978516,5.267578,713.260742,0,700,0H200c-27.614258,0-50,22.385742-50,50v1100
	c0,27.614258,22.385742,50,50,50h800c27.614258,0,50-22.385742,50-50V350c0-13.260742-5.267578-25.978516-14.644531-35.355469
	L735.355469,14.644531z M950,1100H250V100h429.289062L950,370.710938V1100z M650,250c27.614258,0,50,22.385742,50,50
	s-22.385742,50-50,50H400c-27.614258,0-50-22.385742-50-50s22.385742-50,50-50H650z M400,450h400c27.614258,0,50,22.385742,50,50
	s-22.385742,50-50,50H400c-27.614258,0-50-22.385742-50-50S372.385742,450,400,450z M850,700c0,27.614258-22.385742,50-50,50H400
	c-27.614258,0-50-22.385742-50-50s22.385742-50,50-50h400C827.614258,650,850,672.385742,850,700z M850,900
	c0,27.614258-22.385742,50-50,50H400c-27.614258,0-50-22.385742-50-50s22.385742-50,50-50h400
	C827.614258,850,850,872.385742,850,900z"/>
</svg>
