<?xml version="1.0" encoding="utf-8"?>
<!-- Generator: Adobe Illustrator 21.0.0, SVG Export Plug-In . SVG Version: 6.00 Build 0)  -->
<svg version="1.1" id="圖層_1" xmlns="http://www.w3.org/2000/svg" xmlns:xlink="http://www.w3.org/1999/xlink" x="0px" y="0px"
	 viewBox="0 0 1200 1200" enable-background="new 0 0 1200 1200" xml:space="preserve">
<path d="M1100,125H100C44.859741,125,0,169.859375,0,225v575c0,55.140625,44.859741,100,100,100h554.101563
	c7.039185,40.133789,23.114746,72.926758,48.043213,97.855469C736.745239,1032.456055,786.491089,1050,850,1050h50
	c27.614258,0,50-22.385742,50-50V900h150c55.140259,0,100-44.859375,100-100V225C1200,169.859375,1155.140259,125,1100,125z
	 M1100,800H900c-27.614258,0-50,22.385742-50,50v100c-36.023682,0-61.979004-7.689453-77.144775-22.855469
	C757.689697,911.978516,750,886.023438,750,850c0-27.614258-22.385742-50-50-50l-600-0.00293V225h1000V800z"/>
</svg>
