<?xml version="1.0" encoding="utf-8"?>
<!-- Generator: Adobe Illustrator 28.0.0, SVG Export Plug-In . SVG Version: 6.00 Build 0)  -->
<svg version="1.1" id="圖層_1" xmlns="http://www.w3.org/2000/svg" xmlns:xlink="http://www.w3.org/1999/xlink" x="0px" y="0px"
	 viewBox="0 0 1200 1200" enable-background="new 0 0 1200 1200" xml:space="preserve">
<path d="M1149.958984,650.003418c-10.198242,0-20.488281-3.108887-29.367188-9.566406L600,261.825195L79.408203,640.437012
	c-22.331055,16.241211-53.603516,11.304688-69.844727-11.02832c-16.242188-22.33252-11.304688-53.603516,11.02832-69.845703l550-400
	c17.53125-12.75,41.285156-12.75,58.816406,0l550,400c22.333008,16.242188,27.270508,47.513184,11.02832,69.845703
	C1180.652344,642.862305,1165.412109,650.003418,1149.958984,650.003418z M79.408203,1040.437012L600,661.825195
	l520.59082,378.610352c22.332031,16.242188,53.604492,11.304199,69.844727-11.027832
	c16.242188-22.33252,11.304688-53.603516-11.02832-69.845703L629.408203,559.562988c-17.53125-12.75-41.285156-12.75-58.816406,0
	l-550,400c-22.333008,16.242188-27.270508,47.513184-11.02832,69.845703
	c9.785156,13.455078,25.023438,20.595703,40.477539,20.594727C60.238281,1050.00293,70.53125,1046.893555,79.408203,1040.437012z"/>
</svg>
