<?xml version="1.0" encoding="utf-8"?>
<!-- Generator: Adobe Illustrator 21.0.0, SVG Export Plug-In . SVG Version: 6.00 Build 0)  -->
<svg version="1.1" id="圖層_1" xmlns="http://www.w3.org/2000/svg" xmlns:xlink="http://www.w3.org/1999/xlink" x="0px" y="0px"
	 viewBox="0 0 1200 1200" enable-background="new 0 0 1200 1200" xml:space="preserve">
<path d="M287.307617,781.430664c51.175781,48.754883,79.359375,112.007813,79.359375,178.107422v117.128906
	C366.666992,1144.672852,421.994141,1200,490,1200h220c68.005859,0,123.333008-55.327148,123.333008-123.333008V966.334961
	c0-69.774414,28.529297-136.792969,78.271484-183.871094c44.276367-41.904297,79.120117-91.325195,103.563477-146.890625
	c25.324219-57.568359,38.165039-118.882813,38.165039-182.240234c0-65.597656-13.719727-128.898438-40.77832-188.146484
	c-26.128906-57.209961-63.219727-107.568359-110.245117-149.674805c-46.916992-42.010742-100.897461-73.251953-160.441406-92.856445
	C679.71875,2.194336,614.657227-4.466797,548.480469,2.856445C446.220703,14.173828,349.685547,61.388672,276.658203,135.803711
	C203.678711,210.168945,158.231445,307.555664,148.6875,410.023438
	C135.673828,549.734375,186.199219,685.107422,287.307617,781.430664z M733.333008,966.334961v110.332031
	C733.333008,1089.533203,722.866211,1100,710,1100H490c-12.866211,0-23.333008-10.466797-23.333008-23.333008V959.538086
	c0-20.070313-1.811523-39.948242-5.400391-59.538086h278.244141C735.418945,921.726563,733.333008,943.87793,733.333008,966.334961z
	 M550,800V580.901367l27.639648,13.820313c14.076172,7.037109,30.644531,7.037109,44.720703,0L650,580.901367V800H550z
	 M248.255859,419.297852C263.666992,253.84082,394.555664,120.50293,559.481445,102.249023
	c13.738281-1.520508,27.397461-2.273438,40.941406-2.273438c87.232422,0,169.533203,31.253906,235.178711,90.035156
	c74.820313,66.995117,117.731445,162.972656,117.731445,263.322266c0,97.988281-39.231445,189.083008-110.466797,256.501953
	C815.124023,736.089844,792.204102,766.336914,774.445313,800H750V500c0-17.329102-8.972656-33.421875-23.713867-42.532227
	c-14.738281-9.110352-33.147461-9.94043-48.646484-2.189453L600,494.098633l-77.639648-38.820313
	c-15.499023-7.75-33.908203-6.921875-48.646484,2.189453C458.972656,466.578125,450,482.670898,450,500v300h-24.047852
	c-17.980469-33.458008-41.335938-63.980469-69.667969-90.97168C277.473633,633.947266,238.098633,528.344727,248.255859,419.297852z
	 M525,1000c0-27.614258,22.385742-50,50-50h50c27.614258,0,50,22.385742,50,50s-22.385742,50-50,50h-50
	C547.385742,1050,525,1027.614258,525,1000z"/>
</svg>
