<?xml version="1.0" encoding="utf-8"?>
<!-- Generator: Adobe Illustrator 21.0.0, SVG Export Plug-In . SVG Version: 6.00 Build 0)  -->
<svg version="1.1" id="圖層_1" xmlns="http://www.w3.org/2000/svg" xmlns:xlink="http://www.w3.org/1999/xlink" x="0px" y="0px"
	 viewBox="0 0 1200 1200" enable-background="new 0 0 1200 1200" xml:space="preserve">
<path d="M1051.989746,950.039063c-6.963867-12.208984-23.468262-52.063477-34.836426-167.312012
	c-8.194336-83.067871-12.488281-190.484375-12.762207-319.265137c-0.106445-49.867676-11.193848-98.186035-32.954102-143.613281
	c-20.792969-43.406738-50.38916-82.270996-87.966309-115.512939C819.415283,147.670166,737.897949,112.450684,650,102.745605V50
	c0-27.614258-22.385742-50-50-50s-50,22.385742-50,50v52.745605c-87.897949,9.704834-169.415527,44.924316-233.471191,101.590088
	c-37.577148,33.241943-67.172852,72.106201-87.965576,115.512939c-21.760498,45.427246-32.8479,93.745605-32.954346,143.613281
	c-0.27417,128.78125-4.568115,236.197754-12.761963,319.265137c-11.368408,115.248535-27.872559,155.103027-34.836914,167.312012
	C121.317383,951.08252,100,973.051758,100,1000c0,27.614258,22.385742,50,50,50h290.321777
	c5.180664,83.583008,74.813477,150,159.678223,150s154.497559-66.416992,159.678223-150h290.321289c27.614746,0,50-22.385742,50-50
	C1099.999512,973.051758,1078.682617,951.08252,1051.989746,950.039063z M600,1100c-29.675781,0-54.374023-21.661377-59.150635-50
	h118.30127C654.374023,1078.338623,629.675781,1100,600,1100z M702.200684,950c-0.276855,0.001465-0.552734-0.006348-0.829834,0
	H498.626465c-0.261963-0.005859-0.522461,0.001709-0.783936,0H255.177246
	c9.42334-31.195801,17.035645-70.975098,23.154297-120.846191c11.141113-90.810547,16.954102-213.775879,17.277344-365.479004
	C295.918457,318.28418,432.468262,200,600.000488,200c167.531738,0,304.080566,118.28418,304.390625,263.674805
	c0.323242,151.703125,6.13623,274.667969,17.277344,365.479004C927.787109,879.024902,935.399414,918.804199,944.822754,950
	H702.200684z"/>
</svg>
