<?xml version="1.0" encoding="utf-8"?>
<!-- Generator: Adobe Illustrator 21.0.0, SVG Export Plug-In . SVG Version: 6.00 Build 0)  -->
<svg version="1.1" id="圖層_1" xmlns="http://www.w3.org/2000/svg" xmlns:xlink="http://www.w3.org/1999/xlink" x="0px" y="0px"
	 viewBox="0 0 1200 1200" enable-background="new 0 0 1200 1200" xml:space="preserve">
<path d="M1150,100H50c-27.614258,0-50,22.385803-50,50v900c0,27.614258,22.385742,50,50,50h1100c27.614258,0,50-22.385742,50-50V150
	C1200,122.385803,1177.614258,100,1150,100z M1100,200v152.711731L600,670.40332L100,352.711731V200H1100z M100,1000V471.190002
	l455.93042,289.690613c13.593262,8.636963,28.828857,12.953979,44.069824,12.953979
	c15.237061,0,30.479248-4.31897,44.068848-12.953735L1100,471.190002V1000H100z"/>
</svg>
