<?xml version="1.0" encoding="utf-8"?>
<!-- Generator: Adobe Illustrator 28.0.0, SVG Export Plug-In . SVG Version: 6.00 Build 0)  -->
<svg version="1.1" id="圖層_1" xmlns="http://www.w3.org/2000/svg" xmlns:xlink="http://www.w3.org/1999/xlink" x="0px" y="0px"
	 viewBox="0 0 1200 1200" enable-background="new 0 0 1200 1200" xml:space="preserve">
<path d="M1113.485352,150H86.514648C38.810547,150,0,188.810547,0,236.514648v726.970703
	C0,1011.189453,38.810547,1050,86.514648,1050h1026.970703C1161.189453,1050,1200,1011.189453,1200,963.485352V236.514648
	C1200,188.810547,1161.189453,150,1113.485352,150z M1100,950H100V550h1000V950z M1100,450H100V250h1000V450z M200,825V725
	c0-27.614258,22.385742-50,50-50s50,22.385742,50,50v100c0,27.614258-22.385742,50-50,50S200,852.614258,200,825z M350,825V725
	c0-27.614258,22.385742-50,50-50s50,22.385742,50,50v100c0,27.614258-22.385742,50-50,50S350,852.614258,350,825z M500,825V725
	c0-27.614258,22.385742-50,50-50s50,22.385742,50,50v100c0,27.614258-22.385742,50-50,50S500,852.614258,500,825z"/>
</svg>
