<?xml version="1.0" encoding="utf-8"?>
<!-- Generator: Adobe Illustrator 28.0.0, SVG Export Plug-In . SVG Version: 6.00 Build 0)  -->
<svg version="1.1" id="圖層_1" xmlns="http://www.w3.org/2000/svg" xmlns:xlink="http://www.w3.org/1999/xlink" x="0px" y="0px"
	 viewBox="0 0 1200 1200" enable-background="new 0 0 1200 1200" xml:space="preserve">
<path d="M600,1200c-80.977539,0-159.55957-15.870605-233.5625-47.171387
	c-71.453125-30.222168-135.615234-73.477539-190.702148-128.564453C120.649414,969.177246,77.393555,905.016113,47.171875,833.5625
	C15.871094,759.559082,0,680.977539,0,600s15.871094-159.559082,47.171875-233.5625
	c30.22168-71.453613,73.477539-135.614746,128.563477-190.70166C230.822266,120.648926,294.984375,77.393555,366.4375,47.171387
	C440.44043,15.870605,519.022461,0,600,0s159.55957,15.870605,233.5625,47.171387
	c71.453125,30.222168,135.615234,73.477539,190.702148,128.564453c55.085938,55.086914,98.341797,119.248047,128.563477,190.70166
	C1184.128906,440.440918,1200,519.022461,1200,600s-15.871094,159.559082-47.171875,233.5625
	c-30.22168,71.453613-73.477539,135.614746-128.563477,190.70166c-55.086914,55.086914-119.249023,98.342285-190.702148,128.564453
	C759.55957,1184.129395,680.977539,1200,600,1200z M600,100c-67.521484,0-132.99707,13.212891-194.607422,39.271973
	c-59.533203,25.180664-113.010742,61.239258-158.946289,107.174805c-45.93457,45.935059-81.994141,99.412109-107.174805,158.945801
	C113.212891,467.00293,100,532.478516,100,600s13.212891,132.99707,39.271484,194.607422
	c25.180664,59.533691,61.240234,113.010742,107.174805,158.945801c45.935547,45.935547,99.413086,81.994141,158.946289,107.174805
	C467.00293,1086.787109,532.478516,1100,600,1100s132.99707-13.212891,194.607422-39.271973
	c59.533203-25.180664,113.010742-61.239258,158.946289-107.174805c45.93457-45.935059,81.994141-99.412109,107.174805-158.945801
	C1086.787109,732.99707,1100,667.521484,1100,600s-13.212891-132.99707-39.271484-194.607422
	c-25.180664-59.533691-61.240234-113.010742-107.174805-158.945801c-45.935547-45.935547-99.413086-81.994141-158.946289-107.174805
	C732.99707,113.212891,667.521484,100,600,100z M650,700c0-10.749512,10.950195-24.226074,20.136719-33.638184
	c18.072266-18.516602,44.419922-37.20166,67.666016-53.687012C807.070312,563.553711,850,515.024414,850,425
	c0-61.172852-24.327148-117.65332-68.499023-159.037109C735.439453,222.80957,672.677734,200,600,200
	c-35.451172,0-69.027344,5.200195-99.795898,15.456543c-29.703125,9.900879-56.195312,24.274414-78.741211,42.720703
	C376.046875,295.335449,350,347.027832,350,400c0,27.614258,22.385742,50,50,50s50-22.385742,50-50
	c0-22.856445,12.679688-46.338867,34.787109-64.427246C512.824219,312.633301,553.741211,300,600,300
	c46.819336,0,85.94043,13.465332,113.130859,38.939453C736.90625,361.213867,750,391.777344,750,425
	c0,41.645996-10.582031,63.937012-70.042969,106.104492C622.057617,572.164062,550,623.26416,550,700
	c0,27.614258,22.385742,50,50,50S650,727.614258,650,700z M650,950v-50c0-27.614258-22.385742-50-50-50s-50,22.385742-50,50v50
	c0,27.614258,22.385742,50,50,50S650,977.614258,650,950z"/>
</svg>
