<?xml version="1.0" encoding="utf-8"?>
<!-- Generator: Adobe Illustrator 21.0.0, SVG Export Plug-In . SVG Version: 6.00 Build 0)  -->
<svg version="1.1" id="圖層_1" xmlns="http://www.w3.org/2000/svg" xmlns:xlink="http://www.w3.org/1999/xlink" x="0px" y="0px"
	 viewBox="0 0 1200 1200" enable-background="new 0 0 1200 1200" xml:space="preserve">
<path d="M1152.828613,366.437622c-30.222168-71.453735-73.477539-135.61499-128.564453-190.701599
	C969.177246,120.649231,905.016113,77.393677,833.5625,47.17157C759.559082,15.870789,680.977539,0,600,0
	S440.440918,15.870789,366.4375,47.17157c-71.453613,30.222107-135.614746,73.477661-190.70166,128.564453
	c-55.086914,55.086609-98.342285,119.247864-128.564453,190.701599C15.870605,440.440796,0,519.022583,0,600
	s15.870605,159.559204,47.171387,233.562378c30.222168,71.453735,73.477539,135.61499,128.564453,190.701538
	c55.086914,55.086914,119.248047,98.342407,190.70166,128.564453C440.440918,1184.12915,519.022461,1200,600,1200
	s159.559082-15.87085,233.5625-47.171631c71.453613-30.222046,135.614746-73.477539,190.70166-128.564453
	c55.086914-55.086548,98.342285-119.247803,128.564453-190.701538C1184.129395,759.559204,1200,680.977417,1200,600
	S1184.129395,440.440796,1152.828613,366.437622z M1060.728027,794.607056
	c-25.180664,59.533691-61.239258,113.011108-107.174805,158.946411c-45.935059,45.935181-99.412109,81.993896-158.945801,107.174683
	C732.99707,1086.787109,667.521484,1100,600,1100s-132.99707-13.212891-194.607422-39.271851
	c-59.533691-25.180786-113.010742-61.239502-158.945801-107.174683c-45.935547-45.935303-81.994141-99.41272-107.174805-158.946411
	C113.212891,732.996826,100,667.521606,100,600s13.212891-132.996826,39.271973-194.607056
	c25.180664-59.533691,61.239258-113.011108,107.174805-158.946411c45.935059-45.935181,99.412109-81.993896,158.945801-107.174683
	C467.00293,113.212891,532.478516,100,600,100s132.99707,13.212891,194.607422,39.271851
	c59.533691,25.180786,113.010742,61.239502,158.945801,107.174683c45.935547,45.935303,81.994141,99.41272,107.174805,158.946411
	C1086.787109,467.003174,1100,532.478394,1100,600S1086.787109,732.996826,1060.728027,794.607056z M650,300v350
	c0,27.614136-22.385742,50-50,50s-50-22.385864-50-50V300c0-27.614136,22.385742-50,50-50S650,272.385864,650,300z M650,850v50
	c0,27.614258-22.385742,50-50,50s-50-22.385742-50-50v-50c0-27.614258,22.385742-50,50-50S650,822.385742,650,850z"/>
</svg>
