<?xml version="1.0" encoding="utf-8"?>
<!-- Generator: Adobe Illustrator 21.0.0, SVG Export Plug-In . SVG Version: 6.00 Build 0)  -->
<svg version="1.1" id="圖層_1" xmlns="http://www.w3.org/2000/svg" xmlns:xlink="http://www.w3.org/1999/xlink" x="0px" y="0px"
	 viewBox="0 0 1200 1200" enable-background="new 0 0 1200 1200" xml:space="preserve">
<path d="M1195.37207,457.333984c-10.07666-31.010742-34.981445-54.231445-66.621582-62.116211l-2.32959-0.580078L837.96875,351.5625
	L679.847168,94.462891l-0.183105-0.294922C662.38916,66.510742,632.608398,50,600,50s-62.38916,16.510742-79.664062,44.167969
	L362.03125,351.5625L75.954102,394.282227l-2.375,0.355469l-2.32959,0.580078
	c-31.640137,7.884766-56.544922,31.105469-66.621582,62.116211c-10.075684,31.011719-3.576172,64.4375,17.387207,89.413086
	l3.108887,3.704102l224.130859,181.134766l-48.873535,315.77832l-0.145996,2.085938
	c-2.280273,32.52832,12.10791,63.390625,38.488281,82.556641c26.380371,19.166992,60.179688,23.313477,90.409668,11.094727
	l2.313965-0.935547L600,1001.033203l268.552734,141.132812l2.313965,0.935547
	c11.46582,4.634766,23.439941,6.915039,35.333008,6.914062c19.463867-0.000977,38.702148-6.111328,55.07666-18.008789
	c26.380371-19.166016,40.768555-50.02832,38.488281-82.556641l-0.145996-2.085938l-48.873535-315.77832l224.130859-181.134766
	l3.108887-3.704102C1198.948242,521.771484,1205.447754,488.345703,1195.37207,457.333984z M875.09375,664.150391
	l-3.108398,3.703125c-15.741211,18.75293-23.467285,42.53125-21.755371,66.956055l0.145996,2.084961l47.636719,307.785156
	L639.722168,908.941406l-2.208496-1.161133l-2.313477-0.935547c-11.349609-4.586914-23.274902-6.880859-35.200195-6.880859
	s-23.850586,2.293945-35.200195,6.880859l-2.313477,0.935547l-260.499023,136.899414l47.636719-307.785156l0.145996-2.084961
	c1.711914-24.424805-6.01416-48.203125-21.755371-66.956055l-3.108398-3.703125L109.82959,490.333008l276.135742-41.236328
	l2.330078-0.580078c23.755859-5.919922,43.981934-20.615234,56.953125-41.378906L600,155.520508L754.567383,406.84082
	l0.184082,0.296875c12.971191,20.763672,33.197266,35.458984,56.953125,41.378906l2.330078,0.580078l276.135742,41.236328
	L875.09375,664.150391z M832.390137,569.668945c6.395996,26.863281-10.195801,53.825195-37.059082,60.22168l-112.993652,26.90332
	l72.678223,106.22168c15.593262,22.790039,9.758789,53.90625-13.03125,69.5
	c-8.632812,5.90625-18.463867,8.739258-28.189453,8.739258c-15.950195,0-31.623535-7.613281-41.310547-21.770508L600,713.545898
	l-72.484375,105.938477c-9.686035,14.15625-25.361816,21.770508-41.310547,21.770508
	c-9.727051,0-19.555176-2.832031-28.189453-8.739258c-22.790039-15.59375-28.624512-46.709961-13.03125-69.5l72.678223-106.22168
	l-112.993652-26.90332c-26.863281-6.396484-43.455078-33.358398-37.059082-60.22168
	c6.396484-26.862305,33.361816-43.451172,60.221191-37.05957L550,561.697266V450c0-27.614258,22.385742-50,50-50s50,22.385742,50,50
	v111.697266l122.168945-29.087891C799.030273,526.209961,825.994141,542.804688,832.390137,569.668945z"/>
</svg>
