<?xml version="1.0" encoding="utf-8"?>
<!-- Generator: Adobe Illustrator 21.0.0, SVG Export Plug-In . SVG Version: 6.00 Build 0)  -->
<svg version="1.1" id="圖層_1" xmlns="http://www.w3.org/2000/svg" xmlns:xlink="http://www.w3.org/1999/xlink" x="0px" y="0px"
	 viewBox="0 0 1200 1200" enable-background="new 0 0 1200 1200" xml:space="preserve">
<path d="M600,1200c-80.977417,0-159.559204-15.871094-233.562378-47.171875
	c-71.453735-30.22168-135.61499-73.477539-190.701599-128.563477C120.649231,969.177734,77.393677,905.015625,47.17157,833.5625
	C15.870789,759.55957,0,680.977539,0,600s15.870789-159.55957,47.17157-233.5625
	c30.222107-71.453125,73.477661-135.615234,128.564453-190.702148c55.086609-55.085938,119.247864-98.341797,190.701599-128.563477
	C440.440796,15.871094,519.022583,0,600,0s159.559204,15.871094,233.562378,47.171875
	c71.453735,30.22168,135.61499,73.477539,190.701538,128.563477c55.086914,55.086914,98.342407,119.249023,128.564453,190.702148
	C1184.12915,440.44043,1200,519.022461,1200,600s-15.87085,159.55957-47.171631,233.5625
	c-30.222046,71.453125-73.477539,135.615234-128.564453,190.702148
	c-55.086548,55.085938-119.247803,98.341797-190.701538,128.563477C759.559204,1184.128906,680.977417,1200,600,1200z M600,100
	c-67.521606,0-132.996826,13.212891-194.607056,39.271484c-59.533691,25.180664-113.011108,61.240234-158.946411,107.174805
	c-45.935181,45.935547-81.993896,99.413086-107.174683,158.946289C113.212891,467.00293,100,532.478516,100,600
	s13.212891,132.99707,39.271851,194.607422c25.180786,59.533203,61.239502,113.010742,107.174683,158.946289
	c45.935303,45.93457,99.41272,81.994141,158.946411,107.174805C467.003174,1086.787109,532.478394,1100,600,1100
	s132.996826-13.212891,194.607056-39.271484c59.533691-25.180664,113.011108-61.240234,158.946411-107.174805
	c45.935181-45.935547,81.993896-99.413086,107.174683-158.946289C1086.787109,732.99707,1100,667.521484,1100,600
	s-13.212891-132.99707-39.271851-194.607422c-25.180786-59.533203-61.239502-113.010742-107.174683-158.946289
	c-45.935303-45.93457-99.41272-81.994141-158.946411-107.174805C732.996826,113.212891,667.521606,100,600,100z M600,950
	c-47.227539,0-93.069214-9.260742-136.251221-27.525391c-41.683594-17.630859-79.109009-42.860352-111.236206-74.987305
	s-57.356567-69.552734-74.987427-111.236328C259.260742,693.069336,250,647.227539,250,600s9.260742-93.069336,27.525146-136.250977
	c17.630859-41.683594,42.860229-79.109375,74.987427-111.236328s69.552612-57.356445,111.236206-74.987305
	C506.930786,259.260742,552.772461,250,600,250c27.614258,0,50,22.385742,50,50v600C650,927.614258,627.614258,950,600,950z
	 M550,354.970703c-47.715332,9.633789-91.57019,33.045898-126.776855,68.25293C376.004639,470.442383,350,533.222656,350,600
	s26.004639,129.557617,73.223145,176.776367C458.42981,811.983398,502.284668,835.395508,550,845.029297V354.970703z"/>
</svg>
