<?xml version="1.0" encoding="utf-8"?>
<!-- Generator: Adobe Illustrator 28.0.0, SVG Export Plug-In . SVG Version: 6.00 Build 0)  -->
<svg version="1.1" id="圖層_1" xmlns="http://www.w3.org/2000/svg" xmlns:xlink="http://www.w3.org/1999/xlink" x="0px" y="0px"
	 viewBox="0 0 1200 1200" enable-background="new 0 0 1200 1200" xml:space="preserve">
<path d="M400.020508,1050.000732c-13.918945,0-27.763672-5.77771-37.649414-17.075562l-350-400
	c-16.494873-18.851318-16.494873-46.999023,0-65.850342l350-400.000061c18.183594-20.781372,49.771973-22.888062,70.554199-4.703674
	c20.781738,18.184143,22.887695,49.772339,4.703613,70.554077L116.438477,600l321.19043,367.074829
	c18.184082,20.781738,16.078125,52.369995-4.703613,70.554077C423.441406,1045.927368,411.70459,1050.000732,400.020508,1050.000732
	z M837.628906,1032.925171l350-400c16.494629-18.851318,16.494629-46.999023,0-65.850342l-350-400.000061
	c-18.184082-20.781433-49.771973-22.887939-70.554199-4.703674c-20.781738,18.184143-22.887695,49.772339-4.703613,70.554077
	L1083.561523,600l-321.19043,367.074829c-18.184082,20.781738-16.078125,52.369995,4.703613,70.554077
	c9.485352,8.299683,21.219238,12.371826,32.904785,12.371826C813.896973,1050.000732,827.744629,1044.22168,837.628906,1032.925171z
	"/>
</svg>
