<?xml version="1.0" encoding="utf-8"?>
<!-- Generator: Adobe Illustrator 21.0.0, SVG Export Plug-In . SVG Version: 6.00 Build 0)  -->
<svg version="1.1" id="圖層_1" xmlns="http://www.w3.org/2000/svg" xmlns:xlink="http://www.w3.org/1999/xlink" x="0px" y="0px"
	 viewBox="0 0 1200 1200" enable-background="new 0 0 1200 1200" xml:space="preserve">
<path d="M940.90918,1150c-115.292969,0-209.09082-93.797852-209.09082-209.09082v-109.09082H468.181641v109.09082
	c0,115.292969-93.797852,209.09082-209.090332,209.09082C143.798096,1150,50,1056.202148,50,940.90918
	s93.797852-209.09082,209.09082-209.09082h109.09082V468.181641H259.09082C143.797852,468.181641,50,374.383789,50,259.09082
	S143.797852,50,259.09082,50s209.09082,93.797852,209.09082,209.09082v109.09082h263.636719V259.09082
	C731.818359,143.797852,825.616211,50,940.908691,50C1056.202148,50,1150,143.797852,1150,259.09082
	s-93.797852,209.09082-209.09082,209.09082h-109.09082v263.636719h109.09082c115.292969,0,209.09082,93.797852,209.09082,209.09082
	S1056.202148,1150,940.90918,1150z M831.818359,831.818359v109.09082c0,60.152344,48.9375,109.09082,109.090332,109.09082
	S1050,1001.061523,1050,940.90918c0-60.15332-48.937988-109.09082-109.09082-109.09082H831.818359z M259.09082,831.818359
	c-60.152832,0-109.09082,48.9375-109.09082,109.09082C150,1001.061523,198.937988,1050,259.09082,1050
	s109.09082-48.938477,109.09082-109.09082v-109.09082H259.09082z M468.181641,731.818359h263.636719V468.181641H468.181641
	V731.818359z M831.818359,368.181641h109.09082c60.152832,0,109.09082-48.9375,109.09082-109.09082
	C1050,198.938477,1001.062012,150,940.90918,150s-109.09082,48.938477-109.09082,109.09082V368.181641z M259.091309,150
	C198.938232,150,150,198.938477,150,259.09082c0,60.15332,48.937988,109.09082,109.09082,109.09082h109.09082V259.09082
	C368.181641,198.938477,319.244141,150,259.091309,150z"/>
</svg>
