<?xml version="1.0" encoding="utf-8"?>
<!-- Generator: Adobe Illustrator 21.0.0, SVG Export Plug-In . SVG Version: 6.00 Build 0)  -->
<svg version="1.1" id="圖層_1" xmlns="http://www.w3.org/2000/svg" xmlns:xlink="http://www.w3.org/1999/xlink" x="0px" y="0px"
	 viewBox="0 0 1200 1200" enable-background="new 0 0 1200 1200" xml:space="preserve">
<path d="M700,600c27.614258,0,50-22.385742,50-50s-22.385742-50-50-50H500c-27.614258,0-50,22.385742-50,50s22.385742,50,50,50h50
	v60.000488h-50c-27.614258,0-50,22.385742-50,50V950c0,27.614258,22.385742,50,50,50h200c27.614258,0,50-22.385742,50-50V710.000488
	c0-27.614258-22.385742-50-50-50h-50V600H700z M650,900H550V760.000488h100V900z M1050,350
	c0-0.164551-0.010742-0.32666-0.012451-0.490723c-0.006592-0.670898-0.017334-1.341309-0.050781-2.008789
	c-0.038086-0.771484-0.098389-1.537109-0.171143-2.299316c-0.004639-0.049316-0.006348-0.098633-0.01123-0.147949
	c-0.822021-8.369141-3.70874-16.130371-8.142578-22.772949c-0.004883-0.007812-0.009766-0.015625-0.014648-0.023438
	c-0.408936-0.611816-0.833496-1.211426-1.268066-1.803711c-0.054443-0.074219-0.10498-0.150879-0.159668-0.224609
	c-0.397217-0.535156-0.809814-1.057617-1.227539-1.576172c-0.098877-0.122559-0.191895-0.249023-0.291992-0.371094
	c-0.410156-0.499023-0.835693-0.984863-1.264404-1.467773c-0.115234-0.129883-0.223633-0.26416-0.340332-0.392578
	c-0.550781-0.607422-1.115479-1.20166-1.695068-1.78125L735.355469,14.644531l0,0h-0.000244
	c-0.000977-0.000977-0.002197-0.001953-0.003174-0.00293c-0.576172-0.576172-1.166992-1.137207-1.770508-1.68457
	c-0.144287-0.130859-0.295166-0.25293-0.440918-0.382324c-0.467285-0.414062-0.936279-0.825684-1.418945-1.222168
	c-0.133545-0.109863-0.271973-0.211426-0.406494-0.319824c-0.50708-0.407715-1.017822-0.811523-1.540771-1.200195
	c-0.083496-0.061523-0.169922-0.119141-0.253662-0.180176c-0.582764-0.427246-1.172852-0.845215-1.774414-1.24707
	c-0.016357-0.01123-0.032959-0.020996-0.049072-0.031738c-6.63623-4.424316-14.387451-7.305664-22.745605-8.127441
	c-0.100586-0.010254-0.202637-0.013672-0.303467-0.023438c-0.711182-0.06543-1.424316-0.124023-2.143799-0.15918
	C701.672363,0.021484,700.837158,0,700,0H199.999756c-27.614258,0-50,22.385742-50,50v1100c0,27.614258,22.385742,50,50,50h800
	c27.614258,0,50-22.385742,50-50V550.009766c0-0.003418,0.000244-0.006348,0.000244-0.009766s-0.000244-0.006348-0.000244-0.009766
	V350.009766C1049.999756,350.006348,1050,350.003418,1050,350z M750,170.710449L879.289307,300H750V170.710449z M249.999756,1100
	V600H250h100c27.614258,0,50-22.385742,50-50s-22.385742-50-50-50H250h-0.000244V100H650v250c0,27.614258,22.385742,50,50,50
	h249.999756v100H850c-27.614258,0-50,22.385742-50,50s22.385742,50,50,50h99.999756v500H249.999756z"/>
</svg>
