<?xml version="1.0" encoding="utf-8"?>
<!-- Generator: Adobe Illustrator 21.0.0, SVG Export Plug-In . SVG Version: 6.00 Build 0)  -->
<svg version="1.1" id="圖層_1" xmlns="http://www.w3.org/2000/svg" xmlns:xlink="http://www.w3.org/1999/xlink" x="0px" y="0px"
	 viewBox="0 0 1200 1200" enable-background="new 0 0 1200 1200" xml:space="preserve">
<path d="M1179.408203,559.562988l-550-400c-17.53125-12.75-41.285156-12.75-58.816406,0l-550,400
	c-22.333008,16.242188-27.270508,47.513184-11.02832,69.845703c16.241211,22.333496,47.513672,27.269531,69.844727,11.02832
	L150,589.097656V1000c0,27.614258,22.385742,50,50,50h250c27.614258,0,50-22.385742,50-50V700h200v300
	c0,27.614258,22.385742,50,50,50h250c27.614258,0,50-22.385742,50-50V589.097656l70.591797,51.339355
	c8.878906,6.45752,19.168945,9.566406,29.367188,9.566406c15.453125,0,30.693359-7.141113,40.477539-20.594727
	C1206.678711,607.076172,1201.741211,575.805176,1179.408203,559.562988z M950,950H800V650c0-27.614258-22.385742-50-50-50H450
	c-27.614258,0-50,22.385742-50,50v300H250V516.370117l350-254.544922l350,254.544922V950z"/>
</svg>
