<?xml version="1.0" encoding="utf-8"?>
<!-- Generator: Adobe Illustrator 21.0.0, SVG Export Plug-In . SVG Version: 6.00 Build 0)  -->
<svg version="1.1" id="圖層_1" xmlns="http://www.w3.org/2000/svg" xmlns:xlink="http://www.w3.org/1999/xlink" x="0px" y="0px"
	 viewBox="0 0 1200 1200" enable-background="new 0 0 1200 1200" xml:space="preserve">
<path d="M835.355469,435.355469L670.710938,600l164.644531,164.644531c19.526367,19.526367,19.526367,51.18457,0,70.710938
	C825.591797,845.118652,812.795898,850,800,850s-25.591797-4.881348-35.355469-14.644531L600,670.710938L435.355469,835.355469
	C425.591797,845.118652,412.795898,850,400,850s-25.591797-4.881348-35.355469-14.644531
	c-19.526367-19.526367-19.526367-51.18457,0-70.710938L529.289062,600L364.644531,435.355469
	c-19.526367-19.526367-19.526367-51.18457,0-70.710938c19.527344-19.526367,51.183594-19.526367,70.710938,0L600,529.289062
	l164.644531-164.644531c19.527344-19.526367,51.183594-19.526367,70.710938,0
	C854.881836,384.170898,854.881836,415.829102,835.355469,435.355469z M1200,600
	c0,80.977539-15.871094,159.559082-47.171875,233.5625c-30.22168,71.453613-73.477539,135.614746-128.563477,190.70166
	c-55.086914,55.086914-119.249023,98.342285-190.702148,128.564453C759.55957,1184.129395,680.977539,1200,600,1200
	s-159.55957-15.870605-233.5625-47.171387c-71.453125-30.222168-135.615234-73.477539-190.702148-128.564453
	C120.649414,969.177246,77.393555,905.016113,47.171875,833.5625C15.871094,759.559082,0,680.977539,0,600
	s15.871094-159.559082,47.171875-233.5625c30.22168-71.453613,73.477539-135.61499,128.563477-190.70166
	C230.822266,120.648926,294.984375,77.393799,366.4375,47.171631C440.44043,15.87085,519.022461,0,600,0
	s159.55957,15.87085,233.5625,47.171631c71.453125,30.222168,135.615234,73.477295,190.702148,128.564209
	c55.085938,55.08667,98.341797,119.248047,128.563477,190.70166C1184.128906,440.440918,1200,519.022461,1200,600z M1100,600
	c0-275.701172-224.298828-500-500-500S100,324.298828,100,600s224.298828,500,500,500S1100,875.701172,1100,600z"/>
</svg>
