<?xml version="1.0" encoding="utf-8"?>
<!-- Generator: Adobe Illustrator 21.0.0, SVG Export Plug-In . SVG Version: 6.00 Build 0)  -->
<svg version="1.1" id="圖層_1" xmlns="http://www.w3.org/2000/svg" xmlns:xlink="http://www.w3.org/1999/xlink" x="0px" y="0px"
	 viewBox="0 0 1200 1200" enable-background="new 0 0 1200 1200" xml:space="preserve">
<path d="M1100,200h-100H900V86.666504C900,38.878418,861.548828,0,814.285645,0H385.714355
	C338.451172,0,300,38.878418,300,86.666504V200H200H100c-27.614258,0-50,22.385742-50,50s22.385742,50,50,50h50v750
	c0,82.710449,67.289551,150,150,150h600c82.710449,0,150-67.289551,150-150V300h50c27.614258,0,50-22.385742,50-50
	S1127.614258,200,1100,200z M400,100h400v100H400V100z M950,1050c0,27.569824-22.430176,50-50,50H300
	c-27.569824,0-50-22.430176-50-50V300h700V1050z M450,450v500c0,27.614258-22.385742,50-50,50s-50-22.385742-50-50V450
	c0-27.614258,22.385742-50,50-50S450,422.385742,450,450z M850,450v500c0,27.614258-22.385742,50-50,50s-50-22.385742-50-50V450
	c0-27.614258,22.385742-50,50-50S850,422.385742,850,450z M650,450v500c0,27.614258-22.385742,50-50,50s-50-22.385742-50-50V450
	c0-27.614258,22.385742-50,50-50S650,422.385742,650,450z"/>
</svg>
