<?xml version="1.0" encoding="utf-8"?>
<!-- Generator: Adobe Illustrator 21.0.0, SVG Export Plug-In . SVG Version: 6.00 Build 0)  -->
<svg version="1.1" id="圖層_1" xmlns="http://www.w3.org/2000/svg" xmlns:xlink="http://www.w3.org/1999/xlink" x="0px" y="0px"
	 viewBox="0 0 1200 1200" enable-background="new 0 0 1200 1200" xml:space="preserve">
<path d="M1150,292.976074c0,64.900879-25.273438,125.917969-71.165527,171.810547L805.924316,737.696777
	c-45.214355,45.213867-104.890625,70.009766-168.317871,70.009766c-0.974609,0-1.945313-0.005859-2.921875-0.017578
	c-63.772461-0.765137-124.160645-26.453613-170.040039-72.333984c-19.526367-19.526367-19.525879-51.18457,0.000488-70.710938
	c19.525879-19.526367,51.184082-19.525879,70.710938,0.000977c27.311035,27.312012,63.012695,42.601074,100.527832,43.05127
	c37.334473,0.434082,72.629395-14.009277,99.32959-40.710449l272.910156-272.909668
	c55.746094-55.746582,55.746094-146.453125,0-202.199463c-27.004883-27.004639-62.909668-41.877197-101.100098-41.877197
	c-38.189941,0-74.094727,14.872314-101.099121,41.876953c-0.103027,0.103271-0.206543,0.206055-0.310547,0.30835
	L685.044922,310.663086c-19.696289,19.355469-51.353516,19.077637-70.708008-0.618164
	c-19.354492-19.696289-19.078125-51.353516,0.618164-70.708252L735.36377,121.015869
	c45.875-45.797119,106.82959-71.016357,171.659668-71.016357c64.901367,0,125.918457,25.27417,171.811035,71.166748
	C1124.726074,167.05835,1150,228.074707,1150,292.976074z M514.955078,889.336914L394.38623,1007.815918
	c-0.104004,0.102051-0.20752,0.20459-0.310547,0.307617c-27.004395,27.004883-62.90918,41.876953-101.099121,41.876953
	c-38.19043-0.000488-74.095215-14.872559-101.100098-41.87793C164.87207,981.118164,150,945.213867,150,907.023438
	c0-38.189941,14.87207-74.094238,41.876465-101.098633l272.909668-272.911133
	c55.379395-55.378418,143.16748-54.351074,199.858398,2.34082c19.526367,19.525391,51.18457,19.525391,70.710938,0
	c19.525879-19.526367,19.525879-51.18457,0-70.710938c-45.879883-45.879395-106.267578-71.567383-170.040039-72.33252
	c-64.54541-0.765625-125.330566,24.083496-171.239746,69.992188L121.165527,735.213867
	C75.273926,781.105957,50,842.122559,50,907.023926s25.273438,125.917969,71.166016,171.810547
	c45.892578,45.89209,106.90918,71.166016,171.810547,71.166016c64.821777,0,125.772949-25.216797,171.645996-71.002441
	l120.422363-118.334961c19.696289-19.35498,19.972656-51.011719,0.618164-70.708008
	C566.308594,870.259766,534.652344,869.981445,514.955078,889.336914z"/>
</svg>
