<?xml version="1.0" encoding="utf-8"?>
<!-- Generator: Adobe Illustrator 21.0.0, SVG Export Plug-In . SVG Version: 6.00 Build 0)  -->
<svg version="1.1" id="圖層_1" xmlns="http://www.w3.org/2000/svg" xmlns:xlink="http://www.w3.org/1999/xlink" x="0px" y="0px"
	 viewBox="0 0 1200 1200" enable-background="new 0 0 1200 1200" xml:space="preserve">
<path d="M1188.857422,986.497314L663.316406,135.316406C649.662109,113.200195,625.992188,99.996582,600,99.996582
	s-49.662109,13.203613-63.316406,35.319824v-0.000244L11.142578,986.497559
	c-14.160156,22.934326-14.799805,51.804443-1.668945,75.34375c13.130859,23.539063,38.03125,38.162109,64.985352,38.162109
	h1051.082031c26.954102,0,51.854492-14.623047,64.985352-38.162109
	C1203.657227,1038.302002,1203.017578,1009.431885,1188.857422,986.497314z M120.328125,1000.003418L600,223.113525
	l479.671875,776.889893H120.328125z M600,400.006592c27.614258,0,50,22.385742,50,50v300c0,27.614258-22.385742,50-50,50
	s-50-22.385742-50-50v-300C550,422.392334,572.385742,400.006592,600,400.006592z M650,899.246094v1.520996
	c0,27.614258-22.385742,50-50,50s-50-22.385742-50-50v-1.520996c0-27.614258,22.385742-50,50-50S650,871.631836,650,899.246094z"/>
</svg>
