<?xml version="1.0" encoding="utf-8"?>
<!-- Generator: Adobe Illustrator 21.0.0, SVG Export Plug-In . SVG Version: 6.00 Build 0)  -->
<svg version="1.1" id="圖層_1" xmlns="http://www.w3.org/2000/svg" xmlns:xlink="http://www.w3.org/1999/xlink" x="0px" y="0px"
	 viewBox="0 0 1200 1200" enable-background="new 0 0 1200 1200" xml:space="preserve">
<path d="M1200,1050c0,27.614258-22.385742,50-50,50H50c-27.614197,0-50-22.385742-50-50V150c0-27.614258,22.385803-50,50-50
	s50,22.385742,50,50v850h1050C1177.614258,1000,1200,1022.385742,1200,1050z M166.085938,836.740234
	c9.614319,8.874756,21.773804,13.26001,33.901611,13.26001c13.468262,0,26.897095-5.409424,36.752686-16.086182
	l266.510742-288.719971l213.300659,191.970703c9.947021,8.951904,23.066895,13.541992,36.425293,12.746338
	c13.358276-0.796631,25.839722-6.915039,34.651855-16.98584l350-400c18.184082-20.781982,16.078369-52.370117-4.703491-70.554199
	c-20.782104-18.184082-52.370361-16.078613-70.554077,4.703613L745.760132,628.916016L533.448364,437.835205
	c-20.342896-18.30835-51.625-16.859619-70.188599,3.250732l-300,325
	C144.529541,786.377197,145.794983,818.01001,166.085938,836.740234z"/>
</svg>
