<?xml version="1.0" encoding="utf-8"?>
<!-- Generator: Adobe Illustrator 21.0.0, SVG Export Plug-In . SVG Version: 6.00 Build 0)  -->
<svg version="1.1" id="圖層_1" xmlns="http://www.w3.org/2000/svg" xmlns:xlink="http://www.w3.org/1999/xlink" x="0px" y="0px"
	 viewBox="0 0 1200 1200" enable-background="new 0 0 1200 1200" xml:space="preserve">
<path d="M1200,600c0,80.977539-15.87085,159.55957-47.171631,233.5625
	c-30.222168,71.453125-73.477539,135.615234-128.564209,190.701172c-55.086914,55.086914-119.248047,98.342773-190.70166,128.564453
	C759.559082,1184.128906,680.977539,1200,600,1200c-119.053589,0-233.391724-34.992188-330.305176-98.983398l-84.339355,84.338867
	c-9.565186,9.564453-22.354492,14.646484-35.366455,14.646484c-6.441406,0-12.936768-1.245117-19.123047-3.807617
	C112.182129,1188.455078,100,1170.222656,100,1150V900c0-27.614258,22.385742-50,50-50h250
	c20.223145,0,38.454834,12.182617,46.194092,30.866211c7.739014,18.683594,3.461182,40.189453-10.838623,54.489258
	l-93.161621,93.162109C419.085693,1074.836914,507.849487,1100,600,1100c275.700928,0,500-224.298828,500-500
	c0-27.614258,22.385742-50,50-50C1177.614014,550,1200,572.385742,1200,600z M100,600c0-275.701172,224.299072-500,500-500
	c92.149414,0,180.913574,25.164062,257.805664,71.483398l-93.161133,93.161133
	c-14.299805,14.299805-18.577637,35.805664-10.838623,54.489258C761.545166,337.817383,779.776855,350,800,350h250
	c27.614258,0,50-22.385742,50-50V50c0-20.222656-12.182129-38.455078-30.865967-46.194336
	c-18.68335-7.740234-40.189453-3.460938-54.489502,10.838867l-84.3396,84.339844C833.391113,34.993164,719.052246,0,600,0
	c-80.977539,0-159.559082,15.871094-233.5625,47.171875c-71.453369,30.22168-135.614746,73.477539-190.70166,128.564453
	C120.64917,230.822266,77.393799,294.984375,47.171631,366.4375C15.87085,440.44043,0,519.022461,0,600
	c0,27.614258,22.385742,50,50,50S100,627.614258,100,600z"/>
</svg>
