<?xml version="1.0" encoding="utf-8"?>
<!-- Generator: Adobe Illustrator 21.0.0, SVG Export Plug-In . SVG Version: 6.00 Build 0)  -->
<svg version="1.1" id="圖層_1" xmlns="http://www.w3.org/2000/svg" xmlns:xlink="http://www.w3.org/1999/xlink" x="0px" y="0px"
	 viewBox="0 0 1200 1200" enable-background="new 0 0 1200 1200" xml:space="preserve">
<path d="M1180,210c-22.091797-16.567383-53.430664-12.091797-70,10l-47.232422,62.976563
	c-16.461914-22.499023-36.079102-43.000977-58.464844-60.819336C945.844727,175.625977,871.583008,150,795.197266,150
	c-48.202148,0-95.018555,10.050781-139.152344,29.874023c-54.833984,24.630859-101.321289,63.162109-134.433594,111.429688
	c-29.875977,43.546875-47.53418,93.213867-51.691406,144.881836c-76.207031-14.841797-145.753906-51.006836-199.789063-104.612305
	c-29.364258-29.131836-53.121094-62.405273-70.610352-98.895508c-9.013672-18.80957-28.758789-30.037109-49.53125-28.193359
	c-20.774414,1.853516-38.216797,16.407227-43.759766,36.514648c-23.157227,84.003906-23.688477,172.882813-1.537109,257.02832
	c22.722656,86.3125,69.113281,166.149414,134.183594,230.945313C228.678711,729.657227,218.450195,730,208.204102,730
	c-48.697266,0-96.681641-7.640625-142.620117-22.708984c-20.227539-6.631836-42.445313,0.267578-55.351563,17.203125
	c-12.90625,16.93457-13.671875,40.183594-1.908203,57.930664C61.65332,862.880859,135.989258,930.05957,223.297852,976.700195
	C313.064453,1024.65332,415.304688,1050,518.964844,1050c80.943359,0,159.517578-14.941406,233.538086-44.410156
	c71.655273-28.526367,136.045898-69.400391,191.382813-121.485352c55.550781-52.287109,99.199219-113.251953,129.734375-181.203125
	C1105.34375,632.306641,1121.428711,557.311523,1121.428711,480c0-3.874023-0.129883-7.486328-0.244141-10.673828
	c-0.047852-1.331055-0.09668-2.661133-0.131836-3.994141v0.000977c-0.136719-5.107422-0.350586-10.22168-0.631836-15.333008H1150
	c27.614258,0,50-22.385742,50-50s-22.385742-50-50-50h-12.5l52.5-70C1206.568359,257.908203,1202.091797,226.568359,1180,210z
	 M518.964844,950c-126.676758,0-245.321289-43.609375-336.271484-120.576172C191.177734,829.807617,199.679688,830,208.204102,830
	c54.586914,0,108.772461-7.992188,161.050781-23.755859c18.666016-5.62793,32.357422-21.59082,35.077148-40.895508
	s-6.02832-38.429688-22.412109-48.996094c-26.124023-16.84668-50.318359-36.25-71.910156-57.669922
	C235.269531,584.535156,193.294922,489.8125,188.683594,391.261719c3.600586,3.819336,7.276367,7.589844,11.019531,11.303711
	c83.970703,83.303711,197.183594,133.133789,318.78418,140.3125c14.924805,0.885742,29.464844-4.962891,39.625977-15.933594
	c10.161133-10.96875,14.880859-25.910156,12.863281-40.726563c-1.37207-10.076172-2.011719-18.407227-2.011719-26.217773
	c0-81.041992,49.067383-153.426758,128.053711-188.905273C728.181641,257.097656,761.213867,250,795.197266,250
	c109.235352,0,202.46875,72.142578,222.235352,171.734375c2.010742,15.220703,3.240234,30.782227,3.655273,46.27832
	c0,0,0,0,0,0.000977c0.043945,1.636719,0.102539,3.269531,0.161133,4.902344c0.092773,2.575195,0.179688,5.005859,0.179688,7.083984
	C1021.428711,739.15918,796.024414,950,518.964844,950z"/>
</svg>
