<?xml version="1.0" encoding="utf-8"?>
<!-- Generator: Adobe Illustrator 28.0.0, SVG Export Plug-In . SVG Version: 6.00 Build 0)  -->
<svg version="1.1" id="圖層_1" xmlns="http://www.w3.org/2000/svg" xmlns:xlink="http://www.w3.org/1999/xlink" x="0px" y="0px"
	 viewBox="0 0 1200 1200" enable-background="new 0 0 1200 1200" xml:space="preserve">
<path d="M1150,100H50c-27.614258,0-50,22.385803-50,50v900c0,27.614258,22.385742,50,50,50h1100c27.614258,0,50-22.385742,50-50V150
	C1200,122.385803,1177.614258,100,1150,100z M1100,200v151.879944L603.39917,650h-6.79834L100,351.879944V200H1100z M100,1000
	V468.515625l457.010254,274.352783C564.783447,747.535034,573.678955,750,582.745117,750h34.509766
	c9.066162,0,17.96167-2.464966,25.734863-7.131592L1100,468.515625V1000H100z"/>
</svg>
