<?xml version="1.0" encoding="utf-8"?>
<!-- Generator: Adobe Illustrator 21.0.0, SVG Export Plug-In . SVG Version: 6.00 Build 0)  -->
<svg version="1.1" id="圖層_1" xmlns="http://www.w3.org/2000/svg" xmlns:xlink="http://www.w3.org/1999/xlink" x="0px" y="0px"
	 viewBox="0 0 1200 1200" enable-background="new 0 0 1200 1200" xml:space="preserve">
<path d="M963.762695,450H900V200C900,89.719727,810.280273,0,700,0H500C389.719727,0,300,89.719727,300,200
	c0,27.614258,22.385742,50,50,50s50-22.385742,50-50c0-55.140625,44.859375-100,100-100h200c55.140625,0,100,44.859375,100,100v250
	H236.237305C188.685547,450,150,488.685547,150,536.237305v577.525391C150,1161.314453,188.685547,1200,236.237305,1200h727.525391
	C1011.314453,1200,1050,1161.314453,1050,1113.762695V536.237305C1050,488.685547,1011.314453,450,963.762695,450z M950,1100H250
	V550h700V1100z M700,650c0,27.614258-22.385742,50-50,50v100c0,27.614258-22.385742,50-50,50s-50-22.385742-50-50V700
	c-27.614258,0-50-22.385742-50-50s22.385742-50,50-50h100C677.614258,600,700,622.385742,700,650z"/>
</svg>
