<?xml version="1.0" encoding="utf-8"?>
<!-- Generator: Adobe Illustrator 21.0.0, SVG Export Plug-In . SVG Version: 6.00 Build 0)  -->
<svg version="1.1" id="圖層_1" xmlns="http://www.w3.org/2000/svg" xmlns:xlink="http://www.w3.org/1999/xlink" x="0px" y="0px"
	 viewBox="0 0 1200 1200" enable-background="new 0 0 1200 1200" xml:space="preserve">
<path d="M1190.435547,629.407715c-9.78418,13.453613-25.024414,20.594727-40.477539,20.594727
	c-10.198242,0-20.488281-3.109375-29.367188-9.566895L599.999023,261.82373L80.105469,639.928711
	c-19.59375,14.812012-47.598633,13.288086-65.459961-4.572266C4.305664,625.016113-0.990234,610.666992,0.15332,596.088867
	s8.611328-27.925781,20.4375-36.526855l550-400c17.53125-12.750977,41.285156-12.750977,58.816406,0l550,400
	C1201.740234,575.804199,1206.677734,607.075195,1190.435547,629.407715z M1179.407227,959.562012l-550-400
	c-17.53125-12.750977-41.285156-12.750977-58.816406,0l-550,400c-11.826172,8.601074-19.293945,21.94873-20.4375,36.526855
	s4.152344,28.927246,14.492188,39.267578c17.861328,17.860352,45.866211,19.384766,65.459961,4.572266l519.893555-378.10498
	l520.591797,378.611816c8.878906,6.45752,19.168945,9.566895,29.367188,9.566895
	c15.453125,0,30.693359-7.141113,40.477539-20.594727C1206.677734,1007.075195,1201.740234,975.804199,1179.407227,959.562012z"/>
</svg>
