<?xml version="1.0" encoding="utf-8"?>
<!-- Generator: Adobe Illustrator 28.0.0, SVG Export Plug-In . SVG Version: 6.00 Build 0)  -->
<svg version="1.1" id="圖層_1" xmlns="http://www.w3.org/2000/svg" xmlns:xlink="http://www.w3.org/1999/xlink" x="0px" y="0px"
	 viewBox="0 0 1200 1200" enable-background="new 0 0 1200 1200" xml:space="preserve">
<path d="M1152.828369,366.4375c-30.222046-71.453613-73.477539-135.61499-128.564453-190.70166
	c-55.086548-55.086914-119.247803-98.342041-190.701538-128.564209C759.559204,15.87085,680.977417,0,600,0
	S440.440796,15.87085,366.437622,47.171631c-71.453735,30.222168-135.61499,73.477295-190.701599,128.564209
	C120.649231,230.82251,77.393677,294.983887,47.17157,366.4375C15.870789,440.440918,0,519.022461,0,600
	s15.870789,159.559082,47.17157,233.5625c30.222107,71.453613,73.477661,135.614746,128.564453,190.70166
	c55.086609,55.086914,119.247864,98.342285,190.701599,128.564453C440.440796,1184.129395,519.022583,1200,600,1200
	s159.559204-15.870605,233.562378-47.171387c71.453735-30.222168,135.61499-73.477539,190.701538-128.564453
	c55.086914-55.086914,98.342407-119.248047,128.564453-190.70166C1184.12915,759.559082,1200,680.977539,1200,600
	S1184.12915,440.440918,1152.828369,366.4375z M450,1077.131836V971.700195c0-45.524414,16.31604-64.009766,29.426147-78.862793
	c3.970337-4.498047,8.07605-9.149902,11.724731-14.436523c9.468262-13.71875,11.477173-31.253906,5.356934-46.758789
	s-19.564575-26.939941-35.850464-30.493164c-55.576294-12.124512-97.768188-34.866699-125.403931-67.595215
	C312.19043,706.240723,300,672.023438,300,634.600586c0-42.102539,20.710449-77.382324,40.96936-106.34082
	C346.847412,519.85791,350,509.852051,350,499.598145v-91.77002c35.167847,9.902832,67.478638,26.633789,80.573853,34.681641
	C438.518921,447.475098,447.526489,450,456.897217,450h286.205566c9.319824,0,18.454224-2.60498,26.372437-7.520508
	c0.49707-0.308594,37.278076-22.589844,80.52478-34.754395v91.873047c0,10.253906,3.152588,20.259766,9.03064,28.661621
	C879.289551,557.218262,900,592.498047,900,634.600586c0,37.422852-12.19043,71.640137-35.253418,98.953125
	c-27.635742,32.728516-69.827637,55.470703-125.403931,67.595215c-16.285889,3.553223-29.730225,14.988281-35.850464,30.493164
	c-6.120239,15.504395-4.111328,33.039551,5.356689,46.758789c3.648926,5.286621,7.754639,9.938477,11.724976,14.436523
	C733.684082,907.69043,750,926.175781,750,971.700195v105.431641C701.724365,1092.317383,651.457642,1100,600,1100
	S498.275635,1092.317383,450,1077.131836z M1060.728149,794.607422
	c-25.180786,59.533691-61.239502,113.010742-107.174683,158.945801C922.359802,984.74707,887.684387,1011.380127,850,1033.150879
	v-61.450684c0-40.639648-8.744507-71.370117-19.754883-94.513672c12.312988-5.151367,24.050781-10.875977,35.167725-17.156738
	c29.717773-16.790527,55.199707-37.636719,75.738403-61.960449C979.650391,752.476074,1000,695.949219,1000,634.600586
	c0-62.660645-25.081421-112.46582-50-150.37207V350c0-27.614258-22.385864-50-50-50
	c-38.369385,0-80.927002,9.72998-126.490601,28.92041C755.121704,336.664551,739.863403,344.492676,729.80603,350H470.19397
	c-10.057373-5.507324-25.315674-13.335449-43.703369-21.07959C380.927002,309.72998,338.369385,300,300,300
	c-27.614136,0-50,22.385742-50,50v134.228516c-24.918579,37.90625-50,87.711426-50,150.37207
	c0,61.348633,20.349609,117.875488,58.848755,163.46875c20.538696,24.32373,46.02063,45.169922,75.738403,61.960449
	c11.116943,6.280762,22.854614,12.005371,35.167725,17.156738C358.744507,900.330078,350,931.060547,350,971.700195v61.450684
	c-37.684387-21.770752-72.359802-48.403809-103.553467-79.597656c-45.935181-45.935059-81.993896-99.412109-107.174683-158.945801
	C113.212891,732.99707,100,667.521484,100,600s13.212891-132.99707,39.271851-194.607422
	c25.180786-59.533691,61.239502-113.010742,107.174683-158.946045c45.935303-45.935303,99.41272-81.993896,158.946411-107.174805
	C467.003174,113.212891,532.478394,100,600,100s132.996826,13.212891,194.607056,39.271729
	c59.533691,25.180908,113.011108,61.239502,158.946411,107.174805c45.935181,45.935303,81.993896,99.412354,107.174683,158.946045
	C1086.787109,467.00293,1100,532.478516,1100,600S1086.787109,732.99707,1060.728149,794.607422z"/>
</svg>
