<?xml version="1.0" encoding="utf-8"?>
<!-- Generator: Adobe Illustrator 21.0.0, SVG Export Plug-In . SVG Version: 6.00 Build 0)  -->
<svg version="1.1" id="圖層_1" xmlns="http://www.w3.org/2000/svg" xmlns:xlink="http://www.w3.org/1999/xlink" x="0px" y="0px"
	 viewBox="0 0 1200 1200" enable-background="new 0 0 1200 1200" xml:space="preserve">
<path d="M1050,73.333435c-155.382813,0-434.794922-71.053406-437.595703-71.770569
	c-8.138672-2.083862-16.669922-2.083862-24.808594,0C584.792969,2.280762,305.537109,73.333435,150,73.333435
	c-27.614258,0-50,22.385498-50,50v546.780823c0,260.2052,205.332031,482.525269,488.232422,528.627563l3.724609,0.607178
	c2.663086,0.434082,5.353516,0.651123,8.042969,0.651123s5.379883-0.217041,8.042969-0.651123l3.724609-0.607178h-0.000977
	C894.667969,1152.639526,1100,930.319458,1100,670.114258V123.333435C1100,95.718933,1077.614258,73.333435,1050,73.333435z
	 M1000,670.114258c0,209.639282-167.958008,389.522217-400,429.20874c-232.041992-39.686523-400-219.569458-400-429.20874
	V171.551941c148.961914-9.798584,348.102539-57.174316,400-70.0047c51.897461,12.830383,251.038086,60.206116,400,70.0047
	V670.114258z M600,300c27.614258,0,50,22.385864,50,50v350c0,27.614136-22.385742,50-50,50s-50-22.385864-50-50V350
	C550,322.385864,572.385742,300,600,300z M649.939453,847.529907C649.979492,848.349976,650,849.179932,650,850
	c0,0.819946-0.020508,1.640015-0.060547,2.459961c-0.049805,0.819946-0.109375,1.640015-0.189453,2.459961
	c-0.080078,0.810059-0.180664,1.630005-0.310547,2.430054c-0.120117,0.809937-0.259766,1.619995-0.419922,2.420044
	c-0.160156,0.799927-0.339844,1.599976-0.540039,2.389893c-0.200195,0.790039-0.419922,1.580078-0.660156,2.360107
	c-0.239258,0.769897-0.5,1.559937-0.769531,2.319946c-0.270508,0.77002-0.570313,1.530029-0.879883,2.280029
	c-0.310547,0.75-0.650391,1.51001-0.990234,2.23999c-0.349609,0.73999-0.719727,1.469971-1.099609,2.189941
	c-0.380859,0.720093-0.790039,1.430054-1.200195,2.130005c-0.419922,0.700073-0.860352,1.400024-1.310547,2.080078
	c-0.449219,0.669922-0.919922,1.349976-1.40918,2c-0.480469,0.659912-0.990234,1.309937-1.5,1.939941
	c-0.520508,0.640015-1.060547,1.26001-1.610352,1.869995s-1.120117,1.209961-1.700195,1.790039
	c-0.570313,0.569946-1.179688,1.150024-1.780273,1.689941c-0.609375,0.550049-1.239258,1.090088-1.870117,1.609985
	c-0.629883,0.51001-1.279297,1.02002-1.939453,1.5c-0.650391,0.48999-1.330078,0.960083-2.009766,1.410034
	c-0.669922,0.450073-1.370117,0.890015-2.070313,1.310059c-0.700195,0.409912-1.419922,0.819946-2.129883,1.199951
	c-0.719727,0.380005-1.459961,0.75-2.19043,1.099976c-0.739258,0.340088-1.489258,0.680054-2.239258,0.98999
	c-0.75,0.310059-1.520508,0.609985-2.280273,0.880005c-0.770508,0.27002-1.549805,0.530029-2.320313,0.77002
	c-0.780273,0.23999-1.580078,0.459961-2.359375,0.660034c-0.790039,0.199951-1.600586,0.380005-2.390625,0.540039
	c-0.799805,0.159912-1.609375,0.309937-2.419922,0.429932c-0.799805,0.119995-1.620117,0.219971-2.429688,0.300049
	c-0.820313,0.079956-1.640625,0.149902-2.459961,0.189941C601.649414,899.97998,600.819336,900,600,900
	c-0.820313,0-1.650391-0.02002-2.470703-0.060059c-0.80957-0.040039-1.639648-0.109985-2.449219-0.189941
	c-0.810547-0.080078-1.630859-0.180054-2.44043-0.300049c-0.799805-0.119995-1.610352-0.27002-2.410156-0.429932
	c-0.799805-0.160034-1.599609-0.340088-2.389648-0.540039c-0.790039-0.200073-1.580078-0.420044-2.360352-0.660034
	s-1.55957-0.5-2.319336-0.77002c-0.770508-0.27002-1.540039-0.569946-2.290039-0.880005
	c-0.75-0.309937-1.5-0.649902-2.230469-0.98999c-0.740234-0.349976-1.479492-0.719971-2.19043-1.099976
	c-0.719727-0.380005-1.439453-0.790039-2.129883-1.199951c-0.699219-0.420044-1.399414-0.859985-2.080078-1.310059
	c-0.679688-0.449951-1.349609-0.920044-2.009766-1.410034c-0.649414-0.47998-1.30957-0.98999-1.939453-1.5
	c-0.629883-0.519897-1.260742-1.059937-1.860352-1.609985c-0.610352-0.539917-1.209961-1.119995-1.790039-1.689941
	c-0.580078-0.580078-1.150391-1.180054-1.700195-1.790039c-0.540039-0.609985-1.080078-1.22998-1.599609-1.869995
	c-0.520508-0.630005-1.020508-1.280029-1.509766-1.939941c-0.480469-0.650024-0.950195-1.330078-1.400391-2
	c-0.450195-0.680054-0.889648-1.380005-1.30957-2.080078c-0.420898-0.699951-0.820313-1.409912-1.200195-2.130005
	c-0.379883-0.719971-0.75-1.449951-1.100586-2.189941c-0.349609-0.72998-0.679688-1.48999-0.989258-2.23999
	c-0.310547-0.75-0.610352-1.51001-0.880859-2.280029c-0.279297-0.76001-0.539063-1.550049-0.769531-2.319946
	c-0.240234-0.780029-0.459961-1.570068-0.660156-2.360107c-0.200195-0.789917-0.379883-1.589966-0.540039-2.389893
	c-0.160156-0.800049-0.30957-1.610107-0.429688-2.420044c-0.120117-0.800049-0.219727-1.619995-0.299805-2.430054
	c-0.089844-0.819946-0.150391-1.640015-0.19043-2.459961S550,850.819946,550,850c0-0.820068,0.019531-1.650024,0.05957-2.470093
	c0.040039-0.809937,0.100586-1.639893,0.19043-2.449951c0.080078-0.809937,0.179688-1.630005,0.299805-2.430054
	c0.120117-0.809937,0.269531-1.619995,0.429688-2.419922c0.160156-0.800049,0.339844-1.599976,0.540039-2.390015
	s0.419922-1.579956,0.660156-2.359985c0.230469-0.77002,0.490234-1.560059,0.769531-2.320068
	c0.270508-0.769897,0.570313-1.529907,0.880859-2.279907c0.30957-0.75,0.639648-1.51001,0.989258-2.23999
	c0.350586-0.740112,0.720703-1.470093,1.100586-2.190063s0.779297-1.429932,1.200195-2.130005
	c0.419922-0.699951,0.859375-1.400024,1.30957-2.079956c0.450195-0.670044,0.919922-1.349976,1.400391-2
	c0.489258-0.660034,0.989258-1.310059,1.509766-1.940063c0.519531-0.640015,1.05957-1.26001,1.599609-1.869995
	c0.549805-0.609985,1.120117-1.209961,1.700195-1.789917c0.580078-0.570068,1.179688-1.150024,1.790039-1.700073
	c0.599609-0.540039,1.230469-1.079956,1.860352-1.599976c0.629883-0.51001,1.290039-1.02002,1.939453-1.51001
	c0.660156-0.47998,1.330078-0.949951,2.009766-1.400024c0.680664-0.449951,1.380859-0.890015,2.080078-1.309937
	c0.69043-0.410034,1.410156-0.820068,2.129883-1.200073c0.710938-0.380005,1.450195-0.75,2.19043-1.099976
	c0.730469-0.349976,1.480469-0.679932,2.230469-0.98999c0.75-0.309937,1.519531-0.609985,2.290039-0.880005
	c0.759766-0.280029,1.539063-0.530029,2.319336-0.77002s1.570313-0.459961,2.360352-0.659912
	c0.790039-0.200073,1.589844-0.380005,2.389648-0.540039s1.610352-0.310059,2.410156-0.430054
	c0.80957-0.119995,1.629883-0.219971,2.44043-0.299927c0.80957-0.080078,1.639648-0.150024,2.449219-0.190063
	c1.640625-0.079956,3.300781-0.079956,4.930664,0c0.819336,0.040039,1.639648,0.109985,2.459961,0.190063
	c0.80957,0.079956,1.629883,0.179932,2.429688,0.299927c0.810547,0.119995,1.620117,0.27002,2.419922,0.430054
	c0.790039,0.160034,1.600586,0.339966,2.390625,0.540039c0.779297,0.199951,1.579102,0.419922,2.359375,0.659912
	c0.770508,0.23999,1.549805,0.48999,2.320313,0.77002c0.759766,0.27002,1.530273,0.570068,2.280273,0.880005
	c0.75,0.310059,1.5,0.640015,2.239258,0.98999c0.730469,0.349976,1.470703,0.719971,2.19043,1.099976
	c0.709961,0.380005,1.429688,0.790039,2.129883,1.200073c0.700195,0.419922,1.400391,0.859985,2.070313,1.309937
	c0.679688,0.450073,1.359375,0.920044,2.009766,1.400024c0.660156,0.48999,1.30957,1,1.939453,1.51001
	c0.630859,0.52002,1.260742,1.059937,1.870117,1.599976c0.600586,0.550049,1.209961,1.130005,1.780273,1.700073
	c0.580078,0.579956,1.150391,1.179932,1.700195,1.789917s1.089844,1.22998,1.610352,1.869995
	c0.509766,0.630005,1.019531,1.280029,1.5,1.940063c0.489258,0.650024,0.959961,1.329956,1.40918,2
	c0.450195,0.679932,0.890625,1.380005,1.310547,2.079956c0.410156,0.700073,0.819336,1.410034,1.200195,2.130005
	c0.379883,0.719971,0.75,1.449951,1.099609,2.190063c0.339844,0.72998,0.679688,1.48999,0.990234,2.23999
	c0.30957,0.75,0.609375,1.51001,0.879883,2.279907c0.269531,0.76001,0.530273,1.550049,0.769531,2.320068
	c0.240234,0.780029,0.459961,1.569946,0.660156,2.359985s0.379883,1.589966,0.540039,2.390015
	c0.160156,0.799927,0.299805,1.609985,0.419922,2.419922c0.129883,0.800049,0.230469,1.620117,0.310547,2.430054
	C649.830078,845.890015,649.889648,846.719971,649.939453,847.529907z"/>
</svg>
