<?xml version="1.0" encoding="utf-8"?>
<!-- Generator: Adobe Illustrator 28.0.0, SVG Export Plug-In . SVG Version: 6.00 Build 0)  -->
<svg version="1.1" id="圖層_1" xmlns="http://www.w3.org/2000/svg" xmlns:xlink="http://www.w3.org/1999/xlink" x="0px" y="0px"
	 viewBox="0 0 1200 1200" enable-background="new 0 0 1200 1200" xml:space="preserve">
<path d="M200,1200h800c27.614258,0,50-22.385742,50-50V50c0-27.614258-22.385742-50-50-50H200c-27.614258,0-50,22.385742-50,50v1100
	C150,1177.614258,172.385742,1200,200,1200z M799.999023,1100H400V900h400L799.999023,1100z M250,100h700v1000h-50V850
	c0-27.614258-22.385742-50-50-50H350c-27.614258,0-50,22.385742-50,50v250h-50V100z M650,650c0-27.614258,22.385742-50,50-50h150
	c27.614258,0,50,22.385742,50,50s-22.385742,50-50,50H700C672.385742,700,650,677.614258,650,650z M300,650
	c0-27.614258,22.385742-50,50-50h150c27.614258,0,50,22.385742,50,50s-22.385742,50-50,50H350
	C322.385742,700,300,677.614258,300,650z M650,450c0-27.614258,22.385742-50,50-50h150c27.614258,0,50,22.385742,50,50
	s-22.385742,50-50,50H700C672.385742,500,650,477.614258,650,450z M300,450c0-27.614258,22.385742-50,50-50h150
	c27.614258,0,50,22.385742,50,50s-22.385742,50-50,50H350C322.385742,500,300,477.614258,300,450z M650,250
	c0-27.614258,22.385742-50,50-50h150c27.614258,0,50,22.385742,50,50s-22.385742,50-50,50H700
	C672.385742,300,650,277.614258,650,250z M300,250c0-27.614258,22.385742-50,50-50h150c27.614258,0,50,22.385742,50,50
	s-22.385742,50-50,50H350C322.385742,300,300,277.614258,300,250z"/>
</svg>
