<?xml version="1.0" encoding="utf-8"?>
<!-- Generator: Adobe Illustrator 21.0.0, SVG Export Plug-In . SVG Version: 6.00 Build 0)  -->
<svg version="1.1" id="圖層_1" xmlns="http://www.w3.org/2000/svg" xmlns:xlink="http://www.w3.org/1999/xlink" x="0px" y="0px"
	 viewBox="0 0 1200 1200" enable-background="new 0 0 1200 1200" xml:space="preserve">
<path d="M1000,100H825V50c0-27.614258-22.385864-50-50-50H425c-27.614136,0-50,22.385742-50,50v50H200
	c-27.614258,0-50,22.385742-50,50v1000c0,27.614258,22.385742,50,50,50h800c27.614258,0,50-22.385742,50-50V150
	C1050,122.385742,1027.614258,100,1000,100z M475,100h250v100H475V100z M950,1100H250V200h125v50c0,27.614258,22.385864,50,50,50
	h350c27.614136,0,50-22.385742,50-50v-50h125V1100z"/>
</svg>
