<?xml version="1.0" encoding="utf-8"?>
<!-- Generator: Adobe Illustrator 21.0.0, SVG Export Plug-In . SVG Version: 6.00 Build 0)  -->
<svg version="1.1" id="圖層_1" xmlns="http://www.w3.org/2000/svg" xmlns:xlink="http://www.w3.org/1999/xlink" x="0px" y="0px"
	 viewBox="0 0 1200 1200" enable-background="new 0 0 1200 1200" xml:space="preserve">
<path d="M850,0C739.719727,0,650,89.719727,650,200c0,93.021484,63.835449,171.413452,150,193.671997V448.75
	c0,82.710205-67.289551,150-150,150l-250,1.04126V393.671997C486.164551,371.413452,550,293.021484,550,200
	C550,89.719727,460.280273,0,350,0S150,89.719727,150,200c0,93.021484,63.835449,171.413452,150,193.671997v412.656128
	C213.835449,828.586426,150,906.978516,150,1000c0,110.280273,89.719727,200,200,200s200-89.719727,200-200
	c0-93.021484-63.835449-171.413574-150-193.671875V699.791992L650.085205,698.75
	c66.745605-0.022217,129.49292-26.024658,176.691406-73.223389C873.995361,578.307861,900,515.527588,900,448.75v-55.078003
	C986.164551,371.413452,1050,293.021484,1050,200C1050,89.719727,960.280273,0,850,0z M250,200c0-55.140137,44.859863-100,100-100
	s100,44.859863,100,100s-44.859863,100-100,100S250,255.140137,250,200z M450,1000c0,55.140137-44.859863,100-100,100
	s-100-44.859863-100-100s44.859863-100,100-100S450,944.859863,450,1000z M850,300c-55.140137,0-100-44.859863-100-100
	s44.859863-100,100-100s100,44.859863,100,100S905.140137,300,850,300z"/>
</svg>
