<?xml version="1.0" encoding="utf-8"?>
<!-- Generator: Adobe Illustrator 21.0.0, SVG Export Plug-In . SVG Version: 6.00 Build 0)  -->
<svg version="1.1" id="圖層_1" xmlns="http://www.w3.org/2000/svg" xmlns:xlink="http://www.w3.org/1999/xlink" x="0px" y="0px"
	 viewBox="0 0 1200 1200" enable-background="new 0 0 1200 1200" xml:space="preserve">
<path d="M1152.828613,366.4375C1184.129395,440.44043,1200,519.022461,1200,600s-15.870605,159.55957-47.171387,233.5625
	c-30.222168,71.453125-73.477539,135.615234-128.564453,190.702148c-55.086914,55.085938-119.248047,98.341797-190.70166,128.563477
	C759.559082,1184.128906,680.977539,1200,600,1200s-159.559082-15.871094-233.5625-47.171875
	c-71.453613-30.22168-135.61499-73.477539-190.70166-128.563477C120.648926,969.177734,77.393799,905.015625,47.171631,833.5625
	C15.87085,759.55957,0,680.977539,0,600c0-27.614258,22.385742-50,50-50s50,22.385742,50,50c0,275.701172,224.298828,500,500,500
	s500-224.298828,500-500S875.701172,100,600,100c-92.150635,0-180.914551,25.163086-257.806152,71.482422l93.161621,93.162109
	c14.299805,14.299805,18.577637,35.805664,10.838379,54.489258C438.455078,337.817383,420.223145,350,400,350H150
	c-27.614258,0-50-22.385742-50-50V50c0-20.222656,12.182129-38.455078,30.865967-46.194336
	c18.683594-7.737305,40.189453-3.460938,54.489502,10.838867l84.339111,84.338867C366.608154,34.992188,480.946289,0,600,0
	c80.977539,0,159.559082,15.871094,233.5625,47.171875c71.453613,30.22168,135.614746,73.477539,190.70166,128.563477
	C1079.351074,230.822266,1122.606445,294.984375,1152.828613,366.4375z"/>
</svg>
