<?xml version="1.0" encoding="utf-8"?>
<!-- Generator: Adobe Illustrator 21.0.0, SVG Export Plug-In . SVG Version: 6.00 Build 0)  -->
<svg version="1.1" id="圖層_1" xmlns="http://www.w3.org/2000/svg" xmlns:xlink="http://www.w3.org/1999/xlink" x="0px" y="0px"
	 viewBox="0 0 1200 1200" enable-background="new 0 0 1200 1200" xml:space="preserve">
<path d="M918.344727,132.924805c-41.306641-41.650391-89.429688-74.360352-143.03125-97.220703
	C719.762695,12.012695,660.779297,0,600,0S480.237305,12.012695,424.686523,35.704102
	c-53.601563,22.860352-101.724609,55.570313-143.03125,97.220703c-41.277344,41.62207-73.6875,90.094727-96.329102,144.071289
	C161.885742,332.878906,150,392.207031,150,453.333008c0,74.37793,22.651367,159.84668,67.324219,254.03125
	c34.50293,72.745117,82.359375,151.375977,142.239258,233.710938c101.083984,138.990234,200.742188,239.905273,204.93457,244.132813
	C573.886719,1194.674805,586.666992,1200,600,1200s26.113281-5.325195,35.501953-14.791992
	c4.192383-4.227539,103.850586-105.142578,204.93457-244.132813c59.879883-82.334961,107.736328-160.96582,142.239258-233.710938
	C1027.348633,613.179688,1050,527.710938,1050,453.333008c0-61.125977-11.885742-120.454102-35.326172-176.336914
	C992.032227,223.019531,959.62207,174.546875,918.344727,132.924805z M599.96875,1077.061523
	c-37.177734-40.648438-98.520508-110.913086-159.532227-194.803711C315.852539,710.954102,250,562.633789,250,453.333008
	C250,258.504883,407.009766,100,600,100s350,158.504883,350,353.333008C950,673.264648,695.350586,972.650391,599.96875,1077.061523
	z M600,200c-66.777344,0-129.557617,26.004883-176.776367,73.223633S350,383.222656,350,450
	s26.004883,129.557617,73.223633,176.776367S533.222656,700,600,700s129.557617-26.004883,176.776367-73.223633
	S850,516.777344,850,450s-26.004883-129.557617-73.223633-176.776367S666.777344,200,600,200z M600,600
	c-82.709961,0-150-67.290039-150-150s67.290039-150,150-150s150,67.290039,150,150S682.709961,600,600,600z"/>
</svg>
