<?xml version="1.0" encoding="utf-8"?>
<!-- Generator: Adobe Illustrator 28.0.0, SVG Export Plug-In . SVG Version: 6.00 Build 0)  -->
<svg version="1.1" id="圖層_1" xmlns="http://www.w3.org/2000/svg" xmlns:xlink="http://www.w3.org/1999/xlink" x="0px" y="0px"
	 viewBox="0 0 1200 1200" enable-background="new 0 0 1200 1200" xml:space="preserve">
<path d="M1085.355469,185.355225L670.710938,600l414.644531,414.644531c19.526367,19.526367,19.526367,51.18457,0,70.710938
	C1075.591797,1095.118652,1062.795898,1100,1050,1100s-25.591797-4.881348-35.355469-14.644531L600,670.710938
	l-414.644531,414.644531C175.591797,1095.118652,162.795898,1100,150,1100s-25.591797-4.881348-35.355469-14.644531
	c-19.526367-19.526367-19.526367-51.18457,0-70.710938L529.289062,600L114.644531,185.355225
	c-19.526367-19.526123-19.526367-51.184326,0-70.710449c19.527344-19.526367,51.183594-19.526367,70.710938,0L600,529.289062
	l414.644531-414.644287c19.527344-19.526367,51.183594-19.526367,70.710938,0
	C1104.881836,134.170898,1104.881836,165.829102,1085.355469,185.355225z"/>
</svg>
