<?xml version="1.0" encoding="utf-8"?>
<!-- Generator: Adobe Illustrator 21.0.0, SVG Export Plug-In . SVG Version: 6.00 Build 0)  -->
<svg version="1.1" id="圖層_1" xmlns="http://www.w3.org/2000/svg" xmlns:xlink="http://www.w3.org/1999/xlink" x="0px" y="0px"
	 viewBox="0 0 1200 1200" enable-background="new 0 0 1200 1200" xml:space="preserve">
<path d="M1078.833984,121.166016C1124.726563,167.05835,1150,228.074951,1150,292.976563
	c0,64.857422-25.240234,125.836426-71.074219,171.718262L860.523438,685.186523
	C850.746094,695.057129,837.874023,700,824.998047,700c-12.71582,0-25.436523-4.820801-35.18457-14.477051
	c-19.619141-19.432617-19.769531-51.090332-0.336914-70.709473l218.646484-220.737793
	C1035.12793,367.071289,1050,331.166992,1050,292.976563s-14.87207-74.094727-41.876953-101.099365
	c-55.746094-55.746582-146.453125-55.746582-202.199219-0.000488l-0.19043,0.189453l-195.568359,193.47876
	c-19.631836,19.420898-51.289063,19.250488-70.709961-0.379883c-19.420898-19.630859-19.250977-51.288574,0.379883-70.709961
	l195.462891-193.373291C781.179688,75.24292,842.162109,50,907.023438,50
	C971.924805,50,1032.941406,75.273926,1078.833984,121.166016z M660.544922,814.834961
	c-19.420898-19.629883-51.079102-19.800781-70.709961-0.379883l-195.568359,193.478516l-0.19043,0.189453
	c-55.746094,55.746094-146.453125,55.746094-202.199219,0C164.87207,981.118164,150,945.213867,150,907.023438
	c0-38.189941,14.87207-74.094727,41.876953-101.099121l218.646484-220.737793
	c19.432617-19.618652,19.282227-51.276855-0.336914-70.709961c-19.619141-19.433594-51.277344-19.281738-70.709961,0.336914
	l-218.378906,220.46875C75.24707,781.166992,50,842.153809,50,907.023438c0,64.901367,25.273438,125.917969,71.166016,171.810547
	C167.058594,1124.726074,228.075195,1150,292.976563,1150c64.853516,0,125.825195-25.233398,171.706055-71.061523
	l195.482422-193.393555C679.795898,866.123535,679.96582,834.46582,660.544922,814.834961z M314.644531,335.355469
	C324.408203,345.118652,337.204102,350,350,350s25.591797-4.881348,35.355469-14.644531
	c19.526367-19.526367,19.526367-51.18457,0-70.710938l-75-74.999756c-19.527344-19.526367-51.183594-19.526367-70.710938,0
	c-19.526367,19.526123-19.526367,51.184326,0,70.710693L314.644531,335.355469z M200,500h50c27.614258,0,50-22.385742,50-50
	s-22.385742-50-50-50h-50c-27.614258,0-50,22.385742-50,50S172.385742,500,200,500z M500,251.923096c27.614258,0,50-22.385742,50-50
	V150c0-27.614258-22.385742-50-50-50s-50,22.385742-50,50v51.923096C450,229.537354,472.385742,251.923096,500,251.923096z
	 M885.355469,864.644531c-19.527344-19.526367-51.183594-19.526367-70.710938,0
	c-19.526367,19.526367-19.526367,51.18457,0,70.710938l75,75C899.408203,1020.118652,912.204102,1025,925,1025
	s25.591797-4.881348,35.355469-14.644531c19.526367-19.526367,19.526367-51.18457,0-70.710938L885.355469,864.644531z
	 M700,948.077148c-27.614258,0-50,22.385742-50,50V1050c0,27.614258,22.385742,50,50,50s50-22.385742,50-50v-51.922852
	C750,970.462891,727.614258,948.077148,700,948.077148z M1000,700h-50c-27.614258,0-50,22.385742-50,50s22.385742,50,50,50h50
	c27.614258,0,50-22.385742,50-50S1027.614258,700,1000,700z"/>
</svg>
