<?xml version="1.0" encoding="utf-8"?>
<!-- Generator: Adobe Illustrator 21.0.0, SVG Export Plug-In . SVG Version: 6.00 Build 0)  -->
<svg version="1.1" id="圖層_1" xmlns="http://www.w3.org/2000/svg" xmlns:xlink="http://www.w3.org/1999/xlink" x="0px" y="0px"
	 viewBox="0 0 1200 1200" enable-background="new 0 0 1200 1200" xml:space="preserve">
<path d="M600,1200c-80.977539,0-159.559082-15.871094-233.5625-47.171875
	c-71.453613-30.22168-135.614746-73.477539-190.70166-128.563477C120.648926,969.177734,77.393555,905.015625,47.171387,833.5625
	C15.870605,759.55957,0,680.977539,0,600s15.870605-159.55957,47.171387-233.5625
	c30.222168-71.453125,73.477539-135.615234,128.564453-190.702148c55.086914-55.085938,119.248047-98.341797,190.70166-128.563477
	C440.440918,15.871094,519.022461,0,600,0s159.559082,15.871094,233.5625,47.171875
	c71.453613,30.22168,135.614746,73.477539,190.70166,128.563477c55.086914,55.086914,98.342285,119.249023,128.564453,190.702148
	C1184.129395,440.44043,1200,519.022461,1200,600s-15.870605,159.55957-47.171387,233.5625
	c-30.222168,71.453125-73.477539,135.615234-128.564453,190.702148c-55.086914,55.085938-119.248047,98.341797-190.70166,128.563477
	C759.559082,1184.128906,680.977539,1200,600,1200z M600,100c-67.521484,0-132.99707,13.212891-194.607422,39.271484
	c-59.533691,25.180664-113.010742,61.240234-158.945801,107.174805c-45.935547,45.935547-81.994141,99.413086-107.174805,158.946289
	C113.212891,467.00293,100,532.478516,100,600s13.212891,132.99707,39.271973,194.607422
	c25.180664,59.533203,61.239258,113.010742,107.174805,158.946289c45.935059,45.93457,99.412109,81.994141,158.945801,107.174805
	C467.00293,1086.787109,532.478516,1100,600,1100s132.99707-13.212891,194.607422-39.271484
	c59.533691-25.180664,113.010742-61.240234,158.945801-107.174805c45.935547-45.935547,81.994141-99.413086,107.174805-158.946289
	C1086.787109,732.99707,1100,667.521484,1100,600s-13.212891-132.99707-39.271973-194.607422
	c-25.180664-59.533203-61.239258-113.010742-107.174805-158.946289c-45.935059-45.93457-99.412109-81.994141-158.945801-107.174805
	C732.99707,113.212891,667.521484,100,600,100z M650,900V550c0-27.614258-22.385742-50-50-50s-50,22.385742-50,50v350
	c0,27.614258,22.385742,50,50,50S650,927.614258,650,900z M650,350v-50c0-27.614258-22.385742-50-50-50s-50,22.385742-50,50v50
	c0,27.614258,22.385742,50,50,50S650,377.614258,650,350z"/>
</svg>
