<?xml version="1.0" encoding="utf-8"?>
<!-- Generator: Adobe Illustrator 21.0.0, SVG Export Plug-In . SVG Version: 6.00 Build 0)  -->
<svg version="1.1" id="圖層_1" xmlns="http://www.w3.org/2000/svg" xmlns:xlink="http://www.w3.org/1999/xlink" x="0px" y="0px"
	 viewBox="0 0 1200 1200" enable-background="new 0 0 1200 1200" xml:space="preserve">
<path d="M984.615234,50H215.384766C124.191406,50,50,124.191406,50,215.384766v769.230469
	C50,1075.808594,124.191406,1150,215.384766,1150h769.230469C1075.808594,1150,1150,1075.808594,1150,984.615234V215.384766
	C1150,124.191406,1075.808594,50,984.615234,50z M1050,984.615234C1050,1020.668945,1020.668945,1050,984.615234,1050H750V700h100
	c27.614258,0,50-22.385742,50-50s-22.385742-50-50-50H750V497.585938C750,400,791.584961,400,825,400h75
	c27.614258,0,50-22.385742,50-50s-22.385742-50-50-50h-75c-51.446289,0-90.944336,13.482422-120.75293,41.217773
	c-18.263672,16.994141-32.095703,39.014648-41.112305,65.452148C654.296875,432.586914,650,462.325195,650,497.585938V600h-50
	c-27.614258,0-50,22.385742-50,50s22.385742,50,50,50h50v350H215.384766C179.331055,1050,150,1020.668945,150,984.615234V215.384766
	C150,179.331055,179.331055,150,215.384766,150h769.230469C1020.668945,150,1050,179.331055,1050,215.384766V984.615234z"/>
</svg>
