<?xml version="1.0" encoding="utf-8"?>
<!-- Generator: Adobe Illustrator 21.0.0, SVG Export Plug-In . SVG Version: 6.00 Build 0)  -->
<svg version="1.1" id="圖層_1" xmlns="http://www.w3.org/2000/svg" xmlns:xlink="http://www.w3.org/1999/xlink" x="0px" y="0px"
	 viewBox="0 0 1200 1200" enable-background="new 0 0 1200 1200" xml:space="preserve">
<path d="M450,250c0-110.280334-89.719727-200-200-200S50,139.719666,50,250c0,93.021545,63.835938,171.413452,150,193.671997
	v312.656006C113.835938,778.586548,50,856.978455,50,950c0,110.280273,89.719727,200,200,200s200-89.719727,200-200
	c0-93.021545-63.835938-171.413452-150-193.671997V443.671997C386.164062,421.413452,450,343.021545,450,250z M150,250
	c0-55.140137,44.859375-100,100-100s100,44.859863,100,100s-44.859375,100-100,100S150,305.140137,150,250z M350,950
	c0,55.140137-44.859375,100-100,100s-100-44.859863-100-100s44.859375-100,100-100S350,894.859863,350,950z M1000,756.328003
	v-387.30603c0-43.932739-16.901367-85.808716-47.59082-117.914185C920.904297,218.150391,879.145508,200,834.824219,200H672.332031
	l63.467773-65.094971c19.277344-19.771851,18.876953-51.427551-0.894531-70.705017
	c-19.772461-19.276855-51.426758-18.877563-70.705078,0.894958l-150,153.846191
	c-9.259766,9.496826-14.366211,22.283447-14.196289,35.546143c0.169922,13.262573,5.603516,25.914185,15.102539,35.17041
	l150,146.153809C674.828125,445.283447,687.416992,450,699.996094,450c13.013672,0,26.016602-5.049927,35.81543-15.106812
	c19.270508-19.778076,18.859375-51.433716-0.917969-70.704712L669.015625,300h165.808594
	c16.754883,0,32.841797,7.17627,45.297852,20.206787C892.754883,333.421997,900,351.214355,900,369.021973v387.30603
	C813.835938,778.586548,750,856.978455,750,950c0,110.280273,89.719727,200,200,200s200-89.719727,200-200
	C1150,856.978455,1086.164062,778.586548,1000,756.328003z M950,1050c-55.140625,0-100-44.859863-100-100s44.859375-100,100-100
	s100,44.859863,100,100S1005.140625,1050,950,1050z"/>
</svg>
