<?xml version="1.0" encoding="utf-8"?>
<!-- Generator: Adobe Illustrator 21.0.0, SVG Export Plug-In . SVG Version: 6.00 Build 0)  -->
<svg version="1.1" id="圖層_1" xmlns="http://www.w3.org/2000/svg" xmlns:xlink="http://www.w3.org/1999/xlink" x="0px" y="0px"
	 viewBox="0 0 1200 1200" enable-background="new 0 0 1200 1200" xml:space="preserve">
<path d="M1100,50H808.333008c-68.268555,0-132.639648,24.752747-181.255859,69.698242
	c-9.915039,9.166382-18.943359,18.981689-27.077148,29.375854c-8.133789-10.394165-17.162109-20.209473-27.077148-29.375854
	C524.306641,74.752747,459.935547,50,391.666992,50H100c-27.614258,0-50,22.385742-50,50v924.499268c0,27.614258,22.385742,50,50,50
	h375c55.670898,0,73.305664,17.304199,75.051758,27.800781c0.001953,0.048096,0.007813,0.095459,0.009766,0.143555
	c0.017578,0.358154,0.049805,0.711914,0.075195,1.068115c0.033203,0.480713,0.0625,0.962402,0.109375,1.439453
	c0.035156,0.360962,0.084961,0.717529,0.12793,1.076172c0.056641,0.466553,0.109375,0.934204,0.177734,1.396729
	c0.053711,0.359619,0.120117,0.714722,0.181641,1.071899c0.078125,0.454956,0.15332,0.910767,0.243164,1.36145
	c0.071289,0.356445,0.155273,0.70813,0.233398,1.061768c0.099609,0.44519,0.196289,0.890991,0.307617,1.331665
	c0.087891,0.350098,0.1875,0.695435,0.283203,1.04248c0.120117,0.436768,0.239258,0.873901,0.371094,1.305664
	c0.104492,0.344727,0.219727,0.684692,0.332031,1.026245c0.139648,0.425537,0.279297,0.851318,0.430664,1.271851
	c0.12207,0.339478,0.25293,0.674072,0.381836,1.010132c0.15918,0.414795,0.318359,0.829224,0.488281,1.238525
	c0.137695,0.332397,0.28418,0.660156,0.428711,0.989014c0.177734,0.403809,0.356445,0.806885,0.544922,1.204834
	c0.15332,0.325439,0.314453,0.64624,0.474609,0.967773c0.196289,0.39209,0.393555,0.783081,0.599609,1.169189
	c0.168945,0.317139,0.34375,0.630005,0.519531,0.942993c0.213867,0.380981,0.429688,0.760254,0.652344,1.134888
	c0.18457,0.308838,0.374023,0.613525,0.563477,0.917969c0.230469,0.367554,0.462891,0.733154,0.702148,1.094238
	c0.199219,0.300415,0.402344,0.597168,0.607422,0.893066c0.24707,0.35498,0.496094,0.707397,0.750977,1.055664
	c0.212891,0.290405,0.429688,0.577393,0.648438,0.863037c0.261719,0.342041,0.527344,0.680908,0.798828,1.016113
	c0.225586,0.279785,0.455078,0.556641,0.686523,0.831421c0.27832,0.328979,0.55957,0.654175,0.845703,0.97583
	c0.239258,0.268921,0.480469,0.535278,0.725586,0.799072c0.291992,0.315063,0.588867,0.62561,0.889648,0.932983
	c0.250977,0.257568,0.504883,0.512939,0.761719,0.764893c0.306641,0.300537,0.617188,0.595703,0.931641,0.888184
	c0.264648,0.246338,0.530273,0.490967,0.799805,0.731445c0.319336,0.284912,0.643555,0.563965,0.970703,0.84082
	c0.275391,0.233887,0.552734,0.466797,0.833984,0.694824c0.333008,0.269775,0.670898,0.532715,1.010742,0.794067
	c0.287109,0.220947,0.574219,0.441406,0.866211,0.656128c0.345703,0.253906,0.696289,0.500244,1.047852,0.745361
	c0.297852,0.20752,0.595703,0.415283,0.898438,0.616333c0.357422,0.237671,0.72168,0.466919,1.084961,0.695679
	c0.308594,0.193359,0.615234,0.387451,0.927734,0.574341c0.369141,0.220825,0.744141,0.432251,1.119141,0.643677
	c0.318359,0.178955,0.634766,0.359619,0.956055,0.53186c0.380859,0.203735,0.767578,0.397095,1.154297,0.590942
	c0.326172,0.163818,0.650391,0.329834,0.981445,0.486572c0.391602,0.186279,0.791016,0.361328,1.188477,0.537598
	c0.333984,0.147827,0.665039,0.298706,1.00293,0.439209c0.404297,0.168701,0.814453,0.324707,1.224609,0.48291
	c0.339844,0.131348,0.677734,0.266602,1.021484,0.390747c0.416016,0.150146,0.837891,0.286743,1.259766,0.426147
	c0.344727,0.11438,0.688477,0.233643,1.037109,0.340576c0.428711,0.131592,0.864258,0.248413,1.297852,0.368652
	c0.348633,0.09668,0.694336,0.199219,1.045898,0.288452c0.443359,0.112427,0.892578,0.208862,1.34082,0.309448
	c0.349609,0.078613,0.697266,0.164063,1.049805,0.235352c0.461914,0.093262,0.929688,0.168945,1.396484,0.24939
	c0.344727,0.059448,0.686523,0.127075,1.03418,0.179321c0.491211,0.074097,0.989258,0.12915,1.485352,0.188843
	c0.328125,0.039551,0.654297,0.088501,0.984375,0.12146c0.555664,0.055664,1.117188,0.090332,1.678711,0.127686
	c0.276367,0.018311,0.548828,0.047119,0.825195,0.061035C598.302734,1149.977783,599.148438,1150,600,1150
	s1.697266-0.022217,2.539063-0.064209c0.276367-0.013916,0.548828-0.042725,0.825195-0.061035
	c0.561523-0.037354,1.123047-0.072021,1.678711-0.127686c0.330078-0.032959,0.65625-0.081909,0.984375-0.12146
	c0.496094-0.059692,0.994141-0.114746,1.485352-0.188843c0.347656-0.052246,0.689453-0.119873,1.03418-0.179321
	c0.466797-0.080444,0.93457-0.156128,1.396484-0.24939c0.352539-0.071289,0.700195-0.156738,1.049805-0.235352
	c0.448242-0.100586,0.897461-0.197021,1.34082-0.309448c0.351563-0.089233,0.697266-0.191772,1.045898-0.288452
	c0.433594-0.120239,0.869141-0.237061,1.297852-0.368652c0.348633-0.106934,0.692383-0.226196,1.037109-0.340576
	c0.421875-0.139404,0.84375-0.276001,1.259766-0.426147c0.34375-0.124146,0.681641-0.259399,1.021484-0.390747
	c0.410156-0.158203,0.820313-0.314209,1.224609-0.48291c0.337891-0.140503,0.668945-0.291382,1.00293-0.439209
	c0.397461-0.17627,0.796875-0.351318,1.188477-0.537598c0.331055-0.156738,0.655273-0.322754,0.981445-0.486572
	c0.386719-0.193848,0.773438-0.387207,1.154297-0.590942c0.321289-0.172241,0.637695-0.352905,0.956055-0.53186
	c0.375-0.211426,0.75-0.422852,1.119141-0.643677c0.3125-0.18689,0.619141-0.380981,0.927734-0.574341
	c0.363281-0.22876,0.727539-0.458008,1.084961-0.695679c0.302734-0.20105,0.600586-0.408813,0.898438-0.616333
	c0.351563-0.245117,0.702148-0.491455,1.047852-0.745361c0.291992-0.214722,0.579102-0.435181,0.866211-0.656128
	c0.339844-0.261353,0.677734-0.524292,1.010742-0.794067c0.28125-0.228027,0.558594-0.460938,0.833984-0.694824
	c0.327148-0.276855,0.651367-0.555908,0.970703-0.84082c0.269531-0.240479,0.535156-0.485107,0.799805-0.731445
	c0.314453-0.29248,0.625-0.587646,0.931641-0.888184c0.256836-0.251953,0.510742-0.507324,0.761719-0.764893
	c0.300781-0.307373,0.597656-0.61792,0.889648-0.932983c0.245117-0.263794,0.486328-0.530151,0.725586-0.799072
	c0.286133-0.321655,0.567383-0.646851,0.845703-0.97583c0.231445-0.27478,0.460938-0.551636,0.686523-0.831421
	c0.271484-0.335205,0.537109-0.674072,0.798828-1.016113c0.21875-0.285645,0.435547-0.572632,0.648438-0.863037
	c0.254883-0.348267,0.503906-0.700684,0.750977-1.055664c0.205078-0.295898,0.408203-0.592651,0.607422-0.893066
	c0.239258-0.361084,0.47168-0.726685,0.702148-1.094238c0.189453-0.304443,0.378906-0.609131,0.563477-0.917969
	c0.222656-0.374634,0.438477-0.753906,0.652344-1.134888c0.175781-0.312988,0.350586-0.625854,0.519531-0.942993
	c0.206055-0.386108,0.40332-0.7771,0.599609-1.169189c0.160156-0.321533,0.321289-0.642334,0.474609-0.967773
	c0.188477-0.397949,0.367188-0.801025,0.544922-1.204834c0.144531-0.328857,0.291016-0.656616,0.428711-0.989014
	c0.169922-0.409302,0.329102-0.82373,0.488281-1.238525c0.128906-0.33606,0.259766-0.670654,0.381836-1.010132
	c0.151367-0.420532,0.291016-0.846313,0.430664-1.271851c0.112305-0.341553,0.227539-0.681519,0.332031-1.026245
	c0.131836-0.431763,0.250977-0.868896,0.371094-1.305664c0.095703-0.347046,0.195313-0.692383,0.283203-1.04248
	c0.111328-0.440674,0.208008-0.886475,0.307617-1.331665c0.078125-0.353638,0.162109-0.705322,0.233398-1.061768
	c0.089844-0.450684,0.165039-0.906494,0.243164-1.36145c0.061523-0.357178,0.12793-0.71228,0.181641-1.071899
	c0.068359-0.462524,0.121094-0.930176,0.177734-1.396729c0.042969-0.358643,0.092773-0.71521,0.12793-1.076172
	c0.046875-0.477051,0.076172-0.95874,0.109375-1.439453c0.025391-0.356201,0.057617-0.709961,0.075195-1.068115
	c0.001953-0.048096,0.007813-0.095459,0.009766-0.143555c1.746094-10.496582,19.380859-27.800781,75.051758-27.800781h375
	c27.614258,0,50-22.385742,50-50V100C1150,72.385742,1127.614258,50,1100,50z M475,974.499268H150V150h241.666992
	C478.97168,150,550,213.972046,550,292.604004v691.755005C528.061523,977.810059,502.917969,974.499268,475,974.499268z
	 M1050,974.499268H725c-27.917969,0-53.061523,3.310791-75,9.859741V292.604004C650,213.972046,721.02832,150,808.333008,150H1050
	V974.499268z"/>
</svg>
