<?xml version="1.0" encoding="utf-8"?>
<!-- Generator: Adobe Illustrator 21.0.0, SVG Export Plug-In . SVG Version: 6.00 Build 0)  -->
<svg version="1.1" id="圖層_1" xmlns="http://www.w3.org/2000/svg" xmlns:xlink="http://www.w3.org/1999/xlink" x="0px" y="0px"
	 viewBox="0 0 1200 1200" enable-background="new 0 0 1200 1200" xml:space="preserve">
<path d="M638.289551,800.45459c-61.016602,0-122.563965-20.887695-170.93457-62.58252
	c-20.916504-18.029297-23.256348-49.601074-5.227051-70.51709c18.028809-20.916016,49.601074-23.256836,70.51709-5.227051
	c57.537598,49.596191,148.612305,51.11377,203.785156,3.641113l271.693359-271.692871
	c55.746094-55.746582,55.746094-146.453125,0-202.199463c-27.004883-27.004639-62.909668-41.877197-101.100098-41.877197
	c-38.189941,0-74.094727,14.872314-101.099121,41.876953c-0.103027,0.103271-0.206543,0.205811-0.310547,0.308105
	L685.044922,310.663086c-19.696289,19.355469-51.353516,19.077637-70.708008-0.618164
	c-19.354492-19.696289-19.078125-51.353516,0.618164-70.708252l120.40918-118.321045
	c45.875-45.796631,106.829102-71.016113,171.65918-71.016113c64.901367,0,125.918457,25.27417,171.811035,71.166748
	C1124.726074,167.058105,1150,228.074951,1150,292.976074c0,64.900879-25.273438,125.917969-71.165527,171.810547
	L805.924316,737.696777c-0.750977,0.750977-1.525879,1.477539-2.322754,2.178711
	C757.683105,780.287109,698.242676,800.45459,638.289551,800.45459z M464.622559,1078.998047l120.422363-118.334961
	c19.696289-19.35498,19.972656-51.011719,0.618164-70.708008c-19.354492-19.695312-51.010742-19.973633-70.708008-0.618164
	L394.38623,1007.815918c-0.104004,0.102051-0.20752,0.20459-0.310547,0.307617
	c-27.004395,27.004883-62.90918,41.876953-101.099121,41.876465c-38.19043,0-74.095215-14.872559-101.100098-41.877441
	C164.87207,981.118164,150,945.213867,150,907.023926c0-38.19043,14.87207-74.094727,41.876465-101.099609L463.33252,534.467773
	c56.844238-47.525879,147.761719-46.318848,203.554199,2.994629c20.691895,18.289551,52.289551,16.340332,70.57666-4.350586
	c18.288086-20.69043,16.340332-52.288574-4.350586-70.57666c-93.776855-82.885742-241.470215-84.127441-336.237793-2.825195
	c-0.96582,0.828125-1.899414,1.693359-2.799316,2.592773L121.165527,735.213867C75.273926,781.105957,50,842.122559,50,907.023926
	s25.273438,125.917969,71.166016,171.810547c45.892578,45.89209,106.90918,71.166016,171.810547,71.166016
	C357.79834,1150.000488,418.749512,1124.783691,464.622559,1078.998047z"/>
</svg>
