<?xml version="1.0" encoding="utf-8"?>
<!-- Generator: Adobe Illustrator 21.0.0, SVG Export Plug-In . SVG Version: 6.00 Build 0)  -->
<svg version="1.1" id="圖層_1" xmlns="http://www.w3.org/2000/svg" xmlns:xlink="http://www.w3.org/1999/xlink" x="0px" y="0px"
	 viewBox="0 0 1200 1200" enable-background="new 0 0 1200 1200" xml:space="preserve">
<path d="M1190.435547,570.592285c16.242188,22.33252,11.304688,53.603516-11.02832,69.845703l-550,400
	c-8.765625,6.375488-19.086914,9.562988-29.408203,9.562988s-20.642578-3.1875-29.408203-9.562988l-550-400
	c-11.826172-8.601074-19.294922-21.947754-20.438477-36.525879s4.151367-28.926758,14.491211-39.266602
	c17.861328-17.858887,45.871094-19.381836,65.461914-4.574219l519.893555,378.10498l520.591797-378.611816
	C1142.919922,543.322754,1174.193359,548.258789,1190.435547,570.592285z M1120.59082,159.564453L599.999023,538.17627
	L80.105469,160.071289c-19.59082-14.807617-47.600586-13.285156-65.461914,4.574219
	C4.303711,174.985352-0.991211,189.333984,0.152344,203.912109s8.612305,27.924805,20.438477,36.525879l550,400
	c8.765625,6.375488,19.086914,9.562988,29.408203,9.562988s20.642578-3.1875,29.408203-9.562988l550-400
	c22.333008-16.242188,27.270508-47.513184,11.02832-69.845703C1174.193359,148.258789,1142.919922,143.322754,1120.59082,159.564453
	z"/>
</svg>
