<?xml version="1.0" encoding="utf-8"?>
<!-- Generator: Adobe Illustrator 28.0.0, SVG Export Plug-In . SVG Version: 6.00 Build 0)  -->
<svg version="1.1" id="圖層_1" xmlns="http://www.w3.org/2000/svg" xmlns:xlink="http://www.w3.org/1999/xlink" x="0px" y="0px"
	 viewBox="0 0 1200 1200" enable-background="new 0 0 1200 1200" xml:space="preserve">
<path d="M1135.355469,364.644531l-300-300C825.978516,55.267578,813.260742,50,800,50H550H350H100c-27.614258,0-50,22.385742-50,50
	v1000c0,27.614258,22.385742,50,50,50h250h500h250c27.614258,0,50-22.385742,50-50V400
	C1150,386.739258,1144.732422,374.021484,1135.355469,364.644531z M500,150v200H400V150H500z M400,1050V688.461426h400V1050H400z
	 M1050,1050H900V638.461426c0-27.614258-22.385742-50-50-50H350c-27.614258,0-50,22.385742-50,50V1050H150V150h150v250
	c0,27.614258,22.385742,50,50,50h200c27.614258,0,50-22.385742,50-50V150h179.289062L1050,420.710449V1050z"/>
</svg>
