<?xml version="1.0" encoding="utf-8"?>
<!-- Generator: Adobe Illustrator 21.0.0, SVG Export Plug-In . SVG Version: 6.00 Build 0)  -->
<svg version="1.1" id="圖層_1" xmlns="http://www.w3.org/2000/svg" xmlns:xlink="http://www.w3.org/1999/xlink" x="0px" y="0px"
	 viewBox="0 0 1200 1200" enable-background="new 0 0 1200 1200" xml:space="preserve">
<path d="M1024.263916,175.735352c-55.086426-55.085938-119.247803-98.341797-190.70166-128.563477
	C759.559326,15.871094,680.977295,0,600,0S440.440674,15.871094,366.437744,47.171875
	c-71.453857,30.22168-135.615234,73.477539-190.70166,128.563477C120.64917,230.822266,77.393799,294.984375,47.171631,366.4375
	C15.87085,440.44043,0,519.022461,0,600s15.87085,159.55957,47.171631,233.5625
	c30.222168,71.453125,73.477539,135.615234,128.564453,190.702148c55.086426,55.085938,119.247803,98.341797,190.70166,128.563477
	C440.440674,1184.128906,519.022705,1200,600,1200s159.559326-15.871094,233.562256-47.171875
	c71.453857-30.22168,135.615234-73.477539,190.70166-128.563477c55.086914-55.086914,98.342285-119.249023,128.564453-190.702148
	C1184.12915,759.55957,1200,680.977539,1200,600s-15.87085-159.55957-47.171631-233.5625
	C1122.606201,294.984375,1079.35083,230.822266,1024.263916,175.735352z M600,1100c-275.701172,0-500-224.298828-500-500
	s224.298828-500,500-500s500,224.298828,500,500S875.701172,1100,600,1100z"/>
</svg>
