<?xml version="1.0" encoding="utf-8"?>
<!-- Generator: Adobe Illustrator 21.0.0, SVG Export Plug-In . SVG Version: 6.00 Build 0)  -->
<svg version="1.1" id="圖層_1" xmlns="http://www.w3.org/2000/svg" xmlns:xlink="http://www.w3.org/1999/xlink" x="0px" y="0px"
	 viewBox="0 0 1200 1200" enable-background="new 0 0 1200 1200" xml:space="preserve">
<path d="M1185.355347,564.644531l-149.999878-150c-19.526123-19.525391-51.184326-19.525391-70.710693,0
	c-19.526245,19.526367-19.526245,51.18457,0,70.710938L1029.289307,550H650V170.710938l64.644653,64.644531
	C724.407715,245.118164,737.203857,250,750,250s25.592285-4.881836,35.355347-14.644531
	c19.526123-19.526367,19.526123-51.18457,0-70.710938l-150-150c-19.526123-19.525391-51.18457-19.525391-70.710693,0l-150,150
	c-19.526123,19.526367-19.526123,51.18457,0,70.710938c19.526123,19.525391,51.18457,19.525391,70.710693,0L550,170.710938V550
	H170.710754l64.644592-64.644531c19.526123-19.526367,19.526123-51.18457,0-70.710938
	c-19.526123-19.525391-51.184448-19.525391-70.710693,0l-150,150c-19.526123,19.526367-19.526123,51.18457,0,70.710938l150,150
	C174.407776,795.118164,187.203857,800,200,800s25.592285-4.881836,35.355347-14.644531
	c19.526123-19.526367,19.526123-51.18457,0-70.710938L170.710754,650H550v379.289062l-64.644531-64.644531
	c-19.526001-19.525391-51.184204-19.525391-70.710693,0c-19.526245,19.526367-19.526245,51.18457,0,70.710938l149.999878,150
	C574.021484,1194.732422,586.739136,1200,600,1200s25.978516-5.267578,35.355347-14.644531l149.999878-150
	c19.526245-19.526367,19.526245-51.18457,0-70.710938c-19.526367-19.524414-51.18457-19.524414-70.710693,0L650,1029.289062V650
	h379.289307l-64.644531,64.644531c-19.526245,19.526367-19.526245,51.18457,0,70.710938
	C974.407959,795.118164,987.204102,800,1000.000122,800c12.796143,0,25.592285-4.881836,35.355347-14.644531l149.999878-150
	C1204.88147,615.829102,1204.88147,584.170898,1185.355347,564.644531z"/>
</svg>
