<?xml version="1.0" encoding="utf-8"?>
<!-- Generator: Adobe Illustrator 28.0.0, SVG Export Plug-In . SVG Version: 6.00 Build 0)  -->
<svg version="1.1" id="圖層_1" xmlns="http://www.w3.org/2000/svg" xmlns:xlink="http://www.w3.org/1999/xlink" x="0px" y="0px"
	 viewBox="0 0 1200 1200" enable-background="new 0 0 1200 1200" xml:space="preserve">
<path d="M600,1200c-80.977539,0-159.55957-15.871094-233.5625-47.171875
	c-71.453125-30.22168-135.615234-73.477539-190.702148-128.563477C120.649414,969.177734,77.393555,905.015625,47.171875,833.5625
	C15.871094,759.55957,0,680.977539,0,600s15.871094-159.55957,47.171875-233.5625
	c30.22168-71.453125,73.477539-135.615234,128.563477-190.702148C230.822266,120.649414,294.984375,77.393555,366.4375,47.171875
	C440.44043,15.871094,519.022461,0,600,0s159.55957,15.871094,233.5625,47.171875
	c71.453125,30.22168,135.615234,73.477539,190.702148,128.563477c55.085938,55.086914,98.341797,119.249023,128.563477,190.702148
	C1184.128906,440.44043,1200,519.022461,1200,600s-15.871094,159.55957-47.171875,233.5625
	c-30.22168,71.453125-73.477539,135.615234-128.563477,190.702148c-55.086914,55.085938-119.249023,98.341797-190.702148,128.563477
	C759.55957,1184.128906,680.977539,1200,600,1200z M600,100c-67.521484,0-132.99707,13.212891-194.607422,39.271484
	c-59.533203,25.180664-113.010742,61.240234-158.946289,107.174805c-45.93457,45.935547-81.994141,99.413086-107.174805,158.946289
	C113.212891,467.00293,100,532.478516,100,600s13.212891,132.99707,39.271484,194.607422
	c25.180664,59.533203,61.240234,113.010742,107.174805,158.946289c45.935547,45.93457,99.413086,81.994141,158.946289,107.174805
	C467.00293,1086.787109,532.478516,1100,600,1100s132.99707-13.212891,194.607422-39.271484
	c59.533203-25.180664,113.010742-61.240234,158.946289-107.174805c45.93457-45.935547,81.994141-99.413086,107.174805-158.946289
	C1086.787109,732.99707,1100,667.521484,1100,600s-13.212891-132.99707-39.271484-194.607422
	c-25.180664-59.533203-61.240234-113.010742-107.174805-158.946289c-45.935547-45.93457-99.413086-81.994141-158.946289-107.174805
	C732.99707,113.212891,667.521484,100,600,100z M872.360352,894.72168c24.699219-12.349609,34.710938-42.383789,22.361328-67.082031
	c-12.432617-24.864258-43.868164-61.149414-123.027344-92.813477C716.363281,712.693359,653.783203,700,600,700
	s-116.363281,12.693359-171.694336,34.826172c-79.15918,31.664062-110.594727,67.949219-123.027344,92.813477
	c-12.349609,24.698242-2.337891,54.732422,22.361328,67.082031c24.698242,12.347656,54.731445,2.337891,67.082031-22.361328
	c2.658203-5.317383,21.358398-24.94043,70.722656-44.686523C508.765625,810.345703,559.067383,800,600,800
	s91.234375,10.345703,134.555664,27.673828c49.364258,19.746094,68.064453,39.369141,70.722656,44.686523
	c8.761719,17.522461,26.417969,27.650391,44.760742,27.650391C857.551758,900.010742,865.183594,898.30957,872.360352,894.72168z
	 M450,550V400c0-27.614258-22.385742-50-50-50s-50,22.385742-50,50v150c0,27.614258,22.385742,50,50,50S450,577.614258,450,550z
	 M850,550V400c0-27.614258-22.385742-50-50-50s-50,22.385742-50,50v150c0,27.614258,22.385742,50,50,50S850,577.614258,850,550z"/>
</svg>
