<?xml version="1.0" encoding="utf-8"?>
<!-- Generator: Adobe Illustrator 21.0.0, SVG Export Plug-In . SVG Version: 6.00 Build 0)  -->
<svg version="1.1" id="圖層_1" xmlns="http://www.w3.org/2000/svg" xmlns:xlink="http://www.w3.org/1999/xlink" x="0px" y="0px"
	 viewBox="0 0 1200 1200" enable-background="new 0 0 1200 1200" xml:space="preserve">
<path d="M1013.762695,450H900V250c0-110.280273-89.719727-200-200-200H500c-110.280273,0-200,89.719727-200,200
	c0,27.614258,22.385742,50,50,50s50-22.385742,50-50c0-55.140625,44.859375-100,100-100h200c55.140625,0,100,44.859375,100,100v200
	H186.237305C138.685547,450,100,488.685547,100,536.237305v527.525391C100,1111.314453,138.685547,1150,186.237305,1150h827.525391
	C1061.314453,1150,1100,1111.314453,1100,1063.762695V536.237305C1100,488.685547,1061.314453,450,1013.762695,450z M1000,1050H200
	V550h800V1050z M750,650c0,27.614258-22.385742,50-50,50h-50v100c0,27.614258-22.385742,50-50,50s-50-22.385742-50-50V700h-50
	c-27.614258,0-50-22.385742-50-50s22.385742-50,50-50h200C727.614258,600,750,622.385742,750,650z"/>
</svg>
