<?xml version="1.0" encoding="utf-8"?>
<!-- Generator: Adobe Illustrator 21.0.0, SVG Export Plug-In . SVG Version: 6.00 Build 0)  -->
<svg version="1.1" id="圖層_1" xmlns="http://www.w3.org/2000/svg" xmlns:xlink="http://www.w3.org/1999/xlink" x="0px" y="0px"
	 viewBox="0 0 1200 1200" enable-background="new 0 0 1200 1200" xml:space="preserve">
<path d="M935.355469,364.644531c19.526367,19.526367,19.526367,51.18457,0,70.710938l-400,400
	C525.592773,845.118652,512.795898,850,500,850s-25.592773-4.881348-35.355469-14.644531l-200-200
	c-19.526367-19.526367-19.526367-51.18457,0-70.710938c19.525391-19.526367,51.185547-19.526367,70.710938,0L500,729.289062
	l364.644531-364.644531C884.169922,345.118164,915.830078,345.118164,935.355469,364.644531z M1152.828125,366.4375
	C1184.128906,440.440918,1200,519.022461,1200,600s-15.871094,159.559082-47.171875,233.5625
	c-30.22168,71.453613-73.477539,135.614746-128.563477,190.70166c-55.086914,55.086914-119.249023,98.342285-190.702148,128.564453
	C759.55957,1184.129395,680.977539,1200,600,1200s-159.55957-15.870605-233.5625-47.171387
	c-71.453125-30.222168-135.615234-73.477539-190.702148-128.564453C120.649414,969.177246,77.393555,905.016113,47.171875,833.5625
	C15.871094,759.559082,0,680.977539,0,600s15.871094-159.559082,47.171875-233.5625
	c30.22168-71.453613,73.477539-135.61499,128.563477-190.70166C230.822266,120.648926,294.984375,77.393799,366.4375,47.171631
	C440.44043,15.87085,519.022461,0,600,0s159.55957,15.87085,233.5625,47.171631
	c71.453125,30.222168,135.615234,73.477295,190.702148,128.564209
	C1079.350586,230.82251,1122.606445,294.983887,1152.828125,366.4375z M1100,600c0-275.701172-224.298828-500-500-500
	S100,324.298828,100,600s224.298828,500,500,500S1100,875.701172,1100,600z"/>
</svg>
