<?xml version="1.0" encoding="utf-8"?>
<!-- Generator: Adobe Illustrator 28.0.0, SVG Export Plug-In . SVG Version: 6.00 Build 0)  -->
<svg version="1.1" id="圖層_1" xmlns="http://www.w3.org/2000/svg" xmlns:xlink="http://www.w3.org/1999/xlink" x="0px" y="0px"
	 viewBox="0 0 1200 1200" enable-background="new 0 0 1200 1200" xml:space="preserve">
<path d="M100,900h750c27.614136,0,50-22.385742,50-50V100c0-27.614258-22.385864-50-50-50H100c-27.614136,0-50,22.385742-50,50v750
	C50,877.614258,72.385864,900,100,900z M150,150h650v650H150V150z M950,300c0-27.614258,22.385864-50,50-50h100
	c27.614136,0,50,22.385742,50,50v800c0,27.614258-22.385864,50-50,50H300c-27.614136,0-50-22.385742-50-50v-100
	c0-27.614258,22.385864-50,50-50s50,22.385742,50,50v50h700V350h-50C972.385864,350,950,327.614258,950,300z"/>
</svg>
