<?xml version="1.0" encoding="utf-8"?>
<!-- Generator: Adobe Illustrator 21.0.0, SVG Export Plug-In . SVG Version: 6.00 Build 0)  -->
<svg version="1.1" id="圖層_1" xmlns="http://www.w3.org/2000/svg" xmlns:xlink="http://www.w3.org/1999/xlink" x="0px" y="0px"
	 viewBox="0 0 1200 1200" enable-background="new 0 0 1200 1200" xml:space="preserve">
<path d="M1040.437012,570.591309c12.750488,17.532715,12.750488,41.284668,0,58.817383l-400,550
	c-8.601074,11.826172-21.947754,19.294434-36.525879,20.437988c-1.307129,0.102539-2.613281,0.15332-3.914063,0.15332
	c-13.205566,0.000488-25.939453-5.231934-35.352539-14.644531c-17.858887-17.858887-19.383789-45.868164-4.575195-65.460449
	L938.175293,600L559.563477,79.408691c-16.242188-22.33252-11.304688-53.603516,11.027832-69.845703
	c22.333496-16.242676,53.603027-11.304199,69.845703,11.02832L1040.437012,570.591309z M640.437012,570.591309l-400-550
	c-16.242676-22.33252-47.512695-27.270996-69.845703-11.02832c-22.33252,16.242188-27.27002,47.513184-11.027832,69.845703
	L538.175293,600l-378.105957,519.89502c-14.808594,19.592285-13.283691,47.601563,4.575195,65.460449
	c9.413086,9.412598,22.146973,14.64502,35.352539,14.644531c1.300781,0,2.606934-0.050781,3.914063-0.15332
	c14.578125-1.143555,27.924805-8.611816,36.525879-20.437988l400-550
	C653.1875,611.875977,653.1875,588.124023,640.437012,570.591309z"/>
</svg>
