<?xml version="1.0" encoding="utf-8"?>
<!-- Generator: Adobe Illustrator 21.0.0, SVG Export Plug-In . SVG Version: 6.00 Build 0)  -->
<svg version="1.1" id="圖層_1" xmlns="http://www.w3.org/2000/svg" xmlns:xlink="http://www.w3.org/1999/xlink" x="0px" y="0px"
	 viewBox="0 0 1200 1200" enable-background="new 0 0 1200 1200" xml:space="preserve">
<path d="M1024.263916,175.73584c-55.086548-55.086914-119.247803-98.342041-190.701538-128.564209
	C759.559204,15.87085,680.977417,0,600,0S440.440796,15.87085,366.437622,47.171631
	c-71.453735,30.222168-135.61499,73.477295-190.701599,128.564209C120.649231,230.82251,77.393677,294.983887,47.17157,366.4375
	C15.870789,440.440918,0,519.022461,0,600s15.870789,159.559082,47.17157,233.5625
	c30.222107,71.453613,73.477661,135.614746,128.564453,190.70166c55.086609,55.086914,119.247864,98.342285,190.701599,128.564453
	C440.440796,1184.129395,519.022583,1200,600,1200s159.559204-15.870605,233.562378-47.171387
	c71.453735-30.222168,135.61499-73.477539,190.701538-128.564453c55.086914-55.086914,98.342407-119.248047,128.564453-190.70166
	C1184.12915,759.559082,1200,680.977539,1200,600s-15.87085-159.559082-47.171631-233.5625
	C1122.606323,294.983887,1079.35083,230.82251,1024.263916,175.73584z M450,1077.011963V971.700195
	c0-45.524414,16.315918-64.009766,29.426147-78.862793c3.970337-4.498047,8.07605-9.149902,11.724976-14.436523
	c9.468018-13.719238,11.476929-31.254395,5.356689-46.758789c-6.120239-15.504883-19.564575-26.939941-35.850464-30.493164
	C358.557373,778.875,300,718.17041,300,634.600586c0-42.102539,20.710449-77.382324,40.96936-106.34082
	C346.847412,519.85791,350,509.852051,350,499.598145v-93.928711c33.959839,8.084961,58.781128,23.397461,79.991333,36.481445
	l0.657349,0.405273c11.250854,6.939453,24.791748,9.141113,37.661377,6.124023
	c37.934082-8.893555,82.083252-9.617188,131.689941-9.617188s93.755859,0.723633,131.689941,9.617188
	c12.869629,3.016113,26.410645,0.81543,37.661377-6.124023l0.657349-0.405273
	C791.218872,429.066895,816.040161,413.754395,850,405.669434v93.928711c0,10.253906,3.152588,20.259766,9.03064,28.661621
	C879.289551,557.218262,900,592.498047,900,634.600586c0,83.569824-58.557373,144.274414-160.657349,166.54834
	c-16.285889,3.553223-29.730225,14.988281-35.850464,30.493164c-6.120239,15.504395-4.111328,33.039551,5.356689,46.758789
	c3.648926,5.286621,7.754639,9.938477,11.724976,14.436523C733.684082,907.69043,750,926.175781,750,971.700195v105.311768
	C702.628479,1091.940918,652.238403,1100,600,1100S497.371521,1091.940918,450,1077.011963z M850,1032.890869v-61.190674
	c0-40.639648-8.744507-71.370117-19.754883-94.513672c12.312988-5.151367,24.050781-10.875977,35.167725-17.156738
	c29.717773-16.790527,55.199707-37.636719,75.738403-61.960449C979.650391,752.476074,1000,695.949219,1000,634.600586
	c0-62.660645-25.081421-112.46582-50-150.37207V350c0-27.614258-22.385864-50-50-50
	c-77.094482,0-130.618652,26.1875-166.123779,47.108398c-42.033569-7.366211-85.852051-8.04541-133.876221-8.04541
	s-91.842651,0.679199-133.876221,8.04541C430.618652,326.1875,377.094482,300,300,300c-27.614136,0-50,22.385742-50,50v134.228516
	c-24.918579,37.90625-50,87.711426-50,150.37207c0,61.348633,20.349609,117.875488,58.848755,163.46875
	c20.538696,24.32373,46.02063,45.169922,75.738403,61.960449c11.116943,6.280762,22.854736,12.005371,35.167725,17.156738
	C358.744507,900.330078,350,931.060547,350,971.700195v61.190674C200.661804,946.311523,100,784.692383,100,600
	c0-275.701172,224.29895-500,500-500s500,224.298828,500,500C1100,784.692383,999.338196,946.311523,850,1032.890869z"/>
</svg>
