<?xml version="1.0" encoding="utf-8"?>
<!-- Generator: Adobe Illustrator 26.3.1, SVG Export Plug-In . SVG Version: 6.00 Build 0)  -->
<svg version="1.1" id="圖層_1" xmlns="http://www.w3.org/2000/svg" xmlns:xlink="http://www.w3.org/1999/xlink" x="0px" y="0px"
	 viewBox="0 0 1200 1200" enable-background="new 0 0 1200 1200" xml:space="preserve">
<path d="M1152.828613,366.4375c-30.222168-71.453125-73.477539-135.615234-128.564453-190.702148
	C969.177246,120.649414,905.016113,77.393555,833.5625,47.171875C759.559082,15.871094,680.977539,0,600,0
	S440.440918,15.871094,366.4375,47.171875c-71.453613,30.22168-135.614746,73.477539-190.70166,128.563477
	C120.648926,230.822266,77.393555,294.984375,47.171387,366.4375C15.870605,440.44043,0,519.022461,0,600
	s15.870605,159.55957,47.171387,233.5625c30.222168,71.453125,73.477539,135.615234,128.564453,190.702148
	c55.086914,55.085938,119.248047,98.341797,190.70166,128.563477C440.440918,1184.128906,519.022461,1200,600,1200
	s159.559082-15.871094,233.5625-47.171875c71.453613-30.22168,135.614746-73.477539,190.70166-128.563477
	c55.086914-55.086914,98.342285-119.249023,128.564453-190.702148C1184.129395,759.55957,1200,680.977539,1200,600
	S1184.129395,440.44043,1152.828613,366.4375z M953.553223,246.446289C984.74707,277.640625,1011.379883,312.31543,1033.150879,350
	h-181.63916c-11.463379-57.62793-26.950684-110.945312-46.135254-157.84082
	c-8.89209-21.735352-18.448242-41.765625-28.619629-60.035156c5.984375,2.264648,11.935547,4.645508,17.850586,7.147461
	C854.141113,164.452148,907.618164,200.511719,953.553223,246.446289z M775,600c0,51.40332-2.972168,101.635742-8.824219,150
	H433.824219C427.972168,701.635742,425,651.40332,425,600s2.972168-101.635742,8.824219-150h332.351562
	C772.027832,498.364258,775,548.59668,775,600z M600,1100c-36.781738,0-80.012207-49.822266-112.821777-130.022461
	C472.625488,934.40332,460.395996,894.188477,450.664062,850h298.671875
	c-9.731934,44.188477-21.961426,84.40332-36.51416,119.977539C680.012207,1050.177734,636.781738,1100,600,1100z M450.664062,350
	c9.731934-44.188477,21.961426-84.40332,36.51416-119.977539C519.987793,149.822266,563.218262,100,600,100
	s80.012207,49.822266,112.821777,130.022461C727.374512,265.59668,739.604004,305.811523,749.335938,350H450.664062z
	 M246.446777,246.446289c45.935059-45.93457,99.412109-81.994141,158.945801-107.174805
	c5.915039-2.501953,11.866211-4.882812,17.850586-7.147461c-10.171387,18.269531-19.727539,38.299805-28.619629,60.035156
	C375.438965,239.054688,359.95166,292.37207,348.488281,350h-181.63916
	C188.620117,312.31543,215.25293,277.640625,246.446777,246.446289z M122.868164,450h210.280273
	C327.782227,498.395508,325,548.72168,325,600s2.782227,101.604492,8.148438,150H122.868164
	C107.682617,701.724609,100,651.457031,100,600S107.682617,498.275391,122.868164,450z M246.446777,953.553711
	C215.25293,922.359375,188.620117,887.68457,166.849121,850h181.63916c11.463379,57.62793,26.950684,110.945312,46.135254,157.84082
	c8.89209,21.735352,18.448242,41.765625,28.619629,60.035156c-5.984375-2.264648-11.935547-4.645508-17.850586-7.147461
	C345.858887,1035.547852,292.381836,999.488281,246.446777,953.553711z M953.553223,953.553711
	c-45.935059,45.93457-99.412109,81.994141-158.945801,107.174805c-5.915039,2.501953-11.866211,4.882812-17.850586,7.147461
	c10.171387-18.269531,19.727539-38.299805,28.619629-60.035156C824.561035,960.945312,840.04834,907.62793,851.511719,850h181.63916
	C1011.379883,887.68457,984.74707,922.359375,953.553223,953.553711z M1077.131836,750H866.851562
	C872.217773,701.604492,875,651.27832,875,600s-2.782227-101.604492-8.148438-150h210.280273
	C1092.317383,498.275391,1100,548.542969,1100,600S1092.317383,701.724609,1077.131836,750z"/>
</svg>
