<?xml version="1.0" encoding="utf-8"?>
<!-- Generator: Adobe Illustrator 26.3.1, SVG Export Plug-In . SVG Version: 6.00 Build 0)  -->
<svg version="1.1" id="圖層_1" xmlns="http://www.w3.org/2000/svg" xmlns:xlink="http://www.w3.org/1999/xlink" x="0px" y="0px"
	 viewBox="0 0 1200 1200" enable-background="new 0 0 1200 1200" xml:space="preserve">
<path d="M500,550H100c-27.614258,0-50-22.385742-50-50V100c0-27.614258,22.385742-50,50-50h400c27.614258,0,50,22.385742,50,50v400
	C550,527.614258,527.614258,550,500,550z M150,450h300V150H150V450z M400,350V250c0-27.614258-22.385742-50-50-50H250
	c-27.614258,0-50,22.385742-50,50v100c0,27.614258,22.385742,50,50,50h100C377.614258,400,400,377.614258,400,350z M400,950V850
	c0-27.614258-22.385742-50-50-50H250c-27.614258,0-50,22.385742-50,50v100c0,27.614258,22.385742,50,50,50h100
	C377.614258,1000,400,977.614258,400,950z M1000,350V250c0-27.614258-22.385742-50-50-50H850c-27.614258,0-50,22.385742-50,50v100
	c0,27.614258,22.385742,50,50,50h100C977.614258,400,1000,377.614258,1000,350z M1100,550H700c-27.614258,0-50-22.385742-50-50V100
	c0-27.614258,22.385742-50,50-50h400c27.614258,0,50,22.385742,50,50v400C1150,527.614258,1127.614258,550,1100,550z M750,450h300
	V150H750V450z M500,1150H100c-27.614258,0-50-22.385742-50-50V700c0-27.614258,22.385742-50,50-50h400
	c27.614258,0,50,22.385742,50,50v400C550,1127.614258,527.614258,1150,500,1150z M150,1050h300V750H150V1050z M950,900V700
	c0-27.614258-22.385742-50-50-50H700c-27.614258,0-50,22.385742-50,50s22.385742,50,50,50h150v150c0,27.614258,22.385742,50,50,50
	S950,927.614258,950,900z M950,1100c0-27.614258-22.385742-50-50-50H750V900c0-27.614258-22.385742-50-50-50s-50,22.385742-50,50
	v200c0,27.614258,22.385742,50,50,50h200C927.614258,1150,950,1127.614258,950,1100z M1150,1100V700c0-27.614258-22.385742-50-50-50
	s-50,22.385742-50,50v400c0,27.614258,22.385742,50,50,50S1150,1127.614258,1150,1100z"/>
</svg>
