<?xml version="1.0" encoding="utf-8"?>
<!-- Generator: Adobe Illustrator 28.0.0, SVG Export Plug-In . SVG Version: 6.00 Build 0)  -->
<svg version="1.1" id="圖層_1" xmlns="http://www.w3.org/2000/svg" xmlns:xlink="http://www.w3.org/1999/xlink" x="0px" y="0px"
	 viewBox="0 0 1200 1200" enable-background="new 0 0 1200 1200" xml:space="preserve">
<path d="M599.999023,1148.307129c-10.053711,0-20.105469-3.024414-28.725586-9.075684
	c-5.269531-3.698242-130.500977-92.106445-257.449219-225.158203c-75.342773-78.964355-135.584961-157.361816-179.053711-233.013672
	c-56.25-97.896973-84.771484-192.058594-84.771484-279.867676c0-107.924805,32.914062-198.45166,95.18457-261.79248
	c28.365234-28.853027,61.848633-51.126953,99.519531-66.202148c35.65625-14.269531,73.503906-21.504883,112.490234-21.504883
	c36.90332,0,72.958984,6.490723,107.166016,19.291992c35.326172,13.219727,66.964844,32.546387,94.039062,57.442383
	c15.819336,14.546875,29.741211,30.698242,41.65918,48.303711c23.28125-34.429688,54.231445-63.369629,91.878906-85.063965
	c44.887695-25.865723,96.614258-39.6875,149.589844-39.969727c0.546875-0.00293,1.102539-0.004395,1.649414-0.004395
	c53.375,0,105.407227,13.817383,150.594727,40.006348c47.367188,27.452148,86.452148,68.394043,113.030273,118.399902
	c28.844727,54.270508,43.37793,118.605469,43.198242,191.217285c-0.217773,87.771484-28.864258,181.895996-85.143555,279.759766
	c-43.499023,75.63916-103.719727,154.025391-178.988281,232.981445
	c-126.834961,133.046387-251.849609,221.453125-257.109375,225.151367
	C620.131836,1145.273926,610.064453,1148.307129,599.999023,1148.307129z M357.193359,151.692383
	c-54.080078,0-104.047852,20.531738-140.698242,57.812012c-43.501953,44.25-66.496094,110.53418-66.496094,191.6875
	c0,69.893555,23.907227,147.046387,71.057617,229.314941c39.280273,68.537109,94.444336,140.307617,163.958008,213.317871
	c85.239258,89.525879,171.536133,159.046387,214.959961,192.219727c43.363281-33.181152,129.522461-102.697754,214.670898-192.20459
	c69.462891-73.018555,124.621094-144.800293,163.943359-213.349609c47.210938-82.302734,71.236328-159.491699,71.410156-229.422363
	c0.139648-55.986328-10.459961-104.447266-31.500977-144.036621c-18.052734-33.966309-43.243164-60.482422-74.871094-78.812988
	c-61.058594-35.387695-140.256836-35.350586-201.761719,0.092285c-59.241211,34.137207-91.866211,94.509766-91.866211,169.996582
	c0,27.614258-22.385742,50-50,50s-50-22.385742-50-50c0-60.024902-20.501953-110.60498-59.288086-146.270996
	C455.917969,170.041992,407.251953,151.692383,357.193359,151.692383z M1099.999023,401.191895h0.009766H1099.999023z"/>
</svg>
