<?xml version="1.0" encoding="utf-8"?>
<!-- Generator: Adobe Illustrator 28.0.0, SVG Export Plug-In . SVG Version: 6.00 Build 0)  -->
<svg version="1.1" id="圖層_1" xmlns="http://www.w3.org/2000/svg" xmlns:xlink="http://www.w3.org/1999/xlink" x="0px" y="0px"
	 viewBox="0 0 1200 1200" enable-background="new 0 0 1200 1200" xml:space="preserve">
<path d="M1200,600c0,80.977539-15.870605,159.55957-47.171387,233.5625
	c-30.222168,71.453125-73.477539,135.615234-128.564453,190.702148c-55.086914,55.085938-119.248047,98.341797-190.70166,128.563477
	C759.559082,1184.128906,680.977539,1200,600,1200s-159.559082-15.871094-233.5625-47.171875
	c-71.453613-30.22168-135.614746-73.477539-190.70166-128.563477C120.648926,969.177734,77.393555,905.015625,47.171387,833.5625
	C15.870605,759.55957,0,680.977539,0,600s15.870605-159.55957,47.171387-233.5625
	c30.222168-71.453125,73.477539-135.615234,128.564453-190.702148c55.086914-55.085938,119.248047-98.341797,190.70166-128.563477
	C440.440918,15.871094,519.022461,0,600,0c119.053711,0,233.39209,34.992188,330.305664,98.983398l84.338867-84.338867
	c14.299316-14.298828,35.805176-18.577148,54.489746-10.838867C1087.817871,11.544922,1100,29.777344,1100,50v250
	c0,27.614258-22.385742,50-50,50H800c-20.223145,0-38.455078-12.182617-46.193848-30.866211
	c-7.739258-18.683594-3.461426-40.189453,10.838379-54.489258l93.161621-93.162109C780.914551,125.163086,692.150391,100,600,100
	c-275.701172,0-500,224.298828-500,500s224.298828,500,500,500s500-224.298828,500-500c0-27.614258,22.385742-50,50-50
	S1200,572.385742,1200,600z"/>
</svg>
