<?xml version="1.0" encoding="utf-8"?>
<!-- Generator: Adobe Illustrator 21.0.0, SVG Export Plug-In . SVG Version: 6.00 Build 0)  -->
<svg version="1.1" id="圖層_1" xmlns="http://www.w3.org/2000/svg" xmlns:xlink="http://www.w3.org/1999/xlink" x="0px" y="0px"
	 viewBox="0 0 1200 1200" enable-background="new 0 0 1200 1200" xml:space="preserve">
<path d="M850,475c0,90.024414-42.929688,138.553711-112.197266,187.674805
	c-23.246094,16.485352-49.59375,35.17041-67.666016,53.687012C660.950195,725.773926,650,739.250488,650,750
	c0,27.614258-22.385742,50-50,50s-50-22.385742-50-50c0-76.73584,72.057617-127.835938,129.957031-168.895508
	C739.417969,538.937012,750,516.645996,750,475c0-73.598145-61.682617-125-150-125
	c-39.029297,0-109.84375,13.935059-127.68457,66.163086c-8.925781,26.130859-37.34668,40.07959-63.478516,31.152344
	c-26.131836-8.926758-40.079102-37.34668-31.152344-63.478516C411.429688,285.05127,518.535156,250,600,250
	c72.677734,0,135.439453,22.80957,181.500977,65.962891C825.672852,357.34668,850,413.827148,850,475z M649.75,895.07959
	c-0.080078-0.80957-0.180664-1.629883-0.310547-2.429688c-0.120117-0.810059-0.259766-1.620117-0.419922-2.419922
	c-0.160156-0.800293-0.339844-1.600098-0.540039-2.390137c-0.199219-0.790039-0.419922-1.580078-0.660156-2.359863
	c-0.239258-0.780273-0.5-1.560059-0.769531-2.320313c-0.280273-0.77002-0.570313-1.529785-0.879883-2.279785
	c-0.310547-0.760254-0.650391-1.510254-0.990234-2.240234c-0.349609-0.739746-0.719727-1.469727-1.099609-2.189941
	c-0.379883-0.719727-0.790039-1.439941-1.200195-2.129883c-0.419922-0.700195-0.860352-1.399902-1.310547-2.080078
	c-0.449219-0.669922-0.919922-1.350098-1.40918-2.009766c-0.480469-0.650391-0.990234-1.300293-1.5-1.930176
	c-0.520508-0.640137-1.060547-1.27002-1.610352-1.870117c-0.549805-0.609863-1.120117-1.209961-1.700195-1.790039
	c-0.569336-0.569824-1.179688-1.149902-1.780273-1.699707c-0.609375-0.540039-1.239258-1.080078-1.869141-1.600098
	c-0.630859-0.510254-1.280273-1.02002-1.94043-1.510254c-0.650391-0.47998-1.330078-0.949707-2.009766-1.399902
	c-0.669922-0.449707-1.370117-0.889648-2.070313-1.310059c-0.700195-0.409668-1.410156-0.819824-2.129883-1.199707
	s-1.459961-0.75-2.19043-1.100098c-0.729492-0.350098-1.489258-0.680176-2.239258-0.990234
	c-0.75-0.30957-1.520508-0.609863-2.280273-0.879883c-0.770508-0.279785-1.549805-0.540039-2.320313-0.77002
	c-0.779297-0.239746-1.580078-0.459961-2.359375-0.659668c-0.790039-0.200195-1.600586-0.380371-2.390625-0.540039
	c-0.799805-0.160156-1.609375-0.310059-2.419922-0.430176c-0.799805-0.120117-1.620117-0.220215-2.429688-0.299805
	c-0.820313-0.090332-1.639648-0.150391-2.459961-0.189941c-1.629883-0.080078-3.290039-0.080078-4.929688,0
	c-0.810547,0.039551-1.640625,0.099609-2.450195,0.189941c-0.810547,0.07959-1.629883,0.179688-2.430664,0.299805
	c-0.80957,0.120117-1.619141,0.27002-2.419922,0.430176c-0.799805,0.159668-1.599609,0.339844-2.389648,0.540039
	c-0.790039,0.199707-1.580078,0.419922-2.360352,0.659668c-0.779297,0.22998-1.55957,0.490234-2.319336,0.77002
	c-0.770508,0.27002-1.530273,0.570313-2.280273,0.879883c-0.759766,0.310059-1.509766,0.640137-2.240234,0.990234
	c-0.740234,0.350098-1.469727,0.720215-2.189453,1.100098c-0.720703,0.379883-1.430664,0.790039-2.130859,1.199707
	c-0.699219,0.42041-1.399414,0.860352-2.079102,1.310059c-0.680664,0.450195-1.350586,0.919922-2.010742,1.399902
	c-0.649414,0.490234-1.299805,1-1.929688,1.510254c-0.639648,0.52002-1.269531,1.060059-1.870117,1.600098
	c-0.610352,0.549805-1.209961,1.129883-1.790039,1.699707c-0.580078,0.580078-1.149414,1.180176-1.700195,1.790039
	c-0.540039,0.600098-1.080078,1.22998-1.599609,1.870117c-0.520508,0.629883-1.020508,1.279785-1.509766,1.930176
	c-0.480469,0.659668-0.950195,1.339844-1.400391,2.009766c-0.450195,0.680176-0.889648,1.379883-1.30957,2.080078
	c-0.419922,0.689941-0.820313,1.410156-1.200195,2.129883c-0.379883,0.720215-0.75,1.450195-1.100586,2.189941
	c-0.349609,0.72998-0.679688,1.47998-0.989258,2.240234c-0.310547,0.75-0.610352,1.509766-0.879883,2.279785
	c-0.280273,0.760254-0.540039,1.540039-0.770508,2.320313c-0.240234,0.779785-0.459961,1.569824-0.660156,2.359863
	s-0.379883,1.589844-0.540039,2.390137c-0.160156,0.799805-0.30957,1.609863-0.429688,2.419922
	c-0.120117,0.799805-0.219727,1.620117-0.299805,2.429688c-0.089844,0.820313-0.150391,1.640137-0.19043,2.460449
	C550.019531,898.349609,550,899.179688,550,900c0,0.819824,0.019531,1.649902,0.05957,2.459961
	c0.040039,0.819824,0.100586,1.639648,0.19043,2.459961c0.080078,0.810059,0.179688,1.629883,0.299805,2.429688
	c0.120117,0.810059,0.269531,1.620117,0.429688,2.42041c0.160156,0.799805,0.339844,1.599609,0.540039,2.389648
	s0.419922,1.580078,0.660156,2.360352c0.230469,0.77002,0.490234,1.55957,0.770508,2.319824
	c0.269531,0.759766,0.569336,1.529785,0.879883,2.279785c0.30957,0.75,0.639648,1.510254,0.989258,2.240234
	c0.350586,0.739746,0.720703,1.469727,1.100586,2.189941s0.780273,1.430176,1.200195,2.129883
	c0.419922,0.700195,0.859375,1.399902,1.30957,2.070313c0.450195,0.679688,0.919922,1.359863,1.400391,2.009766
	c0.489258,0.660156,0.989258,1.310059,1.509766,1.939941c0.519531,0.629883,1.05957,1.260254,1.599609,1.870117
	c0.550781,0.600098,1.120117,1.209961,1.700195,1.779785c0.580078,0.580078,1.179688,1.150391,1.790039,1.700195
	c0.600586,0.549805,1.230469,1.089844,1.870117,1.609863c0.629883,0.510254,1.280273,1.02002,1.929688,1.5
	c0.660156,0.490234,1.330078,0.959961,2.010742,1.410156c0.679688,0.450195,1.379883,0.890137,2.079102,1.310059
	c0.700195,0.410156,1.410156,0.819824,2.130859,1.199707c0.719727,0.380371,1.449219,0.75,2.189453,1.100098
	c0.730469,0.340332,1.480469,0.680176,2.240234,0.990234c0.75,0.310059,1.509766,0.609863,2.280273,0.879883
	c0.759766,0.279785,1.540039,0.529785,2.319336,0.77002c0.780273,0.240234,1.570313,0.459961,2.360352,0.660156
	c0.790039,0.199707,1.589844,0.379883,2.389648,0.540039c0.800781,0.159668,1.610352,0.30957,2.419922,0.429688
	c0.800781,0.120117,1.620117,0.220215,2.430664,0.300293c0.80957,0.089844,1.639648,0.149902,2.450195,0.189941
	C598.349609,949.97998,599.179688,950,600,950c0.819336,0,1.649414-0.02002,2.459961-0.060059
	c0.820313-0.040039,1.639648-0.100098,2.459961-0.189941c0.80957-0.080078,1.629883-0.180176,2.429688-0.300293
	c0.810547-0.120117,1.620117-0.27002,2.419922-0.429688c0.790039-0.160156,1.600586-0.340332,2.390625-0.540039
	c0.779297-0.200195,1.580078-0.419922,2.359375-0.660156c0.770508-0.240234,1.549805-0.490234,2.320313-0.77002
	c0.759766-0.27002,1.530273-0.569824,2.280273-0.879883s1.509766-0.649902,2.239258-0.990234
	c0.730469-0.350098,1.470703-0.719727,2.19043-1.100098c0.719727-0.379883,1.429688-0.789551,2.129883-1.199707
	c0.700195-0.419922,1.400391-0.859863,2.070313-1.310059c0.679688-0.450195,1.359375-0.919922,2.009766-1.410156
	c0.660156-0.47998,1.30957-0.989746,1.94043-1.5c0.629883-0.52002,1.259766-1.060059,1.869141-1.609863
	c0.600586-0.549805,1.210938-1.120117,1.780273-1.700195c0.580078-0.569824,1.150391-1.179688,1.700195-1.779785
	c0.549805-0.609863,1.089844-1.240234,1.610352-1.870117c0.509766-0.629883,1.019531-1.279785,1.5-1.939941
	c0.489258-0.649902,0.959961-1.330078,1.40918-2.009766c0.450195-0.67041,0.890625-1.370117,1.310547-2.070313
	c0.410156-0.699707,0.820313-1.409668,1.200195-2.129883s0.75-1.450195,1.099609-2.189941
	c0.339844-0.72998,0.679688-1.490234,0.990234-2.240234c0.30957-0.75,0.599609-1.52002,0.879883-2.279785
	c0.269531-0.760254,0.530273-1.549805,0.769531-2.319824c0.240234-0.780273,0.460938-1.570313,0.660156-2.360352
	c0.200195-0.790039,0.379883-1.589844,0.540039-2.389648c0.160156-0.800293,0.299805-1.610352,0.419922-2.42041
	c0.129883-0.799805,0.230469-1.619629,0.310547-2.429688c0.080078-0.820313,0.149414-1.640137,0.189453-2.459961
	C649.979492,901.649902,650,900.819824,650,900c0-0.820313-0.020508-1.650391-0.060547-2.459961
	C649.899414,896.719727,649.830078,895.899902,649.75,895.07959z M1152.828125,366.4375
	C1184.128906,440.440918,1200,519.022461,1200,600s-15.871094,159.559082-47.171875,233.5625
	c-30.22168,71.453613-73.477539,135.614746-128.563477,190.70166c-55.086914,55.086914-119.249023,98.342285-190.702148,128.564453
	C759.55957,1184.129395,680.977539,1200,600,1200s-159.55957-15.870605-233.5625-47.171387
	c-71.453125-30.222168-135.615234-73.477539-190.702148-128.564453C120.649414,969.177246,77.393555,905.016113,47.171875,833.5625
	C15.871094,759.559082,0,680.977539,0,600s15.871094-159.559082,47.171875-233.5625
	c30.22168-71.453613,73.477539-135.614746,128.563477-190.70166C230.822266,120.648926,294.984375,77.393555,366.4375,47.171387
	C440.44043,15.870605,519.022461,0,600,0s159.55957,15.870605,233.5625,47.171387
	c71.453125,30.222168,135.615234,73.477539,190.702148,128.564453
	C1079.350586,230.822754,1122.606445,294.983887,1152.828125,366.4375z M1100,600c0-275.701172-224.298828-500-500-500
	S100,324.298828,100,600s224.298828,500,500,500S1100,875.701172,1100,600z"/>
</svg>
