<?xml version="1.0" encoding="utf-8"?>
<!-- Generator: Adobe Illustrator 28.0.0, SVG Export Plug-In . SVG Version: 6.00 Build 0)  -->
<svg version="1.1" id="圖層_1" xmlns="http://www.w3.org/2000/svg" xmlns:xlink="http://www.w3.org/1999/xlink" x="0px" y="0px"
	 viewBox="0 0 1200 1200" enable-background="new 0 0 1200 1200" xml:space="preserve">
<path d="M1100,50H808.333008c-68.268555,0-132.639648,24.752747-181.255859,69.698242
	c-9.915039,9.166382-18.943359,18.981689-27.077148,29.375854c-8.133789-10.394165-17.162109-20.209473-27.077148-29.375854
	C524.306641,74.752747,459.935547,50,391.666992,50H100c-27.614258,0-50,22.385742-50,50v900c0,27.614258,22.385742,50,50,50h375
	c32.035156,0,54.052734,8.140259,65.439453,24.194946c8.480469,11.9552,9.489258,25.366821,9.567383,26.66272
	C550.443909,1127.770996,573.103455,1150,600,1150c27.614258,0,50-22.385742,50-50c0-0.106445,0.977539-12.224487,8.025391-23.5
	C669.014648,1058.915771,691.548828,1050,725,1050h375c27.614258,0,50-22.385742,50-50V100C1150,72.385742,1127.614258,50,1100,50z
	 M475,950H150V150h241.666992C478.97168,150,550,213.972046,550,292.604004v669.626709
	C527.851562,954.105591,502.723633,950,475,950z M550.005859,1100.777466C549.989258,1100.269531,550,1100,550,1100
	C550,1100.259521,550.001953,1100.518921,550.005859,1100.777466z M1050,950H725c-27.723633,0-52.851562,4.105591-75,12.230713
	V292.604004C650,213.972046,721.02832,150,808.333008,150H1050V950z"/>
</svg>
