<?xml version="1.0" encoding="utf-8"?>
<!-- Generator: Adobe Illustrator 21.0.0, SVG Export Plug-In . SVG Version: 6.00 Build 0)  -->
<svg version="1.1" id="圖層_1" xmlns="http://www.w3.org/2000/svg" xmlns:xlink="http://www.w3.org/1999/xlink" x="0px" y="0px"
	 viewBox="0 0 1200 1200" enable-background="new 0 0 1200 1200" xml:space="preserve">
<path d="M1099.777344,345.351807c-0.009766-0.100952-0.013184-0.202759-0.023438-0.303467
	c-0.821777-8.358154-3.703125-16.109375-8.127441-22.745605c-0.010742-0.016113-0.020508-0.032837-0.031738-0.049072
	c-0.401855-0.601563-0.819824-1.191528-1.24707-1.774414c-0.061035-0.08374-0.118652-0.170166-0.180176-0.253662
	c-0.388672-0.523071-0.79248-1.033691-1.200195-1.540771c-0.108398-0.134521-0.209961-0.272949-0.319824-0.406494
	c-0.396484-0.482666-0.808105-0.951782-1.222168-1.419067c-0.129395-0.14563-0.251465-0.296509-0.382324-0.440796
	c-0.547363-0.603638-1.108398-1.194336-1.68457-1.770508c-0.000977-0.001099-0.001953-0.002197-0.00293-0.003174l-300-300l0,0
	c-0.577148-0.577026-1.168945-1.13916-1.773438-1.6875c-0.146484-0.132813-0.299805-0.256836-0.447266-0.387695
	c-0.465332-0.412109-0.932617-0.822266-1.412598-1.216919c-0.134766-0.110474-0.274902-0.213379-0.410645-0.322388
	c-0.505859-0.406982-1.014648-0.809814-1.536621-1.197266c-0.084473-0.062744-0.172363-0.12085-0.257324-0.183105
	c-0.581543-0.426147-1.17041-0.84314-1.770508-1.244385c-0.018066-0.011963-0.036133-0.022827-0.054199-0.034668
	c-6.635254-4.422852-14.384766-7.303223-22.741211-8.125c-0.100586-0.01001-0.202637-0.01355-0.303223-0.022949
	c-0.711426-0.065674-1.424805-0.124023-2.144043-0.159546C751.672363,0.021729,750.837402,0,750,0H150
	c-27.614258,0-50,22.385742-50,50v1100c0,27.614258,22.385742,50,50,50h900c27.614258,0,50-22.385742,50-50V350
	c0-0.837158-0.021484-1.672241-0.063477-2.504395C1099.901367,346.776123,1099.842773,346.062988,1099.777344,345.351807z
	 M800,170.710449L929.289551,300H800V170.710449z M200,1100V100h500v250c0,27.614258,22.385742,50,50,50h250v700H200z"/>
</svg>
