<?xml version="1.0" encoding="utf-8"?>
<!-- Generator: Adobe Illustrator 21.0.0, SVG Export Plug-In . SVG Version: 6.00 Build 0)  -->
<svg version="1.1" id="圖層_1" xmlns="http://www.w3.org/2000/svg" xmlns:xlink="http://www.w3.org/1999/xlink" x="0px" y="0px"
	 viewBox="0 0 1200 1200" enable-background="new 0 0 1200 1200" xml:space="preserve">
<path d="M1152.828125,366.437622c-30.22168-71.453735-73.477539-135.61499-128.563477-190.701599
	C969.177734,120.649231,905.015625,77.393677,833.5625,47.17157C759.55957,15.870789,680.977539,0,600,0
	S440.44043,15.870789,366.4375,47.17157c-71.453125,30.222107-135.615234,73.477661-190.702148,128.564453
	c-55.085938,55.086609-98.341797,119.247864-128.563477,190.701599C15.871094,440.440796,0,519.022583,0,600
	s15.871094,159.559204,47.171875,233.562378c30.22168,71.453735,73.477539,135.61499,128.563477,190.701538
	c55.086914,55.086914,119.249023,98.342407,190.702148,128.564453C440.44043,1184.12915,519.022461,1200,600,1200
	s159.55957-15.87085,233.5625-47.171631c71.453125-30.222046,135.615234-73.477539,190.702148-128.564453
	c55.085938-55.086548,98.341797-119.247803,128.563477-190.701538C1184.128906,759.559204,1200,680.977417,1200,600
	S1184.128906,440.440796,1152.828125,366.437622z M600,1100c-275.701172,0-500-224.29895-500-500s224.298828-500,500-500
	s500,224.29895,500,500S875.701172,1100,600,1100z M826.5,557.599976l-350-218.75
	c-15.414063-9.633057-34.84082-10.143921-50.738281-1.332153C409.864258,346.329102,400,363.073853,400,381.25v437.5
	c0,18.176147,9.864258,34.920898,25.761719,43.732178c7.551758,4.185669,15.900391,6.267822,24.236328,6.267822
	c9.212891,0,18.410156-2.542847,26.501953-7.599976l350-218.75C841.119141,633.262939,850,617.239502,850,600
	S841.119141,566.737061,826.5,557.599976z M500,728.537476V471.462524L705.660156,600L500,728.537476z"/>
</svg>
