<?xml version="1.0" encoding="utf-8"?>
<!-- Generator: Adobe Illustrator 21.0.0, SVG Export Plug-In . SVG Version: 6.00 Build 0)  -->
<svg version="1.1" id="圖層_1" xmlns="http://www.w3.org/2000/svg" xmlns:xlink="http://www.w3.org/1999/xlink" x="0px" y="0px"
	 viewBox="0 0 1200 1200" enable-background="new 0 0 1200 1200" xml:space="preserve">
<path d="M600.041016,1200.003418c-15.454102,0.000977-30.692383-7.139648-40.477539-20.594727l-400-550
	c-12.750977-17.532715-12.750977-41.284668,0-58.817383l400-550c16.241211-22.33252,47.511719-27.270508,69.844727-11.02832
	s27.270508,47.513184,11.02832,69.845703L261.825195,600l378.611328,520.591309
	c16.242188,22.33252,11.304688,53.603516-11.02832,69.845703C620.53125,1196.893555,610.238281,1200.00293,600.041016,1200.003418z
	 M1029.408203,1190.437012c22.333008-16.242188,27.270508-47.513184,11.02832-69.845703L661.825195,600l378.611328-520.591309
	c16.242188-22.33252,11.304688-53.603516-11.02832-69.845703s-53.603516-11.304199-69.844727,11.02832l-400,550
	c-12.750977,17.532715-12.750977,41.284668,0,58.817383l400,550c9.785156,13.455078,25.023438,20.595703,40.477539,20.594727
	C1010.238281,1200.00293,1020.53125,1196.893555,1029.408203,1190.437012z"/>
</svg>
