<?xml version="1.0" encoding="utf-8"?>
<!-- Generator: Adobe Illustrator 21.0.0, SVG Export Plug-In . SVG Version: 6.00 Build 0)  -->
<svg version="1.1" id="圖層_1" xmlns="http://www.w3.org/2000/svg" xmlns:xlink="http://www.w3.org/1999/xlink" x="0px" y="0px"
	 viewBox="0 0 1200 1200" enable-background="new 0 0 1200 1200" xml:space="preserve">
<path d="M1057.710938,136.674316c-53.489258-55.583008-127.4375-86.193848-208.223633-86.193848
	c-74.202148,0-148.428711,26.507813-203.647461,72.727051C628.265625,137.917969,612.939453,154.262695,600,171.947266
	c-12.939453-17.68457-28.265625-34.029297-45.839844-48.739746c-55.21875-46.219238-129.445313-72.727051-203.647461-72.727051
	c-80.786133,0-154.734375,30.61084-208.223633,86.193848c-29.469727,30.624512-52.293945,68.228516-67.837891,111.768066
	C58.226563,293.888672,50,345.850586,50,402.884766c0,87.809082,28.521484,181.970703,84.771484,279.867676
	c43.46875,75.651855,103.710938,154.049316,179.053711,233.013672
	c126.948242,133.051758,252.179688,221.459961,257.449219,225.158203C579.893555,1146.975098,589.947266,1150,600,1150
	s20.106445-3.024902,28.725586-9.075684c5.269531-3.698242,130.500977-92.106445,257.449219-225.158203
	c75.342773-78.964355,135.584961-157.361816,179.053711-233.013672C1121.478516,584.855469,1150,490.693848,1150,402.884766
	c0-57.03418-8.226563-108.996094-24.451172-154.442383C1110.004883,204.902832,1087.180664,167.298828,1057.710938,136.674316z
	 M814.984375,845.517578C729.730469,935.059082,643.412109,1004.593262,600,1037.755859
	c-43.416992-33.166504-129.730469-102.696777-214.984375-192.238281C277.802734,732.912598,150,564.713379,150,402.884766
	c0-85.050293,22.25-153.126953,64.344727-196.870117c34.461914-35.812012,82.820313-55.53418,136.167969-55.53418
	C448.571289,150.480469,550,216.118652,550,325.961426c0,27.614258,22.385742,50,50,50s50-22.385742,50-50
	c0-109.842773,101.428711-175.480957,199.487305-175.480957c53.347656,0,101.706055,19.722168,136.167969,55.53418
	C1027.75,249.757813,1050,317.834473,1050,402.884766C1050,564.713379,922.197266,732.912598,814.984375,845.517578z"/>
</svg>
