<?xml version="1.0" encoding="utf-8"?>
<!-- Generator: Adobe Illustrator 21.0.0, SVG Export Plug-In . SVG Version: 6.00 Build 0)  -->
<svg version="1.1" id="圖層_1" xmlns="http://www.w3.org/2000/svg" xmlns:xlink="http://www.w3.org/1999/xlink" x="0px" y="0px"
	 viewBox="0 0 1200 1200" enable-background="new 0 0 1200 1200" xml:space="preserve">
<path d="M1081.779297,409.423828l-262.293945-65.353516L676.276367,114.808594
	C659.736328,88.328613,631.22168,72.519775,600,72.519775s-59.736328,15.808838-76.276367,42.288818L380.514648,344.070557
	l-262.293945,65.353271c-30.295898,7.54834-54.142578,29.781982-63.790039,59.475098
	c-9.648438,29.693115-3.425781,61.69751,16.647461,85.611816l173.787109,207.045166l-18.898438,269.651855
	c-2.182617,31.14502,11.592773,60.695557,36.851563,79.047363s57.621094,22.322266,86.566406,10.622314L600,1019.57666
	l250.615234,101.300781c10.978516,4.4375,22.444336,6.62085,33.831055,6.620361
	c18.636719-0.000732,37.056641-5.851318,52.735352-17.242676c25.258789-18.351807,39.03418-47.902344,36.851563-79.045898
	l-18.898438-269.653564l173.788086-207.04541c20.072266-23.913818,26.294922-55.918213,16.646484-85.611328
	C1135.921875,439.205811,1112.075195,416.972168,1081.779297,409.423828z M875.924805,700.380615
	c-15.070313,17.95459-22.46875,40.721436-20.830078,64.108398l18.056641,257.637695l-239.447266-96.786865
	c-10.869141-4.393311-22.28418-6.589111-33.704102-6.589111c-11.416992,0-22.837891,2.196777-33.703125,6.588867
	l-239.448242,96.786865l18.056641-257.638916c1.638672-23.385498-5.759766-46.152344-20.830078-64.106201L158.03125,502.561768
	l250.608398-62.44165c22.748047-5.667969,42.114258-19.739258,54.532227-39.620605L600,181.453125l136.827148,219.045166
	c12.418945,19.882568,31.785156,33.953857,54.533203,39.621826l250.608398,62.44165L875.924805,700.380615z"/>
</svg>
