<?xml version="1.0" encoding="utf-8"?>
<!-- Generator: Adobe Illustrator 26.3.1, SVG Export Plug-In . SVG Version: 6.00 Build 0)  -->
<svg version="1.1" id="圖層_1" xmlns="http://www.w3.org/2000/svg" xmlns:xlink="http://www.w3.org/1999/xlink" x="0px" y="0px"
	 viewBox="0 0 1200 1200" enable-background="new 0 0 1200 1200" xml:space="preserve">
<path d="M1100,125H100C44.859375,125,0,169.859375,0,225v600c0,55.140625,44.859375,100,100,100h554.101562
	c7.039062,40.133789,23.114258,72.926758,48.042969,97.855469C736.745117,1057.456055,786.491211,1075,850,1075h50
	c27.614258,0,50-22.385742,50-50V925h150c55.140625,0,100-44.859375,100-100V225C1200,169.859375,1155.140625,125,1100,125z
	 M1099.99707,825H900c-27.614258,0-50,22.385742-50,50v100c-36.023438,0-61.978516-7.689453-77.144531-22.855469
	S750,911.023438,750,875c0-27.614258-22.385742-50-50-50l-600-0.00293L100.00293,225H1100L1099.99707,825z M200,525
	c0-55.228516,44.771484-100,100-100s100,44.771484,100,100s-44.771484,100-100,100S200,580.228516,200,525z M500,525
	c0-55.228516,44.771484-100,100-100s100,44.771484,100,100s-44.771484,100-100,100S500,580.228516,500,525z M800,525
	c0-55.228516,44.771484-100,100-100s100,44.771484,100,100s-44.771484,100-100,100S800,580.228516,800,525z"/>
</svg>
