<?xml version="1.0" encoding="utf-8"?>
<!-- Generator: Adobe Illustrator 28.0.0, SVG Export Plug-In . SVG Version: 6.00 Build 0)  -->
<svg version="1.1" id="圖層_1" xmlns="http://www.w3.org/2000/svg" xmlns:xlink="http://www.w3.org/1999/xlink" x="0px" y="0px"
	 viewBox="0 0 1200 1200" enable-background="new 0 0 1200 1200" xml:space="preserve">
<path d="M1024.26416,175.735352C969.177246,120.649414,905.016113,77.393555,833.5625,47.171875
	C759.559082,15.871094,680.977539,0,600,0S440.440918,15.871094,366.4375,47.171875
	c-71.453613,30.22168-135.61499,73.477539-190.70166,128.563477C120.648926,230.822266,77.393799,294.984375,47.171631,366.4375
	C15.87085,440.44043,0,519.022461,0,600s15.87085,159.55957,47.171631,233.5625
	c30.222168,71.453125,73.477295,135.615234,128.564209,190.702148c55.08667,55.085938,119.248047,98.341797,190.70166,128.563477
	C440.440918,1184.128906,519.022461,1200,600,1200s159.559082-15.871094,233.5625-47.171875
	c71.453613-30.22168,135.614746-73.477539,190.70166-128.563477c55.086914-55.086914,98.342285-119.249023,128.564453-190.702148
	C1184.129395,759.55957,1200,680.977539,1200,600s-15.870605-159.55957-47.171387-233.5625
	C1122.606445,294.984375,1079.351074,230.822266,1024.26416,175.735352z M600,1100c-275.701172,0-500-224.298828-500-500
	s224.298828-500,500-500s500,224.298828,500,500S875.701172,1100,600,1100z M847.487305,352.512695
	c-32.126953-32.126953-69.552246-57.356445-111.236328-74.987305C693.069336,259.260742,647.228027,250,600,250
	s-93.069336,9.260742-136.250977,27.525391c-41.684082,17.630859-79.109375,42.860352-111.236328,74.987305
	c-32.127441,32.126953-57.356934,69.552734-74.987305,111.236328C259.260742,506.930664,250,552.772461,250,600
	s9.260742,93.069336,27.525391,136.250977c17.630371,41.683594,42.859863,79.109375,74.987305,111.236328
	c32.126953,32.126953,69.552246,57.356445,111.236328,74.987305C506.930664,940.739258,552.771973,950,600,950
	s93.069336-9.260742,136.250977-27.525391c41.684082-17.630859,79.109375-42.860352,111.236328-74.987305
	c32.127441-32.126953,57.356934-69.552734,74.987305-111.236328C940.739258,693.069336,950,647.227539,950,600
	s-9.260742-93.069336-27.525391-136.250977C904.844238,422.06543,879.614746,384.639648,847.487305,352.512695z M600,850
	c-137.850586,0-250-112.149414-250-250s112.149414-250,250-250s250,112.149414,250,250S737.850586,850,600,850z"/>
</svg>
