<?xml version="1.0" encoding="utf-8"?>
<!-- Generator: Adobe Illustrator 28.0.0, SVG Export Plug-In . SVG Version: 6.00 Build 0)  -->
<svg version="1.1" id="圖層_1" xmlns="http://www.w3.org/2000/svg" xmlns:xlink="http://www.w3.org/1999/xlink" x="0px" y="0px"
	 viewBox="0 0 1200 1200" enable-background="new 0 0 1200 1200" xml:space="preserve">
<path d="M675,1200H525c-41.355225,0-75-33.644775-75-75v-121.085205c-9.990723-3.712158-19.84375-7.797607-29.536499-12.24646
	l-85.62854,85.628784c-14.165527,14.165527-32.999756,21.966797-53.032837,21.966797
	c-20.033447,0-38.867676-7.80127-53.033203-21.966797l-106.06604-106.06604c-14.165527-14.165771-21.966858-33-21.966858-53.033203
	c0-20.033081,7.801331-38.86731,21.967163-53.032837l85.628479-85.62854c-4.448853-9.692627-8.534302-19.545776-12.24646-29.536499
	H75c-41.355286,0-75-33.644775-75-75V525c0-41.355225,33.644714-75,75-75h121.085205
	c3.712158-9.990723,7.797607-19.84375,12.24646-29.536499l-85.628784-85.62854
	c-14.165527-14.165527-21.966858-32.999756-21.966858-53.032837c0-20.033203,7.801331-38.867432,21.966858-53.033203
	l106.06604-106.06604c29.243042-29.242432,76.823975-29.242188,106.06604,0l85.628662,85.628662
	c9.692749-4.448853,19.545654-8.53418,29.536377-12.246338V75c0-41.355286,33.644775-75,75-75h150c41.355225,0,75,33.644714,75,75
	v121.085205c9.990723,3.712158,19.843628,7.797485,29.536377,12.246338l85.628662-85.628662
	c29.24231-29.242432,76.823242-29.242188,106.065796-0.000244l106.066284,106.066284
	c14.165527,14.165527,21.966797,32.999756,21.966797,53.033203c0,20.033081-7.80127,38.86731-21.967041,53.033081
	l-85.62854,85.628296c4.448853,9.692749,8.534302,19.545776,12.24646,29.536499H1125c41.355225,0,75,33.644775,75,75v150
	c0,41.355225-33.644775,75-75,75h-121.085205c-3.712158,9.990723-7.797607,19.84375-12.24646,29.536499l85.628784,85.62854
	c14.165527,14.165527,21.966797,32.999756,21.966797,53.032837c0,20.033447-7.80127,38.867676-21.966797,53.033203
	l-106.06604,106.06604c-14.165527,14.165527-32.999756,21.966797-53.033203,21.966797
	c-20.033081,0-38.86731-7.80127-53.033081-21.967041l-85.628296-85.62854c-9.692749,4.448853-19.545776,8.534302-29.536499,12.24646
	V1125C750,1166.355225,716.355225,1200,675,1200z M550,1100h100V929.263916l36.900757-10.017334
	c26.995239-7.328125,53.021606-18.118896,77.356323-32.072388l33.18103-19.025513l120.759888,120.759888l70.710571-70.710571
	L868.148682,797.43811l19.025513-33.18103c13.953491-24.334717,24.744263-50.361084,32.072388-77.356323L929.263916,650H1100V550
	H929.263916l-10.017334-36.900757c-7.328125-26.995239-18.118896-53.021606-32.072388-77.356323l-19.025513-33.18103
	l120.759888-120.759888l-70.710449-70.710693l-120.760254,120.76001l-33.180786-19.025513
	c-24.334961-13.953735-50.361328-24.744263-77.356323-32.072388L650,270.736084V100H550v170.736084l-36.900757,10.017334
	c-26.994995,7.328125-53.021362,18.118652-77.356323,32.072388l-33.180786,19.025513L281.80188,211.091309l-70.710693,70.710693
	L331.851318,402.56189l-19.025513,33.18103c-13.953491,24.334717-24.744263,50.361084-32.072388,77.356323L270.736084,550H100v100
	h170.736084l10.017334,36.900757c7.328125,26.995239,18.118896,53.021606,32.072388,77.356323l19.025513,33.18103
	l-120.76001,120.76001l70.710571,70.710571l120.76001-120.76001l33.18103,19.025513
	c24.334717,13.953491,50.361084,24.744263,77.356323,32.072388L550,929.263916V1100z M600,849.999512
	c-66.777466,0-129.557861-26.004639-176.776489-73.223145C376.004517,729.557617,350,666.777222,350,600
	s26.004517-129.557617,73.223511-176.776367C470.442139,376.005127,533.222534,350.000488,600,350.000488
	s129.557861,26.004639,176.776489,73.223145C823.995483,470.442383,850,533.222778,850,600
	s-26.004517,129.557617-73.223511,176.776367C729.557861,823.994873,666.777466,849.999512,600,849.999512z M600,450.000488
	c-82.710327,0-150,67.289551-150,149.999512s67.289673,149.999512,150,149.999512S750,682.709961,750,600
	S682.710327,450.000488,600,450.000488z"/>
</svg>
