<?xml version="1.0" encoding="utf-8"?>
<!-- Generator: Adobe Illustrator 28.0.0, SVG Export Plug-In . SVG Version: 6.00 Build 0)  -->
<svg version="1.1" id="圖層_1" xmlns="http://www.w3.org/2000/svg" xmlns:xlink="http://www.w3.org/1999/xlink" x="0px" y="0px"
	 viewBox="0 0 1200 1200" enable-background="new 0 0 1200 1200" xml:space="preserve">
<path d="M600,1200c-80.977539,0-159.55957-15.87085-233.5625-47.171631
	c-71.453125-30.222046-135.615234-73.477539-190.702148-128.564453
	c-55.085938-55.086548-98.341797-119.247803-128.563477-190.701538C15.871094,759.559204,0,680.977417,0,600
	s15.871094-159.559204,47.171875-233.562378c30.22168-71.453735,73.477539-135.61499,128.563477-190.701599
	C230.822266,120.649231,294.984375,77.393677,366.4375,47.17157C440.44043,15.870789,519.022461,0,600,0
	s159.55957,15.870789,233.5625,47.17157c71.453125,30.222107,135.615234,73.477661,190.702148,128.564453
	c55.085938,55.086609,98.341797,119.247864,128.563477,190.701599C1184.128906,440.440796,1200,519.022583,1200,600
	s-15.871094,159.559204-47.171875,233.562378c-30.22168,71.453735-73.477539,135.61499-128.563477,190.701538
	c-55.086914,55.086914-119.249023,98.342407-190.702148,128.564453C759.55957,1184.12915,680.977539,1200,600,1200z M600,100
	c-67.521484,0-132.99707,13.212891-194.607422,39.271851c-59.533203,25.180786-113.010742,61.239502-158.946289,107.174683
	c-45.93457,45.935303-81.994141,99.41272-107.174805,158.946411C113.212891,467.003174,100,532.478394,100,600
	s13.212891,132.996826,39.271484,194.607056c25.180664,59.533691,61.240234,113.011108,107.174805,158.946411
	c45.935547,45.935181,99.413086,81.993896,158.946289,107.174683C467.00293,1086.787109,532.478516,1100,600,1100
	s132.99707-13.212891,194.607422-39.271851c59.533203-25.180786,113.010742-61.239502,158.946289-107.174683
	c45.93457-45.935303,81.994141-99.41272,107.174805-158.946411C1086.787109,732.996826,1100,667.521606,1100,600
	s-13.212891-132.996826-39.271484-194.607056c-25.180664-59.533691-61.240234-113.011108-107.174805-158.946411
	c-45.935547-45.935181-99.413086-81.993896-158.946289-107.174683C732.99707,113.212891,667.521484,100,600,100z M500,850
	c-8.669922,0-17.338867-2.252563-25.09668-6.754517C459.488281,834.299438,450,817.823486,450,800V400
	c0-17.823486,9.488281-34.299438,24.90332-43.245483c15.416992-8.946533,34.429688-9.009033,49.90332-0.166748l350,200
	C890.385742,565.48999,900,582.057129,900,600s-9.614258,34.51001-25.193359,43.412231l-350,200
	C517.119141,847.805054,508.558594,850,500,850z M550,486.158936v227.682129L749.22168,600L550,486.158936z"/>
</svg>
