<?xml version="1.0" encoding="utf-8"?>
<!-- Generator: Adobe Illustrator 28.0.0, SVG Export Plug-In . SVG Version: 6.00 Build 0)  -->
<svg version="1.1" id="圖層_1" xmlns="http://www.w3.org/2000/svg" xmlns:xlink="http://www.w3.org/1999/xlink" x="0px" y="0px"
	 viewBox="0 0 1200 1200" enable-background="new 0 0 1200 1200" xml:space="preserve">
<path d="M175.735352,1024.264648c55.086914,55.085938,119.249023,98.341797,190.702148,128.563477
	C440.44043,1184.128906,519.022461,1200,600,1200s159.55957-15.871094,233.5625-47.171875
	c71.453125-30.22168,135.615234-73.477539,190.702148-128.563477c55.085938-55.086914,98.341797-119.249023,128.563477-190.702148
	C1184.128906,759.55957,1200,680.977539,1200,600s-15.871094-159.55957-47.171875-233.5625
	c-30.22168-71.453125-73.477539-135.615234-128.563477-190.702148C969.177734,120.649414,905.015625,77.393555,833.5625,47.171875
	C759.55957,15.871094,680.977539,0,600,0S440.44043,15.871094,366.4375,47.171875
	c-71.453125,30.22168-135.615234,73.477539-190.702148,128.563477C120.649414,230.822266,77.393555,294.984375,47.171875,366.4375
	C15.871094,440.44043,0,519.022461,0,600s15.871094,159.55957,47.171875,233.5625
	C77.393555,905.015625,120.649414,969.177734,175.735352,1024.264648z M600,100c275.701172,0,500,224.298828,500,500
	s-224.298828,500-500,500S100,875.701172,100,600S324.298828,100,600,100z M305.27832,822.360352
	c-12.349609-24.698242-2.337891-54.732422,22.361328-67.082031c24.698242-12.349609,54.731445-2.337891,67.082031,22.361328
	c2.658203,5.317383,21.358398,24.94043,70.722656,44.686523C508.765625,839.654297,559.067383,850,600,850
	s91.234375-10.345703,134.555664-27.673828c49.364258-19.746094,68.064453-39.369141,70.722656-44.686523
	c12.350586-24.699219,42.381836-34.709961,67.082031-22.361328c24.699219,12.349609,34.710938,42.383789,22.361328,67.082031
	c-22.524414,45.047852-79.334961,75.336914-123.027344,92.813477C716.363281,937.306641,653.783203,950,600,950
	s-116.363281-12.693359-171.694336-34.826172C384.613281,897.697266,327.802734,867.408203,305.27832,822.360352z M350,550V400
	c0-27.614258,22.385742-50,50-50s50,22.385742,50,50v150c0,27.614258-22.385742,50-50,50S350,577.614258,350,550z M750,550V400
	c0-27.614258,22.385742-50,50-50s50,22.385742,50,50v150c0,27.614258-22.385742,50-50,50S750,577.614258,750,550z"/>
</svg>
