<?xml version="1.0" encoding="utf-8"?>
<!-- Generator: Adobe Illustrator 21.0.0, SVG Export Plug-In . SVG Version: 6.00 Build 0)  -->
<svg version="1.1" id="圖層_1" xmlns="http://www.w3.org/2000/svg" xmlns:xlink="http://www.w3.org/1999/xlink" x="0px" y="0px"
	 viewBox="0 0 1200 1200" enable-background="new 0 0 1200 1200" xml:space="preserve">
<path d="M457.692383,253.846191C457.692383,141.445007,366.24707,50,253.845703,50C141.445313,50,50,141.445007,50,253.846191
	c0,93.767578,63.644531,172.937195,150,196.613892v301.96283c-87.235352,22.305115-151.922852,101.56543-151.922852,195.653992
	c0,111.34082,90.582031,201.923218,201.922852,201.923218s201.922852-90.582397,201.922852-201.923218
	c0-94.088562-64.6875-173.348877-151.922852-195.653992V452.420471
	C390.244141,431.452026,457.692383,350.378479,457.692383,253.846191z M150,253.846191
	C150,196.585205,196.584961,150,253.845703,150c57.261719,0,103.84668,46.585205,103.84668,103.846191
	s-46.584961,103.845947-103.84668,103.845947C196.584961,357.692139,150,311.107178,150,253.846191z M351.922852,948.076904
	c0,56.200684-45.722656,101.923218-101.922852,101.923218s-101.922852-45.722534-101.922852-101.923218
	S193.799805,846.153687,250,846.153687S351.922852,891.876221,351.922852,948.076904z M1000,752.422913v-383.40094
	c0-43.932739-16.901367-85.808716-47.59082-117.914185C920.904297,218.150391,879.145508,200,834.824219,200H672.332031
	l63.467773-65.094971c19.277344-19.771851,18.876953-51.427551-0.894531-70.705017
	c-19.772461-19.276855-51.426758-18.877563-70.705078,0.894958l-150,153.846191
	c-9.259766,9.496826-14.366211,22.283447-14.196289,35.546143c0.169922,13.262573,5.603516,25.914185,15.102539,35.17041
	l150,146.153809C674.828125,445.283447,687.416992,450,699.996094,450c13.013672,0,26.016602-5.049927,35.81543-15.106812
	c19.270508-19.778076,18.859375-51.433716-0.917969-70.704712L669.015625,300h165.808594
	C869.543945,300,900,332.253174,900,369.021973v383.40094c-87.235352,22.305115-151.922852,101.56543-151.922852,195.653992
	c0,111.34082,90.582031,201.923218,201.922852,201.923218s201.922852-90.582397,201.922852-201.923218
	C1151.922852,853.988342,1087.235352,774.728027,1000,752.422913z M950,1050.000122
	c-56.200195,0-101.922852-45.722534-101.922852-101.923218S893.799805,846.153687,950,846.153687
	s101.922852,45.722534,101.922852,101.923218S1006.200195,1050.000122,950,1050.000122z"/>
</svg>
