<?xml version="1.0" encoding="utf-8"?>
<!-- Generator: Adobe Illustrator 21.0.0, SVG Export Plug-In . SVG Version: 6.00 Build 0)  -->
<svg version="1.1" id="圖層_1" xmlns="http://www.w3.org/2000/svg" xmlns:xlink="http://www.w3.org/1999/xlink" x="0px" y="0px"
	 viewBox="0 0 1200 1200" enable-background="new 0 0 1200 1200" xml:space="preserve">
<path d="M1152.828613,366.437622c-30.222168-71.453735-73.477539-135.61499-128.564453-190.701599
	C969.177246,120.649231,905.016113,77.393677,833.5625,47.17157C759.559082,15.870789,680.977539,0,600,0
	S440.440918,15.870789,366.4375,47.17157c-71.453613,30.222107-135.614746,73.477661-190.70166,128.564453
	c-55.086914,55.086609-98.342285,119.247864-128.564453,190.701599C15.870605,440.440796,0,519.022583,0,600
	s15.870605,159.559204,47.171387,233.562378c30.222168,71.453735,73.477539,135.61499,128.564453,190.701538
	c55.086914,55.086914,119.248047,98.342407,190.70166,128.564453C440.440918,1184.12915,519.022461,1200,600,1200
	s159.559082-15.87085,233.5625-47.171631c71.453613-30.222046,135.614746-73.477539,190.70166-128.564453
	c55.086914-55.086548,98.342285-119.247803,128.564453-190.701538C1184.129395,759.559204,1200,680.977417,1200,600
	S1184.129395,440.440796,1152.828613,366.437622z M600,1100c-275.701172,0-500-224.29895-500-500s224.298828-500,500-500
	s500,224.29895,500,500S875.701172,1100,600,1100z M650,303.846313v423.07666c0,27.61438-22.385742,50-50,50s-50-22.38562-50-50
	v-423.07666c0-27.61438,22.385742-50,50-50S650,276.231934,650,303.846313z M649.939941,893.689941
	C649.97998,894.51001,650,895.339966,650,896.149902c0,0.820068-0.02002,1.650024-0.060059,2.470093
	c-0.040039,0.809937-0.110352,1.640015-0.189941,2.449951c-0.080078,0.810059-0.180176,1.630005-0.300293,2.440063
	c-0.129883,0.799927-0.27002,1.609985-0.429688,2.409912c-0.160156,0.800049-0.340332,1.600098-0.540039,2.390015
	c-0.200195,0.790039-0.419922,1.580078-0.660156,2.359985c-0.240234,0.780029-0.5,1.560059-0.77002,2.320068
	c-0.27002,0.77002-0.569824,1.539917-0.879883,2.289917s-0.649902,1.5-0.990234,2.240112
	c-0.350098,0.72998-0.719727,1.469971-1.100098,2.179932c-0.379883,0.719971-0.789551,1.440063-1.199707,2.140015
	c-0.419922,0.689941-0.859863,1.390015-1.310059,2.069946c-0.450195,0.680054-0.919922,1.350098-1.410156,2.01001
	c-0.47998,0.650024-0.989746,1.310059-1.5,1.940063c-0.52002,0.630005-1.060059,1.26001-1.609863,1.859985
	c-0.549805,0.609985-1.120117,1.209961-1.700195,1.790039c-0.569824,0.579956-1.179688,1.149902-1.779785,1.699951
	c-0.609863,0.540039-1.240234,1.079956-1.870117,1.599976s-1.279785,1.02002-1.939941,1.51001
	c-0.649902,0.47998-1.330078,0.950073-2.009766,1.410034c-0.67041,0.439941-1.370117,0.880005-2.070313,1.299927
	c-0.699707,0.420044-1.409668,0.820068-2.129883,1.200073c-0.720215,0.390015-1.450195,0.76001-2.189941,1.099976
	c-0.72998,0.349976-1.490234,0.680054-2.240234,0.98999c-0.75,0.310059-1.52002,0.609985-2.279785,0.880005
	c-0.760254,0.280029-1.549805,0.540039-2.319824,0.780029c-0.780273,0.22998-1.570313,0.449951-2.360352,0.650024
	c-0.790039,0.199951-1.589844,0.380005-2.389648,0.549927c-0.800293,0.160034-1.610352,0.300049-2.42041,0.420044
	c-0.799805,0.119995-1.619629,0.22998-2.429688,0.309937c-0.820313,0.080078-1.640137,0.140015-2.459961,0.180054
	c-0.810059,0.040039-1.640137,0.059937-2.459961,0.059937c-0.820313,0-1.650391-0.019897-2.459961-0.059937
	c-0.820313-0.040039-1.640137-0.099976-2.460449-0.180054c-0.80957-0.079956-1.629883-0.189941-2.429688-0.309937
	c-0.810059-0.119995-1.620117-0.26001-2.419922-0.420044c-0.800293-0.169922-1.600098-0.349976-2.390137-0.549927
	c-0.790039-0.200073-1.580078-0.420044-2.359863-0.650024c-0.77002-0.23999-1.560059-0.5-2.320313-0.780029
	c-0.77002-0.27002-1.529785-0.569946-2.279785-0.880005c-0.760254-0.309937-1.510254-0.640015-2.240234-0.98999
	c-0.739746-0.339966-1.469727-0.709961-2.189941-1.099976c-0.719727-0.380005-1.429688-0.780029-2.129883-1.200073
	c-0.700195-0.419922-1.399902-0.859985-2.080078-1.299927c-0.669922-0.459961-1.350098-0.930054-2-1.410034
	c-0.659668-0.48999-1.310059-0.98999-1.939941-1.51001c-0.640137-0.52002-1.259766-1.059937-1.870117-1.599976
	c-0.609863-0.550049-1.209961-1.119995-1.790039-1.699951c-0.569824-0.580078-1.139648-1.180054-1.689941-1.790039
	c-0.549805-0.599976-1.089844-1.22998-1.609863-1.859985c-0.509766-0.630005-1.02002-1.290039-1.5-1.940063
	c-0.490234-0.659912-0.959961-1.329956-1.410156-2.01001c-0.449707-0.679932-0.889648-1.380005-1.310059-2.069946
	c-0.409668-0.699951-0.819824-1.420044-1.199707-2.140015c-0.379883-0.709961-0.75-1.449951-1.100098-2.179932
	c-0.350098-0.740112-0.680176-1.490112-0.989746-2.240112c-0.310059-0.75-0.610352-1.519897-0.880371-2.289917
	c-0.279785-0.76001-0.529785-1.540039-0.77002-2.320068c-0.239746-0.779907-0.459961-1.569946-0.659668-2.359985
	c-0.200195-0.789917-0.380371-1.589966-0.540039-2.390015c-0.160156-0.799927-0.310059-1.609985-0.430176-2.409912
	c-0.120117-0.810059-0.219727-1.630005-0.299805-2.440063c-0.080078-0.809937-0.150391-1.640015-0.189941-2.449951
	C550.02002,897.799927,550,896.969971,550,896.149902c0-0.809937,0.02002-1.639893,0.060059-2.459961
	c0.039551-0.819946,0.109863-1.640015,0.189941-2.449951c0.080078-0.810059,0.179688-1.630005,0.299805-2.440063
	c0.120117-0.809937,0.27002-1.619995,0.430176-2.419922c0.159668-0.790039,0.339844-1.600098,0.540039-2.390015
	c0.199707-0.780029,0.419922-1.580078,0.659668-2.349976c0.240234-0.780029,0.490234-1.560059,0.77002-2.330078
	c0.27002-0.76001,0.570313-1.530029,0.880371-2.280029c0.30957-0.75,0.639648-1.5,0.989746-2.23999
	c0.350098-0.72998,0.720215-1.469971,1.100098-2.189941c0.379883-0.709961,0.790039-1.430054,1.199707-2.130005
	c0.42041-0.699951,0.860352-1.390015,1.310059-2.070068c0.450195-0.679932,0.919922-1.359985,1.410156-2.009888
	c0.47998-0.660034,0.990234-1.310059,1.5-1.940063c0.52002-0.630005,1.060059-1.26001,1.609863-1.869995
	c0.550293-0.599976,1.120117-1.199951,1.689941-1.780029c0.580078-0.579956,1.180176-1.150024,1.790039-1.699951
	c0.610352-0.550049,1.22998-1.089966,1.870117-1.599976c0.629883-0.52002,1.280273-1.030029,1.939941-1.51001
	c0.649902-0.47998,1.330078-0.960083,2-1.410034c0.680176-0.449951,1.379883-0.890015,2.080078-1.300049
	c0.700195-0.419922,1.410156-0.819946,2.129883-1.209961c0.720215-0.380005,1.450195-0.75,2.189941-1.089966
	c0.72998-0.349976,1.47998-0.680054,2.240234-1c0.75-0.310059,1.509766-0.599976,2.279785-0.880005
	c0.760254-0.27002,1.550293-0.530029,2.320313-0.77002c0.779785-0.23999,1.569824-0.459961,2.359863-0.660034
	c0.790039-0.199951,1.589844-0.380005,2.390137-0.539917c0.799805-0.160034,1.609863-0.300049,2.419922-0.420044
	c0.799805-0.130005,1.620117-0.22998,2.429688-0.310059c0.820313-0.079956,1.640137-0.139893,2.460449-0.189941
	c1.629883-0.079956,3.289551-0.079956,4.919922,0c0.819824,0.050049,1.639648,0.109985,2.459961,0.189941
	c0.810059,0.080078,1.629883,0.180054,2.429688,0.310059c0.810059,0.119995,1.620117,0.26001,2.42041,0.420044
	c0.799805,0.159912,1.599609,0.339966,2.389648,0.539917c0.790039,0.200073,1.580078,0.420044,2.360352,0.660034
	c0.77002,0.23999,1.55957,0.5,2.319824,0.77002c0.759766,0.280029,1.529785,0.569946,2.279785,0.880005
	c0.75,0.319946,1.510254,0.650024,2.240234,1c0.739746,0.339966,1.469727,0.709961,2.189941,1.089966
	c0.720215,0.390015,1.430176,0.790039,2.129883,1.209961c0.700195,0.410034,1.399902,0.850098,2.070313,1.300049
	c0.679688,0.449951,1.359863,0.930054,2.009766,1.410034c0.660156,0.47998,1.310059,0.98999,1.939941,1.51001
	c0.629883,0.51001,1.260254,1.049927,1.870117,1.599976c0.600098,0.549927,1.209961,1.119995,1.779785,1.699951
	c0.580078,0.580078,1.150391,1.180054,1.700195,1.780029c0.549805,0.609985,1.089844,1.23999,1.609863,1.869995
	c0.510254,0.630005,1.02002,1.280029,1.5,1.940063c0.490234,0.649902,0.959961,1.329956,1.410156,2.009888
	c0.450195,0.680054,0.890137,1.370117,1.310059,2.070068c0.410156,0.699951,0.819824,1.420044,1.199707,2.130005
	c0.380371,0.719971,0.75,1.459961,1.100098,2.189941c0.340332,0.73999,0.680176,1.48999,0.990234,2.23999
	s0.609863,1.52002,0.879883,2.280029c0.27002,0.77002,0.529785,1.550049,0.77002,2.330078
	c0.240234,0.769897,0.459961,1.569946,0.660156,2.349976c0.199707,0.789917,0.379883,1.599976,0.540039,2.390015
	c0.159668,0.799927,0.299805,1.609985,0.429688,2.419922c0.120117,0.810059,0.220215,1.630005,0.300293,2.440063
	C649.82959,892.049927,649.899902,892.869995,649.939941,893.689941z"/>
</svg>
