<?xml version="1.0" encoding="utf-8"?>
<!-- Generator: Adobe Illustrator 21.0.0, SVG Export Plug-In . SVG Version: 6.00 Build 0)  -->
<svg version="1.1" id="圖層_1" xmlns="http://www.w3.org/2000/svg" xmlns:xlink="http://www.w3.org/1999/xlink" x="0px" y="0px"
	 viewBox="0 0 1200 1200" enable-background="new 0 0 1200 1200" xml:space="preserve">
<path d="M1099.779297,345.384399c-0.009766-0.112183-0.013672-0.225342-0.025391-0.337402
	c-0.821289-8.346436-3.696289-16.08728-8.110352-22.717285c-0.017578-0.026367-0.033203-0.053589-0.050781-0.079956
	c-0.396484-0.592529-0.808594-1.173096-1.228516-1.747437c-0.067383-0.092407-0.130859-0.1875-0.199219-0.279419
	c-0.382813-0.515503-0.780273-1.018433-1.182617-1.518433c-0.113281-0.141479-0.220703-0.287231-0.335938-0.427612
	c-0.391602-0.476685-0.798828-0.939941-1.207031-1.401611c-0.134766-0.151367-0.260742-0.307861-0.396484-0.45752
	c-0.547852-0.603394-1.108398-1.193848-1.68457-1.769775c-0.000977-0.000977-0.001953-0.002197-0.00293-0.003174l-300-300l0,0
	c-0.577148-0.577026-1.168945-1.13916-1.773438-1.6875c-0.146484-0.132813-0.299805-0.256836-0.447266-0.387695
	c-0.46582-0.412109-0.932617-0.822266-1.413086-1.216919c-0.134766-0.110474-0.274414-0.213379-0.410156-0.322388
	c-0.505859-0.406982-1.014648-0.809814-1.536133-1.197266c-0.084961-0.062744-0.172852-0.12085-0.257813-0.183105
	c-0.582031-0.426147-1.169922-0.84314-1.770508-1.244385c-0.017578-0.011963-0.036133-0.022827-0.054688-0.034668
	c-6.634766-4.422852-14.384766-7.303223-22.740234-8.125c-0.101563-0.01001-0.203125-0.01355-0.303711-0.022949
	c-0.710938-0.065674-1.424805-0.124023-2.143555-0.159546C751.671875,0.021729,750.836914,0,750,0H150
	c-27.614258,0-50,22.385742-50,50v1100c0,27.614258,22.385742,50,50,50h900c27.614258,0,50-22.385742,50-50V350
	c0-0.83728-0.021484-1.672363-0.063477-2.504517C1099.901367,346.786987,1099.84375,346.084839,1099.779297,345.384399z
	 M800,170.710815L929.289063,300H800V170.710815z M200,1100V100h500v250c0,27.614258,22.385742,50,50,50h250v700H200z M800,600
	c0-110.280273-89.719727-200-200-200s-200,89.719727-200,200c0,64.331787,30.539063,121.656982,77.872559,158.266602
	l-25.307129,75.922119c-8.732422,26.197266,5.425781,54.513184,31.623047,63.245605
	c5.246094,1.748535,10.577148,2.579346,15.818359,2.579346c20.933594,0,40.443359-13.251465,47.427734-34.202393
	l22.681641-68.045166C579.867676,799.233398,589.845703,800,600,800s20.132324-0.766602,29.883789-2.233887l22.681641,68.045166
	c6.984375,20.952637,26.492188,34.202393,47.427734,34.202393c5.240234,0,10.573242-0.831299,15.818359-2.579346
	c26.197266-8.732422,40.355469-37.04834,31.623047-63.245605l-25.307617-75.922119C769.460938,721.656982,800,664.331787,800,600z
	 M500,600c0-55.140137,44.859375-100,100-100s100,44.859863,100,100s-44.859375,100-100,100S500,655.140137,500,600z"/>
</svg>
