<?xml version="1.0" encoding="utf-8"?>
<!-- Generator: Adobe Illustrator 28.0.0, SVG Export Plug-In . SVG Version: 6.00 Build 0)  -->
<svg version="1.1" id="圖層_1" xmlns="http://www.w3.org/2000/svg" xmlns:xlink="http://www.w3.org/1999/xlink" x="0px" y="0px"
	 viewBox="0 0 1200 1200" enable-background="new 0 0 1200 1200" xml:space="preserve">
<path d="M775,250v-50h125v49c0,27.6,22.4,50,50,50s50-22.4,50-50v-99c0-27.6-22.4-50-50-50H775V50c0-27.6-22.4-50-50-50H375
	c-27.6,0-50,22.4-50,50v50H150c-27.6,0-50,22.4-50,50v1000c0,27.6,22.4,50,50,50h100c27.6,0,50-22.4,50-50s-22.4-50-50-50h-50V200
	h125v50c0,27.6,22.4,50,50,50h350C752.6,300,775,277.6,775,250z M675,200H425V100h250V200z M1050,401H600
	c-13.2,0-25.9,5.2-35.2,14.5l-150,149c-9.4,9.4-14.8,22.2-14.8,35.5v550c0,27.6,22.4,50,50,50h600c27.6,0,50-22.4,50-50V451
	C1100,423.4,1077.6,401,1050,401z M1000,1100H500V620.8L620.6,501H1000V1100z M600,600h298c27.6,0,50,22.4,50,50s-22.4,50-50,50H600
	c-27.6,0-50-22.4-50-50S572.4,600,600,600z M549.3,799.5c0-27.6,22.4-50,50-50h298c27.6,0,50,22.4,50,50s-22.4,50-50,50h-298
	C571.7,849.5,549.3,827.1,549.3,799.5z M948.3,949.5c0,27.6-22.4,50-50,50h-298c-27.6,0-50-22.4-50-50s22.4-50,50-50h298
	C926,899.5,948.3,921.9,948.3,949.5z"/>
</svg>
