<?xml version="1.0" encoding="utf-8"?>
<!-- Generator: Adobe Illustrator 21.0.0, SVG Export Plug-In . SVG Version: 6.00 Build 0)  -->
<svg version="1.1" id="圖層_1" xmlns="http://www.w3.org/2000/svg" xmlns:xlink="http://www.w3.org/1999/xlink" x="0px" y="0px"
	 viewBox="0 0 1200 1200" enable-background="new 0 0 1200 1200" xml:space="preserve">
<path d="M1100,1150H100c-27.614258,0-50-22.385742-50-50V100c0-27.614258,22.385742-50,50-50h1000c27.614258,0,50,22.385742,50,50
	v1000C1150,1127.614258,1127.614258,1150,1100,1150z M150,1050h900V150H150V1050z M349.989014,900.001953
	c-6.441162,0-12.936768-1.245117-19.123291-3.807617C312.182129,888.455078,300,870.222656,300,850V350
	c0-27.614258,22.385742-50,50-50h500c20.223145,0,38.454834,12.182617,46.194092,30.866211
	c7.739014,18.683594,3.461182,40.189453-10.838867,54.489258l-500,500
	C375.790283,894.919922,363.000977,900.001953,349.989014,900.001953z M400,400v329.289062L729.289551,400H400z"/>
</svg>
