<?xml version="1.0" encoding="utf-8"?>
<!-- Generator: Adobe Illustrator 21.0.0, SVG Export Plug-In . SVG Version: 6.00 Build 0)  -->
<svg version="1.1" id="圖層_1" xmlns="http://www.w3.org/2000/svg" xmlns:xlink="http://www.w3.org/1999/xlink" x="0px" y="0px"
	 viewBox="0 0 1200 1200" enable-background="new 0 0 1200 1200" xml:space="preserve">
<path d="M1185.355347,564.644531C1194.732178,574.021484,1200,586.739258,1200,600s-5.267822,25.978516-14.644653,35.355469
	L1058.432129,762.27832c-9.564941,9.564453-22.354248,14.645508-35.366089,14.645508
	c-6.441284,0-12.936768-1.244141-19.123291-3.806641c-18.683716-7.739258-30.865845-25.970703-30.865845-46.194336V650H650
	v323.077148h76.923096c20.223022,0,38.454956,12.181641,46.19397,30.866211
	c7.739136,18.683594,3.461182,40.189453-10.838623,54.489258l-126.923218,126.922852
	C625.592163,1195.118164,612.796021,1200,600,1200s-25.592163-4.881836-35.355225-14.644531l-126.923218-126.922852
	c-14.299805-14.299805-18.577759-35.805664-10.838623-54.489258c7.739014-18.68457,25.970947-30.866211,46.19397-30.866211H550V650
	H226.923096v76.922852c0,20.223633-12.182129,38.455078-30.865845,46.194336
	c-6.185303,2.561523-12.683228,3.806641-19.12323,3.806641c-13.013123,0-25.800354-5.080078-35.36615-14.645508
	L14.644653,635.355469C5.267883,625.978516,0,613.260742,0,600s5.267883-25.978516,14.644653-35.355469L141.567871,437.72168
	c14.299927-14.298828,35.805481-18.578125,54.48938-10.838867c18.683716,7.739258,30.865845,25.970703,30.865845,46.194336V550H550
	V226.922852h-76.923096c-20.223022,0-38.454956-12.181641-46.19397-30.866211
	c-7.739136-18.683594-3.461182-40.189453,10.838623-54.489258L564.644775,14.644531
	c19.526123-19.525391,51.184326-19.525391,70.710449,0l126.923218,126.922852
	c14.299805,14.299805,18.577759,35.805664,10.838623,54.489258c-7.739014,18.68457-25.970947,30.866211-46.19397,30.866211H650V550
	h323.076904v-76.922852c0-20.223633,12.182129-38.455078,30.865845-46.194336
	c18.683472-7.737305,40.189575-3.459961,54.48938,10.838867L1185.355347,564.644531z"/>
</svg>
