<?xml version="1.0" encoding="utf-8"?>
<!-- Generator: Adobe Illustrator 28.0.0, SVG Export Plug-In . SVG Version: 6.00 Build 0)  -->
<svg version="1.1" id="圖層_1" xmlns="http://www.w3.org/2000/svg" xmlns:xlink="http://www.w3.org/1999/xlink" x="0px" y="0px"
	 viewBox="0 0 1200 1200" enable-background="new 0 0 1200 1200" xml:space="preserve">
<path d="M950,1100c0,27.614258-22.385742,50-50,50H100c-27.614258,0-50-22.385742-50-50V300c0-27.614258,22.385742-50,50-50
	s50,22.385742,50,50v750h750C927.614258,1050,950,1072.385742,950,1100z M1100,650c-27.614258,0-50,22.385742-50,50v150H350V150h150
	c27.614258,0,50-22.385742,50-50s-22.385742-50-50-50H300c-27.614258,0-50,22.385742-50,50v800c0,27.614258,22.385742,50,50,50h800
	c27.614258,0,50-22.385742,50-50V700C1150,672.385742,1127.614258,650,1100,650z M1149.9375,97.521484
	c-0.018555-0.371094-0.053711-0.737305-0.079102-1.105469c-0.032227-0.443359-0.057617-0.885742-0.101562-1.328125
	c-0.045898-0.477539-0.110352-0.950195-0.170898-1.423828c-0.041016-0.329102-0.076172-0.658203-0.125-0.986328
	c-0.076172-0.518555-0.168945-1.03125-0.260742-1.543945c-0.050781-0.283203-0.095703-0.567383-0.151367-0.849609
	c-0.103516-0.523438-0.22168-1.041992-0.341797-1.55957c-0.0625-0.274414-0.121094-0.549805-0.189453-0.823242
	c-0.125-0.50293-0.263672-1-0.404297-1.49707c-0.082031-0.291016-0.160156-0.583984-0.248047-0.874023
	c-0.139648-0.462891-0.291016-0.918945-0.443359-1.375977c-0.109375-0.326172-0.214844-0.652344-0.331055-0.976562
	c-0.146484-0.40918-0.302734-0.813477-0.459961-1.21875c-0.141602-0.368164-0.283203-0.736328-0.433594-1.101562
	c-0.146484-0.351562-0.301758-0.699219-0.455078-1.046875c-0.180664-0.410156-0.361328-0.819336-0.553711-1.224609
	c-0.141602-0.298828-0.291016-0.591797-0.438477-0.886719c-0.220703-0.443359-0.443359-0.885742-0.677734-1.323242
	c-0.136719-0.254883-0.28125-0.504883-0.421875-0.756836c-0.258789-0.462891-0.519531-0.924805-0.793945-1.380859
	c-0.137695-0.228516-0.282227-0.451172-0.422852-0.675781c-0.289062-0.463867-0.580078-0.927734-0.886719-1.383789
	c-0.150391-0.224609-0.308594-0.442383-0.462891-0.664062c-0.307617-0.442383-0.615234-0.884766-0.938477-1.319336
	c-0.183594-0.248047-0.37793-0.487305-0.56543-0.731445c-0.306641-0.395508-0.609375-0.792969-0.928711-1.181641
	c-0.260742-0.316406-0.533203-0.62207-0.801758-0.932617c-0.263672-0.304688-0.519531-0.614258-0.791992-0.914062
	c-0.526367-0.581055-1.067383-1.149414-1.620117-1.705078c-0.02832-0.02832-0.053711-0.057617-0.082031-0.085938
	c-0.027344-0.027344-0.056641-0.052734-0.083984-0.080078c-0.556641-0.553711-1.125977-1.095703-1.708008-1.623047
	c-0.291016-0.263672-0.589844-0.511719-0.885742-0.767578c-0.320312-0.277344-0.636719-0.558594-0.964844-0.828125
	c-0.376953-0.310547-0.761719-0.603516-1.145508-0.900391c-0.256836-0.198242-0.508789-0.402344-0.768555-0.595703
	c-0.422852-0.314453-0.853516-0.613281-1.283203-0.912109c-0.234375-0.163086-0.46582-0.330078-0.703125-0.489258
	c-0.442383-0.297852-0.892578-0.580078-1.342773-0.862305c-0.239258-0.149414-0.476562-0.302734-0.71875-0.448242
	c-0.441406-0.265625-0.889648-0.518555-1.337891-0.769531c-0.266602-0.149414-0.53125-0.301758-0.801758-0.447266
	c-0.421875-0.225586-0.848633-0.44043-1.276367-0.65332c-0.310547-0.155273-0.621094-0.313477-0.935547-0.462891
	c-0.388672-0.183594-0.78125-0.356445-1.172852-0.530273c-0.366211-0.162109-0.730469-0.324219-1.100586-0.477539
	c-0.34668-0.143555-0.696289-0.277344-1.045898-0.412109c-0.422852-0.165039-0.84668-0.329102-1.275391-0.481445
	c-0.304688-0.108398-0.610352-0.208008-0.915039-0.30957c-0.477539-0.160156-0.954102-0.318359-1.4375-0.463867
	c-0.268555-0.081055-0.539062-0.15332-0.80957-0.229492c-0.517578-0.147461-1.036133-0.291992-1.561523-0.421875
	c-0.249023-0.061523-0.5-0.115234-0.75-0.172852c-0.541992-0.125977-1.084961-0.25-1.632812-0.357422
	c-0.25293-0.049805-0.505859-0.089844-0.758789-0.135742c-0.542969-0.097656-1.085938-0.195312-1.634766-0.275391
	c-0.288086-0.042969-0.576172-0.073242-0.864258-0.110352c-0.513672-0.066406-1.026367-0.134766-1.544922-0.185547
	c-0.379883-0.037109-0.760742-0.057617-1.141602-0.085938c-0.429688-0.032227-0.858398-0.072266-1.291016-0.092773
	c-0.708008-0.035156-1.416016-0.048828-2.125-0.053711C1100.224609,50.007812,1100.113281,50,1100,50H700
	c-27.614258,0-50,22.385742-50,50s22.385742,50,50,50h279.289062L564.644531,564.644531
	c-19.526367,19.526367-19.526367,51.18457,0,70.710938C574.408203,645.118164,587.204102,650,600,650
	s25.591797-4.881836,35.355469-14.644531L1050,220.710938V500c0,27.614258,22.385742,50,50,50s50-22.385742,50-50V100.009766
	C1150,99.180664,1149.978516,98.350586,1149.9375,97.521484z"/>
</svg>
