<?xml version="1.0" encoding="utf-8"?>
<!-- Generator: Adobe Illustrator 21.0.0, SVG Export Plug-In . SVG Version: 6.00 Build 0)  -->
<svg version="1.1" id="圖層_1" xmlns="http://www.w3.org/2000/svg" xmlns:xlink="http://www.w3.org/1999/xlink" x="0px" y="0px"
	 viewBox="0 0 1200 1200" enable-background="new 0 0 1200 1200" xml:space="preserve">
<path d="M1011.31543,261.724609c-24.060547-54.135742-58.556641-102.023438-102.529297-142.332031
	c-41.716797-38.241211-90.169922-68.095703-144.014648-88.736328C711.705078,10.314453,656.268555,0,600,0
	S488.294922,10.314453,435.228516,30.65625c-53.844727,20.640625-102.297852,50.495117-144.014648,88.736328
	c-43.972656,40.308594-78.46875,88.196289-102.529297,142.332031C163.015625,319.479492,150,382.825195,150,450
	c0,142.539062,58.948242,216.223633,110.957031,281.234375C308.736328,790.958984,350,842.539062,350,950v100
	c0,32.285156,3.506836,79.019531,33.828125,111.977539C415.182617,1196.058594,459.438477,1200,490,1200h220
	c30.561523,0,74.817383-3.941406,106.171875-38.022461C846.493164,1129.019531,850,1082.285156,850,1050V950
	c0-107.460938,41.263672-159.041016,89.042969-218.765625C991.051758,666.223633,1050,592.539062,1050,450
	C1050,382.825195,1036.984375,319.479492,1011.31543,261.724609z M700,800H500V543.425781l72.264648,48.176758
	c16.794922,11.197266,38.675781,11.197266,55.470703,0L700,543.425781V800z M750,1050
	c0,35.189453-6.662109,43.446289-7.421875,44.272461C742.039062,1094.858398,736.542969,1100,710,1100H490
	c-26.542969,0-32.039062-5.141602-32.578125-5.727539C456.662109,1093.446289,450,1085.189453,450,1050V950
	c0-17.689453-0.910156-34.316406-2.599609-50h305.199219C750.910156,915.683594,750,932.310547,750,950V1050z
	 M860.957031,668.765625C840.361328,694.509766,818.680664,721.620117,800,753.822266V450
	c0-18.439453-10.149414-35.382812-26.407227-44.083984c-16.258789-8.701172-35.986328-7.746094-51.328125,2.481445L600,489.907227
	l-122.264648-81.509766c-15.342773-10.229492-35.070312-11.182617-51.328125-2.481445S400,431.560547,400,450v303.822266
	c-18.680664-32.202148-40.361328-59.3125-60.957031-85.056641C291.263672,609.041016,250,557.460938,250,450
	c0-53.09375,10.115234-102.774414,30.06543-147.662109c18.448242-41.508789,44.933594-78.258789,78.720703-109.230469
	C423.336914,133.936523,511.255859,100,600,100s176.663086,33.936523,241.213867,93.107422
	c33.787109,30.97168,60.272461,67.72168,78.720703,109.230469C939.884766,347.225586,950,396.90625,950,450
	C950,557.460938,908.736328,609.041016,860.957031,668.765625z M700,1000c0,27.614258-22.385742,50-50,50H550
	c-27.614258,0-50-22.385742-50-50s22.385742-50,50-50h100C677.614258,950,700,972.385742,700,1000z"/>
</svg>
