<?xml version="1.0" encoding="utf-8"?>
<!-- Generator: Adobe Illustrator 28.0.0, SVG Export Plug-In . SVG Version: 6.00 Build 0)  -->
<svg version="1.1" id="圖層_1" xmlns="http://www.w3.org/2000/svg" xmlns:xlink="http://www.w3.org/1999/xlink" x="0px" y="0px"
	 viewBox="0 0 1200 1200" enable-background="new 0 0 1200 1200" xml:space="preserve">
<path d="M1150,1050H850c-17.239502,0-33.262939-8.880859-42.399902-23.5L322.287598,250H50c-27.614258,0-50-22.385742-50-50
	s22.385742-50,50-50h300c17.239502,0,33.262939,8.880859,42.399902,23.5l485.3125,776.5H1150c27.614258,0,50,22.385742,50,50
	S1177.614258,1050,1150,1050z M1200,200c0-27.614258-22.385742-50-50-50H700c-27.614258,0-50,22.385742-50,50s22.385742,50,50,50
	h450C1177.614258,250,1200,227.614258,1200,200z"/>
</svg>
