<?xml version="1.0" encoding="utf-8"?>
<!-- Generator: Adobe Illustrator 28.0.0, SVG Export Plug-In . SVG Version: 6.00 Build 0)  -->
<svg version="1.1" id="圖層_1" xmlns="http://www.w3.org/2000/svg" xmlns:xlink="http://www.w3.org/1999/xlink" x="0px" y="0px"
	 viewBox="0 0 1200 1200" enable-background="new 0 0 1200 1200" xml:space="preserve">
<path d="M599.958984,1200.003418c-10.19873,0.000488-20.48877-3.108887-29.367676-9.566406
	c-22.33252-16.242188-27.27002-47.513184-11.02832-69.845703L938.174805,600L559.562988,79.408691
	c-16.241699-22.33252-11.304199-53.603516,11.02832-69.845703c22.332031-16.242188,53.603027-11.305176,69.845703,11.02832l400,550
	c12.750488,17.532715,12.750488,41.284668,0,58.817383l-400,550
	C630.652344,1192.862305,615.412109,1200.00293,599.958984,1200.003418z M240.437012,1179.408691l400-550
	c12.750488-17.532715,12.750488-41.284668,0-58.817383l-400-550C224.193848-1.742188,192.92334-6.679199,170.591309,9.562988
	c-22.33252,16.242188-27.27002,47.513184-11.02832,69.845703L538.174805,600l-378.611816,520.591309
	c-16.241699,22.33252-11.304199,53.603516,11.02832,69.845703c8.878906,6.45752,19.168945,9.566895,29.367676,9.566406
	C215.412109,1200.00293,230.652344,1192.862305,240.437012,1179.408691z"/>
</svg>
