<?xml version="1.0" encoding="utf-8"?>
<!-- Generator: Adobe Illustrator 21.0.0, SVG Export Plug-In . SVG Version: 6.00 Build 0)  -->
<svg version="1.1" id="圖層_1" xmlns="http://www.w3.org/2000/svg" xmlns:xlink="http://www.w3.org/1999/xlink" x="0px" y="0px"
	 viewBox="0 0 1200 1200" enable-background="new 0 0 1200 1200" xml:space="preserve">
<path d="M972.473633,305.480225c-55.443359-46.120117-112.121094-82.569092-168.458008-108.334717
	C735.614258,165.862061,666.973633,150,600,150s-135.614258,15.862061-204.015625,47.145508
	c-56.336914,25.765625-113.014648,62.2146-168.458008,108.334717C115.624023,398.564941,40.173828,505.013672,19.714844,535.421875
	c-26.394531,39.229736-26.394531,89.926514,0,129.15625c20.458984,30.408203,95.90918,136.856934,207.811523,229.94165
	c55.443359,46.120117,112.121094,82.569092,168.458008,108.334717C464.385742,1034.137939,533.026367,1050,600,1050
	s135.614258-15.862061,204.015625-47.145508c56.336914-25.765625,113.014648-62.2146,168.458008-108.334717
	c111.902344-93.084717,187.352539-199.533447,207.811523-229.94165c26.394531-39.229736,26.394531-89.926514,0-129.15625
	C1159.826172,505.013672,1084.375977,398.564941,972.473633,305.480225z M1097.316406,608.755371
	C1073.816406,643.683105,860.207031,950,600,950S126.183594,643.683105,102.683594,608.755371
	c-3.578125-5.318848-3.578125-12.191895,0-17.510742C126.183594,556.316895,339.792969,250,600,250
	s473.816406,306.316895,497.316406,341.244629C1100.894531,596.563477,1100.894531,603.436523,1097.316406,608.755371z M600,350
	c-66.777344,0-129.557617,26.004639-176.776367,73.223389C376.004883,470.441895,350,533.222656,350,600
	s26.004883,129.558105,73.223633,176.776611C470.442383,823.995361,533.222656,850,600,850
	s129.557617-26.004639,176.776367-73.223389C823.995117,729.558105,850,666.777344,850,600
	s-26.004883-129.558105-73.223633-176.776611C729.557617,376.004639,666.777344,350,600,350z M600,750
	c-82.709961,0-150-67.289551-150-150s67.290039-150,150-150s150,67.289551,150,150S682.709961,750,600,750z"/>
</svg>
