<?xml version="1.0" encoding="UTF-8" standalone="no"?><!DOCTYPE svg PUBLIC "-//W3C//DTD SVG 1.1//EN" "http://www.w3.org/Graphics/SVG/1.1/DTD/svg11.dtd"><svg width="1200px" height="1200px" version="1.1" xmlns="http://www.w3.org/2000/svg" xmlns:xlink="http://www.w3.org/1999/xlink" xml:space="preserve" xmlns:serif="http://www.serif.com/" style="fill-rule:evenodd;clip-rule:evenodd;stroke-linejoin:round;stroke-miterlimit:2;"><rect id="mobile" x="0" y="0" width="1200" height="1200" style="fill:none;"/><clipPath id="_clip1"><rect id="mobile1" serif:id="mobile" x="0" y="0" width="1200" height="1200"/></clipPath><g clip-path="url(#_clip1)"><path d="M900,0C955.228,0 1000,44.772 1000,100L1000,1100C1000,1155.228 955.228,1200 900,1200L300,1200C244.772,1200 200,1155.228 200,1100L200,100C200,44.772 244.772,0 300,-0L900,0ZM900,100L300,100L300,1100L900,1100L900,100ZM450,1000C422.404,1000 400,977.596 400,950C400,922.404 422.404,900 450,900L750,900C777.596,900 800,922.404 800,950C800,977.596 777.596,1000 750,1000L450,1000Z"/></g></svg>