<?xml version="1.0" encoding="UTF-8" standalone="no"?><!DOCTYPE svg PUBLIC "-//W3C//DTD SVG 1.1//EN" "http://www.w3.org/Graphics/SVG/1.1/DTD/svg11.dtd"><svg width="1200px" height="1200px" version="1.1" xmlns="http://www.w3.org/2000/svg" xmlns:xlink="http://www.w3.org/1999/xlink" xml:space="preserve" xmlns:serif="http://www.serif.com/" style="fill-rule:evenodd;clip-rule:evenodd;stroke-linejoin:round;stroke-miterlimit:2;"><rect id="tablet" x="0" y="0" width="1200" height="1200" style="fill:none;"/><clipPath id="_clip1"><rect id="tablet1" serif:id="tablet" x="0" y="0" width="1200" height="1200"/></clipPath><g clip-path="url(#_clip1)"><path d="M900,0C982.843,0 1050,67.157 1050,150L1050,1050C1050,1132.843 982.843,1200 900,1200L300,1200C217.157,1200 150,1132.843 150,1050L150,150C150,67.157 217.157,0 300,-0L900,0ZM900,100L300,100C272.386,100 250,122.386 250,150L250,1050C250,1077.614 272.386,1100 300,1100L900,1100C927.614,1100 950,1077.614 950,1050L950,150C950,122.386 927.614,100 900,100ZM549,1000C521.404,1000 499,977.596 499,950C499,922.404 521.404,900 549,900L650,900C677.596,900 700,922.404 700,950C700,977.596 677.596,1000 650,1000L549,1000Z"/></g></svg>