<?xml version="1.0" encoding="utf-8"?>
<!-- Generator: Adobe Illustrator 21.0.0, SVG Export Plug-In . SVG Version: 6.00 Build 0)  -->
<svg version="1.1" id="圖層_1" xmlns="http://www.w3.org/2000/svg" xmlns:xlink="http://www.w3.org/1999/xlink" x="0px" y="0px"
	 viewBox="0 0 90 90" style="enable-background:new 0 0 90 90;" xml:space="preserve">
<style type="text/css">
	.st0{fill:none;stroke:#000000;stroke-width:12;stroke-miterlimit:10;}
	.st1{fill:#040000;}
</style>
<path d="M78,6c-2.5,0-56.1,0-61.4,0C13.1,6,9,5.4,6.9,8.9C6,10.2,6,11.7,6,13.2c0,1.6,0,61.9,0,63.5c0,1.4,0,2.8,0.7,4.1
	c2,3.8,6.2,3.2,9.8,3.2c5.3,0,59,0.1,61.5,0c3.4-0.1,6-2.8,6-6.2c0-1,0-62.6,0-65.7C84,8.8,81.4,6,78,6z M65.2,67.5
	c-6.6,6.2-16.1,8.6-24.9,7c-7.9-1.4-15.1-6.1-19.5-12.8c-5.2-7.7-6.5-17.6-3.5-26.4C20.3,26.2,27.8,19,37,16.3
	c9.9-2.9,20.7-0.5,28.4,6.2l-8.7,8.7c-4.8-3.9-11.5-5-17.3-2.8c-5.5,2.1-9.7,6.9-11,12.7c-1.3,5.6,0.3,11.7,4.3,16
	c3.8,4.1,9.3,6,14.8,5.6c6.8-0.5,12.9-4.6,14.3-11.5H45.7V39.5h28C75.9,49.4,72.6,60.6,65.2,67.5z"/>
</svg>
