<?xml version="1.0" encoding="utf-8"?>
<!-- Generator: Adobe Illustrator 21.0.0, SVG Export Plug-In . SVG Version: 6.00 Build 0)  -->
<svg version="1.1" id="圖層_1" xmlns="http://www.w3.org/2000/svg" xmlns:xlink="http://www.w3.org/1999/xlink" x="0px" y="0px"
	 viewBox="0 0 90 90" style="enable-background:new 0 0 90 90;" xml:space="preserve">
<style type="text/css">
	.st0{fill:#040000;}
</style>
<path d="M84,24H72V6c0-3.3-2.7-6-6-6H24c-3.3,0-6,2.7-6,6v18H6c-3.3,0-6,2.7-6,6v30c0,3.3,2.7,6,6,6h12v18c0,3.3,2.7,6,6,6h42
	c3.3,0,6-2.7,6-6V66h12c3.3,0,6-2.7,6-6V30C90,26.7,87.3,24,84,24z M24,6h42v18H24V6z M66,84H24V54h42V84z M84,60H72V48H18v12H6V30
	h78V60z M60.5,66.5h-31v-6h31V66.5z M41.5,78.5h-12v-6h12V78.5z M60,36h12v6H60V36z"/>
</svg>
