<?xml version="1.0" encoding="utf-8"?>
<!-- Generator: Adobe Illustrator 21.0.0, SVG Export Plug-In . SVG Version: 6.00 Build 0)  -->
<svg version="1.1" id="圖層_1" xmlns="http://www.w3.org/2000/svg" xmlns:xlink="http://www.w3.org/1999/xlink" x="0px" y="0px"
	 viewBox="0 0 90 90" style="enable-background:new 0 0 90 90;" xml:space="preserve">
<style type="text/css">
	.st0{fill:none;stroke:#000000;stroke-width:12;stroke-miterlimit:10;}
	.st1{fill:#040000;}
</style>
<path d="M12,0v90h66V0H12z M48,12h6v6h-6V12z M48,24h6v6h-6V24z M48,36h6v6h-6V36z M48,48h6v6h-6V48z M48,60h6v6h-6V60z M36,12h6v6
	h-6V12z M36,24h6v6h-6V24z M36,36h6v6h-6V36z M36,48h6v6h-6V48z M36,60h6v6h-6V60z M24,12h6v6h-6V12z M24,24h6v6h-6V24z M24,36h6v6
	h-6V36z M24,48h6v6h-6V48z M24,60h6v6h-6V60z M60,84H30V72h30V84z M66,66h-6v-6h6V66z M66,54h-6v-6h6V54z M66,42h-6v-6h6V42z M66,30
	h-6v-6h6V30z M66,18h-6v-6h6V18z"/>
</svg>
