<?xml version="1.0" encoding="utf-8"?>
<!-- Generator: Adobe Illustrator 21.0.0, SVG Export Plug-In . SVG Version: 6.00 Build 0)  -->
<svg version="1.1" id="圖層_1" xmlns="http://www.w3.org/2000/svg" xmlns:xlink="http://www.w3.org/1999/xlink" x="0px" y="0px"
	 viewBox="0 0 90 90" style="enable-background:new 0 0 90 90;" xml:space="preserve">
<style type="text/css">
	.st0{fill:none;stroke:#000000;stroke-width:12;stroke-miterlimit:10;}
	.st1{fill:#040000;}
</style>
<path d="M78,24H12c-3.3,0-6-2.7-6-6v-6c0-3.3,2.7-6,6-6h66c3.3,0,6,2.7,6,6v6C84,21.3,81.3,24,78,24z"/>
<path d="M78,84H12c-3.3,0-6-2.7-6-6v-6c0-3.3,2.7-6,6-6h66c3.3,0,6,2.7,6,6v6C84,81.3,81.3,84,78,84z"/>
<path d="M78,54H12c-3.3,0-6-2.7-6-6v-6c0-3.3,2.7-6,6-6h66c3.3,0,6,2.7,6,6v6C84,51.3,81.3,54,78,54z"/>
</svg>
