<?xml version="1.0" encoding="utf-8"?>
<!-- Generator: Adobe Illustrator 21.0.0, SVG Export Plug-In . SVG Version: 6.00 Build 0)  -->
<svg version="1.1" id="圖層_1" xmlns="http://www.w3.org/2000/svg" xmlns:xlink="http://www.w3.org/1999/xlink" x="0px" y="0px"
	 viewBox="0 0 90 90" style="enable-background:new 0 0 90 90;" xml:space="preserve">
<style type="text/css">
	.st0{fill:#040000;}
</style>
<path d="M72.6,17.4C65.2,10.1,55.4,6,45,6c-9.4,0-18.2,3.3-25.3,9.3L7.4,3l0,33l33,0L28.3,23.8c10.6-8.4,26.1-7.7,35.8,2.1
	c10.5,10.5,10.5,27.7,0,38.2s-27.7,10.5-38.2,0c-2.5-2.5-4.5-5.5-5.9-8.8L9,59.9c2,4.7,4.8,9,8.5,12.7C24.8,79.9,34.6,84,45,84
	s20.2-4.1,27.6-11.4C87.8,57.4,87.8,32.6,72.6,17.4z"/>
</svg>
