<?xml version="1.0" encoding="utf-8"?>
<!-- Generator: Adobe Illustrator 21.0.0, SVG Export Plug-In . SVG Version: 6.00 Build 0)  -->
<svg version="1.1" id="圖層_1" xmlns="http://www.w3.org/2000/svg" xmlns:xlink="http://www.w3.org/1999/xlink" x="0px" y="0px"
	 viewBox="0 0 90 90" enable-background="new 0 0 90 90" xml:space="preserve">
<path d="M78,21H12c-3.3,0-6-2.7-6-6v0c0-3.3,2.7-6,6-6h66c3.3,0,6,2.7,6,6v0C84,18.3,81.3,21,78,21z"/>
<path d="M78,81H12c-3.3,0-6-2.7-6-6v0c0-3.3,2.7-6,6-6h66c3.3,0,6,2.7,6,6v0C84,78.3,81.3,81,78,81z"/>
<path d="M78,51H12c-3.3,0-6-2.7-6-6v0c0-3.3,2.7-6,6-6h66c3.3,0,6,2.7,6,6v0C84,48.3,81.3,51,78,51z"/>
</svg>
