<?xml version="1.0" encoding="utf-8"?>
<!-- Generator: Adobe Illustrator 21.0.0, SVG Export Plug-In . SVG Version: 6.00 Build 0)  -->
<svg version="1.1" id="圖層_1" xmlns="http://www.w3.org/2000/svg" xmlns:xlink="http://www.w3.org/1999/xlink" x="0px" y="0px"
	 viewBox="0 0 90 90" enable-background="new 0 0 90 90" xml:space="preserve">
<path d="M24,75c-0.9,0-1.8-0.4-2.4-1.2l-21-27c-0.8-1.1-0.8-2.6,0-3.7l21-27c1-1.3,2.9-1.5,4.2-0.5c1.3,1,1.5,2.9,0.5,4.2L6.8,45
	l19.6,25.2c1,1.3,0.8,3.2-0.5,4.2C25.3,74.8,24.6,75,24,75z M68.4,73.8l21-27c0.8-1.1,0.8-2.6,0-3.7l-21-27c-1-1.3-2.9-1.5-4.2-0.5
	c-1.3,1-1.5,2.9-0.5,4.2L83.2,45L63.6,70.2c-1,1.3-0.8,3.2,0.5,4.2c0.5,0.4,1.2,0.6,1.8,0.6C66.9,75,67.8,74.6,68.4,73.8z
	 M35.8,81.9l24-72c0.5-1.6-0.3-3.3-1.9-3.8c-1.6-0.5-3.3,0.3-3.8,1.9l-24,72c-0.5,1.6,0.3,3.3,1.9,3.8C32.4,84,32.7,84,33,84
	C34.3,84,35.4,83.2,35.8,81.9z"/>
</svg>
