<?xml version="1.0" encoding="utf-8"?>
<!-- Generator: Adobe Illustrator 21.0.0, SVG Export Plug-In . SVG Version: 6.00 Build 0)  -->
<svg version="1.1" id="圖層_1" xmlns="http://www.w3.org/2000/svg" xmlns:xlink="http://www.w3.org/1999/xlink" x="0px" y="0px"
	 viewBox="0 0 90 90" style="enable-background:new 0 0 90 90;" xml:space="preserve">
<style type="text/css">
	.st0{fill:none;stroke:#000000;stroke-width:12;stroke-miterlimit:10;}
	.st1{fill:#040000;}
</style>
<path d="M18,66h-6c-3.3,0-6-2.7-6-6V12c0-3.3,2.7-6,6-6h48c3.3,0,6,2.7,6,6v6h-6v-6H12v48h6V66z M78,30H30v48h48V30 M78,24
	c3.3,0,6,2.7,6,6v48c0,3.3-2.7,6-6,6H30c-3.3,0-6-2.7-6-6V30c0-3.3,2.7-6,6-6H78L78,24z"/>
</svg>
