<?xml version="1.0" encoding="utf-8"?>
<!-- Generator: Adobe Illustrator 21.0.0, SVG Export Plug-In . SVG Version: 6.00 Build 0)  -->
<svg version="1.1" id="圖層_1" xmlns="http://www.w3.org/2000/svg" xmlns:xlink="http://www.w3.org/1999/xlink" x="0px" y="0px"
	 viewBox="0 0 90 90" style="enable-background:new 0 0 90 90;" xml:space="preserve">
<style type="text/css">
	.st0{fill:none;stroke:#000000;stroke-width:12;stroke-miterlimit:10;}
	.st1{fill:#040000;}
</style>
<path d="M49.2,13.9l24,24c2.3,2.3,2.3,6.1,0,8.5c-2.3,2.3-6.1,2.3-8.5,0L45,26.6L25.3,46.4c-2.3,2.3-6.1,2.3-8.5,0
	c-2.3-2.3-2.3-6.1,0-8.5l24-24c1.2-1.2,2.7-1.8,4.2-1.8S48.1,12.7,49.2,13.9z M45,42c-1.5,0-3.1,0.6-4.2,1.8l-24,24
	c-2.3,2.3-2.3,6.1,0,8.5c2.3,2.3,6.1,2.3,8.5,0L45,56.5l19.7,19.7c2.3,2.3,6.1,2.3,8.5,0c2.3-2.3,2.3-6.1,0-8.5l-24-24
	C48.1,42.6,46.5,42,45,42z"/>
</svg>
