<?xml version="1.0" encoding="utf-8"?>
<!-- Generator: Adobe Illustrator 21.0.0, SVG Export Plug-In . SVG Version: 6.00 Build 0)  -->
<svg version="1.1" id="圖層_1" xmlns="http://www.w3.org/2000/svg" xmlns:xlink="http://www.w3.org/1999/xlink" x="0px" y="0px"
	 viewBox="0 0 90 90" style="enable-background:new 0 0 90 90;" xml:space="preserve">
<style type="text/css">
	.st0{fill:none;stroke:#000000;stroke-width:12;stroke-miterlimit:10;}
	.st1{fill:#040000;}
</style>
<path d="M40.8,76.2l-24-24c-2.3-2.3-2.3-6.1,0-8.5c2.3-2.3,6.1-2.3,8.5,0L45,63.5l19.7-19.7c2.3-2.3,6.1-2.3,8.5,0
	c2.3,2.3,2.3,6.1,0,8.5l-24,24C48.1,77.4,46.5,78,45,78S41.9,77.4,40.8,76.2z M45,48.1c1.5,0,3.1-0.6,4.2-1.8l24-24
	c2.3-2.3,2.3-6.1,0-8.5c-2.3-2.3-6.1-2.3-8.5,0L45,33.6L25.3,13.9c-2.3-2.3-6.1-2.3-8.5,0c-2.3,2.3-2.3,6.1,0,8.5l24,24
	C41.9,47.5,43.5,48.1,45,48.1z"/>
</svg>
