<?xml version="1.0" encoding="utf-8"?>
<!-- Generator: Adobe Illustrator 21.0.0, SVG Export Plug-In . SVG Version: 6.00 Build 0)  -->
<svg version="1.1" id="圖層_1" xmlns="http://www.w3.org/2000/svg" xmlns:xlink="http://www.w3.org/1999/xlink" x="0px" y="0px"
	 viewBox="0 0 90 90" style="enable-background:new 0 0 90 90;" xml:space="preserve">
<style type="text/css">
	.st0{fill:none;stroke:#000000;stroke-width:12;stroke-miterlimit:10;}
	.st1{fill:#040000;}
</style>
<path d="M77.9,45.1c0,1.5-0.6,3.1-1.8,4.2l-24,24c-2.3,2.3-6.1,2.3-8.5,0c-2.3-2.3-2.3-6.1,0-8.5l19.7-19.7L43.7,25.3
	c-2.3-2.3-2.3-6.1,0-8.5c2.3-2.3,6.1-2.3,8.5,0l24,24C77.3,42,77.9,43.5,77.9,45.1z M46.3,40.8l-24-24c-2.3-2.3-6.1-2.3-8.5,0
	c-2.3,2.3-2.3,6.1,0,8.5l19.7,19.7L13.8,64.8c-2.3,2.3-2.3,6.1,0,8.5c2.3,2.3,6.1,2.3,8.5,0l24-24c1.2-1.2,1.8-2.7,1.8-4.2
	S47.5,42,46.3,40.8z"/>
</svg>
