<?xml version="1.0" encoding="utf-8"?>
<!-- Generator: Adobe Illustrator 21.0.0, SVG Export Plug-In . SVG Version: 6.00 Build 0)  -->
<svg version="1.1" id="圖層_1" xmlns="http://www.w3.org/2000/svg" xmlns:xlink="http://www.w3.org/1999/xlink" x="0px" y="0px"
	 viewBox="0 0 90 90" style="enable-background:new 0 0 90 90;" xml:space="preserve">
<style type="text/css">
	.st0{fill:none;stroke:#000000;stroke-width:12;stroke-miterlimit:10;}
	.st1{fill:#040000;}
</style>
<path d="M66,0c-3.3,0-6,2.7-6,6H30c0-3.3-2.7-6-6-6s-6,2.7-6,6v24c0,3.3,2.7,6,6,6s6-2.7,6-6h12v18c-3.3,0-6,2.7-6,6v30
	c0,3.3,2.7,6,6,6h6c3.3,0,6-2.7,6-6V54c0-3.3-2.7-6-6-6V30h12c0,3.3,2.7,6,6,6s6-2.7,6-6V6C72,2.7,69.3,0,66,0z"/>
</svg>
