<?xml version="1.0" encoding="utf-8"?>
<!-- Generator: Adobe Illustrator 21.0.0, SVG Export Plug-In . SVG Version: 6.00 Build 0)  -->
<svg version="1.1" id="圖層_1" xmlns="http://www.w3.org/2000/svg" xmlns:xlink="http://www.w3.org/1999/xlink" x="0px" y="0px"
	 viewBox="0 0 90 90" enable-background="new 0 0 90 90" xml:space="preserve">
<path d="M77.7,16.3l-4-4c-2.1-2.1-5.6-2.1-7.7,0l-21,21l-21-21c-2.1-2.1-5.6-2.1-7.7,0l-4,4c-2.1,2.1-2.1,5.6,0,7.7l21,21l-21,21
	c-2.1,2.1-2.1,5.6,0,7.7l4,4c2.1,2.1,5.6,2.1,7.7,0l21-21l21,21c2.1,2.1,5.6,2.1,7.7,0l4-4c2.1-2.1,2.1-5.6,0-7.7l-21-21l21-21
	C79.8,21.9,79.8,18.4,77.7,16.3z"/>
</svg>
