<?xml version="1.0" encoding="utf-8"?>
<!-- Generator: Adobe Illustrator 21.0.0, SVG Export Plug-In . SVG Version: 6.00 Build 0)  -->
<svg version="1.1" id="圖層_1" xmlns="http://www.w3.org/2000/svg" xmlns:xlink="http://www.w3.org/1999/xlink" x="0px" y="0px"
	 viewBox="0 0 90 90" enable-background="new 0 0 90 90" xml:space="preserve">
<path d="M78,36H54V12c0-3.3-2.7-6-6-6h-6c-3.3,0-6,2.7-6,6v24H12c-3.3,0-6,2.7-6,6v6c0,3.3,2.7,6,6,6h24v24c0,3.3,2.7,6,6,6h6
	c3.3,0,6-2.7,6-6V54h24c3.3,0,6-2.7,6-6v-6C84,38.7,81.3,36,78,36z"/>
</svg>
