<?xml version="1.0" encoding="utf-8"?>
<!-- Generator: Adobe Illustrator 21.0.0, SVG Export Plug-In . SVG Version: 6.00 Build 0)  -->
<svg version="1.1" id="圖層_1" xmlns="http://www.w3.org/2000/svg" xmlns:xlink="http://www.w3.org/1999/xlink" x="0px" y="0px"
	 viewBox="0 0 90 90" enable-background="new 0 0 90 90" xml:space="preserve">
<path d="M71.9,36H30V16c0-2.2,1.8-4,4-4h22c2.2,0,4,1.8,4,4v1.8c0,3.3,2.7,6,6,6s6-2.7,6-6V16c0-8.8-7.2-16-16-16H34
	c-8.8,0-16,7.2-16,16v20h0.1c-3.4,0-6.1,2.7-6.1,6.1v41.8c0,3.4,2.7,6.1,6.1,6.1h53.8c3.4,0,6.1-2.7,6.1-6.1V42.1
	C78,38.7,75.3,36,71.9,36z"/>
</svg>
