<?xml version="1.0" encoding="utf-8"?>
<!-- Generator: Adobe Illustrator 21.0.0, SVG Export Plug-In . SVG Version: 6.00 Build 0)  -->
<svg version="1.1" id="圖層_1" xmlns="http://www.w3.org/2000/svg" xmlns:xlink="http://www.w3.org/1999/xlink" x="0px" y="0px"
	 viewBox="0 0 90 90" style="enable-background:new 0 0 90 90;" xml:space="preserve">
<style type="text/css">
	.st0{fill:none;stroke:#000000;stroke-width:12;stroke-miterlimit:10;}
	.st1{fill:#040000;}
</style>
<path d="M71.5,5.5v78h-54v-78H71.5 M71.5-0.5h-54c-3.3,0-6,2.7-6,6v78c0,3.3,2.7,6,6,6h54c3.3,0,6-2.7,6-6v-78
	C77.5,2.2,74.8-0.5,71.5-0.5L71.5-0.5z M63,12H27v6h36V12z M63,24H27v6h36V24z M63,36H27v6h36V36z M63,48H27v6h36V48z M63,60H27v6
	h36V60z M45,72H27v6h18V72z"/>
</svg>
